  0
SECTION
  2
HEADER
  9
$ACADVER
  1
AC1015
  9
$ACADMAINTVER
 70
     6
  9
$DWGCODEPAGE
  3
ANSI_1252
  9
$INSBASE
 10
0.0
 20
0.0
 30
0.0
  9
$EXTMIN
 10
-392.9226065181
 20
-412.5
 30
0.0
  9
$EXTMAX
 10
392.9226065181
 20
412.5
 30
0.0
  9
$LIMMIN
 10
0.0
 20
0.0
  9
$LIMMAX
 10
420.0
 20
297.0
  9
$ORTHOMODE
 70
     0
  9
$REGENMODE
 70
     1
  9
$FILLMODE
 70
     1
  9
$QTEXTMODE
 70
     0
  9
$MIRRTEXT
 70
     1
  9
$LTSCALE
 40
1.0
  9
$ATTMODE
 70
     1
  9
$TEXTSIZE
 40
3.5
  9
$TRACEWID
 40
1.0
  9
$TEXTSTYLE
  7
Standard
  9
$CLAYER
  8
0
  9
$CELTYPE
  6
ByLayer
  9
$CECOLOR
 62
   256
  9
$CELTSCALE
 40
1.0
  9
$DISPSILH
 70
     0
  9
$DIMSCALE
 40
1.0
  9
$DIMASZ
 40
3.556
  9
$DIMEXO
 40
0.0
  9
$DIMDLI
 40
3.75
  9
$DIMRND
 40
0.0
  9
$DIMDLE
 40
0.0
  9
$DIMEXE
 40
1.0
  9
$DIMTP
 40
0.0
  9
$DIMTM
 40
0.0
  9
$DIMTXT
 40
3.5
  9
$DIMCEN
 40
2.5
  9
$DIMTSZ
 40
0.0
  9
$DIMTOL
 70
     0
  9
$DIMLIM
 70
     0
  9
$DIMTIH
 70
     1
  9
$DIMTOH
 70
     1
  9
$DIMSE1
 70
     0
  9
$DIMSE2
 70
     0
  9
$DIMTAD
 70
     1
  9
$DIMZIN
 70
     1
  9
$DIMBLK
  1

  9
$DIMASO
 70
     1
  9
$DIMSHO
 70
     1
  9
$DIMPOST
  1

  9
$DIMAPOST
  1

  9
$DIMALT
 70
     0
  9
$DIMALTD
 70
     3
  9
$DIMALTF
 40
0.0393700787
  9
$DIMLFAC
 40
1.0
  9
$DIMTOFL
 70
     1
  9
$DIMTVP
 40
0.0
  9
$DIMTIX
 70
     0
  9
$DIMSOXD
 70
     0
  9
$DIMSAH
 70
     0
  9
$DIMBLK1
  1

  9
$DIMBLK2
  1

  9
$DIMSTYLE
  2
ISO-25
  9
$DIMCLRD
 70
     0
  9
$DIMCLRE
 70
     0
  9
$DIMCLRT
 70
     0
  9
$DIMTFAC
 40
1.0
  9
$DIMGAP
 40
1.524
  9
$DIMJUST
 70
     0
  9
$DIMSD1
 70
     0
  9
$DIMSD2
 70
     0
  9
$DIMTOLJ
 70
     0
  9
$DIMTZIN
 70
     1
  9
$DIMALTZ
 70
     0
  9
$DIMALTTZ
 70
     0
  9
$DIMUPT
 70
     0
  9
$DIMDEC
 70
     2
  9
$DIMTDEC
 70
     2
  9
$DIMALTU
 70
     2
  9
$DIMALTTD
 70
     3
  9
$DIMTXSTY
  7
Standard
  9
$DIMAUNIT
 70
     0
  9
$DIMADEC
 70
     2
  9
$DIMALTRND
 40
0.0
  9
$DIMAZIN
 70
     0
  9
$DIMDSEP
 70
    44
  9
$DIMATFIT
 70
     3
  9
$DIMFRAC
 70
     0
  9
$DIMLDRBLK
  1

  9
$DIMLUNIT
 70
     2
  9
$DIMLWD
 70
    -2
  9
$DIMLWE
 70
    -2
  9
$DIMTMOVE
 70
     0
  9
$LUNITS
 70
     2
  9
$LUPREC
 70
     2
  9
$SKETCHINC
 40
1.0
  9
$FILLETRAD
 40
0.0
  9
$AUNITS
 70
     0
  9
$AUPREC
 70
     2
  9
$MENU
  1
.
  9
$ELEVATION
 40
0.0
  9
$PELEVATION
 40
0.0
  9
$THICKNESS
 40
0.0
  9
$LIMCHECK
 70
     0
  9
$CHAMFERA
 40
0.0
  9
$CHAMFERB
 40
0.0
  9
$CHAMFERC
 40
0.0
  9
$CHAMFERD
 40
0.0
  9
$SKPOLY
 70
     0
  9
$TDCREATE
 40
2460768.492763357
  9
$TDUCREATE
 40
2460768.70109669
  9
$TDUPDATE
 40
2460768.492860127
  9
$TDUUPDATE
 40
2460768.701193461
  9
$TDINDWG
 40
0.0000000116
  9
$TDUSRTIMER
 40
0.0000000116
  9
$USRTIMER
 70
     1
  9
$ANGBASE
 50
0.0
  9
$ANGDIR
 70
     0
  9
$PDMODE
 70
     0
  9
$PDSIZE
 40
-1.0
  9
$PLINEWID
 40
0.0
  9
$SPLFRAME
 70
     0
  9
$SPLINETYPE
 70
     6
  9
$SPLINESEGS
 70
     8
  9
$HANDSEED
  5
274
  9
$SURFTAB1
 70
     6
  9
$SURFTAB2
 70
     6
  9
$SURFTYPE
 70
     6
  9
$SURFU
 70
     6
  9
$SURFV
 70
     6
  9
$UCSBASE
  2

  9
$UCSNAME
  2

  9
$UCSORG
 10
0.0
 20
0.0
 30
0.0
  9
$UCSXDIR
 10
1.0
 20
0.0
 30
0.0
  9
$UCSYDIR
 10
0.0
 20
1.0
 30
0.0
  9
$UCSORTHOREF
  2

  9
$UCSORTHOVIEW
 70
     0
  9
$UCSORGTOP
 10
0.0
 20
0.0
 30
0.0
  9
$UCSORGBOTTOM
 10
0.0
 20
0.0
 30
0.0
  9
$UCSORGLEFT
 10
0.0
 20
0.0
 30
0.0
  9
$UCSORGRIGHT
 10
0.0
 20
0.0
 30
0.0
  9
$UCSORGFRONT
 10
0.0
 20
0.0
 30
0.0
  9
$UCSORGBACK
 10
0.0
 20
0.0
 30
0.0
  9
$PUCSBASE
  2

  9
$PUCSNAME
  2

  9
$PUCSORG
 10
0.0
 20
0.0
 30
0.0
  9
$PUCSXDIR
 10
1.0
 20
0.0
 30
0.0
  9
$PUCSYDIR
 10
0.0
 20
1.0
 30
0.0
  9
$PUCSORTHOREF
  2

  9
$PUCSORTHOVIEW
 70
     0
  9
$PUCSORGTOP
 10
0.0
 20
0.0
 30
0.0
  9
$PUCSORGBOTTOM
 10
0.0
 20
0.0
 30
0.0
  9
$PUCSORGLEFT
 10
0.0
 20
0.0
 30
0.0
  9
$PUCSORGRIGHT
 10
0.0
 20
0.0
 30
0.0
  9
$PUCSORGFRONT
 10
0.0
 20
0.0
 30
0.0
  9
$PUCSORGBACK
 10
0.0
 20
0.0
 30
0.0
  9
$USERI1
 70
     0
  9
$USERI2
 70
     0
  9
$USERI3
 70
     0
  9
$USERI4
 70
     0
  9
$USERI5
 70
     0
  9
$USERR1
 40
0.0
  9
$USERR2
 40
0.0
  9
$USERR3
 40
0.0
  9
$USERR4
 40
0.0
  9
$USERR5
 40
0.0
  9
$WORLDVIEW
 70
     1
  9
$SHADEDGE
 70
     3
  9
$SHADEDIF
 70
    70
  9
$TILEMODE
 70
     1
  9
$MAXACTVP
 70
    64
  9
$PINSBASE
 10
0.0
 20
0.0
 30
0.0
  9
$PLIMCHECK
 70
     0
  9
$PEXTMIN
 10
1.0000000000E+20
 20
1.0000000000E+20
 30
1.0000000000E+20
  9
$PEXTMAX
 10
-1.0000000000E+20
 20
-1.0000000000E+20
 30
-1.0000000000E+20
  9
$PLIMMIN
 10
0.0
 20
0.0
  9
$PLIMMAX
 10
420.0
 20
297.0
  9
$UNITMODE
 70
     0
  9
$VISRETAIN
 70
     1
  9
$PLINEGEN
 70
     0
  9
$PSLTSCALE
 70
     1
  9
$TREEDEPTH
 70
  3020
  9
$CMLSTYLE
  2
Standard
  9
$CMLJUST
 70
     0
  9
$CMLSCALE
 40
20.0
  9
$PROXYGRAPHICS
 70
     1
  9
$MEASUREMENT
 70
     1
  9
$CELWEIGHT
370
    -1
  9
$ENDCAPS
280
     0
  9
$JOINSTYLE
280
     0
  9
$LWDISPLAY
290
     1
  9
$INSUNITS
 70
     4
  9
$HYPERLINKBASE
  1

  9
$STYLESHEET
  1

  9
$XEDIT
290
     1
  9
$CEPSNTYPE
380
     0
  9
$PSTYLEMODE
290
     1
  9
$FINGERPRINTGUID
  2
{533fda62-1695-4d3c-860d-b06d002532ab}
  9
$VERSIONGUID
  2
{FAEB1C32-E019-11D5-929B-00C0DF256EC4}
  9
$EXTNAMES
290
     1
  9
$PSVPSCALE
 40
0.0
  9
$OLESTARTUP
290
     0
  0
ENDSEC
  0
SECTION
  2
CLASSES
  0
CLASS
  1
ACDBDICTIONARYWDFLT
  2
AcDbDictionaryWithDefault
  3
ObjectDBX Classes
 90
        0
280
     0
281
     0
  0
CLASS
  1
VISUALSTYLE
  2
AcDbVisualStyle
  3
ObjectDBX Classes
 90
     4095
280
     0
281
     0
  0
CLASS
  1
MATERIAL
  2
AcDbMaterial
  3
ObjectDBX Classes
 90
     1153
280
     0
281
     0
  0
CLASS
  1
SCALE
  2
AcDbScale
  3
ObjectDBX Classes
 90
     1153
280
     0
281
     0
  0
CLASS
  1
TABLESTYLE
  2
AcDbTableStyle
  3
ObjectDBX Classes
 90
     4095
280
     0
281
     0
  0
CLASS
  1
MLEADERSTYLE
  2
AcDbMLeaderStyle
  3
ACDB_MLEADERSTYLE_CLASS
 90
     4095
280
     0
281
     0
  0
CLASS
  1
SUN
  2
AcDbSun
  3
SCENEOE
 90
     1153
280
     0
281
     0
  0
CLASS
  1
ACDBPLACEHOLDER
  2
AcDbPlaceHolder
  3
ObjectDBX Classes
 90
        0
280
     0
281
     0
  0
CLASS
  1
LAYOUT
  2
AcDbLayout
  3
ObjectDBX Classes
 90
        0
280
     0
281
     0
  0
ENDSEC
  0
SECTION
  2
TABLES
  0
TABLE
  2
VPORT
  5
8
330
0
100
AcDbSymbolTable
 70
     1
  0
VPORT
  5
29
330
8
100
AcDbSymbolTableRecord
100
AcDbViewportTableRecord
  2
*Active
 70
     0
 10
0.0
 20
0.0
 11
1.0
 21
1.0
 12
0.0
 22
0.0
 13
0.0
 23
0.0
 14
10.0
 24
10.0
 15
10.0
 25
10.0
 16
0.0
 26
0.0
 36
1.0
 17
0.0
 27
0.0
 37
0.0
 40
841.5
 41
0.9525396522
 42
50.0
 43
0.0
 44
0.0
 50
0.0
 51
0.0
 71
     0
 72
   100
 73
     1
 74
     3
 75
     0
 76
     0
 77
     0
 78
     0
281
     0
 65
     1
110
0.0
120
0.0
130
0.0
111
1.0
121
0.0
131
0.0
112
0.0
122
1.0
132
0.0
 79
     0
146
0.0
  0
ENDTAB
  0
TABLE
  2
LTYPE
  5
5
330
0
100
AcDbSymbolTable
 70
     6
  0
LTYPE
  5
14
330
5
100
AcDbSymbolTableRecord
100
AcDbLinetypeTableRecord
  2
ByBlock
 70
     0
  3

 72
    65
 73
     0
 40
0.0
  0
LTYPE
  5
15
330
5
100
AcDbSymbolTableRecord
100
AcDbLinetypeTableRecord
  2
ByLayer
 70
     0
  3

 72
    65
 73
     0
 40
0.0
  0
LTYPE
  5
16
330
5
100
AcDbSymbolTableRecord
100
AcDbLinetypeTableRecord
  2
Continuous
 70
     0
  3
Solid line
 72
    65
 73
     0
 40
0.0
  0
LTYPE
  5
5E
330
5
100
AcDbSymbolTableRecord
100
AcDbLinetypeTableRecord
  2
HIDDEN
 70
     0
  3
Hidden __ __ __ __ __ __ __ __ __ __ __ __ __ __
 72
    65
 73
     2
 40
1.905
 49
1.27
 74
     0
 49
-0.635
 74
     0
  0
LTYPE
  5
5F
330
5
100
AcDbSymbolTableRecord
100
AcDbLinetypeTableRecord
  2
PHANTOM
 70
     0
  3
Phantom ______  __  __  ______  __  __  ______
 72
    65
 73
     6
 40
12.7
 49
6.35
 74
     0
 49
-1.27
 74
     0
 49
1.27
 74
     0
 49
-1.27
 74
     0
 49
1.27
 74
     0
 49
-1.27
 74
     0
  0
LTYPE
  5
60
330
5
100
AcDbSymbolTableRecord
100
AcDbLinetypeTableRecord
  2
CENTER
 70
     0
  3
Center ____ _ ____ _ ____ _ ____ _ ____ _ ____
 72
    65
 73
     4
 40
10.16
 49
6.35
 74
     0
 49
-1.27
 74
     0
 49
1.27
 74
     0
 49
-1.27
 74
     0
  0
LTYPE
  5
61
330
5
100
AcDbSymbolTableRecord
100
AcDbLinetypeTableRecord
  2
CENTERX2
 70
     0
  3
Center (2x) ________  __  ________  __  _____
 72
    65
 73
     4
 40
20.32
 49
12.7
 74
     0
 49
-2.54
 74
     0
 49
2.54
 74
     0
 49
-2.54
 74
     0
  0
LTYPE
  5
62
330
5
100
AcDbSymbolTableRecord
100
AcDbLinetypeTableRecord
  2
DOT2
 70
     0
  3
Dot (.5x) ........................................
 72
    65
 73
     2
 40
0.635
 49
0.0
 74
     0
 49
-0.635
 74
     0
  0
ENDTAB
  0
TABLE
  2
LAYER
  5
2
330
0
100
AcDbSymbolTable
 70
     1
  0
LAYER
  5
10
330
2
100
AcDbSymbolTableRecord
100
AcDbLayerTableRecord
  2
0
 70
     0
 62
     7
  6
Continuous
370
    -3
390
F
  0
ENDTAB
  0
TABLE
  2
STYLE
  5
3
330
0
100
AcDbSymbolTable
 70
     2
  0
STYLE
  5
11
330
3
100
AcDbSymbolTableRecord
100
AcDbTextStyleTableRecord
  2
Standard
 70
     0
 40
0.0
 41
1.0
 50
0.0
 71
     0
 42
3.5
  3
txt
  4

  0
STYLE
  5
270
330
3
100
AcDbSymbolTableRecord
100
AcDbTextStyleTableRecord
  2
SLDTEXTSTYLE0
 70
     0
 40
0.0
 41
0.7
 50
0.0
 71
     0
 42
3.5
  3
TXT
  4

  0
ENDTAB
  0
TABLE
  2
VIEW
  5
6
330
0
100
AcDbSymbolTable
 70
     0
  0
ENDTAB
  0
TABLE
  2
UCS
  5
7
330
0
100
AcDbSymbolTable
 70
     0
  0
ENDTAB
  0
TABLE
  2
APPID
  5
9
330
0
100
AcDbSymbolTable
 70
     1
  0
APPID
  5
12
330
9
100
AcDbSymbolTableRecord
100
AcDbRegAppTableRecord
  2
ACAD
 70
     0
  0
ENDTAB
  0
TABLE
  2
DIMSTYLE
  5
A
330
0
100
AcDbSymbolTable
 70
     1
100
AcDbDimStyleTable
  0
DIMSTYLE
105
27
330
A
100
AcDbSymbolTableRecord
100
AcDbDimStyleTableRecord
  2
ISO-25
 70
     0
 41
2.5
 42
0.625
 43
3.75
 44
1.25
 73
     0
 74
     0
 77
     1
 78
     8
140
2.5
141
2.5
143
0.0393700787
147
0.625
171
     3
172
     1
178
     0
271
     2
272
     2
274
     3
278
    44
283
     0
284
     8
340
11
  0
ENDTAB
  0
TABLE
  2
BLOCK_RECORD
  5
1
330
0
100
AcDbSymbolTable
 70
     1
  0
BLOCK_RECORD
  5
1F
330
1
100
AcDbSymbolTableRecord
100
AcDbBlockTableRecord
  2
*Model_Space
340
22
  0
BLOCK_RECORD
  5
1B
330
1
100
AcDbSymbolTableRecord
100
AcDbBlockTableRecord
  2
*Paper_Space
340
1E
  0
BLOCK_RECORD
  5
23
330
1
100
AcDbSymbolTableRecord
100
AcDbBlockTableRecord
  2
*Paper_Space0
340
26
  0
ENDTAB
  0
ENDSEC
  0
SECTION
  2
BLOCKS
  0
BLOCK
  5
20
330
1F
100
AcDbEntity
  8
0
100
AcDbBlockBegin
  2
*Model_Space
 70
     0
 10
0.0
 20
0.0
 30
0.0
  3
*Model_Space
  1

  0
ENDBLK
  5
21
330
1F
100
AcDbEntity
  8
0
100
AcDbBlockEnd
  0
BLOCK
  5
1C
330
1B
100
AcDbEntity
 67
     1
  8
0
100
AcDbBlockBegin
  2
*Paper_Space
 70
     0
 10
0.0
 20
0.0
 30
0.0
  3
*Paper_Space
  1

  0
ENDBLK
  5
1D
330
1B
100
AcDbEntity
 67
     1
  8
0
100
AcDbBlockEnd
  0
BLOCK
  5
24
330
23
100
AcDbEntity
  8
0
100
AcDbBlockBegin
  2
*Paper_Space0
 70
     0
 10
0.0
 20
0.0
 30
0.0
  3
*Paper_Space0
  1

  0
ENDBLK
  5
25
330
23
100
AcDbEntity
  8
0
100
AcDbBlockEnd
  0
ENDSEC
  0
SECTION
  2
ENTITIES
  0
CIRCLE
  5
63
330
1F
100
AcDbEntity
  8
0
  6
Continuous
 62
     7
370
    25
100
AcDbCircle
 10
-173.4554279515
 20
-238.74091504
 30
0.0
 40
1.39700000000002
  0
CIRCLE
  5
64
330
1F
100
AcDbEntity
  8
0
  6
Continuous
 62
     7
370
    25
100
AcDbCircle
 10
-280.6567779587
 20
-91.1909150401
 30
0.0
 40
1.396999999999991
  0
CIRCLE
  5
65
330
1F
100
AcDbEntity
  8
0
  6
Continuous
 62
     7
370
    25
100
AcDbCircle
 10
-280.6567779587
 20
91.19091504
 30
0.0
 40
1.396999999999991
  0
CIRCLE
  5
66
330
1F
100
AcDbEntity
  8
0
  6
Continuous
 62
     7
370
    25
100
AcDbCircle
 10
-173.4554279515
 20
238.74091504
 30
0.0
 40
1.396999999999991
  0
CIRCLE
  5
67
330
1F
100
AcDbEntity
  8
0
  6
Continuous
 62
     7
370
    25
100
AcDbCircle
 10
0.0
 20
295.1
 30
0.0
 40
1.396999999999982
  0
CIRCLE
  5
68
330
1F
100
AcDbEntity
  8
0
  6
Continuous
 62
     7
370
    25
100
AcDbCircle
 10
173.4554279515
 20
238.74091504
 30
0.0
 40
1.39700000000002
  0
CIRCLE
  5
69
330
1F
100
AcDbEntity
  8
0
  6
Continuous
 62
     7
370
    25
100
AcDbCircle
 10
280.6567779587
 20
91.19091504
 30
0.0
 40
1.396999999999991
  0
CIRCLE
  5
6A
330
1F
100
AcDbEntity
  8
0
  6
Continuous
 62
     7
370
    25
100
AcDbCircle
 10
280.6567779587
 20
-91.19091504
 30
0.0
 40
1.396999999999991
  0
CIRCLE
  5
6B
330
1F
100
AcDbEntity
  8
0
  6
Continuous
 62
     7
370
    25
100
AcDbCircle
 10
173.4554279515
 20
-238.74091504
 30
0.0
 40
1.396999999999991
  0
CIRCLE
  5
6C
330
1F
100
AcDbEntity
  8
0
  6
Continuous
 62
     7
370
    25
100
AcDbCircle
 10
0.0
 20
0.0
 30
0.0
 40
5.5
  0
CIRCLE
  5
6D
330
1F
100
AcDbEntity
  8
0
  6
Continuous
 62
     7
370
    25
100
AcDbCircle
 10
0.0
 20
-45.1
 30
0.0
 40
1.396999999999996
  0
CIRCLE
  5
6E
330
1F
100
AcDbEntity
  8
0
  6
Continuous
 62
     7
370
    25
100
AcDbCircle
 10
0.0
 20
-295.1
 30
0.0
 40
1.396999999999982
  0
CIRCLE
  5
6F
330
1F
100
AcDbEntity
  8
0
  6
Continuous
 62
     7
370
    25
100
AcDbCircle
 10
0.0
 20
-12.0
 30
0.0
 40
2.049999999999998
  0
CIRCLE
  5
70
330
1F
100
AcDbEntity
  8
0
  6
Continuous
 62
     7
370
    25
100
AcDbCircle
 10
0.0
 20
12.0
 30
0.0
 40
2.049999999999998
  0
CIRCLE
  5
71
330
1F
100
AcDbEntity
  8
0
  6
Continuous
 62
     7
370
    25
100
AcDbCircle
 10
229.0464734592
 20
-328.0151871422
 30
0.0
 40
1.396999999999991
  0
CIRCLE
  5
72
330
1F
100
AcDbEntity
  8
0
  6
Continuous
 62
     7
370
    25
100
AcDbCircle
 10
241.1817283748
 20
-319.1984083578
 30
0.0
 40
1.396999999999963
  0
CIRCLE
  5
73
330
1F
100
AcDbEntity
  8
0
  6
Continuous
 62
     7
370
    25
100
AcDbCircle
 10
378.1049790602
 20
-130.7397216222
 30
0.0
 40
1.396999999999991
  0
CIRCLE
  5
74
330
1F
100
AcDbEntity
  8
0
  6
Continuous
 62
     7
370
    25
100
AcDbCircle
 10
382.7402339759
 20
-116.4738738778
 30
0.0
 40
1.396999999999991
  0
CIRCLE
  5
75
330
1F
100
AcDbEntity
  8
0
  6
Continuous
 62
     7
370
    25
100
AcDbCircle
 10
382.7402339759
 20
116.4738738778
 30
0.0
 40
1.396999999999991
  0
CIRCLE
  5
76
330
1F
100
AcDbEntity
  8
0
  6
Continuous
 62
     7
370
    25
100
AcDbCircle
 10
378.1049790603
 20
130.7397216222
 30
0.0
 40
1.397000000000048
  0
CIRCLE
  5
77
330
1F
100
AcDbEntity
  8
0
  6
Continuous
 62
     7
370
    25
100
AcDbCircle
 10
241.1817283748
 20
319.1984083578
 30
0.0
 40
1.396999999999963
  0
CIRCLE
  5
78
330
1F
100
AcDbEntity
  8
0
  6
Continuous
 62
     7
370
    25
100
AcDbCircle
 10
229.0464734592
 20
328.0151871422
 30
0.0
 40
1.396999999999991
  0
CIRCLE
  5
79
330
1F
100
AcDbEntity
  8
0
  6
Continuous
 62
     7
370
    25
100
AcDbCircle
 10
7.5
 20
400.0
 30
0.0
 40
1.396999999999981
  0
CIRCLE
  5
7A
330
1F
100
AcDbEntity
  8
0
  6
Continuous
 62
     7
370
    25
100
AcDbCircle
 10
-7.5
 20
400.0
 30
0.0
 40
1.396999999999982
  0
CIRCLE
  5
7B
330
1F
100
AcDbEntity
  8
0
  6
Continuous
 62
     7
370
    25
100
AcDbCircle
 10
-229.0464734592
 20
328.0151871422
 30
0.0
 40
1.396999999999963
  0
CIRCLE
  5
7C
330
1F
100
AcDbEntity
  8
0
  6
Continuous
 62
     7
370
    25
100
AcDbCircle
 10
-241.1817283748
 20
319.1984083578
 30
0.0
 40
1.396999999999991
  0
CIRCLE
  5
7D
330
1F
100
AcDbEntity
  8
0
  6
Continuous
 62
     7
370
    25
100
AcDbCircle
 10
-378.1049790602
 20
130.7397216222
 30
0.0
 40
1.396999999999991
  0
CIRCLE
  5
7E
330
1F
100
AcDbEntity
  8
0
  6
Continuous
 62
     7
370
    25
100
AcDbCircle
 10
-382.7402339759
 20
116.4738738778
 30
0.0
 40
1.396999999999991
  0
CIRCLE
  5
7F
330
1F
100
AcDbEntity
  8
0
  6
Continuous
 62
     7
370
    25
100
AcDbCircle
 10
-382.7402339759
 20
-116.4738738778
 30
0.0
 40
1.396999999999991
  0
CIRCLE
  5
80
330
1F
100
AcDbEntity
  8
0
  6
Continuous
 62
     7
370
    25
100
AcDbCircle
 10
-378.1049790602
 20
-130.7397216222
 30
0.0
 40
1.396999999999991
  0
CIRCLE
  5
81
330
1F
100
AcDbEntity
  8
0
  6
Continuous
 62
     7
370
    25
100
AcDbCircle
 10
-241.1817283748
 20
-319.1984083578
 30
0.0
 40
1.396999999999991
  0
CIRCLE
  5
82
330
1F
100
AcDbEntity
  8
0
  6
Continuous
 62
     7
370
    25
100
AcDbCircle
 10
-229.0464734592
 20
-328.0151871422
 30
0.0
 40
1.396999999999963
  0
LINE
  5
83
330
1F
100
AcDbEntity
  8
0
  6
Continuous
 62
     7
370
    25
100
AcDbLine
 10
49.7562773044
 20
71.3545869899
 30
0.0
 11
44.6154140183
 21
64.2787957073
 31
0.0
  0
ARC
  5
84
330
1F
100
AcDbEntity
  8
0
  6
Continuous
 62
     7
370
    25
100
AcDbCircle
 10
49.3517688072
 20
71.648479616
 30
0.0
 40
0.5000000000000072
100
AcDbArc
 50
324.0
 51
38.7177593265
  0
ARC
  5
85
330
1F
100
AcDbEntity
  8
0
  6
Continuous
 62
     7
370
    25
100
AcDbCircle
 10
50.8318775813
 20
72.8350237647
 30
0.0
 40
1.397000000000002
100
AcDbArc
 50
54.0
 51
218.7177593265
  0
LINE
  5
86
330
1F
100
AcDbEntity
  8
0
  6
Continuous
 62
     7
370
    25
100
AcDbLine
 10
54.3834459348
 20
71.9814452794
 30
0.0
 11
51.6530135788
 21
73.9652205059
 31
0.0
  0
ARC
  5
87
330
1F
100
AcDbEntity
  8
0
  6
Continuous
 62
     7
370
    25
100
AcDbCircle
 10
53.5623099373
 20
70.8512485382
 30
0.0
 40
1.396999999999999
100
AcDbArc
 50
249.2822406735
 51
54.0
  0
ARC
  5
88
330
1F
100
AcDbEntity
  8
0
  6
Continuous
 62
     7
370
    25
100
AcDbCircle
 10
52.8912181576
 20
69.0769191373
 30
0.0
 40
0.5000000000000003
100
AcDbArc
 50
69.2822406735
 51
144.0
  0
LINE
  5
89
330
1F
100
AcDbEntity
  8
0
  6
Continuous
 62
     7
370
    25
100
AcDbLine
 10
52.4867096604
 20
69.3708117634
 30
0.0
 11
47.3458463743
 21
62.2950204808
 31
0.0
  0
ARC
  5
8A
330
1F
100
AcDbEntity
  8
0
  6
Continuous
 62
     7
370
    25
100
AcDbCircle
 10
47.7503548715
 20
62.0011278547
 30
0.0
 40
0.4999999999999993
100
AcDbArc
 50
144.0
 51
218.7177593265
  0
ARC
  5
8B
330
1F
100
AcDbEntity
  8
0
  6
Continuous
 62
     7
370
    25
100
AcDbCircle
 10
46.2702460974
 20
60.814583706
 30
0.0
 40
1.397000000000004
100
AcDbArc
 50
234.0
 51
38.7177593265
  0
LINE
  5
8C
330
1F
100
AcDbEntity
  8
0
  6
Continuous
 62
     7
370
    25
100
AcDbLine
 10
45.4491100999
 20
59.6843869649
 30
0.0
 11
42.7186777439
 21
61.6681621914
 31
0.0
  0
ARC
  5
8D
330
1F
100
AcDbEntity
  8
0
  6
Continuous
 62
     7
370
    25
100
AcDbCircle
 10
43.5398137414
 20
62.7983589325
 30
0.0
 40
1.397000000000013
100
AcDbArc
 50
69.2822406735
 51
234.0
  0
ARC
  5
8E
330
1F
100
AcDbEntity
  8
0
  6
Continuous
 62
     7
370
    25
100
AcDbCircle
 10
44.2109055211
 20
64.5726883335
 30
0.0
 40
0.4999999999999978
100
AcDbArc
 50
249.2822406735
 51
324.0
  0
ARC
  5
8F
330
1F
100
AcDbEntity
  8
0
  6
Continuous
 62
     7
370
    25
100
AcDbCircle
 10
124.0965402124
 20
167.9332878632
 30
0.0
 40
1.397000000000009
100
AcDbArc
 50
249.2822406737
 51
53.9999999999
  0
ARC
  5
90
330
1F
100
AcDbEntity
  8
0
  6
Continuous
 62
     7
370
    25
100
AcDbCircle
 10
123.4254484327
 20
166.1589584623
 30
0.0
 40
0.5000000000000009
100
AcDbArc
 50
69.2822406737
 51
144.0
  0
LINE
  5
91
330
1F
100
AcDbEntity
  8
0
  6
Continuous
 62
     7
370
    25
100
AcDbLine
 10
123.0209399355
 20
166.4528510884
 30
0.0
 11
117.8800766494
 21
159.3770598058
 31
0.0
  0
ARC
  5
92
330
1F
100
AcDbEntity
  8
0
  6
Continuous
 62
     7
370
    25
100
AcDbCircle
 10
118.2845851466
 20
159.0831671797
 30
0.0
 40
0.5000000000000175
100
AcDbArc
 50
144.0
 51
218.7177593263
  0
ARC
  5
93
330
1F
100
AcDbEntity
  8
0
  6
Continuous
 62
     7
370
    25
100
AcDbCircle
 10
116.8044763725
 20
157.896623031
 30
0.0
 40
1.396999999999999
100
AcDbArc
 50
234.0000000001
 51
38.7177593263
  0
LINE
  5
94
330
1F
100
AcDbEntity
  8
0
  6
Continuous
 62
     7
370
    25
100
AcDbLine
 10
115.983340375
 20
156.7664262899
 30
0.0
 11
113.252908019
 21
158.7502015164
 31
0.0
  0
ARC
  5
95
330
1F
100
AcDbEntity
  8
0
  6
Continuous
 62
     7
370
    25
100
AcDbCircle
 10
114.0740440165
 20
159.8803982575
 30
0.0
 40
1.396999999999995
100
AcDbArc
 50
69.2822406734
 51
234.0000000001
  0
ARC
  5
96
330
1F
100
AcDbEntity
  8
0
  6
Continuous
 62
     7
370
    25
100
AcDbCircle
 10
114.7451357962
 20
161.6547276585
 30
0.0
 40
0.5000000000000354
100
AcDbArc
 50
249.2822406734
 51
324.0
  0
LINE
  5
97
330
1F
100
AcDbEntity
  8
0
  6
Continuous
 62
     7
370
    25
100
AcDbLine
 10
120.2905075795
 20
168.4366263149
 30
0.0
 11
115.1496442934
 21
161.3608350323
 31
0.0
  0
ARC
  5
98
330
1F
100
AcDbEntity
  8
0
  6
Continuous
 62
     7
370
    25
100
AcDbCircle
 10
119.8859990823
 20
168.730518941
 30
0.0
 40
0.5000000000000061
100
AcDbArc
 50
324.0
 51
38.7177593266
  0
ARC
  5
99
330
1F
100
AcDbEntity
  8
0
  6
Continuous
 62
     7
370
    25
100
AcDbCircle
 10
121.3661078564
 20
169.9170630897
 30
0.0
 40
1.396999999999998
100
AcDbArc
 50
54.0
 51
218.7177593266
  0
LINE
  5
9A
330
1F
100
AcDbEntity
  8
0
  6
Continuous
 62
     7
370
    25
100
AcDbLine
 10
124.9176762099
 20
169.0634846044
 30
0.0
 11
122.1872438539
 21
171.0472598309
 31
0.0
  0
LINE
  5
9B
330
1F
100
AcDbEntity
  8
0
  6
Continuous
 62
     7
370
    25
100
AcDbLine
 10
82.1948478322
 20
28.4810674929
 30
0.0
 11
73.8767563038
 21
25.7783557203
 31
0.0
  0
ARC
  5
9C
330
1F
100
AcDbEntity
  8
0
  6
Continuous
 62
     7
370
    25
100
AcDbCircle
 10
82.040339335
 20
28.9565957511
 30
0.0
 40
0.5000000000000039
100
AcDbArc
 50
288.0
 51
2.7177593265
  0
ARC
  5
9D
330
1F
100
AcDbEntity
  8
0
  6
Continuous
 62
     7
370
    25
100
AcDbCircle
 10
83.9352056386
 20
29.0465440227
 30
0.0
 40
1.397000000000007
100
AcDbArc
 50
18.0
 51
182.7177593265
  0
LINE
  5
9E
330
1F
100
AcDbEntity
  8
0
  6
Continuous
 62
     7
370
    25
100
AcDbLine
 10
86.3067639478
 20
26.2684250214
 30
0.0
 11
85.2638315918
 21
29.4782407639
 31
0.0
  0
ARC
  5
9F
330
1F
100
AcDbEntity
  8
0
  6
Continuous
 62
     7
370
    25
100
AcDbCircle
 10
84.9781379946
 20
25.8367282802
 30
0.0
 40
1.396999999999998
100
AcDbArc
 50
213.2822406735
 51
18.0
  0
ARC
  5
A0
330
1F
100
AcDbEntity
  8
0
  6
Continuous
 62
     7
370
    25
100
AcDbCircle
 10
83.3922886854
 20
24.7957234923
 30
0.0
 40
0.5000000000000103
100
AcDbArc
 50
33.2822406735
 51
108.0
  0
LINE
  5
A1
330
1F
100
AcDbEntity
  8
0
  6
Continuous
 62
     7
370
    25
100
AcDbLine
 10
83.2377801882
 20
25.2712517504
 30
0.0
 11
74.9196886598
 21
22.5685399778
 31
0.0
  0
ARC
  5
A2
330
1F
100
AcDbEntity
  8
0
  6
Continuous
 62
     7
370
    25
100
AcDbCircle
 10
75.074197157
 20
22.0930117197
 30
0.0
 40
0.5000000000000225
100
AcDbArc
 50
108.0
 51
182.7177593265
  0
ARC
  5
A3
330
1F
100
AcDbEntity
  8
0
  6
Continuous
 62
     7
370
    25
100
AcDbCircle
 10
73.1793308534
 20
22.003063448
 30
0.0
 40
1.396999999999992
100
AcDbArc
 50
198.0
 51
2.7177593265
  0
LINE
  5
A4
330
1F
100
AcDbEntity
  8
0
  6
Continuous
 62
     7
370
    25
100
AcDbLine
 10
71.8507049001
 20
21.5713667069
 30
0.0
 11
70.8077725441
 21
24.7811824494
 31
0.0
  0
ARC
  5
A5
330
1F
100
AcDbEntity
  8
0
  6
Continuous
 62
     7
370
    25
100
AcDbCircle
 10
72.1363984974
 20
25.2128791905
 30
0.0
 40
1.397000000000001
100
AcDbArc
 50
33.2822406735
 51
198.0
  0
ARC
  5
A6
330
1F
100
AcDbEntity
  8
0
  6
Continuous
 62
     7
370
    25
100
AcDbCircle
 10
73.7222478066
 20
26.2538839784
 30
0.0
 40
0.5000000000000016
100
AcDbArc
 50
213.2822406735
 51
288.0
  0
LINE
  5
A7
330
1F
100
AcDbEntity
  8
0
  6
Continuous
 62
     7
370
    25
100
AcDbLine
 10
-52.4867096604
 20
69.3708117634
 30
0.0
 11
-47.3458463743
 21
62.2950204808
 31
0.0
  0
ARC
  5
A8
330
1F
100
AcDbEntity
  8
0
  6
Continuous
 62
     7
370
    25
100
AcDbCircle
 10
-52.8912181576
 20
69.0769191373
 30
0.0
 40
0.5000000000000067
100
AcDbArc
 50
36.0
 51
110.7177593265
  0
ARC
  5
A9
330
1F
100
AcDbEntity
  8
0
  6
Continuous
 62
     7
370
    25
100
AcDbCircle
 10
-53.5623099373
 20
70.8512485382
 30
0.0
 40
1.397000000000007
100
AcDbArc
 50
126.0
 51
290.7177593265
  0
LINE
  5
AA
330
1F
100
AcDbEntity
  8
0
  6
Continuous
 62
     7
370
    25
100
AcDbLine
 10
-51.6530135788
 20
73.9652205059
 30
0.0
 11
-54.3834459348
 21
71.9814452794
 31
0.0
  0
ARC
  5
AB
330
1F
100
AcDbEntity
  8
0
  6
Continuous
 62
     7
370
    25
100
AcDbCircle
 10
-50.8318775813
 20
72.8350237647
 30
0.0
 40
1.396999999999999
100
AcDbArc
 50
321.2822406735
 51
126.0
  0
ARC
  5
AC
330
1F
100
AcDbEntity
  8
0
  6
Continuous
 62
     7
370
    25
100
AcDbCircle
 10
-49.3517688072
 20
71.648479616
 30
0.0
 40
0.4999999999999977
100
AcDbArc
 50
141.2822406735
 51
216.0
  0
LINE
  5
AD
330
1F
100
AcDbEntity
  8
0
  6
Continuous
 62
     7
370
    25
100
AcDbLine
 10
-49.7562773044
 20
71.3545869899
 30
0.0
 11
-44.6154140183
 21
64.2787957073
 31
0.0
  0
ARC
  5
AE
330
1F
100
AcDbEntity
  8
0
  6
Continuous
 62
     7
370
    25
100
AcDbCircle
 10
-44.2109055211
 20
64.5726883335
 30
0.0
 40
0.5000000000000092
100
AcDbArc
 50
216.0
 51
290.7177593265
  0
ARC
  5
AF
330
1F
100
AcDbEntity
  8
0
  6
Continuous
 62
     7
370
    25
100
AcDbCircle
 10
-43.5398137414
 20
62.7983589325
 30
0.0
 40
1.397000000000014
100
AcDbArc
 50
306.0
 51
110.7177593265
  0
LINE
  5
B0
330
1F
100
AcDbEntity
  8
0
  6
Continuous
 62
     7
370
    25
100
AcDbLine
 10
-42.7186777439
 20
61.6681621914
 30
0.0
 11
-45.4491100999
 21
59.6843869649
 31
0.0
  0
ARC
  5
B1
330
1F
100
AcDbEntity
  8
0
  6
Continuous
 62
     7
370
    25
100
AcDbCircle
 10
-46.2702460974
 20
60.814583706
 30
0.0
 40
1.397000000000003
100
AcDbArc
 50
141.2822406735
 51
306.0
  0
ARC
  5
B2
330
1F
100
AcDbEntity
  8
0
  6
Continuous
 62
     7
370
    25
100
AcDbCircle
 10
-47.7503548715
 20
62.0011278547
 30
0.0
 40
0.5000000000000028
100
AcDbArc
 50
321.2822406735
 51
36.0
  0
ARC
  5
B3
330
1F
100
AcDbEntity
  8
0
  6
Continuous
 62
     7
370
    25
100
AcDbCircle
 10
-121.3661078564
 20
169.9170630897
 30
0.0
 40
1.397000000000001
100
AcDbArc
 50
321.2822406737
 51
125.9999999999
  0
ARC
  5
B4
330
1F
100
AcDbEntity
  8
0
  6
Continuous
 62
     7
370
    25
100
AcDbCircle
 10
-119.8859990823
 20
168.730518941
 30
0.0
 40
0.4999999999999974
100
AcDbArc
 50
141.2822406737
 51
216.0
  0
LINE
  5
B5
330
1F
100
AcDbEntity
  8
0
  6
Continuous
 62
     7
370
    25
100
AcDbLine
 10
-120.2905075795
 20
168.4366263149
 30
0.0
 11
-115.1496442934
 21
161.3608350323
 31
0.0
  0
ARC
  5
B6
330
1F
100
AcDbEntity
  8
0
  6
Continuous
 62
     7
370
    25
100
AcDbCircle
 10
-114.7451357962
 20
161.6547276585
 30
0.0
 40
0.4999999999999969
100
AcDbArc
 50
216.0
 51
290.7177593263
  0
ARC
  5
B7
330
1F
100
AcDbEntity
  8
0
  6
Continuous
 62
     7
370
    25
100
AcDbCircle
 10
-114.0740440165
 20
159.8803982575
 30
0.0
 40
1.397000000000015
100
AcDbArc
 50
306.0000000001
 51
110.7177593263
  0
LINE
  5
B8
330
1F
100
AcDbEntity
  8
0
  6
Continuous
 62
     7
370
    25
100
AcDbLine
 10
-113.252908019
 20
158.7502015164
 30
0.0
 11
-115.983340375
 21
156.7664262899
 31
0.0
  0
ARC
  5
B9
330
1F
100
AcDbEntity
  8
0
  6
Continuous
 62
     7
370
    25
100
AcDbCircle
 10
-116.8044763725
 20
157.896623031
 30
0.0
 40
1.396999999999998
100
AcDbArc
 50
141.2822406734
 51
306.0000000001
  0
ARC
  5
BA
330
1F
100
AcDbEntity
  8
0
  6
Continuous
 62
     7
370
    25
100
AcDbCircle
 10
-118.2845851466
 20
159.0831671797
 30
0.0
 40
0.5000000000000125
100
AcDbArc
 50
321.2822406734
 51
36.0
  0
LINE
  5
BB
330
1F
100
AcDbEntity
  8
0
  6
Continuous
 62
     7
370
    25
100
AcDbLine
 10
-123.0209399355
 20
166.4528510884
 30
0.0
 11
-117.8800766494
 21
159.3770598058
 31
0.0
  0
ARC
  5
BC
330
1F
100
AcDbEntity
  8
0
  6
Continuous
 62
     7
370
    25
100
AcDbCircle
 10
-123.4254484327
 20
166.1589584623
 30
0.0
 40
0.5000000000000123
100
AcDbArc
 50
36.0
 51
110.7177593266
  0
ARC
  5
BD
330
1F
100
AcDbEntity
  8
0
  6
Continuous
 62
     7
370
    25
100
AcDbCircle
 10
-124.0965402124
 20
167.9332878632
 30
0.0
 40
1.397000000000016
100
AcDbArc
 50
126.0
 51
290.7177593266
  0
LINE
  5
BE
330
1F
100
AcDbEntity
  8
0
  6
Continuous
 62
     7
370
    25
100
AcDbLine
 10
-122.1872438539
 20
171.0472598309
 30
0.0
 11
-124.9176762099
 21
169.0634846044
 31
0.0
  0
ARC
  5
BF
330
1F
100
AcDbEntity
  8
0
  6
Continuous
 62
     7
370
    25
100
AcDbCircle
 10
1.6875
 20
208.803
 30
0.0
 40
1.397000000000018
100
AcDbArc
 50
285.2822406737
 51
89.9999999999
  0
ARC
  5
C0
330
1F
100
AcDbEntity
  8
0
  6
Continuous
 62
     7
370
    25
100
AcDbCircle
 10
2.1875
 20
206.9730795099
 30
0.0
 40
0.5000000000000058
100
AcDbArc
 50
105.2822406737
 51
180.0
  0
LINE
  5
C1
330
1F
100
AcDbEntity
  8
0
  6
Continuous
 62
     7
370
    25
100
AcDbLine
 10
1.6875
 20
206.9730795099
 30
0.0
 11
1.6875
 21
198.2269204901
 31
0.0
  0
ARC
  5
C2
330
1F
100
AcDbEntity
  8
0
  6
Continuous
 62
     7
370
    25
100
AcDbCircle
 10
2.1875
 20
198.2269204901
 30
0.0
 40
0.5000000000000058
100
AcDbArc
 50
180.0
 51
254.7177593263
  0
ARC
  5
C3
330
1F
100
AcDbEntity
  8
0
  6
Continuous
 62
     7
370
    25
100
AcDbCircle
 10
1.6875
 20
196.397
 30
0.0
 40
1.39700000000002
100
AcDbArc
 50
270.0000000001
 51
74.7177593263
  0
LINE
  5
C4
330
1F
100
AcDbEntity
  8
0
  6
Continuous
 62
     7
370
    25
100
AcDbLine
 10
1.6875
 20
195.0
 30
0.0
 11
-1.6875
 21
195.0
 31
0.0
  0
ARC
  5
C5
330
1F
100
AcDbEntity
  8
0
  6
Continuous
 62
     7
370
    25
100
AcDbCircle
 10
-1.6875
 20
196.397
 30
0.0
 40
1.396999999999991
100
AcDbArc
 50
105.2822406734
 51
270.0000000001
  0
ARC
  5
C6
330
1F
100
AcDbEntity
  8
0
  6
Continuous
 62
     7
370
    25
100
AcDbCircle
 10
-2.1875
 20
198.2269204901
 30
0.0
 40
0.5000000000000234
100
AcDbArc
 50
285.2822406734
 51
0.0
  0
LINE
  5
C7
330
1F
100
AcDbEntity
  8
0
  6
Continuous
 62
     7
370
    25
100
AcDbLine
 10
-1.6875
 20
206.9730795099
 30
0.0
 11
-1.6875
 21
198.2269204901
 31
0.0
  0
ARC
  5
C8
330
1F
100
AcDbEntity
  8
0
  6
Continuous
 62
     7
370
    25
100
AcDbCircle
 10
-2.1875
 20
206.9730795099
 30
0.0
 40
0.5000000000000002
100
AcDbArc
 50
0.0
 51
74.7177593266
  0
ARC
  5
C9
330
1F
100
AcDbEntity
  8
0
  6
Continuous
 62
     7
370
    25
100
AcDbCircle
 10
-1.6875
 20
208.803
 30
0.0
 40
1.397000000000012
100
AcDbArc
 50
90.0
 51
254.7177593266
  0
LINE
  5
CA
330
1F
100
AcDbEntity
  8
0
  6
Continuous
 62
     7
370
    25
100
AcDbLine
 10
1.6875
 20
210.2
 30
0.0
 11
-1.6875
 21
210.2
 31
0.0
  0
LINE
  5
CB
330
1F
100
AcDbEntity
  8
0
  6
Continuous
 62
     7
370
    25
100
AcDbLine
 10
-1.6875
 20
86.9730795099
 30
0.0
 11
-1.6875
 21
78.2269204901
 31
0.0
  0
ARC
  5
CC
330
1F
100
AcDbEntity
  8
0
  6
Continuous
 62
     7
370
    25
100
AcDbCircle
 10
-2.1875
 20
86.9730795099
 30
0.0
 40
0.5
100
AcDbArc
 50
0.0
 51
74.7177593265
  0
ARC
  5
CD
330
1F
100
AcDbEntity
  8
0
  6
Continuous
 62
     7
370
    25
100
AcDbCircle
 10
-1.6875
 20
88.803
 30
0.0
 40
1.397000000000014
100
AcDbArc
 50
90.0
 51
254.7177593265
  0
LINE
  5
CE
330
1F
100
AcDbEntity
  8
0
  6
Continuous
 62
     7
370
    25
100
AcDbLine
 10
1.6875
 20
90.2
 30
0.0
 11
-1.6875
 21
90.2
 31
0.0
  0
ARC
  5
CF
330
1F
100
AcDbEntity
  8
0
  6
Continuous
 62
     7
370
    25
100
AcDbCircle
 10
1.6875
 20
88.803
 30
0.0
 40
1.397000000000002
100
AcDbArc
 50
285.2822406735
 51
90.0
  0
ARC
  5
D0
330
1F
100
AcDbEntity
  8
0
  6
Continuous
 62
     7
370
    25
100
AcDbCircle
 10
2.1875
 20
86.9730795099
 30
0.0
 40
0.5000000000000008
100
AcDbArc
 50
105.2822406735
 51
180.0
  0
LINE
  5
D1
330
1F
100
AcDbEntity
  8
0
  6
Continuous
 62
     7
370
    25
100
AcDbLine
 10
1.6875
 20
86.9730795099
 30
0.0
 11
1.6875
 21
78.2269204901
 31
0.0
  0
ARC
  5
D2
330
1F
100
AcDbEntity
  8
0
  6
Continuous
 62
     7
370
    25
100
AcDbCircle
 10
2.1875
 20
78.2269204901
 30
0.0
 40
0.4999999999999996
100
AcDbArc
 50
180.0
 51
254.7177593265
  0
ARC
  5
D3
330
1F
100
AcDbEntity
  8
0
  6
Continuous
 62
     7
370
    25
100
AcDbCircle
 10
1.6875
 20
76.397
 30
0.0
 40
1.397000000000014
100
AcDbArc
 50
270.0
 51
74.7177593265
  0
LINE
  5
D4
330
1F
100
AcDbEntity
  8
0
  6
Continuous
 62
     7
370
    25
100
AcDbLine
 10
1.6875
 20
75.0
 30
0.0
 11
-1.6875
 21
75.0
 31
0.0
  0
ARC
  5
D5
330
1F
100
AcDbEntity
  8
0
  6
Continuous
 62
     7
370
    25
100
AcDbCircle
 10
-1.6875
 20
76.397
 30
0.0
 40
1.397000000000014
100
AcDbArc
 50
105.2822406735
 51
270.0
  0
ARC
  5
D6
330
1F
100
AcDbEntity
  8
0
  6
Continuous
 62
     7
370
    25
100
AcDbCircle
 10
-2.1875
 20
78.2269204901
 30
0.0
 40
0.5
100
AcDbArc
 50
285.2822406735
 51
0.0
  0
ARC
  5
D7
330
1F
100
AcDbEntity
  8
0
  6
Continuous
 62
     7
370
    25
100
AcDbCircle
 10
-199.10491995
 20
-62.9187676052
 30
0.0
 40
1.397000000000001
100
AcDbArc
 50
33.2822406737
 51
197.9999999999
  0
ARC
  5
D8
330
1F
100
AcDbEntity
  8
0
  6
Continuous
 62
     7
370
    25
100
AcDbCircle
 10
-197.5190706408
 20
-61.8777628173
 30
0.0
 40
0.5000000000000059
100
AcDbArc
 50
213.2822406737
 51
288.0
  0
LINE
  5
D9
330
1F
100
AcDbEntity
  8
0
  6
Continuous
 62
     7
370
    25
100
AcDbLine
 10
-197.3645621436
 20
-62.3532910754
 30
0.0
 11
-189.0464706152
 21
-59.6505793028
 31
0.0
  0
ARC
  5
DA
330
1F
100
AcDbEntity
  8
0
  6
Continuous
 62
     7
370
    25
100
AcDbCircle
 10
-189.2009791124
 20
-59.1750510447
 30
0.0
 40
0.5000000000000215
100
AcDbArc
 50
288.0
 51
2.7177593263
  0
ARC
  5
DB
330
1F
100
AcDbEntity
  8
0
  6
Continuous
 62
     7
370
    25
100
AcDbCircle
 10
-187.3061128088
 20
-59.085102773
 30
0.0
 40
1.396999999999997
100
AcDbArc
 50
18.0000000001
 51
182.7177593263
  0
LINE
  5
DC
330
1F
100
AcDbEntity
  8
0
  6
Continuous
 62
     7
370
    25
100
AcDbLine
 10
-185.9774868556
 20
-58.6534060319
 30
0.0
 11
-184.9345544995
 21
-61.8632217744
 31
0.0
  0
ARC
  5
DD
330
1F
100
AcDbEntity
  8
0
  6
Continuous
 62
     7
370
    25
100
AcDbCircle
 10
-186.2631804528
 20
-62.2949185155
 30
0.0
 40
1.397000000000015
100
AcDbArc
 50
213.2822406734
 51
18.0000000001
  0
ARC
  5
DE
330
1F
100
AcDbEntity
  8
0
  6
Continuous
 62
     7
370
    25
100
AcDbCircle
 10
-187.849029762
 20
-63.3359233034
 30
0.0
 40
0.4999999999999972
100
AcDbArc
 50
33.2822406734
 51
108.0
  0
LINE
  5
DF
330
1F
100
AcDbEntity
  8
0
  6
Continuous
 62
     7
370
    25
100
AcDbLine
 10
-196.3216297876
 20
-65.5631068179
 30
0.0
 11
-188.0035382592
 21
-62.8603950453
 31
0.0
  0
ARC
  5
E0
330
1F
100
AcDbEntity
  8
0
  6
Continuous
 62
     7
370
    25
100
AcDbCircle
 10
-196.1671212904
 20
-66.0386350761
 30
0.0
 40
0.5000000000000243
100
AcDbArc
 50
108.0
 51
182.7177593266
  0
ARC
  5
E1
330
1F
100
AcDbEntity
  8
0
  6
Continuous
 62
     7
370
    25
100
AcDbCircle
 10
-198.061987594
 20
-66.1285833477
 30
0.0
 40
1.397000000000016
100
AcDbArc
 50
198.0
 51
2.7177593266
  0
LINE
  5
E2
330
1F
100
AcDbEntity
  8
0
  6
Continuous
 62
     7
370
    25
100
AcDbLine
 10
-200.4335459032
 20
-63.3504643464
 30
0.0
 11
-199.3906135472
 21
-66.5602800889
 31
0.0
  0
LINE
  5
E3
330
1F
100
AcDbEntity
  8
0
  6
Continuous
 62
     7
370
    25
100
AcDbLine
 10
-82.1948478322
 20
-28.4810674929
 30
0.0
 11
-73.8767563038
 21
-25.7783557203
 31
0.0
  0
ARC
  5
E4
330
1F
100
AcDbEntity
  8
0
  6
Continuous
 62
     7
370
    25
100
AcDbCircle
 10
-82.040339335
 20
-28.9565957511
 30
0.0
 40
0.5000000000000016
100
AcDbArc
 50
108.0
 51
182.7177593265
  0
ARC
  5
E5
330
1F
100
AcDbEntity
  8
0
  6
Continuous
 62
     7
370
    25
100
AcDbCircle
 10
-83.9352056386
 20
-29.0465440227
 30
0.0
 40
1.397000000000007
100
AcDbArc
 50
198.0
 51
2.7177593265
  0
LINE
  5
E6
330
1F
100
AcDbEntity
  8
0
  6
Continuous
 62
     7
370
    25
100
AcDbLine
 10
-86.3067639478
 20
-26.2684250214
 30
0.0
 11
-85.2638315918
 21
-29.4782407639
 31
0.0
  0
ARC
  5
E7
330
1F
100
AcDbEntity
  8
0
  6
Continuous
 62
     7
370
    25
100
AcDbCircle
 10
-84.9781379946
 20
-25.8367282802
 30
0.0
 40
1.397000000000004
100
AcDbArc
 50
33.2822406735
 51
198.0
  0
ARC
  5
E8
330
1F
100
AcDbEntity
  8
0
  6
Continuous
 62
     7
370
    25
100
AcDbCircle
 10
-83.3922886854
 20
-24.7957234923
 30
0.0
 40
0.4999999999999984
100
AcDbArc
 50
213.2822406735
 51
288.0
  0
LINE
  5
E9
330
1F
100
AcDbEntity
  8
0
  6
Continuous
 62
     7
370
    25
100
AcDbLine
 10
-83.2377801882
 20
-25.2712517504
 30
0.0
 11
-74.9196886598
 21
-22.5685399778
 31
0.0
  0
ARC
  5
EA
330
1F
100
AcDbEntity
  8
0
  6
Continuous
 62
     7
370
    25
100
AcDbCircle
 10
-75.074197157
 20
-22.0930117197
 30
0.0
 40
0.4999999999999944
100
AcDbArc
 50
288.0
 51
2.7177593265
  0
ARC
  5
EB
330
1F
100
AcDbEntity
  8
0
  6
Continuous
 62
     7
370
    25
100
AcDbCircle
 10
-73.1793308534
 20
-22.003063448
 30
0.0
 40
1.397000000000007
100
AcDbArc
 50
18.0
 51
182.7177593265
  0
LINE
  5
EC
330
1F
100
AcDbEntity
  8
0
  6
Continuous
 62
     7
370
    25
100
AcDbLine
 10
-71.8507049001
 20
-21.5713667069
 30
0.0
 11
-70.8077725441
 21
-24.7811824494
 31
0.0
  0
ARC
  5
ED
330
1F
100
AcDbEntity
  8
0
  6
Continuous
 62
     7
370
    25
100
AcDbCircle
 10
-72.1363984974
 20
-25.2128791905
 30
0.0
 40
1.397000000000004
100
AcDbArc
 50
213.2822406735
 51
18.0
  0
ARC
  5
EE
330
1F
100
AcDbEntity
  8
0
  6
Continuous
 62
     7
370
    25
100
AcDbCircle
 10
-73.7222478066
 20
-26.2538839784
 30
0.0
 40
0.5000000000000006
100
AcDbArc
 50
33.2822406735
 51
108.0
  0
LINE
  5
EF
330
1F
100
AcDbEntity
  8
0
  6
Continuous
 62
     7
370
    25
100
AcDbLine
 10
-49.7562773044
 20
-71.3545869899
 30
0.0
 11
-44.6154140183
 21
-64.2787957073
 31
0.0
  0
ARC
  5
F0
330
1F
100
AcDbEntity
  8
0
  6
Continuous
 62
     7
370
    25
100
AcDbCircle
 10
-49.3517688072
 20
-71.648479616
 30
0.0
 40
0.5000000000000072
100
AcDbArc
 50
144.0
 51
218.7177593265
  0
ARC
  5
F1
330
1F
100
AcDbEntity
  8
0
  6
Continuous
 62
     7
370
    25
100
AcDbCircle
 10
-50.8318775813
 20
-72.8350237647
 30
0.0
 40
1.397000000000001
100
AcDbArc
 50
234.0
 51
38.7177593265
  0
LINE
  5
F2
330
1F
100
AcDbEntity
  8
0
  6
Continuous
 62
     7
370
    25
100
AcDbLine
 10
-54.3834459348
 20
-71.9814452794
 30
0.0
 11
-51.6530135788
 21
-73.9652205059
 31
0.0
  0
ARC
  5
F3
330
1F
100
AcDbEntity
  8
0
  6
Continuous
 62
     7
370
    25
100
AcDbCircle
 10
-53.5623099373
 20
-70.8512485382
 30
0.0
 40
1.396999999999999
100
AcDbArc
 50
69.2822406735
 51
234.0
  0
ARC
  5
F4
330
1F
100
AcDbEntity
  8
0
  6
Continuous
 62
     7
370
    25
100
AcDbCircle
 10
-52.8912181576
 20
-69.0769191373
 30
0.0
 40
0.4999999999999953
100
AcDbArc
 50
249.2822406735
 51
324.0
  0
LINE
  5
F5
330
1F
100
AcDbEntity
  8
0
  6
Continuous
 62
     7
370
    25
100
AcDbLine
 10
-52.4867096604
 20
-69.3708117634
 30
0.0
 11
-47.3458463743
 21
-62.2950204808
 31
0.0
  0
ARC
  5
F6
330
1F
100
AcDbEntity
  8
0
  6
Continuous
 62
     7
370
    25
100
AcDbCircle
 10
-47.7503548715
 20
-62.0011278547
 30
0.0
 40
0.5000000000000028
100
AcDbArc
 50
324.0
 51
38.7177593265
  0
ARC
  5
F7
330
1F
100
AcDbEntity
  8
0
  6
Continuous
 62
     7
370
    25
100
AcDbCircle
 10
-46.2702460974
 20
-60.814583706
 30
0.0
 40
1.397000000000001
100
AcDbArc
 50
54.0
 51
218.7177593265
  0
LINE
  5
F8
330
1F
100
AcDbEntity
  8
0
  6
Continuous
 62
     7
370
    25
100
AcDbLine
 10
-45.4491100999
 20
-59.6843869649
 30
0.0
 11
-42.7186777439
 21
-61.6681621914
 31
0.0
  0
ARC
  5
F9
330
1F
100
AcDbEntity
  8
0
  6
Continuous
 62
     7
370
    25
100
AcDbCircle
 10
-43.5398137414
 20
-62.7983589325
 30
0.0
 40
1.397000000000001
100
AcDbArc
 50
249.2822406735
 51
54.0
  0
ARC
  5
FA
330
1F
100
AcDbEntity
  8
0
  6
Continuous
 62
     7
370
    25
100
AcDbCircle
 10
-44.2109055211
 20
-64.5726883335
 30
0.0
 40
0.4999999999999978
100
AcDbArc
 50
69.2822406735
 51
144.0
  0
ARC
  5
FB
330
1F
100
AcDbEntity
  8
0
  6
Continuous
 62
     7
370
    25
100
AcDbCircle
 10
-124.0965402124
 20
-167.9332878632
 30
0.0
 40
1.397000000000015
100
AcDbArc
 50
69.2822406737
 51
233.9999999999
  0
ARC
  5
FC
330
1F
100
AcDbEntity
  8
0
  6
Continuous
 62
     7
370
    25
100
AcDbCircle
 10
-123.4254484327
 20
-166.1589584623
 30
0.0
 40
0.5000000000000123
100
AcDbArc
 50
249.2822406737
 51
324.0
  0
LINE
  5
FD
330
1F
100
AcDbEntity
  8
0
  6
Continuous
 62
     7
370
    25
100
AcDbLine
 10
-123.0209399355
 20
-166.4528510884
 30
0.0
 11
-117.8800766494
 21
-159.3770598058
 31
0.0
  0
ARC
  5
FE
330
1F
100
AcDbEntity
  8
0
  6
Continuous
 62
     7
370
    25
100
AcDbCircle
 10
-118.2845851466
 20
-159.0831671797
 30
0.0
 40
0.5000000000000175
100
AcDbArc
 50
324.0
 51
38.7177593263
  0
ARC
  5
FF
330
1F
100
AcDbEntity
  8
0
  6
Continuous
 62
     7
370
    25
100
AcDbCircle
 10
-116.8044763725
 20
-157.896623031
 30
0.0
 40
1.397000000000002
100
AcDbArc
 50
54.0000000001
 51
218.7177593263
  0
LINE
  5
100
330
1F
100
AcDbEntity
  8
0
  6
Continuous
 62
     7
370
    25
100
AcDbLine
 10
-115.983340375
 20
-156.7664262899
 30
0.0
 11
-113.252908019
 21
-158.7502015164
 31
0.0
  0
ARC
  5
101
330
1F
100
AcDbEntity
  8
0
  6
Continuous
 62
     7
370
    25
100
AcDbCircle
 10
-114.0740440165
 20
-159.8803982575
 30
0.0
 40
1.396999999999995
100
AcDbArc
 50
249.2822406734
 51
54.0000000001
  0
ARC
  5
102
330
1F
100
AcDbEntity
  8
0
  6
Continuous
 62
     7
370
    25
100
AcDbCircle
 10
-114.7451357962
 20
-161.6547276585
 30
0.0
 40
0.5000000000000304
100
AcDbArc
 50
69.2822406734
 51
144.0
  0
LINE
  5
103
330
1F
100
AcDbEntity
  8
0
  6
Continuous
 62
     7
370
    25
100
AcDbLine
 10
-120.2905075795
 20
-168.4366263149
 30
0.0
 11
-115.1496442934
 21
-161.3608350323
 31
0.0
  0
ARC
  5
104
330
1F
100
AcDbEntity
  8
0
  6
Continuous
 62
     7
370
    25
100
AcDbCircle
 10
-119.8859990823
 20
-168.730518941
 30
0.0
 40
0.4999999999999948
100
AcDbArc
 50
144.0
 51
218.7177593266
  0
ARC
  5
105
330
1F
100
AcDbEntity
  8
0
  6
Continuous
 62
     7
370
    25
100
AcDbCircle
 10
-121.3661078564
 20
-169.9170630897
 30
0.0
 40
1.397000000000012
100
AcDbArc
 50
234.0
 51
38.7177593266
  0
LINE
  5
106
330
1F
100
AcDbEntity
  8
0
  6
Continuous
 62
     7
370
    25
100
AcDbLine
 10
-124.9176762099
 20
-169.0634846044
 30
0.0
 11
-122.1872438539
 21
-171.0472598309
 31
0.0
  0
ARC
  5
107
330
1F
100
AcDbEntity
  8
0
  6
Continuous
 62
     7
370
    25
100
AcDbCircle
 10
-198.061987594
 20
66.1285833477
 30
0.0
 40
1.397000000000026
100
AcDbArc
 50
357.2822406737
 51
161.9999999999
  0
ARC
  5
108
330
1F
100
AcDbEntity
  8
0
  6
Continuous
 62
     7
370
    25
100
AcDbCircle
 10
-196.1671212904
 20
66.0386350761
 30
0.0
 40
0.5000000000000059
100
AcDbArc
 50
177.2822406737
 51
252.0
  0
LINE
  5
109
330
1F
100
AcDbEntity
  8
0
  6
Continuous
 62
     7
370
    25
100
AcDbLine
 10
-196.3216297876
 20
65.5631068179
 30
0.0
 11
-188.0035382592
 21
62.8603950453
 31
0.0
  0
ARC
  5
10A
330
1F
100
AcDbEntity
  8
0
  6
Continuous
 62
     7
370
    25
100
AcDbCircle
 10
-187.849029762
 20
63.3359233034
 30
0.0
 40
0.5000000000000154
100
AcDbArc
 50
252.0
 51
326.7177593263
  0
ARC
  5
10B
330
1F
100
AcDbEntity
  8
0
  6
Continuous
 62
     7
370
    25
100
AcDbCircle
 10
-186.2631804528
 20
62.2949185155
 30
0.0
 40
1.397000000000022
100
AcDbArc
 50
342.0000000001
 51
146.7177593263
  0
LINE
  5
10C
330
1F
100
AcDbEntity
  8
0
  6
Continuous
 62
     7
370
    25
100
AcDbLine
 10
-184.9345544995
 20
61.8632217744
 30
0.0
 11
-185.9774868556
 21
58.6534060319
 31
0.0
  0
ARC
  5
10D
330
1F
100
AcDbEntity
  8
0
  6
Continuous
 62
     7
370
    25
100
AcDbCircle
 10
-187.3061128088
 20
59.085102773
 30
0.0
 40
1.396999999999989
100
AcDbArc
 50
177.2822406734
 51
342.0000000001
  0
ARC
  5
10E
330
1F
100
AcDbEntity
  8
0
  6
Continuous
 62
     7
370
    25
100
AcDbCircle
 10
-189.2009791124
 20
59.1750510446
 30
0.0
 40
0.4999999999999962
100
AcDbArc
 50
357.2822406734
 51
72.0
  0
LINE
  5
10F
330
1F
100
AcDbEntity
  8
0
  6
Continuous
 62
     7
370
    25
100
AcDbLine
 10
-197.3645621436
 20
62.3532910754
 30
0.0
 11
-189.0464706152
 21
59.6505793028
 31
0.0
  0
ARC
  5
110
330
1F
100
AcDbEntity
  8
0
  6
Continuous
 62
     7
370
    25
100
AcDbCircle
 10
-197.5190706408
 20
61.8777628173
 30
0.0
 40
0.5000000000000127
100
AcDbArc
 50
72.0
 51
146.7177593266
  0
ARC
  5
111
330
1F
100
AcDbEntity
  8
0
  6
Continuous
 62
     7
370
    25
100
AcDbCircle
 10
-199.10491995
 20
62.9187676052
 30
0.0
 40
1.396999999999996
100
AcDbArc
 50
162.0
 51
326.7177593266
  0
LINE
  5
112
330
1F
100
AcDbEntity
  8
0
  6
Continuous
 62
     7
370
    25
100
AcDbLine
 10
-199.3906135472
 20
66.5602800889
 30
0.0
 11
-200.4335459033
 21
63.3504643464
 31
0.0
  0
LINE
  5
113
330
1F
100
AcDbEntity
  8
0
  6
Continuous
 62
     7
370
    25
100
AcDbLine
 10
-83.2377801882
 20
25.2712517504
 30
0.0
 11
-74.9196886598
 21
22.5685399778
 31
0.0
  0
ARC
  5
114
330
1F
100
AcDbEntity
  8
0
  6
Continuous
 62
     7
370
    25
100
AcDbCircle
 10
-83.3922886854
 20
24.7957234923
 30
0.0
 40
0.4999999999999982
100
AcDbArc
 50
72.0
 51
146.7177593265
  0
ARC
  5
115
330
1F
100
AcDbEntity
  8
0
  6
Continuous
 62
     7
370
    25
100
AcDbCircle
 10
-84.9781379946
 20
25.8367282802
 30
0.0
 40
1.397000000000007
100
AcDbArc
 50
162.0
 51
326.7177593265
  0
LINE
  5
116
330
1F
100
AcDbEntity
  8
0
  6
Continuous
 62
     7
370
    25
100
AcDbLine
 10
-85.2638315918
 20
29.4782407639
 30
0.0
 11
-86.3067639478
 21
26.2684250214
 31
0.0
  0
ARC
  5
117
330
1F
100
AcDbEntity
  8
0
  6
Continuous
 62
     7
370
    25
100
AcDbCircle
 10
-83.9352056386
 20
29.0465440227
 30
0.0
 40
1.396999999999994
100
AcDbArc
 50
357.2822406735
 51
162.0
  0
ARC
  5
118
330
1F
100
AcDbEntity
  8
0
  6
Continuous
 62
     7
370
    25
100
AcDbCircle
 10
-82.040339335
 20
28.9565957511
 30
0.0
 40
0.4999999999999947
100
AcDbArc
 50
177.2822406735
 51
252.0
  0
LINE
  5
119
330
1F
100
AcDbEntity
  8
0
  6
Continuous
 62
     7
370
    25
100
AcDbLine
 10
-82.1948478322
 20
28.4810674929
 30
0.0
 11
-73.8767563038
 21
25.7783557203
 31
0.0
  0
ARC
  5
11A
330
1F
100
AcDbEntity
  8
0
  6
Continuous
 62
     7
370
    25
100
AcDbCircle
 10
-73.7222478066
 20
26.2538839784
 30
0.0
 40
0.5000000000000083
100
AcDbArc
 50
252.0
 51
326.7177593265
  0
ARC
  5
11B
330
1F
100
AcDbEntity
  8
0
  6
Continuous
 62
     7
370
    25
100
AcDbCircle
 10
-72.1363984974
 20
25.2128791905
 30
0.0
 40
1.397
100
AcDbArc
 50
342.0
 51
146.7177593265
  0
LINE
  5
11C
330
1F
100
AcDbEntity
  8
0
  6
Continuous
 62
     7
370
    25
100
AcDbLine
 10
-70.8077725441
 20
24.7811824494
 30
0.0
 11
-71.8507049001
 21
21.5713667069
 31
0.0
  0
ARC
  5
11D
330
1F
100
AcDbEntity
  8
0
  6
Continuous
 62
     7
370
    25
100
AcDbCircle
 10
-73.1793308534
 20
22.003063448
 30
0.0
 40
1.397000000000007
100
AcDbArc
 50
177.2822406735
 51
342.0
  0
ARC
  5
11E
330
1F
100
AcDbEntity
  8
0
  6
Continuous
 62
     7
370
    25
100
AcDbCircle
 10
-75.074197157
 20
22.0930117197
 30
0.0
 40
0.4999999999999946
100
AcDbArc
 50
357.2822406735
 51
72.0
  0
LINE
  5
11F
330
1F
100
AcDbEntity
  8
0
  6
Continuous
 62
     7
370
    25
100
AcDbLine
 10
52.4867096604
 20
-69.3708117634
 30
0.0
 11
47.3458463743
 21
-62.2950204808
 31
0.0
  0
ARC
  5
120
330
1F
100
AcDbEntity
  8
0
  6
Continuous
 62
     7
370
    25
100
AcDbCircle
 10
52.8912181576
 20
-69.0769191373
 30
0.0
 40
0.5000000000000034
100
AcDbArc
 50
216.0
 51
290.7177593265
  0
ARC
  5
121
330
1F
100
AcDbEntity
  8
0
  6
Continuous
 62
     7
370
    25
100
AcDbCircle
 10
53.5623099373
 20
-70.8512485382
 30
0.0
 40
1.397000000000004
100
AcDbArc
 50
306.0
 51
110.7177593265
  0
LINE
  5
122
330
1F
100
AcDbEntity
  8
0
  6
Continuous
 62
     7
370
    25
100
AcDbLine
 10
51.6530135788
 20
-73.9652205059
 30
0.0
 11
54.3834459348
 21
-71.9814452794
 31
0.0
  0
ARC
  5
123
330
1F
100
AcDbEntity
  8
0
  6
Continuous
 62
     7
370
    25
100
AcDbCircle
 10
50.8318775813
 20
-72.8350237647
 30
0.0
 40
1.396999999999999
100
AcDbArc
 50
141.2822406735
 51
306.0
  0
ARC
  5
124
330
1F
100
AcDbEntity
  8
0
  6
Continuous
 62
     7
370
    25
100
AcDbCircle
 10
49.3517688072
 20
-71.648479616
 30
0.0
 40
0.5000000000000009
100
AcDbArc
 50
321.2822406735
 51
36.0
  0
LINE
  5
125
330
1F
100
AcDbEntity
  8
0
  6
Continuous
 62
     7
370
    25
100
AcDbLine
 10
49.7562773044
 20
-71.3545869899
 30
0.0
 11
44.6154140183
 21
-64.2787957073
 31
0.0
  0
ARC
  5
126
330
1F
100
AcDbEntity
  8
0
  6
Continuous
 62
     7
370
    25
100
AcDbCircle
 10
44.2109055211
 20
-64.5726883335
 30
0.0
 40
0.5000000000000009
100
AcDbArc
 50
36.0
 51
110.7177593265
  0
ARC
  5
127
330
1F
100
AcDbEntity
  8
0
  6
Continuous
 62
     7
370
    25
100
AcDbCircle
 10
43.5398137414
 20
-62.7983589325
 30
0.0
 40
1.397000000000004
100
AcDbArc
 50
126.0
 51
290.7177593265
  0
LINE
  5
128
330
1F
100
AcDbEntity
  8
0
  6
Continuous
 62
     7
370
    25
100
AcDbLine
 10
42.7186777439
 20
-61.6681621914
 30
0.0
 11
45.4491100999
 21
-59.6843869649
 31
0.0
  0
ARC
  5
129
330
1F
100
AcDbEntity
  8
0
  6
Continuous
 62
     7
370
    25
100
AcDbCircle
 10
46.2702460974
 20
-60.814583706
 30
0.0
 40
1.396999999999998
100
AcDbArc
 50
321.2822406735
 51
126.0
  0
ARC
  5
12A
330
1F
100
AcDbEntity
  8
0
  6
Continuous
 62
     7
370
    25
100
AcDbCircle
 10
47.7503548715
 20
-62.0011278547
 30
0.0
 40
0.5000000000000072
100
AcDbArc
 50
141.2822406735
 51
216.0
  0
ARC
  5
12B
330
1F
100
AcDbEntity
  8
0
  6
Continuous
 62
     7
370
    25
100
AcDbCircle
 10
121.3661078564
 20
-169.9170630897
 30
0.0
 40
1.397000000000008
100
AcDbArc
 50
141.2822406737
 51
305.9999999999
  0
ARC
  5
12C
330
1F
100
AcDbEntity
  8
0
  6
Continuous
 62
     7
370
    25
100
AcDbCircle
 10
119.8859990823
 20
-168.730518941
 30
0.0
 40
0.5000000000000009
100
AcDbArc
 50
321.2822406737
 51
36.0
  0
LINE
  5
12D
330
1F
100
AcDbEntity
  8
0
  6
Continuous
 62
     7
370
    25
100
AcDbLine
 10
120.2905075795
 20
-168.4366263149
 30
0.0
 11
115.1496442934
 21
-161.3608350323
 31
0.0
  0
ARC
  5
12E
330
1F
100
AcDbEntity
  8
0
  6
Continuous
 62
     7
370
    25
100
AcDbCircle
 10
114.7451357962
 20
-161.6547276585
 30
0.0
 40
0.5000000000000184
100
AcDbArc
 50
36.0
 51
110.7177593263
  0
ARC
  5
12F
330
1F
100
AcDbEntity
  8
0
  6
Continuous
 62
     7
370
    25
100
AcDbCircle
 10
114.0740440165
 20
-159.8803982575
 30
0.0
 40
1.397000000000015
100
AcDbArc
 50
126.0000000001
 51
290.7177593263
  0
LINE
  5
130
330
1F
100
AcDbEntity
  8
0
  6
Continuous
 62
     7
370
    25
100
AcDbLine
 10
113.252908019
 20
-158.7502015164
 30
0.0
 11
115.983340375
 21
-156.7664262899
 31
0.0
  0
ARC
  5
131
330
1F
100
AcDbEntity
  8
0
  6
Continuous
 62
     7
370
    25
100
AcDbCircle
 10
116.8044763725
 20
-157.896623031
 30
0.0
 40
1.397000000000011
100
AcDbArc
 50
321.2822406734
 51
126.0000000001
  0
ARC
  5
132
330
1F
100
AcDbEntity
  8
0
  6
Continuous
 62
     7
370
    25
100
AcDbCircle
 10
118.2845851466
 20
-159.0831671797
 30
0.0
 40
0.500000000000017
100
AcDbArc
 50
141.2822406734
 51
216.0
  0
LINE
  5
133
330
1F
100
AcDbEntity
  8
0
  6
Continuous
 62
     7
370
    25
100
AcDbLine
 10
123.0209399355
 20
-166.4528510884
 30
0.0
 11
117.8800766494
 21
-159.3770598058
 31
0.0
  0
ARC
  5
134
330
1F
100
AcDbEntity
  8
0
  6
Continuous
 62
     7
370
    25
100
AcDbCircle
 10
123.4254484327
 20
-166.1589584623
 30
0.0
 40
0.4999999999999894
100
AcDbArc
 50
216.0
 51
290.7177593266
  0
ARC
  5
135
330
1F
100
AcDbEntity
  8
0
  6
Continuous
 62
     7
370
    25
100
AcDbCircle
 10
124.0965402124
 20
-167.9332878632
 30
0.0
 40
1.397000000000016
100
AcDbArc
 50
306.0
 51
110.7177593266
  0
LINE
  5
136
330
1F
100
AcDbEntity
  8
0
  6
Continuous
 62
     7
370
    25
100
AcDbLine
 10
122.1872438539
 20
-171.0472598309
 30
0.0
 11
124.9176762099
 21
-169.0634846044
 31
0.0
  0
ARC
  5
137
330
1F
100
AcDbEntity
  8
0
  6
Continuous
 62
     7
370
    25
100
AcDbCircle
 10
199.10491995
 20
62.9187676052
 30
0.0
 40
1.397000000000013
100
AcDbArc
 50
213.2822406737
 51
17.9999999999
  0
ARC
  5
138
330
1F
100
AcDbEntity
  8
0
  6
Continuous
 62
     7
370
    25
100
AcDbCircle
 10
197.5190706408
 20
61.8777628173
 30
0.0
 40
0.5000000000000115
100
AcDbArc
 50
33.2822406737
 51
108.0
  0
LINE
  5
139
330
1F
100
AcDbEntity
  8
0
  6
Continuous
 62
     7
370
    25
100
AcDbLine
 10
197.3645621436
 20
62.3532910754
 30
0.0
 11
189.0464706152
 21
59.6505793028
 31
0.0
  0
ARC
  5
13A
330
1F
100
AcDbEntity
  8
0
  6
Continuous
 62
     7
370
    25
100
AcDbCircle
 10
189.2009791124
 20
59.1750510447
 30
0.0
 40
0.4999999999999816
100
AcDbArc
 50
108.0
 51
182.7177593263
  0
ARC
  5
13B
330
1F
100
AcDbEntity
  8
0
  6
Continuous
 62
     7
370
    25
100
AcDbCircle
 10
187.3061128088
 20
59.085102773
 30
0.0
 40
1.397000000000025
100
AcDbArc
 50
198.0000000001
 51
2.7177593263
  0
LINE
  5
13C
330
1F
100
AcDbEntity
  8
0
  6
Continuous
 62
     7
370
    25
100
AcDbLine
 10
185.9774868556
 20
58.6534060319
 30
0.0
 11
184.9345544995
 21
61.8632217744
 31
0.0
  0
ARC
  5
13D
330
1F
100
AcDbEntity
  8
0
  6
Continuous
 62
     7
370
    25
100
AcDbCircle
 10
186.2631804528
 20
62.2949185155
 30
0.0
 40
1.397000000000003
100
AcDbArc
 50
33.2822406734
 51
198.0000000001
  0
ARC
  5
13E
330
1F
100
AcDbEntity
  8
0
  6
Continuous
 62
     7
370
    25
100
AcDbCircle
 10
187.849029762
 20
63.3359233034
 30
0.0
 40
0.5000000000000091
100
AcDbArc
 50
213.2822406734
 51
288.0
  0
LINE
  5
13F
330
1F
100
AcDbEntity
  8
0
  6
Continuous
 62
     7
370
    25
100
AcDbLine
 10
196.3216297876
 20
65.5631068179
 30
0.0
 11
188.0035382592
 21
62.8603950453
 31
0.0
  0
ARC
  5
140
330
1F
100
AcDbEntity
  8
0
  6
Continuous
 62
     7
370
    25
100
AcDbCircle
 10
196.1671212904
 20
66.0386350761
 30
0.0
 40
0.4999999999999959
100
AcDbArc
 50
288.0
 51
2.7177593266
  0
ARC
  5
141
330
1F
100
AcDbEntity
  8
0
  6
Continuous
 62
     7
370
    25
100
AcDbCircle
 10
198.061987594
 20
66.1285833477
 30
0.0
 40
1.397000000000012
100
AcDbArc
 50
18.0
 51
182.7177593266
  0
LINE
  5
142
330
1F
100
AcDbEntity
  8
0
  6
Continuous
 62
     7
370
    25
100
AcDbLine
 10
200.4335459032
 20
63.3504643464
 30
0.0
 11
199.3906135472
 21
66.5602800889
 31
0.0
  0
LINE
  5
143
330
1F
100
AcDbEntity
  8
0
  6
Continuous
 62
     7
370
    25
100
AcDbLine
 10
83.2377801882
 20
-25.2712517504
 30
0.0
 11
74.9196886598
 21
-22.5685399778
 31
0.0
  0
ARC
  5
144
330
1F
100
AcDbEntity
  8
0
  6
Continuous
 62
     7
370
    25
100
AcDbCircle
 10
83.3922886854
 20
-24.7957234923
 30
0.0
 40
0.5000000000000043
100
AcDbArc
 50
252.0
 51
326.7177593265
  0
ARC
  5
145
330
1F
100
AcDbEntity
  8
0
  6
Continuous
 62
     7
370
    25
100
AcDbCircle
 10
84.9781379946
 20
-25.8367282802
 30
0.0
 40
1.397
100
AcDbArc
 50
342.0
 51
146.7177593265
  0
LINE
  5
146
330
1F
100
AcDbEntity
  8
0
  6
Continuous
 62
     7
370
    25
100
AcDbLine
 10
85.2638315918
 20
-29.4782407639
 30
0.0
 11
86.3067639478
 21
-26.2684250214
 31
0.0
  0
ARC
  5
147
330
1F
100
AcDbEntity
  8
0
  6
Continuous
 62
     7
370
    25
100
AcDbCircle
 10
83.9352056386
 20
-29.0465440227
 30
0.0
 40
1.396999999999996
100
AcDbArc
 50
177.2822406735
 51
342.0
  0
ARC
  5
148
330
1F
100
AcDbEntity
  8
0
  6
Continuous
 62
     7
370
    25
100
AcDbCircle
 10
82.040339335
 20
-28.9565957511
 30
0.0
 40
0.500000000000009
100
AcDbArc
 50
357.2822406735
 51
72.0
  0
LINE
  5
149
330
1F
100
AcDbEntity
  8
0
  6
Continuous
 62
     7
370
    25
100
AcDbLine
 10
82.1948478322
 20
-28.4810674929
 30
0.0
 11
73.8767563038
 21
-25.7783557203
 31
0.0
  0
ARC
  5
14A
330
1F
100
AcDbEntity
  8
0
  6
Continuous
 62
     7
370
    25
100
AcDbCircle
 10
73.7222478066
 20
-26.2538839784
 30
0.0
 40
0.5000000000000059
100
AcDbArc
 50
72.0
 51
146.7177593265
  0
ARC
  5
14B
330
1F
100
AcDbEntity
  8
0
  6
Continuous
 62
     7
370
    25
100
AcDbCircle
 10
72.1363984974
 20
-25.2128791905
 30
0.0
 40
1.39700000000001
100
AcDbArc
 50
162.0
 51
326.7177593265
  0
LINE
  5
14C
330
1F
100
AcDbEntity
  8
0
  6
Continuous
 62
     7
370
    25
100
AcDbLine
 10
70.8077725441
 20
-24.7811824494
 30
0.0
 11
71.8507049001
 21
-21.5713667069
 31
0.0
  0
ARC
  5
14D
330
1F
100
AcDbEntity
  8
0
  6
Continuous
 62
     7
370
    25
100
AcDbCircle
 10
73.1793308534
 20
-22.003063448
 30
0.0
 40
1.396999999999996
100
AcDbArc
 50
357.2822406735
 51
162.0
  0
ARC
  5
14E
330
1F
100
AcDbEntity
  8
0
  6
Continuous
 62
     7
370
    25
100
AcDbCircle
 10
75.074197157
 20
-22.0930117197
 30
0.0
 40
0.5000000000000089
100
AcDbArc
 50
177.2822406735
 51
252.0
  0
ARC
  5
14F
330
1F
100
AcDbEntity
  8
0
  6
Continuous
 62
     7
370
    25
100
AcDbCircle
 10
198.061987594
 20
-66.1285833477
 30
0.0
 40
1.396999999999999
100
AcDbArc
 50
177.2822406737
 51
341.9999999999
  0
ARC
  5
150
330
1F
100
AcDbEntity
  8
0
  6
Continuous
 62
     7
370
    25
100
AcDbCircle
 10
196.1671212904
 20
-66.0386350761
 30
0.0
 40
0.5000000000000212
100
AcDbArc
 50
357.2822406737
 51
72.0
  0
LINE
  5
151
330
1F
100
AcDbEntity
  8
0
  6
Continuous
 62
     7
370
    25
100
AcDbLine
 10
196.3216297876
 20
-65.5631068179
 30
0.0
 11
188.0035382592
 21
-62.8603950453
 31
0.0
  0
ARC
  5
152
330
1F
100
AcDbEntity
  8
0
  6
Continuous
 62
     7
370
    25
100
AcDbCircle
 10
187.849029762
 20
-63.3359233034
 30
0.0
 40
0.5000000000000194
100
AcDbArc
 50
72.0
 51
146.7177593263
  0
ARC
  5
153
330
1F
100
AcDbEntity
  8
0
  6
Continuous
 62
     7
370
    25
100
AcDbCircle
 10
186.2631804528
 20
-62.2949185155
 30
0.0
 40
1.397000000000017
100
AcDbArc
 50
162.0000000001
 51
326.7177593263
  0
LINE
  5
154
330
1F
100
AcDbEntity
  8
0
  6
Continuous
 62
     7
370
    25
100
AcDbLine
 10
184.9345544995
 20
-61.8632217744
 30
0.0
 11
185.9774868556
 21
-58.6534060319
 31
0.0
  0
ARC
  5
155
330
1F
100
AcDbEntity
  8
0
  6
Continuous
 62
     7
370
    25
100
AcDbCircle
 10
187.3061128088
 20
-59.085102773
 30
0.0
 40
1.397000000000018
100
AcDbArc
 50
357.2822406734
 51
162.0000000001
  0
ARC
  5
156
330
1F
100
AcDbEntity
  8
0
  6
Continuous
 62
     7
370
    25
100
AcDbCircle
 10
189.2009791124
 20
-59.1750510446
 30
0.0
 40
0.5000000000000059
100
AcDbArc
 50
177.2822406734
 51
252.0
  0
LINE
  5
157
330
1F
100
AcDbEntity
  8
0
  6
Continuous
 62
     7
370
    25
100
AcDbLine
 10
197.3645621436
 20
-62.3532910754
 30
0.0
 11
189.0464706152
 21
-59.6505793028
 31
0.0
  0
ARC
  5
158
330
1F
100
AcDbEntity
  8
0
  6
Continuous
 62
     7
370
    25
100
AcDbCircle
 10
197.5190706408
 20
-61.8777628173
 30
0.0
 40
0.4999999999999972
100
AcDbArc
 50
252.0
 51
326.7177593266
  0
ARC
  5
159
330
1F
100
AcDbEntity
  8
0
  6
Continuous
 62
     7
370
    25
100
AcDbCircle
 10
199.10491995
 20
-62.9187676052
 30
0.0
 40
1.397000000000019
100
AcDbArc
 50
342.0
 51
146.7177593266
  0
LINE
  5
15A
330
1F
100
AcDbEntity
  8
0
  6
Continuous
 62
     7
370
    25
100
AcDbLine
 10
199.3906135472
 20
-66.5602800889
 30
0.0
 11
200.4335459033
 21
-63.3504643464
 31
0.0
  0
LINE
  5
15B
330
1F
100
AcDbEntity
  8
0
  6
Continuous
 62
     7
370
    25
100
AcDbLine
 10
-330.2939779708
 20
-121.1723891787
 30
0.0
 11
-376.5598940884
 21
-135.4950042037
 31
0.0
  0
ARC
  5
15C
330
1F
100
AcDbEntity
  8
0
  6
Continuous
 62
     7
370
    25
100
AcDbCircle
 10
-326.5382652037
 20
-133.3043561095
 30
0.0
 40
12.69999999999999
100
AcDbArc
 50
22.2070027071
 51
107.2010415041
  0
ARC
  5
15D
330
1F
100
AcDbEntity
  8
0
  6
Continuous
 62
     7
370
    25
100
AcDbCircle
 10
0.0
 20
0.0
 30
0.0
 40
340.0000000000001
100
AcDbArc
 50
202.2070027071
 51
229.7929972929
  0
ARC
  5
15E
330
1F
100
AcDbEntity
  8
0
  6
Continuous
 62
     7
370
    25
100
AcDbCircle
 10
-227.6858497901
 20
-269.3630334796
 30
0.0
 40
12.70000000000001
100
AcDbArc
 50
324.7989584959
 51
49.7929972929
  0
LINE
  5
15F
330
1F
100
AcDbEntity
  8
0
  6
Continuous
 62
     7
370
    25
100
AcDbLine
 10
-217.3082426561
 20
-276.683912537
 30
0.0
 11
-245.2268133467
 21
-316.2594820963
 31
0.0
  0
ARC
  5
160
330
1F
100
AcDbEntity
  8
0
  6
Continuous
 62
     7
370
    25
100
AcDbCircle
 10
-235.114100917
 20
-323.60679775
 30
0.0
 40
12.5
100
AcDbArc
 50
144.0
 51
324.0
  0
LINE
  5
161
330
1F
100
AcDbEntity
  8
0
  6
Continuous
 62
     7
370
    25
100
AcDbLine
 10
-195.9900979739
 20
-292.1724512668
 30
0.0
 11
-225.0013884873
 21
-330.9541134036
 31
0.0
  0
ARC
  5
162
330
1F
100
AcDbEntity
  8
0
  6
Continuous
 62
     7
370
    25
100
AcDbCircle
 10
-185.820671276
 20
-299.7798661127
 30
0.0
 40
12.70000000000001
100
AcDbArc
 50
58.2070027071
 51
143.2010415041
  0
ARC
  5
163
330
1F
100
AcDbEntity
  8
0
  6
Continuous
 62
     7
370
    25
100
AcDbCircle
 10
0.0
 20
0.0
 30
0.0
 40
340.0000000000001
100
AcDbArc
 50
238.2070027071
 51
265.7929972929
  0
ARC
  5
164
330
1F
100
AcDbEntity
  8
0
  6
Continuous
 62
     7
370
    25
100
AcDbCircle
 10
-25.8741032668
 20
-351.7496564037
 30
0.0
 40
12.7
100
AcDbArc
 50
0.7989584959
 51
85.7929972929
  0
LINE
  5
165
330
1F
100
AcDbEntity
  8
0
  6
Continuous
 62
     7
370
    25
100
AcDbLine
 10
-13.1753379907
 20
-351.5725675474
 30
0.0
 11
-12.5
 21
-400.0
 31
0.0
  0
ARC
  5
166
330
1F
100
AcDbEntity
  8
0
  6
Continuous
 62
     7
370
    25
100
AcDbCircle
 10
0.0
 20
-400.0
 30
0.0
 40
12.50000000000001
100
AcDbArc
 50
180.0
 51
0.0
  0
LINE
  5
167
330
1F
100
AcDbEntity
  8
0
  6
Continuous
 62
     7
370
    25
100
AcDbLine
 10
13.1753379907
 20
-351.5725675474
 30
0.0
 11
12.5
 21
-400.0
 31
0.0
  0
ARC
  5
168
330
1F
100
AcDbEntity
  8
0
  6
Continuous
 62
     7
370
    25
100
AcDbCircle
 10
25.8741032668
 20
-351.7496564037
 30
0.0
 40
12.7
100
AcDbArc
 50
94.2070027071
 51
179.2010415041
  0
ARC
  5
169
330
1F
100
AcDbEntity
  8
0
  6
Continuous
 62
     7
370
    25
100
AcDbCircle
 10
0.0
 20
0.0
 30
0.0
 40
340.0000000000001
100
AcDbArc
 50
274.2070027071
 51
301.7929972929
  0
ARC
  5
16A
330
1F
100
AcDbEntity
  8
0
  6
Continuous
 62
     7
370
    25
100
AcDbCircle
 10
185.820671276
 20
-299.7798661127
 30
0.0
 40
12.69999999999998
100
AcDbArc
 50
36.7989584959
 51
121.7929972929
  0
LINE
  5
16B
330
1F
100
AcDbEntity
  8
0
  6
Continuous
 62
     7
370
    25
100
AcDbLine
 10
195.9900979739
 20
-292.1724512668
 30
0.0
 11
225.0013884873
 21
-330.9541134036
 31
0.0
  0
ARC
  5
16C
330
1F
100
AcDbEntity
  8
0
  6
Continuous
 62
     7
370
    25
100
AcDbCircle
 10
235.114100917
 20
-323.60679775
 30
0.0
 40
12.49999999999998
100
AcDbArc
 50
216.0
 51
36.0
  0
LINE
  5
16D
330
1F
100
AcDbEntity
  8
0
  6
Continuous
 62
     7
370
    25
100
AcDbLine
 10
217.3082426561
 20
-276.683912537
 30
0.0
 11
245.2268133467
 21
-316.2594820963
 31
0.0
  0
ARC
  5
16E
330
1F
100
AcDbEntity
  8
0
  6
Continuous
 62
     7
370
    25
100
AcDbCircle
 10
227.6858497901
 20
-269.3630334797
 30
0.0
 40
12.69999999999998
100
AcDbArc
 50
130.2070027071
 51
215.2010415041
  0
ARC
  5
16F
330
1F
100
AcDbEntity
  8
0
  6
Continuous
 62
     7
370
    25
100
AcDbCircle
 10
0.0
 20
0.0
 30
0.0
 40
340.0000000000001
100
AcDbArc
 50
310.2070027071
 51
337.7929972929
  0
ARC
  5
170
330
1F
100
AcDbEntity
  8
0
  6
Continuous
 62
     7
370
    25
100
AcDbCircle
 10
326.5382652037
 20
-133.3043561095
 30
0.0
 40
12.7
100
AcDbArc
 50
72.7989584959
 51
157.7929972929
  0
LINE
  5
171
330
1F
100
AcDbEntity
  8
0
  6
Continuous
 62
     7
370
    25
100
AcDbLine
 10
330.2939779708
 20
-121.1723891787
 30
0.0
 11
376.5598940884
 21
-135.4950042037
 31
0.0
  0
ARC
  5
172
330
1F
100
AcDbEntity
  8
0
  6
Continuous
 62
     7
370
    25
100
AcDbCircle
 10
380.4226065181
 20
-123.60679775
 30
0.0
 40
12.50000000000004
100
AcDbArc
 50
252.0
 51
72.0
  0
LINE
  5
173
330
1F
100
AcDbEntity
  8
0
  6
Continuous
 62
     7
370
    25
100
AcDbLine
 10
338.4367846624
 20
-96.1114070777
 30
0.0
 11
384.2853189477
 21
-111.7185912963
 31
0.0
  0
ARC
  5
174
330
1F
100
AcDbEntity
  8
0
  6
Continuous
 62
     7
370
    25
100
AcDbCircle
 10
342.529340451
 20
-84.0888870791
 30
0.0
 40
12.69999999999999
100
AcDbArc
 50
166.2070027071
 51
251.2010415041
  0
ARC
  5
175
330
1F
100
AcDbEntity
  8
0
  6
Continuous
 62
     7
370
    25
100
AcDbCircle
 10
0.0
 20
0.0
 30
0.0
 40
340.0000000000001
100
AcDbArc
 50
346.2070027071
 51
13.7929972929
  0
ARC
  5
176
330
1F
100
AcDbEntity
  8
0
  6
Continuous
 62
     7
370
    25
100
AcDbCircle
 10
342.529340451
 20
84.0888870791
 30
0.0
 40
12.70000000000001
100
AcDbArc
 50
108.7989584959
 51
193.7929972929
  0
LINE
  5
177
330
1F
100
AcDbEntity
  8
0
  6
Continuous
 62
     7
370
    25
100
AcDbLine
 10
338.4367846624
 20
96.1114070777
 30
0.0
 11
384.2853189477
 21
111.7185912963
 31
0.0
  0
ARC
  5
178
330
1F
100
AcDbEntity
  8
0
  6
Continuous
 62
     7
370
    25
100
AcDbCircle
 10
380.4226065181
 20
123.60679775
 30
0.0
 40
12.50000000000002
100
AcDbArc
 50
288.0
 51
108.0
  0
LINE
  5
179
330
1F
100
AcDbEntity
  8
0
  6
Continuous
 62
     7
370
    25
100
AcDbLine
 10
330.2939779708
 20
121.1723891786
 30
0.0
 11
376.5598940884
 21
135.4950042037
 31
0.0
  0
ARC
  5
17A
330
1F
100
AcDbEntity
  8
0
  6
Continuous
 62
     7
370
    25
100
AcDbCircle
 10
326.5382652037
 20
133.3043561095
 30
0.0
 40
12.70000000000003
100
AcDbArc
 50
202.2070027071
 51
287.2010415041
  0
ARC
  5
17B
330
1F
100
AcDbEntity
  8
0
  6
Continuous
 62
     7
370
    25
100
AcDbCircle
 10
0.0
 20
0.0
 30
0.0
 40
340.0000000000001
100
AcDbArc
 50
22.2070027071
 51
49.7929972929
  0
ARC
  5
17C
330
1F
100
AcDbEntity
  8
0
  6
Continuous
 62
     7
370
    25
100
AcDbCircle
 10
227.6858497901
 20
269.3630334796
 30
0.0
 40
12.69999999999998
100
AcDbArc
 50
144.7989584959
 51
229.7929972929
  0
LINE
  5
17D
330
1F
100
AcDbEntity
  8
0
  6
Continuous
 62
     7
370
    25
100
AcDbLine
 10
217.3082426561
 20
276.683912537
 30
0.0
 11
245.2268133467
 21
316.2594820963
 31
0.0
  0
ARC
  5
17E
330
1F
100
AcDbEntity
  8
0
  6
Continuous
 62
     7
370
    25
100
AcDbCircle
 10
235.114100917
 20
323.60679775
 30
0.0
 40
12.50000000000002
100
AcDbArc
 50
324.0
 51
144.0
  0
LINE
  5
17F
330
1F
100
AcDbEntity
  8
0
  6
Continuous
 62
     7
370
    25
100
AcDbLine
 10
195.9900979739
 20
292.1724512668
 30
0.0
 11
225.0013884873
 21
330.9541134036
 31
0.0
  0
ARC
  5
180
330
1F
100
AcDbEntity
  8
0
  6
Continuous
 62
     7
370
    25
100
AcDbCircle
 10
185.820671276
 20
299.7798661127
 30
0.0
 40
12.70000000000001
100
AcDbArc
 50
238.2070027071
 51
323.2010415041
  0
ARC
  5
181
330
1F
100
AcDbEntity
  8
0
  6
Continuous
 62
     7
370
    25
100
AcDbCircle
 10
0.0
 20
0.0
 30
0.0
 40
340.0000000000001
100
AcDbArc
 50
58.2070027071
 51
85.7929972929
  0
ARC
  5
182
330
1F
100
AcDbEntity
  8
0
  6
Continuous
 62
     7
370
    25
100
AcDbCircle
 10
25.8741032668
 20
351.7496564037
 30
0.0
 40
12.7
100
AcDbArc
 50
180.7989584959
 51
265.7929972929
  0
LINE
  5
183
330
1F
100
AcDbEntity
  8
0
  6
Continuous
 62
     7
370
    25
100
AcDbLine
 10
13.1753379907
 20
351.5725675474
 30
0.0
 11
12.5
 21
400.0
 31
0.0
  0
ARC
  5
184
330
1F
100
AcDbEntity
  8
0
  6
Continuous
 62
     7
370
    25
100
AcDbCircle
 10
0.0
 20
400.0
 30
0.0
 40
12.5
100
AcDbArc
 50
0.0
 51
180.0
  0
LINE
  5
185
330
1F
100
AcDbEntity
  8
0
  6
Continuous
 62
     7
370
    25
100
AcDbLine
 10
-13.1753379907
 20
351.5725675474
 30
0.0
 11
-12.5
 21
400.0
 31
0.0
  0
ARC
  5
186
330
1F
100
AcDbEntity
  8
0
  6
Continuous
 62
     7
370
    25
100
AcDbCircle
 10
-25.8741032668
 20
351.7496564037
 30
0.0
 40
12.7
100
AcDbArc
 50
274.2070027071
 51
359.2010415041
  0
ARC
  5
187
330
1F
100
AcDbEntity
  8
0
  6
Continuous
 62
     7
370
    25
100
AcDbCircle
 10
0.0
 20
0.0
 30
0.0
 40
340.0000000000001
100
AcDbArc
 50
94.2070027071
 51
121.7929972929
  0
ARC
  5
188
330
1F
100
AcDbEntity
  8
0
  6
Continuous
 62
     7
370
    25
100
AcDbCircle
 10
-185.820671276
 20
299.7798661127
 30
0.0
 40
12.69999999999997
100
AcDbArc
 50
216.7989584959
 51
301.7929972929
  0
LINE
  5
189
330
1F
100
AcDbEntity
  8
0
  6
Continuous
 62
     7
370
    25
100
AcDbLine
 10
-195.9900979739
 20
292.1724512668
 30
0.0
 11
-225.0013884873
 21
330.9541134036
 31
0.0
  0
ARC
  5
18A
330
1F
100
AcDbEntity
  8
0
  6
Continuous
 62
     7
370
    25
100
AcDbCircle
 10
-235.114100917
 20
323.60679775
 30
0.0
 40
12.50000000000004
100
AcDbArc
 50
36.0
 51
216.0
  0
LINE
  5
18B
330
1F
100
AcDbEntity
  8
0
  6
Continuous
 62
     7
370
    25
100
AcDbLine
 10
-217.3082426561
 20
276.683912537
 30
0.0
 11
-245.2268133467
 21
316.2594820963
 31
0.0
  0
ARC
  5
18C
330
1F
100
AcDbEntity
  8
0
  6
Continuous
 62
     7
370
    25
100
AcDbCircle
 10
-227.6858497901
 20
269.3630334796
 30
0.0
 40
12.70000000000001
100
AcDbArc
 50
310.2070027071
 51
35.2010415041
  0
ARC
  5
18D
330
1F
100
AcDbEntity
  8
0
  6
Continuous
 62
     7
370
    25
100
AcDbCircle
 10
0.0
 20
0.0
 30
0.0
 40
340.0000000000001
100
AcDbArc
 50
130.2070027071
 51
157.7929972929
  0
ARC
  5
18E
330
1F
100
AcDbEntity
  8
0
  6
Continuous
 62
     7
370
    25
100
AcDbCircle
 10
-326.5382652037
 20
133.3043561095
 30
0.0
 40
12.7
100
AcDbArc
 50
252.7989584959
 51
337.7929972929
  0
LINE
  5
18F
330
1F
100
AcDbEntity
  8
0
  6
Continuous
 62
     7
370
    25
100
AcDbLine
 10
-330.2939779708
 20
121.1723891787
 30
0.0
 11
-376.5598940884
 21
135.4950042037
 31
0.0
  0
ARC
  5
190
330
1F
100
AcDbEntity
  8
0
  6
Continuous
 62
     7
370
    25
100
AcDbCircle
 10
-380.4226065181
 20
123.60679775
 30
0.0
 40
12.5
100
AcDbArc
 50
72.0
 51
252.0
  0
LINE
  5
191
330
1F
100
AcDbEntity
  8
0
  6
Continuous
 62
     7
370
    25
100
AcDbLine
 10
-338.4367846624
 20
96.1114070777
 30
0.0
 11
-384.2853189477
 21
111.7185912963
 31
0.0
  0
ARC
  5
192
330
1F
100
AcDbEntity
  8
0
  6
Continuous
 62
     7
370
    25
100
AcDbCircle
 10
-342.529340451
 20
84.0888870791
 30
0.0
 40
12.70000000000001
100
AcDbArc
 50
346.2070027071
 51
71.2010415041
  0
ARC
  5
193
330
1F
100
AcDbEntity
  8
0
  6
Continuous
 62
     7
370
    25
100
AcDbCircle
 10
0.0
 20
0.0
 30
0.0
 40
340.0000000000001
100
AcDbArc
 50
166.2070027071
 51
193.7929972929
  0
ARC
  5
194
330
1F
100
AcDbEntity
  8
0
  6
Continuous
 62
     7
370
    25
100
AcDbCircle
 10
-342.529340451
 20
-84.0888870791
 30
0.0
 40
12.70000000000002
100
AcDbArc
 50
288.7989584959
 51
13.7929972929
  0
LINE
  5
195
330
1F
100
AcDbEntity
  8
0
  6
Continuous
 62
     7
370
    25
100
AcDbLine
 10
-338.4367846624
 20
-96.1114070777
 30
0.0
 11
-384.2853189477
 21
-111.7185912963
 31
0.0
  0
ARC
  5
196
330
1F
100
AcDbEntity
  8
0
  6
Continuous
 62
     7
370
    25
100
AcDbCircle
 10
-380.4226065181
 20
-123.60679775
 30
0.0
 40
12.5
100
AcDbArc
 50
108.0
 51
288.0
  0
LINE
  5
197
330
1F
100
AcDbEntity
  8
0
  6
Continuous
 62
     7
370
    25
100
AcDbLine
 10
-39.6821376242
 20
-83.2233697095
 30
0.0
 11
-171.685403231
 21
-259.6824639834
 31
0.0
  0
ARC
  5
198
330
1F
100
AcDbEntity
  8
0
  6
Continuous
 62
     7
370
    25
100
AcDbCircle
 10
-29.5127109263
 20
-90.8307845554
 30
0.0
 40
12.7
100
AcDbArc
 50
0.7989584959
 51
143.2010415041
  0
LINE
  5
199
330
1F
100
AcDbEntity
  8
0
  6
Continuous
 62
     7
370
    25
100
AcDbLine
 10
-16.8139456503
 20
-90.6536956991
 30
0.0
 11
-13.7411137084
 21
-311.0016745568
 31
0.0
  0
ARC
  5
19A
330
1F
100
AcDbEntity
  8
0
  6
Continuous
 62
     7
370
    25
100
AcDbCircle
 10
-26.4398789845
 20
-311.1787634131
 30
0.0
 40
12.69999999999999
100
AcDbArc
 50
265.1434228772
 51
0.7989584959
  0
ARC
  5
19B
330
1F
100
AcDbEntity
  8
0
  6
Continuous
 62
     7
370
    25
100
AcDbCircle
 10
0.0
 20
0.0
 30
0.0
 40
325.0000000000001
100
AcDbArc
 50
238.8565771228
 51
265.1434228772
  0
ARC
  5
19C
330
1F
100
AcDbEntity
  8
0
  6
Continuous
 62
     7
370
    25
100
AcDbCircle
 10
-161.5159765331
 20
-267.2898788293
 30
0.0
 40
12.7
100
AcDbArc
 50
143.2010415041
 51
238.8565771228
  0
LINE
  5
19D
330
1F
100
AcDbEntity
  8
0
  6
Continuous
 62
     7
370
    25
100
AcDbLine
 10
-81.0209930725
 20
-44.0045451492
 30
0.0
 11
-291.5339315084
 21
-109.1733784507
 31
0.0
  0
ARC
  5
19E
330
1F
100
AcDbEntity
  8
0
  6
Continuous
 62
     7
370
    25
100
AcDbCircle
 10
-77.2652803053
 20
-56.1365120801
 30
0.0
 40
12.70000000000003
100
AcDbArc
 50
324.7989584959
 51
107.2010415041
  0
LINE
  5
19F
330
1F
100
AcDbEntity
  8
0
  6
Continuous
 62
     7
370
    25
100
AcDbLine
 10
-66.8876731713
 20
-63.4573911374
 30
0.0
 11
-193.9189922545
 21
-243.5288160076
 31
0.0
  0
ARC
  5
1A0
330
1F
100
AcDbEntity
  8
0
  6
Continuous
 62
     7
370
    25
100
AcDbCircle
 10
-204.2965993885
 20
-236.2079369502
 30
0.0
 40
12.69999999999997
100
AcDbArc
 50
229.1434228772
 51
324.7989584959
  0
ARC
  5
1A1
330
1F
100
AcDbEntity
  8
0
  6
Continuous
 62
     7
370
    25
100
AcDbCircle
 10
0.0
 20
0.0
 30
0.0
 40
325.0
100
AcDbArc
 50
202.8565771228
 51
229.1434228772
  0
ARC
  5
1A2
330
1F
100
AcDbEntity
  8
0
  6
Continuous
 62
     7
370
    25
100
AcDbCircle
 10
-287.7782187412
 20
-121.3053453815
 30
0.0
 40
12.70000000000002
100
AcDbArc
 50
107.2010415041
 51
202.8565771228
  0
LINE
  5
1A3
330
1F
100
AcDbEntity
  8
0
  6
Continuous
 62
     7
370
    25
100
AcDbLine
 10
-91.4125829693
 20
12.0225199986
 30
0.0
 11
-300.0264068235
 21
83.0362269835
 31
0.0
  0
ARC
  5
1A4
330
1F
100
AcDbEntity
  8
0
  6
Continuous
 62
     7
370
    25
100
AcDbCircle
 10
-95.5051387579
 20
0.0
 30
0.0
 40
12.70000000000001
100
AcDbArc
 50
288.7989584959
 51
71.2010415041
  0
LINE
  5
1A5
330
1F
100
AcDbEntity
  8
0
  6
Continuous
 62
     7
370
    25
100
AcDbLine
 10
-91.4125829693
 20
-12.0225199986
 30
0.0
 11
-300.0264068235
 21
-83.0362269835
 31
0.0
  0
ARC
  5
1A6
330
1F
100
AcDbEntity
  8
0
  6
Continuous
 62
     7
370
    25
100
AcDbCircle
 10
-304.1189626121
 20
-71.0137069849
 30
0.0
 40
12.69999999999999
100
AcDbArc
 50
193.1434228772
 51
288.7989584959
  0
ARC
  5
1A7
330
1F
100
AcDbEntity
  8
0
  6
Continuous
 62
     7
370
    25
100
AcDbCircle
 10
0.0
 20
0.0
 30
0.0
 40
325.0
100
AcDbArc
 50
166.8565771228
 51
193.1434228772
  0
ARC
  5
1A8
330
1F
100
AcDbEntity
  8
0
  6
Continuous
 62
     7
370
    25
100
AcDbCircle
 10
-304.1189626121
 20
71.0137069849
 30
0.0
 40
12.70000000000004
100
AcDbArc
 50
71.2010415041
 51
166.8565771228
  0
LINE
  5
1A9
330
1F
100
AcDbEntity
  8
0
  6
Continuous
 62
     7
370
    25
100
AcDbLine
 10
-66.8876731713
 20
63.4573911374
 30
0.0
 11
-193.9189922545
 21
243.5288160076
 31
0.0
  0
ARC
  5
1AA
330
1F
100
AcDbEntity
  8
0
  6
Continuous
 62
     7
370
    25
100
AcDbCircle
 10
-77.2652803053
 20
56.1365120801
 30
0.0
 40
12.70000000000001
100
AcDbArc
 50
252.7989584959
 51
35.2010415041
  0
LINE
  5
1AB
330
1F
100
AcDbEntity
  8
0
  6
Continuous
 62
     7
370
    25
100
AcDbLine
 10
-81.0209930725
 20
44.0045451492
 30
0.0
 11
-291.5339315084
 21
109.1733784507
 31
0.0
  0
ARC
  5
1AC
330
1F
100
AcDbEntity
  8
0
  6
Continuous
 62
     7
370
    25
100
AcDbCircle
 10
-287.7782187412
 20
121.3053453815
 30
0.0
 40
12.7
100
AcDbArc
 50
157.1434228772
 51
252.7989584959
  0
ARC
  5
1AD
330
1F
100
AcDbEntity
  8
0
  6
Continuous
 62
     7
370
    25
100
AcDbCircle
 10
0.0
 20
0.0
 30
0.0
 40
325.0000000000001
100
AcDbArc
 50
130.8565771228
 51
157.1434228772
  0
ARC
  5
1AE
330
1F
100
AcDbEntity
  8
0
  6
Continuous
 62
     7
370
    25
100
AcDbCircle
 10
-204.2965993885
 20
236.2079369502
 30
0.0
 40
12.70000000000003
100
AcDbArc
 50
35.2010415041
 51
130.8565771228
  0
LINE
  5
1AF
330
1F
100
AcDbEntity
  8
0
  6
Continuous
 62
     7
370
    25
100
AcDbLine
 10
-16.8139456503
 20
90.6536956991
 30
0.0
 11
-13.7411137084
 21
311.0016745568
 31
0.0
  0
ARC
  5
1B0
330
1F
100
AcDbEntity
  8
0
  6
Continuous
 62
     7
370
    25
100
AcDbCircle
 10
-29.5127109263
 20
90.8307845554
 30
0.0
 40
12.7
100
AcDbArc
 50
216.7989584959
 51
359.2010415041
  0
LINE
  5
1B1
330
1F
100
AcDbEntity
  8
0
  6
Continuous
 62
     7
370
    25
100
AcDbLine
 10
-39.6821376242
 20
83.2233697095
 30
0.0
 11
-171.685403231
 21
259.6824639834
 31
0.0
  0
ARC
  5
1B2
330
1F
100
AcDbEntity
  8
0
  6
Continuous
 62
     7
370
    25
100
AcDbCircle
 10
-161.5159765331
 20
267.2898788293
 30
0.0
 40
12.70000000000001
100
AcDbArc
 50
121.1434228772
 51
216.7989584959
  0
ARC
  5
1B3
330
1F
100
AcDbEntity
  8
0
  6
Continuous
 62
     7
370
    25
100
AcDbCircle
 10
0.0
 20
0.0
 30
0.0
 40
325.0
100
AcDbArc
 50
94.8565771228
 51
121.1434228772
  0
ARC
  5
1B4
330
1F
100
AcDbEntity
  8
0
  6
Continuous
 62
     7
370
    25
100
AcDbCircle
 10
-26.4398789845
 20
311.1787634131
 30
0.0
 40
12.70000000000002
100
AcDbArc
 50
359.2010415041
 51
94.8565771228
  0
LINE
  5
1B5
330
1F
100
AcDbEntity
  8
0
  6
Continuous
 62
     7
370
    25
100
AcDbLine
 10
39.6821376242
 20
83.2233697095
 30
0.0
 11
171.685403231
 21
259.6824639834
 31
0.0
  0
ARC
  5
1B6
330
1F
100
AcDbEntity
  8
0
  6
Continuous
 62
     7
370
    25
100
AcDbCircle
 10
29.5127109263
 20
90.8307845554
 30
0.0
 40
12.7
100
AcDbArc
 50
180.7989584959
 51
323.2010415041
  0
LINE
  5
1B7
330
1F
100
AcDbEntity
  8
0
  6
Continuous
 62
     7
370
    25
100
AcDbLine
 10
16.8139456503
 20
90.6536956991
 30
0.0
 11
13.7411137084
 21
311.0016745568
 31
0.0
  0
ARC
  5
1B8
330
1F
100
AcDbEntity
  8
0
  6
Continuous
 62
     7
370
    25
100
AcDbCircle
 10
26.4398789845
 20
311.1787634131
 30
0.0
 40
12.69999999999999
100
AcDbArc
 50
85.1434228772
 51
180.7989584959
  0
ARC
  5
1B9
330
1F
100
AcDbEntity
  8
0
  6
Continuous
 62
     7
370
    25
100
AcDbCircle
 10
0.0
 20
0.0
 30
0.0
 40
325.0
100
AcDbArc
 50
58.8565771228
 51
85.1434228772
  0
ARC
  5
1BA
330
1F
100
AcDbEntity
  8
0
  6
Continuous
 62
     7
370
    25
100
AcDbCircle
 10
161.5159765331
 20
267.2898788293
 30
0.0
 40
12.69999999999999
100
AcDbArc
 50
323.2010415041
 51
58.8565771228
  0
LINE
  5
1BB
330
1F
100
AcDbEntity
  8
0
  6
Continuous
 62
     7
370
    25
100
AcDbLine
 10
81.0209930725
 20
44.0045451492
 30
0.0
 11
291.5339315084
 21
109.1733784507
 31
0.0
  0
ARC
  5
1BC
330
1F
100
AcDbEntity
  8
0
  6
Continuous
 62
     7
370
    25
100
AcDbCircle
 10
77.2652803053
 20
56.1365120801
 30
0.0
 40
12.7
100
AcDbArc
 50
144.7989584959
 51
287.2010415041
  0
LINE
  5
1BD
330
1F
100
AcDbEntity
  8
0
  6
Continuous
 62
     7
370
    25
100
AcDbLine
 10
66.8876731713
 20
63.4573911374
 30
0.0
 11
193.9189922545
 21
243.5288160076
 31
0.0
  0
ARC
  5
1BE
330
1F
100
AcDbEntity
  8
0
  6
Continuous
 62
     7
370
    25
100
AcDbCircle
 10
204.2965993885
 20
236.2079369502
 30
0.0
 40
12.7000000000001
100
AcDbArc
 50
49.1434228772
 51
144.7989584959
  0
ARC
  5
1BF
330
1F
100
AcDbEntity
  8
0
  6
Continuous
 62
     7
370
    25
100
AcDbCircle
 10
0.0
 20
0.0
 30
0.0
 40
325.0000000000001
100
AcDbArc
 50
22.8565771228
 51
49.1434228772
  0
ARC
  5
1C0
330
1F
100
AcDbEntity
  8
0
  6
Continuous
 62
     7
370
    25
100
AcDbCircle
 10
287.7782187412
 20
121.3053453815
 30
0.0
 40
12.70000000000005
100
AcDbArc
 50
287.2010415041
 51
22.8565771228
  0
LINE
  5
1C1
330
1F
100
AcDbEntity
  8
0
  6
Continuous
 62
     7
370
    25
100
AcDbLine
 10
91.4125829693
 20
-12.0225199986
 30
0.0
 11
300.0264068235
 21
-83.0362269835
 31
0.0
  0
ARC
  5
1C2
330
1F
100
AcDbEntity
  8
0
  6
Continuous
 62
     7
370
    25
100
AcDbCircle
 10
95.5051387579
 20
0.0
 30
0.0
 40
12.7
100
AcDbArc
 50
108.7989584959
 51
251.2010415041
  0
LINE
  5
1C3
330
1F
100
AcDbEntity
  8
0
  6
Continuous
 62
     7
370
    25
100
AcDbLine
 10
91.4125829693
 20
12.0225199986
 30
0.0
 11
300.0264068235
 21
83.0362269835
 31
0.0
  0
ARC
  5
1C4
330
1F
100
AcDbEntity
  8
0
  6
Continuous
 62
     7
370
    25
100
AcDbCircle
 10
304.1189626121
 20
71.0137069849
 30
0.0
 40
12.70000000000004
100
AcDbArc
 50
13.1434228772
 51
108.7989584959
  0
ARC
  5
1C5
330
1F
100
AcDbEntity
  8
0
  6
Continuous
 62
     7
370
    25
100
AcDbCircle
 10
0.0
 20
0.0
 30
0.0
 40
325.0000000000001
100
AcDbArc
 50
346.8565771228
 51
13.1434228772
  0
ARC
  5
1C6
330
1F
100
AcDbEntity
  8
0
  6
Continuous
 62
     7
370
    25
100
AcDbCircle
 10
304.1189626121
 20
-71.0137069849
 30
0.0
 40
12.70000000000012
100
AcDbArc
 50
251.2010415041
 51
346.8565771228
  0
LINE
  5
1C7
330
1F
100
AcDbEntity
  8
0
  6
Continuous
 62
     7
370
    25
100
AcDbLine
 10
16.8139456503
 20
-90.6536956991
 30
0.0
 11
13.7411137084
 21
-311.0016745568
 31
0.0
  0
ARC
  5
1C8
330
1F
100
AcDbEntity
  8
0
  6
Continuous
 62
     7
370
    25
100
AcDbCircle
 10
29.5127109263
 20
-90.8307845554
 30
0.0
 40
12.70000000000002
100
AcDbArc
 50
36.7989584959
 51
179.2010415041
  0
LINE
  5
1C9
330
1F
100
AcDbEntity
  8
0
  6
Continuous
 62
     7
370
    25
100
AcDbLine
 10
39.6821376242
 20
-83.2233697095
 30
0.0
 11
171.685403231
 21
-259.6824639834
 31
0.0
  0
ARC
  5
1CA
330
1F
100
AcDbEntity
  8
0
  6
Continuous
 62
     7
370
    25
100
AcDbCircle
 10
161.5159765331
 20
-267.2898788293
 30
0.0
 40
12.70000000000003
100
AcDbArc
 50
301.1434228772
 51
36.7989584959
  0
ARC
  5
1CB
330
1F
100
AcDbEntity
  8
0
  6
Continuous
 62
     7
370
    25
100
AcDbCircle
 10
0.0
 20
0.0
 30
0.0
 40
325.0
100
AcDbArc
 50
274.8565771228
 51
301.1434228772
  0
ARC
  5
1CC
330
1F
100
AcDbEntity
  8
0
  6
Continuous
 62
     7
370
    25
100
AcDbCircle
 10
26.4398789845
 20
-311.1787634131
 30
0.0
 40
12.70000000000002
100
AcDbArc
 50
179.2010415041
 51
274.8565771228
  0
LINE
  5
1CD
330
1F
100
AcDbEntity
  8
0
  6
Continuous
 62
     7
370
    25
100
AcDbLine
 10
66.8876731713
 20
-63.4573911374
 30
0.0
 11
193.9189922545
 21
-243.5288160076
 31
0.0
  0
ARC
  5
1CE
330
1F
100
AcDbEntity
  8
0
  6
Continuous
 62
     7
370
    25
100
AcDbCircle
 10
77.2652803053
 20
-56.1365120801
 30
0.0
 40
12.7
100
AcDbArc
 50
72.7989584959
 51
215.2010415041
  0
LINE
  5
1CF
330
1F
100
AcDbEntity
  8
0
  6
Continuous
 62
     7
370
    25
100
AcDbLine
 10
81.0209930725
 20
-44.0045451492
 30
0.0
 11
291.5339315084
 21
-109.1733784507
 31
0.0
  0
ARC
  5
1D0
330
1F
100
AcDbEntity
  8
0
  6
Continuous
 62
     7
370
    25
100
AcDbCircle
 10
287.7782187412
 20
-121.3053453815
 30
0.0
 40
12.70000000000002
100
AcDbArc
 50
337.1434228772
 51
72.7989584959
  0
ARC
  5
1D1
330
1F
100
AcDbEntity
  8
0
  6
Continuous
 62
     7
370
    25
100
AcDbCircle
 10
0.0
 20
0.0
 30
0.0
 40
325.0
100
AcDbArc
 50
310.8565771228
 51
337.1434228772
  0
ARC
  5
1D2
330
1F
100
AcDbEntity
  8
0
  6
Continuous
 62
     7
370
    25
100
AcDbCircle
 10
204.2965993885
 20
-236.2079369502
 30
0.0
 40
12.7
100
AcDbArc
 50
215.2010415041
 51
310.8565771228
  0
LINE
  5
1D3
330
1F
100
AcDbEntity
  8
0
  6
Continuous
 62
     7
370
    25
100
AcDbLine
 10
1.6875
 20
-326.9730795099
 30
0.0
 11
1.6875
 21
-318.2269204901
 31
0.0
  0
ARC
  5
1D4
330
1F
100
AcDbEntity
  8
0
  6
Continuous
 62
     7
370
    25
100
AcDbCircle
 10
2.1875
 20
-326.9730795099
 30
0.0
 40
0.5000000000000424
100
AcDbArc
 50
180.0
 51
254.7177593265
  0
ARC
  5
1D5
330
1F
100
AcDbEntity
  8
0
  6
Continuous
 62
     7
370
    25
100
AcDbCircle
 10
1.6875
 20
-328.803
 30
0.0
 40
1.396999999999991
100
AcDbArc
 50
270.0
 51
74.7177593265
  0
LINE
  5
1D6
330
1F
100
AcDbEntity
  8
0
  6
Continuous
 62
     7
370
    25
100
AcDbLine
 10
-1.6875
 20
-330.2
 30
0.0
 11
1.6875
 21
-330.2
 31
0.0
  0
ARC
  5
1D7
330
1F
100
AcDbEntity
  8
0
  6
Continuous
 62
     7
370
    25
100
AcDbCircle
 10
-1.6875
 20
-328.803
 30
0.0
 40
1.396999999999991
100
AcDbArc
 50
105.2822406735
 51
270.0
  0
ARC
  5
1D8
330
1F
100
AcDbEntity
  8
0
  6
Continuous
 62
     7
370
    25
100
AcDbCircle
 10
-2.1875
 20
-326.9730795099
 30
0.0
 40
0.5000000000000424
100
AcDbArc
 50
285.2822406735
 51
0.0
  0
LINE
  5
1D9
330
1F
100
AcDbEntity
  8
0
  6
Continuous
 62
     7
370
    25
100
AcDbLine
 10
-1.6875
 20
-326.9730795099
 30
0.0
 11
-1.6875
 21
-318.2269204901
 31
0.0
  0
ARC
  5
1DA
330
1F
100
AcDbEntity
  8
0
  6
Continuous
 62
     7
370
    25
100
AcDbCircle
 10
-2.1875
 20
-318.2269204901
 30
0.0
 40
0.5000000000000424
100
AcDbArc
 50
0.0
 51
74.7177593265
  0
ARC
  5
1DB
330
1F
100
AcDbEntity
  8
0
  6
Continuous
 62
     7
370
    25
100
AcDbCircle
 10
-1.6875
 20
-316.397
 30
0.0
 40
1.396999999999991
100
AcDbArc
 50
90.0
 51
254.7177593265
  0
LINE
  5
1DC
330
1F
100
AcDbEntity
  8
0
  6
Continuous
 62
     7
370
    25
100
AcDbLine
 10
-1.6875
 20
-315.0
 30
0.0
 11
1.6875
 21
-315.0
 31
0.0
  0
ARC
  5
1DD
330
1F
100
AcDbEntity
  8
0
  6
Continuous
 62
     7
370
    25
100
AcDbCircle
 10
1.6875
 20
-316.397
 30
0.0
 40
1.396999999999991
100
AcDbArc
 50
285.2822406735
 51
90.0
  0
ARC
  5
1DE
330
1F
100
AcDbEntity
  8
0
  6
Continuous
 62
     7
370
    25
100
AcDbCircle
 10
2.1875
 20
-318.2269204901
 30
0.0
 40
0.5000000000000424
100
AcDbArc
 50
105.2822406735
 51
180.0
  0
ARC
  5
1DF
330
1F
100
AcDbEntity
  8
0
  6
Continuous
 62
     7
370
    25
100
AcDbCircle
 10
-1.6875
 20
-208.803
 30
0.0
 40
1.397000000000019
100
AcDbArc
 50
105.2822406737
 51
269.9999999999
  0
ARC
  5
1E0
330
1F
100
AcDbEntity
  8
0
  6
Continuous
 62
     7
370
    25
100
AcDbCircle
 10
-2.1875
 20
-206.9730795099
 30
0.0
 40
0.5000000000000058
100
AcDbArc
 50
285.2822406737
 51
0.0
  0
LINE
  5
1E1
330
1F
100
AcDbEntity
  8
0
  6
Continuous
 62
     7
370
    25
100
AcDbLine
 10
-1.6875
 20
-206.9730795099
 30
0.0
 11
-1.6875
 21
-198.2269204901
 31
0.0
  0
ARC
  5
1E2
330
1F
100
AcDbEntity
  8
0
  6
Continuous
 62
     7
370
    25
100
AcDbCircle
 10
-2.1875
 20
-198.2269204901
 30
0.0
 40
0.5000000000000058
100
AcDbArc
 50
0.0
 51
74.7177593263
  0
ARC
  5
1E3
330
1F
100
AcDbEntity
  8
0
  6
Continuous
 62
     7
370
    25
100
AcDbCircle
 10
-1.6875
 20
-196.397
 30
0.0
 40
1.39700000000002
100
AcDbArc
 50
90.0000000001
 51
254.7177593263
  0
LINE
  5
1E4
330
1F
100
AcDbEntity
  8
0
  6
Continuous
 62
     7
370
    25
100
AcDbLine
 10
-1.6875
 20
-195.0
 30
0.0
 11
1.6875
 21
-195.0
 31
0.0
  0
ARC
  5
1E5
330
1F
100
AcDbEntity
  8
0
  6
Continuous
 62
     7
370
    25
100
AcDbCircle
 10
1.6875
 20
-196.397
 30
0.0
 40
1.396999999999991
100
AcDbArc
 50
285.2822406734
 51
90.0000000001
  0
ARC
  5
1E6
330
1F
100
AcDbEntity
  8
0
  6
Continuous
 62
     7
370
    25
100
AcDbCircle
 10
2.1875
 20
-198.2269204901
 30
0.0
 40
0.5000000000000234
100
AcDbArc
 50
105.2822406734
 51
180.0
  0
LINE
  5
1E7
330
1F
100
AcDbEntity
  8
0
  6
Continuous
 62
     7
370
    25
100
AcDbLine
 10
1.6875
 20
-206.9730795099
 30
0.0
 11
1.6875
 21
-198.2269204901
 31
0.0
  0
ARC
  5
1E8
330
1F
100
AcDbEntity
  8
0
  6
Continuous
 62
     7
370
    25
100
AcDbCircle
 10
2.1875
 20
-206.9730795099
 30
0.0
 40
0.4999999999999998
100
AcDbArc
 50
180.0
 51
254.7177593266
  0
ARC
  5
1E9
330
1F
100
AcDbEntity
  8
0
  6
Continuous
 62
     7
370
    25
100
AcDbCircle
 10
1.6875
 20
-208.803
 30
0.0
 40
1.397000000000012
100
AcDbArc
 50
269.9999999999
 51
74.7177593266
  0
LINE
  5
1EA
330
1F
100
AcDbEntity
  8
0
  6
Continuous
 62
     7
370
    25
100
AcDbLine
 10
-1.6875
 20
-210.2
 30
0.0
 11
1.6875
 21
-210.2
 31
0.0
  0
LINE
  5
1EB
330
1F
100
AcDbEntity
  8
0
  6
Continuous
 62
     7
370
    25
100
AcDbLine
 10
1.6875
 20
-86.9730795099
 30
0.0
 11
1.6875
 21
-78.2269204901
 31
0.0
  0
ARC
  5
1EC
330
1F
100
AcDbEntity
  8
0
  6
Continuous
 62
     7
370
    25
100
AcDbCircle
 10
2.1875
 20
-86.9730795099
 30
0.0
 40
0.4999999999999996
100
AcDbArc
 50
180.0
 51
254.7177593265
  0
ARC
  5
1ED
330
1F
100
AcDbEntity
  8
0
  6
Continuous
 62
     7
370
    25
100
AcDbCircle
 10
1.6875
 20
-88.803
 30
0.0
 40
1.397000000000014
100
AcDbArc
 50
270.0
 51
74.7177593265
  0
LINE
  5
1EE
330
1F
100
AcDbEntity
  8
0
  6
Continuous
 62
     7
370
    25
100
AcDbLine
 10
-1.6875
 20
-90.2
 30
0.0
 11
1.6875
 21
-90.2
 31
0.0
  0
ARC
  5
1EF
330
1F
100
AcDbEntity
  8
0
  6
Continuous
 62
     7
370
    25
100
AcDbCircle
 10
-1.6875
 20
-88.803
 30
0.0
 40
1.397000000000002
100
AcDbArc
 50
105.2822406735
 51
270.0
  0
ARC
  5
1F0
330
1F
100
AcDbEntity
  8
0
  6
Continuous
 62
     7
370
    25
100
AcDbCircle
 10
-2.1875
 20
-86.9730795099
 30
0.0
 40
0.5000000000000008
100
AcDbArc
 50
285.2822406735
 51
0.0
  0
LINE
  5
1F1
330
1F
100
AcDbEntity
  8
0
  6
Continuous
 62
     7
370
    25
100
AcDbLine
 10
-1.6875
 20
-86.9730795099
 30
0.0
 11
-1.6875
 21
-78.2269204901
 31
0.0
  0
ARC
  5
1F2
330
1F
100
AcDbEntity
  8
0
  6
Continuous
 62
     7
370
    25
100
AcDbCircle
 10
-2.1875
 20
-78.2269204901
 30
0.0
 40
0.5
100
AcDbArc
 50
0.0
 51
74.7177593265
  0
ARC
  5
1F3
330
1F
100
AcDbEntity
  8
0
  6
Continuous
 62
     7
370
    25
100
AcDbCircle
 10
-1.6875
 20
-76.397
 30
0.0
 40
1.397000000000014
100
AcDbArc
 50
90.0
 51
254.7177593265
  0
LINE
  5
1F4
330
1F
100
AcDbEntity
  8
0
  6
Continuous
 62
     7
370
    25
100
AcDbLine
 10
-1.6875
 20
-75.0
 30
0.0
 11
1.6875
 21
-75.0
 31
0.0
  0
ARC
  5
1F5
330
1F
100
AcDbEntity
  8
0
  6
Continuous
 62
     7
370
    25
100
AcDbCircle
 10
1.6875
 20
-76.397
 30
0.0
 40
1.397000000000014
100
AcDbArc
 50
285.2822406735
 51
90.0
  0
ARC
  5
1F6
330
1F
100
AcDbEntity
  8
0
  6
Continuous
 62
     7
370
    25
100
AcDbCircle
 10
2.1875
 20
-78.2269204901
 30
0.0
 40
0.4999999999999996
100
AcDbArc
 50
105.2822406735
 51
180.0
  0
CIRCLE
  5
1F7
330
1F
100
AcDbEntity
  8
0
  6
Continuous
 62
     7
370
    25
100
AcDbCircle
 10
7.5
 20
-400.0
 30
0.0
 40
1.396999999999982
  0
CIRCLE
  5
1F8
330
1F
100
AcDbEntity
  8
0
  6
Continuous
 62
     7
370
    25
100
AcDbCircle
 10
-7.5
 20
-400.0
 30
0.0
 40
1.396999999999982
  0
LINE
  5
1F9
330
1F
100
AcDbEntity
  8
0
  6
Continuous
 62
     7
370
    25
100
AcDbLine
 10
-190.8247378546
 20
-265.5186656399
 30
0.0
 11
-185.6838745685
 21
-258.4428743573
 31
0.0
  0
ARC
  5
1FA
330
1F
100
AcDbEntity
  8
0
  6
Continuous
 62
     7
370
    25
100
AcDbCircle
 10
-190.4202293574
 20
-265.812558266
 30
0.0
 40
0.5000000000000521
100
AcDbArc
 50
144.0
 51
218.7177593265
  0
ARC
  5
1FB
330
1F
100
AcDbEntity
  8
0
  6
Continuous
 62
     7
370
    25
100
AcDbCircle
 10
-191.9003381315
 20
-266.9991024147
 30
0.0
 40
1.39699999999999
100
AcDbArc
 50
234.0
 51
38.7177593265
  0
LINE
  5
1FC
330
1F
100
AcDbEntity
  8
0
  6
Continuous
 62
     7
370
    25
100
AcDbLine
 10
-195.451906485
 20
-266.1455239294
 30
0.0
 11
-192.721474129
 21
-268.1292991559
 31
0.0
  0
ARC
  5
1FD
330
1F
100
AcDbEntity
  8
0
  6
Continuous
 62
     7
370
    25
100
AcDbCircle
 10
-194.6307704875
 20
-265.0153271882
 30
0.0
 40
1.397000000000006
100
AcDbArc
 50
69.2822406735
 51
234.0
  0
ARC
  5
1FE
330
1F
100
AcDbEntity
  8
0
  6
Continuous
 62
     7
370
    25
100
AcDbCircle
 10
-193.9596787078
 20
-263.2409977873
 30
0.0
 40
0.5000000000000061
100
AcDbArc
 50
249.2822406735
 51
324.0
  0
LINE
  5
1FF
330
1F
100
AcDbEntity
  8
0
  6
Continuous
 62
     7
370
    25
100
AcDbLine
 10
-193.5551702106
 20
-263.5348904134
 30
0.0
 11
-188.4143069245
 21
-256.4590991308
 31
0.0
  0
ARC
  5
200
330
1F
100
AcDbEntity
  8
0
  6
Continuous
 62
     7
370
    25
100
AcDbCircle
 10
-188.8188154217
 20
-256.1652065047
 30
0.0
 40
0.5000000000000291
100
AcDbArc
 50
324.0
 51
38.7177593265
  0
ARC
  5
201
330
1F
100
AcDbEntity
  8
0
  6
Continuous
 62
     7
370
    25
100
AcDbCircle
 10
-187.3387066476
 20
-254.978662356
 30
0.0
 40
1.396999999999975
100
AcDbArc
 50
54.0
 51
218.7177593265
  0
LINE
  5
202
330
1F
100
AcDbEntity
  8
0
  6
Continuous
 62
     7
370
    25
100
AcDbLine
 10
-186.5175706501
 20
-253.8484656149
 30
0.0
 11
-183.7871382941
 21
-255.8322408414
 31
0.0
  0
ARC
  5
203
330
1F
100
AcDbEntity
  8
0
  6
Continuous
 62
     7
370
    25
100
AcDbCircle
 10
-184.6082742916
 20
-256.9624375825
 30
0.0
 40
1.397000000000024
100
AcDbArc
 50
249.2822406735
 51
54.0
  0
ARC
  5
204
330
1F
100
AcDbEntity
  8
0
  6
Continuous
 62
     7
370
    25
100
AcDbCircle
 10
-185.2793660713
 20
-258.7367669835
 30
0.0
 40
0.5000000000000291
100
AcDbArc
 50
69.2822406735
 51
144.0
  0
LINE
  5
205
330
1F
100
AcDbEntity
  8
0
  6
Continuous
 62
     7
370
    25
100
AcDbLine
 10
193.5551702106
 20
-263.5348904134
 30
0.0
 11
188.4143069245
 21
-256.4590991308
 31
0.0
  0
ARC
  5
206
330
1F
100
AcDbEntity
  8
0
  6
Continuous
 62
     7
370
    25
100
AcDbCircle
 10
193.9596787078
 20
-263.2409977872
 30
0.0
 40
0.5000000000000061
100
AcDbArc
 50
216.0
 51
290.7177593265
  0
ARC
  5
207
330
1F
100
AcDbEntity
  8
0
  6
Continuous
 62
     7
370
    25
100
AcDbCircle
 10
194.6307704875
 20
-265.0153271882
 30
0.0
 40
1.396999999999981
100
AcDbArc
 50
306.0
 51
110.7177593265
  0
LINE
  5
208
330
1F
100
AcDbEntity
  8
0
  6
Continuous
 62
     7
370
    25
100
AcDbLine
 10
192.721474129
 20
-268.1292991558
 30
0.0
 11
195.451906485
 21
-266.1455239294
 31
0.0
  0
ARC
  5
209
330
1F
100
AcDbEntity
  8
0
  6
Continuous
 62
     7
370
    25
100
AcDbCircle
 10
191.9003381315
 20
-266.9991024147
 30
0.0
 40
1.39699999999997
100
AcDbArc
 50
141.2822406735
 51
306.0
  0
ARC
  5
20A
330
1F
100
AcDbEntity
  8
0
  6
Continuous
 62
     7
370
    25
100
AcDbCircle
 10
190.4202293574
 20
-265.812558266
 30
0.0
 40
0.5000000000000405
100
AcDbArc
 50
321.2822406735
 51
36.0
  0
LINE
  5
20B
330
1F
100
AcDbEntity
  8
0
  6
Continuous
 62
     7
370
    25
100
AcDbLine
 10
190.8247378546
 20
-265.5186656399
 30
0.0
 11
185.6838745685
 21
-258.4428743573
 31
0.0
  0
ARC
  5
20C
330
1F
100
AcDbEntity
  8
0
  6
Continuous
 62
     7
370
    25
100
AcDbCircle
 10
185.2793660713
 20
-258.7367669835
 30
0.0
 40
0.5000000000000291
100
AcDbArc
 50
36.0
 51
110.7177593264
  0
ARC
  5
20D
330
1F
100
AcDbEntity
  8
0
  6
Continuous
 62
     7
370
    25
100
AcDbCircle
 10
184.6082742916
 20
-256.9624375825
 30
0.0
 40
1.397000000000044
100
AcDbArc
 50
126.0
 51
290.7177593265
  0
LINE
  5
20E
330
1F
100
AcDbEntity
  8
0
  6
Continuous
 62
     7
370
    25
100
AcDbLine
 10
183.7871382941
 20
-255.8322408413
 30
0.0
 11
186.5175706501
 21
-253.8484656149
 31
0.0
  0
ARC
  5
20F
330
1F
100
AcDbEntity
  8
0
  6
Continuous
 62
     7
370
    25
100
AcDbCircle
 10
187.3387066476
 20
-254.978662356
 30
0.0
 40
1.397000000000006
100
AcDbArc
 50
321.2822406735
 51
126.0
  0
ARC
  5
210
330
1F
100
AcDbEntity
  8
0
  6
Continuous
 62
     7
370
    25
100
AcDbCircle
 10
188.8188154217
 20
-256.1652065047
 30
0.0
 40
0.500000000000005
100
AcDbArc
 50
141.2822406735
 51
216.0
  0
LINE
  5
211
330
1F
100
AcDbEntity
  8
0
  6
Continuous
 62
     7
370
    25
100
AcDbLine
 10
311.491344099
 20
-99.4353304004
 30
0.0
 11
303.1732525706
 21
-96.7326186278
 31
0.0
  0
ARC
  5
212
330
1F
100
AcDbEntity
  8
0
  6
Continuous
 62
     7
370
    25
100
AcDbCircle
 10
311.6458525962
 20
-98.9598021423
 30
0.0
 40
0.5000000000000263
100
AcDbArc
 50
252.0
 51
326.7177593265
  0
ARC
  5
213
330
1F
100
AcDbEntity
  8
0
  6
Continuous
 62
     7
370
    25
100
AcDbCircle
 10
313.2317019054
 20
-100.0008069302
 30
0.0
 40
1.397
100
AcDbArc
 50
342.0
 51
146.7177593265
  0
LINE
  5
214
330
1F
100
AcDbEntity
  8
0
  6
Continuous
 62
     7
370
    25
100
AcDbLine
 10
313.5173955027
 20
-103.6423194138
 30
0.0
 11
314.5603278587
 21
-100.4325036713
 31
0.0
  0
ARC
  5
215
330
1F
100
AcDbEntity
  8
0
  6
Continuous
 62
     7
370
    25
100
AcDbCircle
 10
312.1887695494
 20
-103.2106226727
 30
0.0
 40
1.396999999999979
100
AcDbArc
 50
177.2822406735
 51
342.0
  0
ARC
  5
216
330
1F
100
AcDbEntity
  8
0
  6
Continuous
 62
     7
370
    25
100
AcDbCircle
 10
310.2939032458
 20
-103.1206744011
 30
0.0
 40
0.5000000000000373
100
AcDbArc
 50
357.2822406735
 51
72.0
  0
LINE
  5
217
330
1F
100
AcDbEntity
  8
0
  6
Continuous
 62
     7
370
    25
100
AcDbLine
 10
310.448411743
 20
-102.6451461429
 30
0.0
 11
302.1303202146
 21
-99.9424343703
 31
0.0
  0
ARC
  5
218
330
1F
100
AcDbEntity
  8
0
  6
Continuous
 62
     7
370
    25
100
AcDbCircle
 10
301.9758117174
 20
-100.4179626284
 30
0.0
 40
0.5000000000000419
100
AcDbArc
 50
72.0
 51
146.7177593265
  0
ARC
  5
219
330
1F
100
AcDbEntity
  8
0
  6
Continuous
 62
     7
370
    25
100
AcDbCircle
 10
300.3899624082
 20
-99.3769578405
 30
0.0
 40
1.396999999999992
100
AcDbArc
 50
162.0
 51
326.7177593265
  0
LINE
  5
21A
330
1F
100
AcDbEntity
  8
0
  6
Continuous
 62
     7
370
    25
100
AcDbLine
 10
299.061336455
 20
-98.9452610993
 30
0.0
 11
300.104268811
 21
-95.7354453568
 31
0.0
  0
ARC
  5
21B
330
1F
100
AcDbEntity
  8
0
  6
Continuous
 62
     7
370
    25
100
AcDbCircle
 10
301.4328947642
 20
-96.167142098
 30
0.0
 40
1.397000000000021
100
AcDbArc
 50
357.2822406735
 51
162.0
  0
ARC
  5
21C
330
1F
100
AcDbEntity
  8
0
  6
Continuous
 62
     7
370
    25
100
AcDbCircle
 10
303.3277610678
 20
-96.2570903696
 30
0.0
 40
0.5000000000000373
100
AcDbArc
 50
177.2822406735
 51
252.0
  0
LINE
  5
21D
330
1F
100
AcDbEntity
  8
0
  6
Continuous
 62
     7
370
    25
100
AcDbLine
 10
-311.491344099
 20
99.4353304004
 30
0.0
 11
-303.1732525706
 21
96.7326186278
 31
0.0
  0
ARC
  5
21E
330
1F
100
AcDbEntity
  8
0
  6
Continuous
 62
     7
370
    25
100
AcDbCircle
 10
-311.6458525962
 20
98.9598021423
 30
0.0
 40
0.5000000000000816
100
AcDbArc
 50
72.0
 51
146.7177593265
  0
ARC
  5
21F
330
1F
100
AcDbEntity
  8
0
  6
Continuous
 62
     7
370
    25
100
AcDbCircle
 10
-313.2317019054
 20
100.0008069302
 30
0.0
 40
1.396999999999967
100
AcDbArc
 50
162.0
 51
326.7177593265
  0
LINE
  5
220
330
1F
100
AcDbEntity
  8
0
  6
Continuous
 62
     7
370
    25
100
AcDbLine
 10
-313.5173955027
 20
103.6423194138
 30
0.0
 11
-314.5603278587
 21
100.4325036713
 31
0.0
  0
ARC
  5
221
330
1F
100
AcDbEntity
  8
0
  6
Continuous
 62
     7
370
    25
100
AcDbCircle
 10
-312.1887695494
 20
103.2106226727
 30
0.0
 40
1.396999999999979
100
AcDbArc
 50
357.2822406735
 51
162.0
  0
ARC
  5
222
330
1F
100
AcDbEntity
  8
0
  6
Continuous
 62
     7
370
    25
100
AcDbCircle
 10
-310.2939032458
 20
103.1206744011
 30
0.0
 40
0.5000000000000373
100
AcDbArc
 50
177.2822406735
 51
252.0
  0
LINE
  5
223
330
1F
100
AcDbEntity
  8
0
  6
Continuous
 62
     7
370
    25
100
AcDbLine
 10
-310.448411743
 20
102.6451461429
 30
0.0
 11
-302.1303202146
 21
99.9424343703
 31
0.0
  0
ARC
  5
224
330
1F
100
AcDbEntity
  8
0
  6
Continuous
 62
     7
370
    25
100
AcDbCircle
 10
-301.9758117174
 20
100.4179626284
 30
0.0
 40
0.5000000000000341
100
AcDbArc
 50
252.0
 51
326.7177593265
  0
ARC
  5
225
330
1F
100
AcDbEntity
  8
0
  6
Continuous
 62
     7
370
    25
100
AcDbCircle
 10
-300.3899624082
 20
99.3769578405
 30
0.0
 40
1.397000000000021
100
AcDbArc
 50
342.0
 51
146.7177593265
  0
LINE
  5
226
330
1F
100
AcDbEntity
  8
0
  6
Continuous
 62
     7
370
    25
100
AcDbLine
 10
-299.061336455
 20
98.9452610993
 30
0.0
 11
-300.104268811
 21
95.7354453568
 31
0.0
  0
ARC
  5
227
330
1F
100
AcDbEntity
  8
0
  6
Continuous
 62
     7
370
    25
100
AcDbCircle
 10
-301.4328947643
 20
96.167142098
 30
0.0
 40
1.397000000000025
100
AcDbArc
 50
177.2822406735
 51
342.0
  0
ARC
  5
228
330
1F
100
AcDbEntity
  8
0
  6
Continuous
 62
     7
370
    25
100
AcDbCircle
 10
-303.3277610678
 20
96.2570903696
 30
0.0
 40
0.5000000000000366
100
AcDbArc
 50
357.2822406735
 51
72.0
  0
LINE
  5
229
330
1F
100
AcDbEntity
  8
0
  6
Continuous
 62
     7
370
    25
100
AcDbLine
 10
-193.5551702106
 20
263.5348904134
 30
0.0
 11
-188.4143069245
 21
256.4590991308
 31
0.0
  0
ARC
  5
22A
330
1F
100
AcDbEntity
  8
0
  6
Continuous
 62
     7
370
    25
100
AcDbCircle
 10
-193.9596787078
 20
263.2409977872
 30
0.0
 40
0.4999999999999497
100
AcDbArc
 50
36.0
 51
110.7177593265
  0
ARC
  5
22B
330
1F
100
AcDbEntity
  8
0
  6
Continuous
 62
     7
370
    25
100
AcDbCircle
 10
-194.6307704875
 20
265.0153271882
 30
0.0
 40
1.397000000000044
100
AcDbArc
 50
126.0
 51
290.7177593265
  0
LINE
  5
22C
330
1F
100
AcDbEntity
  8
0
  6
Continuous
 62
     7
370
    25
100
AcDbLine
 10
-192.721474129
 20
268.1292991558
 30
0.0
 11
-195.451906485
 21
266.1455239294
 31
0.0
  0
ARC
  5
22D
330
1F
100
AcDbEntity
  8
0
  6
Continuous
 62
     7
370
    25
100
AcDbCircle
 10
-191.9003381315
 20
266.9991024147
 30
0.0
 40
1.397000000000006
100
AcDbArc
 50
321.2822406735
 51
126.0
  0
ARC
  5
22E
330
1F
100
AcDbEntity
  8
0
  6
Continuous
 62
     7
370
    25
100
AcDbCircle
 10
-190.4202293574
 20
265.812558266
 30
0.0
 40
0.4999999999999957
100
AcDbArc
 50
141.2822406735
 51
216.0
  0
LINE
  5
22F
330
1F
100
AcDbEntity
  8
0
  6
Continuous
 62
     7
370
    25
100
AcDbLine
 10
-190.8247378546
 20
265.5186656399
 30
0.0
 11
-185.6838745685
 21
258.4428743573
 31
0.0
  0
ARC
  5
230
330
1F
100
AcDbEntity
  8
0
  6
Continuous
 62
     7
370
    25
100
AcDbCircle
 10
-185.2793660713
 20
258.7367669835
 30
0.0
 40
0.499999999999953
100
AcDbArc
 50
216.0
 51
290.7177593265
  0
ARC
  5
231
330
1F
100
AcDbEntity
  8
0
  6
Continuous
 62
     7
370
    25
100
AcDbCircle
 10
-184.6082742916
 20
256.9624375825
 30
0.0
 40
1.396999999999991
100
AcDbArc
 50
306.0
 51
110.7177593265
  0
LINE
  5
232
330
1F
100
AcDbEntity
  8
0
  6
Continuous
 62
     7
370
    25
100
AcDbLine
 10
-183.7871382941
 20
255.8322408413
 30
0.0
 11
-186.5175706501
 21
253.8484656149
 31
0.0
  0
ARC
  5
233
330
1F
100
AcDbEntity
  8
0
  6
Continuous
 62
     7
370
    25
100
AcDbCircle
 10
-187.3387066476
 20
254.978662356
 30
0.0
 40
1.396999999999988
100
AcDbArc
 50
141.2822406735
 51
306.0
  0
ARC
  5
234
330
1F
100
AcDbEntity
  8
0
  6
Continuous
 62
     7
370
    25
100
AcDbCircle
 10
-188.8188154217
 20
256.1652065047
 30
0.0
 40
0.5000000000000315
100
AcDbArc
 50
321.2822406736
 51
36.0
  0
LINE
  5
235
330
1F
100
AcDbEntity
  8
0
  6
Continuous
 62
     7
370
    25
100
AcDbLine
 10
-310.448411743
 20
-102.6451461429
 30
0.0
 11
-302.1303202146
 21
-99.9424343703
 31
0.0
  0
ARC
  5
236
330
1F
100
AcDbEntity
  8
0
  6
Continuous
 62
     7
370
    25
100
AcDbCircle
 10
-310.2939032458
 20
-103.1206744011
 30
0.0
 40
0.5000000000000373
100
AcDbArc
 50
108.0
 51
182.7177593265
  0
ARC
  5
237
330
1F
100
AcDbEntity
  8
0
  6
Continuous
 62
     7
370
    25
100
AcDbCircle
 10
-312.1887695494
 20
-103.2106226727
 30
0.0
 40
1.396999999999978
100
AcDbArc
 50
198.0
 51
2.7177593265
  0
LINE
  5
238
330
1F
100
AcDbEntity
  8
0
  6
Continuous
 62
     7
370
    25
100
AcDbLine
 10
-314.5603278587
 20
-100.4325036714
 30
0.0
 11
-313.5173955026
 21
-103.6423194139
 31
0.0
  0
ARC
  5
239
330
1F
100
AcDbEntity
  8
0
  6
Continuous
 62
     7
370
    25
100
AcDbCircle
 10
-313.2317019054
 20
-100.0008069302
 30
0.0
 40
1.396999999999992
100
AcDbArc
 50
33.2822406735
 51
198.0
  0
ARC
  5
23A
330
1F
100
AcDbEntity
  8
0
  6
Continuous
 62
     7
370
    25
100
AcDbCircle
 10
-311.6458525962
 20
-98.9598021423
 30
0.0
 40
0.5000000000000263
100
AcDbArc
 50
213.2822406735
 51
288.0
  0
LINE
  5
23B
330
1F
100
AcDbEntity
  8
0
  6
Continuous
 62
     7
370
    25
100
AcDbLine
 10
-311.491344099
 20
-99.4353304004
 30
0.0
 11
-303.1732525706
 21
-96.7326186278
 31
0.0
  0
ARC
  5
23C
330
1F
100
AcDbEntity
  8
0
  6
Continuous
 62
     7
370
    25
100
AcDbCircle
 10
-303.3277610678
 20
-96.2570903697
 30
0.0
 40
0.5000000000000373
100
AcDbArc
 50
288.0
 51
2.7177593265
  0
ARC
  5
23D
330
1F
100
AcDbEntity
  8
0
  6
Continuous
 62
     7
370
    25
100
AcDbCircle
 10
-301.4328947642
 20
-96.167142098
 30
0.0
 40
1.397000000000016
100
AcDbArc
 50
18.0
 51
182.7177593265
  0
LINE
  5
23E
330
1F
100
AcDbEntity
  8
0
  6
Continuous
 62
     7
370
    25
100
AcDbLine
 10
-300.104268811
 20
-95.7354453569
 30
0.0
 11
-299.061336455
 21
-98.9452610994
 31
0.0
  0
ARC
  5
23F
330
1F
100
AcDbEntity
  8
0
  6
Continuous
 62
     7
370
    25
100
AcDbCircle
 10
-300.3899624082
 20
-99.3769578405
 30
0.0
 40
1.397000000000016
100
AcDbArc
 50
213.2822406735
 51
18.0
  0
ARC
  5
240
330
1F
100
AcDbEntity
  8
0
  6
Continuous
 62
     7
370
    25
100
AcDbCircle
 10
-301.9758117174
 20
-100.4179626284
 30
0.0
 40
0.5000000000000341
100
AcDbArc
 50
33.2822406735
 51
108.0
  0
LINE
  5
241
330
1F
100
AcDbEntity
  8
0
  6
Continuous
 62
     7
370
    25
100
AcDbLine
 10
-1.6875
 20
326.9730795099
 30
0.0
 11
-1.6875
 21
318.2269204901
 31
0.0
  0
ARC
  5
242
330
1F
100
AcDbEntity
  8
0
  6
Continuous
 62
     7
370
    25
100
AcDbCircle
 10
-2.1875
 20
326.9730795099
 30
0.0
 40
0.5000000000000424
100
AcDbArc
 50
0.0
 51
74.7177593265
  0
ARC
  5
243
330
1F
100
AcDbEntity
  8
0
  6
Continuous
 62
     7
370
    25
100
AcDbCircle
 10
-1.6875
 20
328.803
 30
0.0
 40
1.396999999999991
100
AcDbArc
 50
90.0
 51
254.7177593265
  0
LINE
  5
244
330
1F
100
AcDbEntity
  8
0
  6
Continuous
 62
     7
370
    25
100
AcDbLine
 10
1.6875
 20
330.2
 30
0.0
 11
-1.6875
 21
330.2
 31
0.0
  0
ARC
  5
245
330
1F
100
AcDbEntity
  8
0
  6
Continuous
 62
     7
370
    25
100
AcDbCircle
 10
1.6875
 20
328.803
 30
0.0
 40
1.396999999999991
100
AcDbArc
 50
285.2822406735
 51
90.0
  0
ARC
  5
246
330
1F
100
AcDbEntity
  8
0
  6
Continuous
 62
     7
370
    25
100
AcDbCircle
 10
2.1875
 20
326.9730795099
 30
0.0
 40
0.5000000000000424
100
AcDbArc
 50
105.2822406735
 51
180.0
  0
LINE
  5
247
330
1F
100
AcDbEntity
  8
0
  6
Continuous
 62
     7
370
    25
100
AcDbLine
 10
1.6875
 20
326.9730795099
 30
0.0
 11
1.6875
 21
318.2269204901
 31
0.0
  0
ARC
  5
248
330
1F
100
AcDbEntity
  8
0
  6
Continuous
 62
     7
370
    25
100
AcDbCircle
 10
2.1875
 20
318.2269204901
 30
0.0
 40
0.5000000000000424
100
AcDbArc
 50
180.0
 51
254.7177593265
  0
ARC
  5
249
330
1F
100
AcDbEntity
  8
0
  6
Continuous
 62
     7
370
    25
100
AcDbCircle
 10
1.6875
 20
316.397
 30
0.0
 40
1.396999999999991
100
AcDbArc
 50
270.0
 51
74.7177593265
  0
LINE
  5
24A
330
1F
100
AcDbEntity
  8
0
  6
Continuous
 62
     7
370
    25
100
AcDbLine
 10
1.6875
 20
315.0
 30
0.0
 11
-1.6875
 21
315.0
 31
0.0
  0
ARC
  5
24B
330
1F
100
AcDbEntity
  8
0
  6
Continuous
 62
     7
370
    25
100
AcDbCircle
 10
-1.6875
 20
316.397
 30
0.0
 40
1.396999999999991
100
AcDbArc
 50
105.2822406735
 51
270.0
  0
ARC
  5
24C
330
1F
100
AcDbEntity
  8
0
  6
Continuous
 62
     7
370
    25
100
AcDbCircle
 10
-2.1875
 20
318.2269204901
 30
0.0
 40
0.5000000000000424
100
AcDbArc
 50
285.2822406735
 51
0.0
  0
LINE
  5
24D
330
1F
100
AcDbEntity
  8
0
  6
Continuous
 62
     7
370
    25
100
AcDbLine
 10
310.448411743
 20
102.6451461429
 30
0.0
 11
302.1303202146
 21
99.9424343703
 31
0.0
  0
ARC
  5
24E
330
1F
100
AcDbEntity
  8
0
  6
Continuous
 62
     7
370
    25
100
AcDbCircle
 10
310.2939032458
 20
103.1206744011
 30
0.0
 40
0.5000000000000366
100
AcDbArc
 50
288.0
 51
2.7177593265
  0
ARC
  5
24F
330
1F
100
AcDbEntity
  8
0
  6
Continuous
 62
     7
370
    25
100
AcDbCircle
 10
312.1887695494
 20
103.2106226727
 30
0.0
 40
1.397000000000016
100
AcDbArc
 50
18.0
 51
182.7177593265
  0
LINE
  5
250
330
1F
100
AcDbEntity
  8
0
  6
Continuous
 62
     7
370
    25
100
AcDbLine
 10
314.5603278587
 20
100.4325036714
 30
0.0
 11
313.5173955026
 21
103.6423194139
 31
0.0
  0
ARC
  5
251
330
1F
100
AcDbEntity
  8
0
  6
Continuous
 62
     7
370
    25
100
AcDbCircle
 10
313.2317019054
 20
100.0008069302
 30
0.0
 40
1.397000000000012
100
AcDbArc
 50
213.2822406735
 51
18.0
  0
ARC
  5
252
330
1F
100
AcDbEntity
  8
0
  6
Continuous
 62
     7
370
    25
100
AcDbCircle
 10
311.6458525962
 20
98.9598021423
 30
0.0
 40
0.5000000000000263
100
AcDbArc
 50
33.2822406735
 51
108.0
  0
LINE
  5
253
330
1F
100
AcDbEntity
  8
0
  6
Continuous
 62
     7
370
    25
100
AcDbLine
 10
311.491344099
 20
99.4353304004
 30
0.0
 11
303.1732525706
 21
96.7326186278
 31
0.0
  0
ARC
  5
254
330
1F
100
AcDbEntity
  8
0
  6
Continuous
 62
     7
370
    25
100
AcDbCircle
 10
303.3277610678
 20
96.2570903697
 30
0.0
 40
0.5000000000000366
100
AcDbArc
 50
108.0
 51
182.7177593265
  0
ARC
  5
255
330
1F
100
AcDbEntity
  8
0
  6
Continuous
 62
     7
370
    25
100
AcDbCircle
 10
301.4328947642
 20
96.167142098
 30
0.0
 40
1.396999999999978
100
AcDbArc
 50
198.0
 51
2.7177593265
  0
LINE
  5
256
330
1F
100
AcDbEntity
  8
0
  6
Continuous
 62
     7
370
    25
100
AcDbLine
 10
300.104268811
 20
95.7354453569
 30
0.0
 11
299.061336455
 21
98.9452610994
 31
0.0
  0
ARC
  5
257
330
1F
100
AcDbEntity
  8
0
  6
Continuous
 62
     7
370
    25
100
AcDbCircle
 10
300.3899624082
 20
99.3769578405
 30
0.0
 40
1.397000000000012
100
AcDbArc
 50
33.2822406735
 51
198.0
  0
ARC
  5
258
330
1F
100
AcDbEntity
  8
0
  6
Continuous
 62
     7
370
    25
100
AcDbCircle
 10
301.9758117174
 20
100.4179626284
 30
0.0
 40
0.5000000000000738
100
AcDbArc
 50
213.2822406735
 51
288.0
  0
LINE
  5
259
330
1F
100
AcDbEntity
  8
0
  6
Continuous
 62
     7
370
    25
100
AcDbLine
 10
190.8247378546
 20
265.5186656399
 30
0.0
 11
185.6838745685
 21
258.4428743573
 31
0.0
  0
ARC
  5
25A
330
1F
100
AcDbEntity
  8
0
  6
Continuous
 62
     7
370
    25
100
AcDbCircle
 10
190.4202293574
 20
265.812558266
 30
0.0
 40
0.5000000000000061
100
AcDbArc
 50
324.0
 51
38.7177593264
  0
ARC
  5
25B
330
1F
100
AcDbEntity
  8
0
  6
Continuous
 62
     7
370
    25
100
AcDbCircle
 10
191.9003381315
 20
266.9991024147
 30
0.0
 40
1.397000000000006
100
AcDbArc
 50
54.0
 51
218.7177593265
  0
LINE
  5
25C
330
1F
100
AcDbEntity
  8
0
  6
Continuous
 62
     7
370
    25
100
AcDbLine
 10
195.451906485
 20
266.1455239294
 30
0.0
 11
192.721474129
 21
268.1292991559
 31
0.0
  0
ARC
  5
25D
330
1F
100
AcDbEntity
  8
0
  6
Continuous
 62
     7
370
    25
100
AcDbCircle
 10
194.6307704875
 20
265.0153271882
 30
0.0
 40
1.396999999999981
100
AcDbArc
 50
249.2822406735
 51
54.0
  0
ARC
  5
25E
330
1F
100
AcDbEntity
  8
0
  6
Continuous
 62
     7
370
    25
100
AcDbCircle
 10
193.9596787078
 20
263.2409977873
 30
0.0
 40
0.5000000000000291
100
AcDbArc
 50
69.2822406736
 51
144.0
  0
LINE
  5
25F
330
1F
100
AcDbEntity
  8
0
  6
Continuous
 62
     7
370
    25
100
AcDbLine
 10
193.5551702106
 20
263.5348904134
 30
0.0
 11
188.4143069245
 21
256.4590991308
 31
0.0
  0
ARC
  5
260
330
1F
100
AcDbEntity
  8
0
  6
Continuous
 62
     7
370
    25
100
AcDbCircle
 10
188.8188154217
 20
256.1652065047
 30
0.0
 40
0.5000000000000291
100
AcDbArc
 50
144.0
 51
218.7177593265
  0
ARC
  5
261
330
1F
100
AcDbEntity
  8
0
  6
Continuous
 62
     7
370
    25
100
AcDbCircle
 10
187.3387066476
 20
254.978662356
 30
0.0
 40
1.39699999999999
100
AcDbArc
 50
234.0
 51
38.7177593265
  0
LINE
  5
262
330
1F
100
AcDbEntity
  8
0
  6
Continuous
 62
     7
370
    25
100
AcDbLine
 10
186.5175706501
 20
253.8484656149
 30
0.0
 11
183.7871382941
 21
255.8322408414
 31
0.0
  0
ARC
  5
263
330
1F
100
AcDbEntity
  8
0
  6
Continuous
 62
     7
370
    25
100
AcDbCircle
 10
184.6082742916
 20
256.9624375825
 30
0.0
 40
1.396999999999981
100
AcDbArc
 50
69.2822406735
 51
234.0
  0
ARC
  5
264
330
1F
100
AcDbEntity
  8
0
  6
Continuous
 62
     7
370
    25
100
AcDbCircle
 10
185.2793660713
 20
258.7367669835
 30
0.0
 40
0.5000000000000291
100
AcDbArc
 50
249.2822406735
 51
324.0
  0
CIRCLE
  5
265
330
1F
100
AcDbEntity
  8
0
  6
Continuous
 62
     7
370
    25
100
AcDbCircle
 10
-12.0
 20
0.0
 30
0.0
 40
2.049999999999999
  0
CIRCLE
  5
266
330
1F
100
AcDbEntity
  8
0
  6
Continuous
 62
     7
370
    25
100
AcDbCircle
 10
12.0
 20
0.0
 30
0.0
 40
2.049999999999997
  0
CIRCLE
  5
267
330
1F
100
AcDbEntity
  8
0
  6
Continuous
 62
     7
370
    25
100
AcDbCircle
 10
26.5091148784
 20
-36.4866664463
 30
0.0
 40
1.396999999999998
  0
CIRCLE
  5
268
330
1F
100
AcDbEntity
  8
0
  6
Continuous
 62
     7
370
    25
100
AcDbCircle
 10
42.8926488849
 20
-13.9366664463
 30
0.0
 40
1.396999999999991
  0
CIRCLE
  5
269
330
1F
100
AcDbEntity
  8
0
  6
Continuous
 62
     7
370
    25
100
AcDbCircle
 10
42.8926488849
 20
13.9366664463
 30
0.0
 40
1.397000000000006
  0
CIRCLE
  5
26A
330
1F
100
AcDbEntity
  8
0
  6
Continuous
 62
     7
370
    25
100
AcDbCircle
 10
26.5091148784
 20
36.4866664463
 30
0.0
 40
1.396999999999995
  0
CIRCLE
  5
26B
330
1F
100
AcDbEntity
  8
0
  6
Continuous
 62
     7
370
    25
100
AcDbCircle
 10
0.0
 20
45.1
 30
0.0
 40
1.396999999999996
  0
CIRCLE
  5
26C
330
1F
100
AcDbEntity
  8
0
  6
Continuous
 62
     7
370
    25
100
AcDbCircle
 10
-26.5091148784
 20
36.4866664463
 30
0.0
 40
1.396999999999995
  0
CIRCLE
  5
26D
330
1F
100
AcDbEntity
  8
0
  6
Continuous
 62
     7
370
    25
100
AcDbCircle
 10
-42.8926488849
 20
13.9366664463
 30
0.0
 40
1.396999999999998
  0
CIRCLE
  5
26E
330
1F
100
AcDbEntity
  8
0
  6
Continuous
 62
     7
370
    25
100
AcDbCircle
 10
-42.8926488849
 20
-13.9366664463
 30
0.0
 40
1.396999999999998
  0
CIRCLE
  5
26F
330
1F
100
AcDbEntity
  8
0
  6
Continuous
 62
     7
370
    25
100
AcDbCircle
 10
-26.5091148784
 20
-36.4866664463
 30
0.0
 40
1.396999999999995
  0
MTEXT
  5
271
330
1F
100
AcDbEntity
  8
0
  6
Continuous
 62
     7
100
AcDbMText
 10
-392.9226065181
 20
-413.5195663917
 30
0.0
 40
4.83362
 41
0.0
 71
     1
 72
     1
  1
SOLIDWORKS Educational Product.
  7
SLDTEXTSTYLE0
 73
     1
 44
1.0
  0
MTEXT
  5
272
330
1F
100
AcDbEntity
  8
0
  6
Continuous
 62
     7
100
AcDbMText
 10
-392.9226065181
 20
-420.7699963917
 30
0.0
 40
4.83362
 41
0.0
 71
     1
 72
     1
  1
For Instructional Use Only.
  7
SLDTEXTSTYLE0
 73
     1
 44
1.0
  0
ENDSEC
  0
SECTION
  2
OBJECTS
  0
DICTIONARY
  5
C
330
0
100
AcDbDictionary
281
     1
  3
ACAD_GROUP
350
D
  3
ACAD_LAYOUT
350
1A
  3
ACAD_MLINESTYLE
350
17
  3
ACAD_PLOTSETTINGS
350
19
  3
ACAD_PLOTSTYLENAME
350
E
  3
ACAD_SCALELIST
350
47
  3
DWGPROPS
350
273
  0
DICTIONARY
  5
D
102
{ACAD_REACTORS
330
C
102
}
330
C
100
AcDbDictionary
281
     1
  0
DICTIONARY
  5
1A
102
{ACAD_REACTORS
330
C
102
}
330
C
100
AcDbDictionary
281
     1
  3
Layout1
350
1E
  3
Layout2
350
26
  3
Model
350
22
  0
DICTIONARY
  5
17
102
{ACAD_REACTORS
330
C
102
}
330
C
100
AcDbDictionary
281
     1
  3
Standard
350
18
  0
DICTIONARY
  5
19
102
{ACAD_REACTORS
330
C
102
}
330
C
100
AcDbDictionary
281
     1
  0
ACDBDICTIONARYWDFLT
  5
E
102
{ACAD_REACTORS
330
C
102
}
330
C
100
AcDbDictionary
281
     1
  3
Normal
350
F
100
AcDbDictionaryWithDefault
340
F
  0
DICTIONARY
  5
47
102
{ACAD_REACTORS
330
C
102
}
330
C
100
AcDbDictionary
281
     1
  3
A0
350
48
  3
A1
350
49
  3
A2
350
4A
  3
A3
350
4B
  3
A4
350
4C
  3
A5
350
4D
  3
A6
350
4E
  3
A7
350
4F
  3
A8
350
50
  3
A9
350
51
  3
B0
350
52
  3
B1
350
53
  3
B2
350
54
  3
B3
350
55
  3
B4
350
56
  3
B5
350
57
  3
B6
350
58
  0
XRECORD
  5
273
102
{ACAD_REACTORS
330
C
102
}
330
C
100
AcDbXrecord
280
     1
  1
DWGPROPS COOKIE
  2

  3

  4

  6

  7

  8
ahmed
  9

300
=
301
=
302
=
303
=
304
=
305
=
306
=
307
=
308
=
309
=
 40
0.0
 41
2460768.70109669
 42
2460768.701193461
  1

 90
        0
  0
LAYOUT
  5
1E
102
{ACAD_REACTORS
330
1A
102
}
330
1A
100
AcDbPlotSettings
  1

  2
none_device
  4

  6

 40
0.0
 41
0.0
 42
0.0
 43
0.0
 44
0.0
 45
0.0
 46
0.0
 47
0.0
 48
0.0
 49
0.0
140
0.0
141
0.0
142
1.0
143
1.0
 70
   688
 72
     1
 73
     0
 74
     5
  7

 75
    16
147
1.0
148
0.0
149
0.0
100
AcDbLayout
  1
Layout1
 70
     1
 71
     1
 10
0.0
 20
0.0
 11
420.0
 21
297.0
 12
0.0
 22
0.0
 32
0.0
 14
1.0000000000E+20
 24
1.0000000000E+20
 34
1.0000000000E+20
 15
-1.0000000000E+20
 25
-1.0000000000E+20
 35
-1.0000000000E+20
146
0.0
 13
0.0
 23
0.0
 33
0.0
 16
1.0
 26
0.0
 36
0.0
 17
0.0
 27
1.0
 37
0.0
 76
     0
330
1B
  0
LAYOUT
  5
26
102
{ACAD_REACTORS
330
1A
102
}
330
1A
100
AcDbPlotSettings
  1

  2
none_device
  4

  6

 40
0.0
 41
0.0
 42
0.0
 43
0.0
 44
0.0
 45
0.0
 46
0.0
 47
0.0
 48
0.0
 49
0.0
140
0.0
141
0.0
142
1.0
143
1.0
 70
   688
 72
     1
 73
     0
 74
     5
  7

 75
    16
147
1.0
148
0.0
149
0.0
100
AcDbLayout
  1
Layout2
 70
     1
 71
     2
 10
0.0
 20
0.0
 11
0.0
 21
0.0
 12
0.0
 22
0.0
 32
0.0
 14
0.0
 24
0.0
 34
0.0
 15
0.0
 25
0.0
 35
0.0
146
0.0
 13
0.0
 23
0.0
 33
0.0
 16
1.0
 26
0.0
 36
0.0
 17
0.0
 27
1.0
 37
0.0
 76
     0
330
23
  0
LAYOUT
  5
22
102
{ACAD_REACTORS
330
1A
102
}
330
1A
100
AcDbPlotSettings
  1

  2
none_device
  4
ANSI_A_(11.00_x_8.50_Inches)
  6

 40
6.35
 41
19.05
 42
6.35000508
 43
19.05000254
 44
279.4
 45
215.9
 46
133.34999746
 47
88.89999873
 48
0.0
 49
0.0
140
0.0
141
0.0
142
0.0102
143
1.0
 70
  1696
 72
     0
 73
     0
 74
     0
  7

 75
     0
147
0.0179189148
148
-1300.4909072572
149
0.0
100
AcDbLayout
  1
Model
 70
     1
 71
     0
 10
0.0
 20
0.0
 11
420.0
 21
297.0
 12
0.0
 22
0.0
 32
0.0
 14
-392.9226065181
 24
-412.5
 34
0.0
 15
392.9226065181
 25
412.5
 35
0.0
146
0.0
 13
0.0
 23
0.0
 33
0.0
 16
1.0
 26
0.0
 36
0.0
 17
0.0
 27
1.0
 37
0.0
 76
     0
330
1F
331
29
  0
MLINESTYLE
  5
18
102
{ACAD_REACTORS
330
17
102
}
330
17
100
AcDbMlineStyle
  2
Standard
 70
     0
  3

 62
   256
 51
90.0
 52
90.0
 71
     2
 49
0.5
 62
   256
  6
BYLAYER
 49
-0.5
 62
   256
  6
BYLAYER
  0
ACDBPLACEHOLDER
  5
F
102
{ACAD_REACTORS
330
E
102
}
330
E
  0
SCALE
  5
48
102
{ACAD_REACTORS
330
47
102
}
330
47
100
AcDbScale
 70
     0
300
1:1
140
1.0
141
1.0
290
     1
  0
SCALE
  5
49
102
{ACAD_REACTORS
330
47
102
}
330
47
100
AcDbScale
 70
     0
300
1:2
140
1.0
141
2.0
290
     0
  0
SCALE
  5
4A
102
{ACAD_REACTORS
330
47
102
}
330
47
100
AcDbScale
 70
     0
300
1:4
140
1.0
141
4.0
290
     0
  0
SCALE
  5
4B
102
{ACAD_REACTORS
330
47
102
}
330
47
100
AcDbScale
 70
     0
300
1:5
140
1.0
141
5.0
290
     0
  0
SCALE
  5
4C
102
{ACAD_REACTORS
330
47
102
}
330
47
100
AcDbScale
 70
     0
300
1:8
140
1.0
141
8.0
290
     0
  0
SCALE
  5
4D
102
{ACAD_REACTORS
330
47
102
}
330
47
100
AcDbScale
 70
     0
300
1:10
140
1.0
141
10.0
290
     0
  0
SCALE
  5
4E
102
{ACAD_REACTORS
330
47
102
}
330
47
100
AcDbScale
 70
     0
300
1:16
140
1.0
141
16.0
290
     0
  0
SCALE
  5
4F
102
{ACAD_REACTORS
330
47
102
}
330
47
100
AcDbScale
 70
     0
300
1:20
140
1.0
141
20.0
290
     0
  0
SCALE
  5
50
102
{ACAD_REACTORS
330
47
102
}
330
47
100
AcDbScale
 70
     0
300
1:30
140
1.0
141
30.0
290
     0
  0
SCALE
  5
51
102
{ACAD_REACTORS
330
47
102
}
330
47
100
AcDbScale
 70
     0
300
1:40
140
1.0
141
40.0
290
     0
  0
SCALE
  5
52
102
{ACAD_REACTORS
330
47
102
}
330
47
100
AcDbScale
 70
     0
300
1:50
140
1.0
141
50.0
290
     0
  0
SCALE
  5
53
102
{ACAD_REACTORS
330
47
102
}
330
47
100
AcDbScale
 70
     0
300
1:100
140
1.0
141
100.0
290
     0
  0
SCALE
  5
54
102
{ACAD_REACTORS
330
47
102
}
330
47
100
AcDbScale
 70
     0
300
2:1
140
2.0
141
1.0
290
     0
  0
SCALE
  5
55
102
{ACAD_REACTORS
330
47
102
}
330
47
100
AcDbScale
 70
     0
300
4:1
140
4.0
141
1.0
290
     0
  0
SCALE
  5
56
102
{ACAD_REACTORS
330
47
102
}
330
47
100
AcDbScale
 70
     0
300
8:1
140
8.0
141
1.0
290
     0
  0
SCALE
  5
57
102
{ACAD_REACTORS
330
47
102
}
330
47
100
AcDbScale
 70
     0
300
10:1
140
10.0
141
1.0
290
     0
  0
SCALE
  5
58
102
{ACAD_REACTORS
330
47
102
}
330
47
100
AcDbScale
 70
     0
300
100:1
140
100.0
141
1.0
290
     0
  0
ENDSEC
  0
EOF
