999
VISION3D DXF
0
SECTION
2
HEADER
9
$ACADVER
1
AC1006
9
$INSBASE
10
0.0
20
0.0
30
0.0
9
$EXTMIN
10
-28.5
20
-28.5
9
$EXTMAX
10
28.5
20
28.5
9
$LINMIN
10
0.0
20
0.0
9
$LINMAX
10
1000.0
20
1000.0
0
ENDSEC
0
SECTION
2
TABLES
0
TABLE
2
LTYPE
70
1
0
LTYPE
2
CONTINUOUS
70
64
3
Solid line
72
65
73
0
40
0.000000
0
ENDTAB
0
TABLE
2
LAYER
70
6
0
LAYER
2
1
70
64
62
7
6
CONTINUOUS
0
ENDTAB
0
TABLE
2
STYLE
70
0
0
ENDTAB
0
ENDSEC
0
SECTION
2
BLOCKS
0
ENDSEC
0
SECTION
2
ENTITIES
0
LINE
8
1
62
1
10
18.78395938381836
20
2.091140805173604
30
0.0
11
21.599894629517916
21
2.4046272739572636
31
0.0
0
LINE
8
1
62
1
10
21.599894629517916
20
2.4046272739572636
30
0.0
11
21.611187175259374
21
2.4056387862753215
31
0.0
0
LINE
8
1
62
1
10
21.611187175259374
20
2.4056387862753215
30
0.0
11
21.645137528516834
21
2.407699472378809
31
0.0
0
LINE
8
1
62
1
10
21.645137528516834
20
2.407699472378809
30
0.0
11
21.701801627782366
21
2.409345407375214
31
0.0
0
LINE
8
1
62
1
10
21.701801627782366
20
2.409345407375214
30
0.0
11
21.781164457622165
21
2.4091109111066937
31
0.0
0
LINE
8
1
62
1
10
21.781164457622165
20
2.4091109111066937
30
0.0
11
21.883140018331062
21
2.405531604622005
31
0.0
0
LINE
8
1
62
1
10
21.883140018331062
20
2.405531604622005
30
0.0
11
22.00757141899502
21
2.3971474659801197
31
0.0
0
LINE
8
1
62
1
10
22.00757141899502
20
2.3971474659801197
30
0.0
11
22.15423109386103
21
2.382505880603269
31
0.0
0
LINE
8
1
62
1
10
22.15423109386103
20
2.382505880603269
30
0.0
11
22.32282114173366
21
2.360164681403747
31
0.0
0
LINE
8
1
62
1
10
22.32282114173366
20
2.360164681403747
30
0.0
11
22.51297378793792
21
2.3286951739221426
31
0.0
0
LINE
8
1
62
1
10
22.51297378793792
20
2.3286951739221426
30
0.0
11
22.724251968208613
21
2.286685141734493
31
0.0
0
LINE
8
1
62
1
10
22.724251968208613
20
2.286685141734493
30
0.0
11
22.95615003368817
21
2.232741827412432
31
0.0
0
LINE
8
1
62
1
10
22.95615003368817
20
2.232741827412432
30
0.0
11
23.20809457603783
21
2.1654948843534414
31
0.0
0
LINE
8
1
62
1
10
23.20809457603783
20
2.1654948843534414
30
0.0
11
23.479445371490577
21
2.083599294837899
31
0.0
0
LINE
8
1
62
1
10
23.479445371490577
20
2.083599294837899
30
0.0
11
23.769496442500394
21
1.9857382497157654
31
0.0
0
LINE
8
1
62
1
10
23.769496442500394
20
1.9857382497157654
30
0.0
11
24.077477235469367
21
1.8706259851781555
31
0.0
0
LINE
8
1
62
1
10
24.077477235469367
20
1.8706259851781555
30
0.0
11
24.402553912863596
21
1.7370105721279432
31
0.0
0
LINE
8
1
62
1
10
24.402553912863596
20
1.7370105721279432
30
0.0
11
24.74383075786053
21
1.583676653728643
31
0.0
0
LINE
8
1
62
1
10
24.74383075786053
20
1.583676653728643
30
0.0
11
25.10035168950456
21
1.409448126782127
31
0.0
0
LINE
8
1
62
1
10
25.10035168950456
20
1.409448126782127
30
0.0
11
25.47110188618407
21
1.2131907626630967
31
0.0
0
LINE
8
1
62
1
10
25.47110188618407
20
1.2131907626630967
30
0.0
11
25.47110188618407
21
-1.2131907626630967
31
0.0
0
LINE
8
1
62
1
10
25.47110188618407
20
-1.2131907626630967
30
0.0
11
25.10035168950456
21
-1.409448126782127
31
0.0
0
LINE
8
1
62
1
10
25.10035168950456
20
-1.409448126782127
30
0.0
11
24.74383075786053
21
-1.583676653728643
31
0.0
0
LINE
8
1
62
1
10
24.74383075786053
20
-1.583676653728643
30
0.0
11
24.402553912863596
21
-1.7370105721279432
31
0.0
0
LINE
8
1
62
1
10
24.402553912863596
20
-1.7370105721279432
30
0.0
11
24.077477235469367
21
-1.8706259851781555
31
0.0
0
LINE
8
1
62
1
10
24.077477235469367
20
-1.8706259851781555
30
0.0
11
23.769496442500394
21
-1.9857382497157654
31
0.0
0
LINE
8
1
62
1
10
23.769496442500394
20
-1.9857382497157654
30
0.0
11
23.479445371490577
21
-2.083599294837899
31
0.0
0
LINE
8
1
62
1
10
23.479445371490577
20
-2.083599294837899
30
0.0
11
23.20809457603783
21
-2.1654948843534414
31
0.0
0
LINE
8
1
62
1
10
23.20809457603783
20
-2.1654948843534414
30
0.0
11
22.95615003368817
21
-2.232741827412432
31
0.0
0
LINE
8
1
62
1
10
22.95615003368817
20
-2.232741827412432
30
0.0
11
22.724251968208613
21
-2.286685141734493
31
0.0
0
LINE
8
1
62
1
10
22.724251968208613
20
-2.286685141734493
30
0.0
11
22.51297378793792
21
-2.3286951739221426
31
0.0
0
LINE
8
1
62
1
10
22.51297378793792
20
-2.3286951739221426
30
0.0
11
22.32282114173366
21
-2.360164681403747
31
0.0
0
LINE
8
1
62
1
10
22.32282114173366
20
-2.360164681403747
30
0.0
11
22.15423109386103
21
-2.382505880603269
31
0.0
0
LINE
8
1
62
1
10
22.15423109386103
20
-2.382505880603269
30
0.0
11
22.00757141899502
21
-2.3971474659801197
31
0.0
0
LINE
8
1
62
1
10
22.00757141899502
20
-2.3971474659801197
30
0.0
11
21.883140018331062
21
-2.405531604622005
31
0.0
0
LINE
8
1
62
1
10
21.883140018331062
20
-2.405531604622005
30
0.0
11
21.781164457622165
21
-2.4091109111066937
31
0.0
0
LINE
8
1
62
1
10
21.781164457622165
20
-2.4091109111066937
30
0.0
11
21.701801627782366
21
-2.409345407375214
31
0.0
0
LINE
8
1
62
1
10
21.701801627782366
20
-2.409345407375214
30
0.0
11
21.645137528516834
21
-2.407699472378809
31
0.0
0
LINE
8
1
62
1
10
21.645137528516834
20
-2.407699472378809
30
0.0
11
21.611187175259374
21
-2.4056387862753215
31
0.0
0
LINE
8
1
62
1
10
21.611187175259374
20
-2.4056387862753215
30
0.0
11
21.599894629517916
21
-2.4046272739572636
31
0.0
0
LINE
8
1
62
1
10
21.599894629517916
20
-2.4046272739572636
30
0.0
11
18.78395938381836
21
-2.091140805173604
31
0.0
0
LINE
8
1
62
1
10
18.78395938381836
20
-2.091140805173604
30
0.0
11
18.01054436292551
21
-5.729772399589019
31
0.0
0
LINE
8
1
62
1
10
18.01054436292551
20
-5.729772399589019
30
0.0
11
20.710535649612794
21
-6.588732308953954
31
0.0
0
LINE
8
1
62
1
10
20.710535649612794
20
-6.588732308953954
30
0.0
11
20.7212633226048
21
-6.592401338617103
31
0.0
0
LINE
8
1
62
1
10
20.7212633226048
20
-6.592401338617103
30
0.0
11
20.753116670156682
21
-6.604327660902812
31
0.0
0
LINE
8
1
62
1
10
20.753116670156682
20
-6.604327660902812
30
0.0
11
20.805551362727275
21
-6.625871389981447
31
0.0
0
LINE
8
1
62
1
10
20.805551362727275
20
-6.625871389981447
30
0.0
11
20.877957537208015
21
-6.658365383976424
31
0.0
0
LINE
8
1
62
1
10
20.877957537208015
20
-6.658365383976424
30
0.0
11
20.96966101238006
21
-6.703112440395531
31
0.0
0
LINE
8
1
62
1
10
20.96966101238006
20
-6.703112440395531
30
0.0
11
21.079924616838444
21
-6.76138254236735
31
0.0
0
LINE
8
1
62
1
10
21.079924616838444
20
-6.76138254236735
30
0.0
11
21.20794962734614
21
-6.834410160010646
31
0.0
0
LINE
8
1
62
1
10
21.20794962734614
20
-6.834410160010646
30
0.0
11
21.35287731541923
21
-6.9233916111853615
31
0.0
0
LINE
8
1
62
1
10
21.35287731541923
20
-6.9233916111853615
30
0.0
11
21.513790599785537
21
-7.029482485788532
31
0.0
0
LINE
8
1
62
1
10
21.513790599785537
20
-7.029482485788532
30
0.0
11
21.68971580220331
21
-7.1537951376674425
31
0.0
0
LINE
8
1
62
1
10
21.68971580220331
20
-7.1537951376674425
30
0.0
11
21.879624503974533
21
-7.2973962481254775
31
0.0
0
LINE
8
1
62
1
10
21.879624503974533
20
-7.2973962481254775
30
0.0
11
22.082435500338985
21
-7.461304464893939
31
0.0
0
LINE
8
1
62
1
10
22.082435500338985
20
-7.461304464893939
30
0.0
11
22.297016849790275
21
-7.6464881203352215
31
0.0
0
LINE
8
1
62
1
10
22.297016849790275
20
-7.6464881203352215
30
0.0
11
22.522188015214805
21
-7.8538630325297785
31
0.0
0
LINE
8
1
62
1
10
22.522188015214805
20
-7.8538630325297785
30
0.0
11
22.756722093617896
21
-8.084290392781089
31
0.0
0
LINE
8
1
62
1
10
22.756722093617896
20
-8.084290392781089
30
0.0
11
22.999348131069713
21
-8.338574742949714
31
0.0
0
LINE
8
1
62
1
10
22.999348131069713
20
-8.338574742949714
30
0.0
11
23.248753519375867
21
-8.617462045899488
31
0.0
0
LINE
8
1
62
1
10
23.248753519375867
20
-8.617462045899488
30
0.0
11
23.503586470855513
21
-8.92163785220639
31
0.0
0
LINE
8
1
62
1
10
23.503586470855513
20
-8.92163785220639
30
0.0
11
23.762458567491503
21
-9.251725566143357
31
0.0
0
LINE
8
1
62
1
10
23.762458567491503
20
-9.251725566143357
30
0.0
11
22.775560291059186
21
-11.468335387113028
31
0.0
0
LINE
8
1
62
1
10
22.775560291059186
20
-11.468335387113028
30
0.0
11
22.357038071501837
21
-11.49682772021576
31
0.0
0
LINE
8
1
62
1
10
22.357038071501837
20
-11.49682772021576
30
0.0
11
21.960474867665656
21
-11.510983272676361
31
0.0
0
LINE
8
1
62
1
10
21.960474867665656
20
-11.510983272676361
30
0.0
11
21.58633643288072
21
-11.51225097903903
31
0.0
0
LINE
8
1
62
1
10
21.58633643288072
20
-11.51225097903903
30
0.0
11
21.235017826294445
21
-11.50209413619653
31
0.0
0
LINE
8
1
62
1
10
21.235017826294445
20
-11.50209413619653
30
0.0
11
20.90684299578159
21
-11.481987348719791
31
0.0
0
LINE
8
1
62
1
10
20.90684299578159
20
-11.481987348719791
30
0.0
11
20.60206448439533
21
-11.4534134630282
31
0.0
0
LINE
8
1
62
1
10
20.60206448439533
20
-11.4534134630282
30
0.0
11
20.320863260619507
21
-11.417860495192691
31
0.0
0
LINE
8
1
62
1
10
20.320863260619507
20
-11.417860495192691
30
0.0
11
20.06334867250121
21
-11.376818557168013
31
0.0
0
LINE
8
1
62
1
10
20.06334867250121
20
-11.376818557168013
30
0.0
11
19.82955852556251
21
-11.33177678624819
31
0.0
0
LINE
8
1
62
1
10
19.82955852556251
20
-11.33177678624819
30
0.0
11
19.619459284209718
21
-11.284220282530171
31
0.0
0
LINE
8
1
62
1
10
19.619459284209718
20
-11.284220282530171
30
0.0
11
19.432946396178778
21
-11.23562705915514
31
0.0
0
LINE
8
1
62
1
10
19.432946396178778
20
-11.23562705915514
30
0.0
11
19.269844739376286
21
-11.18746501007445
31
0.0
0
LINE
8
1
62
1
10
19.269844739376286
20
-11.18746501007445
30
0.0
11
19.129909190297617
21
-11.14118890005857
31
0.0
0
LINE
8
1
62
1
10
19.129909190297617
20
-11.14118890005857
30
0.0
11
19.012825313026667
21
-11.09823738163183
31
0.0
0
LINE
8
1
62
1
10
19.012825313026667
20
-11.09823738163183
30
0.0
11
18.918210167646375
21
-11.06003004357392
31
0.0
0
LINE
8
1
62
1
10
18.918210167646375
20
-11.06003004357392
30
0.0
11
18.84561323671549
21
-11.027964495580827
31
0.0
0
LINE
8
1
62
1
10
18.84561323671549
20
-11.027964495580827
30
0.0
11
18.794517468295215
21
-11.003413493623107
31
0.0
0
LINE
8
1
62
1
10
18.794517468295215
20
-11.003413493623107
30
0.0
11
18.764340433839664
21
-10.987722110478462
31
0.0
0
LINE
8
1
62
1
10
18.764340433839664
20
-10.987722110478462
30
0.0
11
18.754435599097015
21
-10.98220495584829
31
0.0
0
LINE
8
1
62
1
10
18.754435599097015
20
-10.98220495584829
30
0.0
11
16.309457180335233
21
-9.550476767303895
31
0.0
0
LINE
8
1
62
1
10
16.309457180335233
20
-9.550476767303895
30
0.0
11
14.12294260102394
21
-12.559955903114593
31
0.0
0
LINE
8
1
62
1
10
14.12294260102394
20
-12.559955903114593
30
0.0
11
16.24013690657992
21
-14.442840218893126
31
0.0
0
LINE
8
1
62
1
10
16.24013690657992
20
-14.442840218893126
30
0.0
11
16.248444794704305
21
-14.450555381976633
31
0.0
0
LINE
8
1
62
1
10
16.248444794704305
20
-14.450555381976633
30
0.0
11
16.27269340338031
21
-14.474406543181104
31
0.0
0
LINE
8
1
62
1
10
16.27269340338031
20
-14.474406543181104
30
0.0
11
16.311832254556286
21
-14.51541482985845
31
0.0
0
LINE
8
1
62
1
10
16.311832254556286
20
-14.51541482985845
30
0.0
11
16.364762088320802
21
-14.574549814819482
31
0.0
0
LINE
8
1
62
1
10
16.364762088320802
20
-14.574549814819482
30
0.0
11
16.43033711399883
21
-14.652727448603898
31
0.0
0
LINE
8
1
62
1
10
16.43033711399883
20
-14.652727448603898
30
0.0
11
16.50736734332739
21
-14.750808083907465
31
0.0
0
LINE
8
1
62
1
10
16.50736734332739
20
-14.750808083907465
30
0.0
11
16.59462100208928
21
-14.869594595291602
31
0.0
0
LINE
8
1
62
1
10
16.59462100208928
20
-14.869594595291602
30
0.0
11
16.69082701646828
21
-15.009830597162296
31
0.0
0
LINE
8
1
62
1
10
16.69082701646828
20
-15.009830597162296
30
0.0
11
16.794677570278402
21
-15.172198762862807
31
0.0
0
LINE
8
1
62
1
10
16.794677570278402
20
-15.172198762862807
30
0.0
11
16.904830729114934
21
-15.357319247578129
31
0.0
0
LINE
8
1
62
1
10
16.904830729114934
20
-15.357319247578129
30
0.0
11
17.01991312737518
21
-15.565748217598808
31
0.0
0
LINE
8
1
62
1
10
17.01991312737518
20
-15.565748217598808
30
0.0
11
17.13852271400295
21
-15.79797648833807
31
0.0
0
LINE
8
1
62
1
10
17.13852271400295
20
-15.79797648833807
30
0.0
11
17.25923155272231
21
-16.0544282733386
31
0.0
0
LINE
8
1
62
1
10
17.25923155272231
20
-16.0544282733386
30
0.0
11
17.380588672443817
21
-16.33546004634521
31
0.0
0
LINE
8
1
62
1
10
17.380588672443817
20
-16.33546004634521
30
0.0
11
17.501122963449923
21
-16.64135951835592
31
0.0
0
LINE
8
1
62
1
10
17.501122963449923
20
-16.64135951835592
30
0.0
11
17.619346114895556
21
-16.972344731398
31
0.0
0
LINE
8
1
62
1
10
17.619346114895556
20
-16.972344731398
30
0.0
11
17.733755589095978
21
-17.328563270606626
31
0.0
0
LINE
8
1
62
1
10
17.733755589095978
20
-17.328563270606626
30
0.0
11
17.842837628015722
21
-17.710091596013
31
0.0
0
LINE
8
1
62
1
10
17.842837628015722
20
-17.710091596013
30
0.0
11
17.945070287320657
21
-18.116934495275466
31
0.0
0
LINE
8
1
62
1
10
17.945070287320657
20
-18.116934495275466
30
0.0
11
16.141917412140554
21
-19.74050063657491
31
0.0
0
LINE
8
1
62
1
10
16.141917412140554
20
-19.74050063657491
30
0.0
11
15.747989463621836
21
-19.596301355423165
31
0.0
0
LINE
8
1
62
1
10
15.747989463621836
20
-19.596301355423165
30
0.0
11
15.379953368200386
21
-19.447936309778257
31
0.0
0
LINE
8
1
62
1
10
15.379953368200386
20
-19.447936309778257
30
0.0
11
15.037645277942739
21
-19.296918606157437
31
0.0
0
LINE
8
1
62
1
10
15.037645277942739
20
-19.296918606157437
30
0.0
11
14.720830920872528
21
-19.14474571782171
31
0.0
0
LINE
8
1
62
1
10
14.720830920872528
20
-19.14474571782171
30
0.0
11
14.429206462386205
21
-18.992896524549785
31
0.0
0
LINE
8
1
62
1
10
14.429206462386205
20
-18.992896524549785
30
0.0
11
14.162399484068043
21
-18.842828392466146
31
0.0
0
LINE
8
1
62
1
10
14.162399484068043
20
-18.842828392466146
30
0.0
11
13.919970078192897
21
-18.695974298406917
31
0.0
0
LINE
8
1
62
1
10
13.919970078192897
20
-18.695974298406917
30
0.0
11
13.701412056038201
21
-18.55374000323734
31
0.0
0
LINE
8
1
62
1
10
13.701412056038201
20
-18.55374000323734
30
0.0
11
13.506154267962877
21
-18.417501278459312
31
0.0
0
LINE
8
1
62
1
10
13.506154267962877
20
-18.417501278459312
30
0.0
11
13.333562033049562
21
-18.288601190365746
31
0.0
0
LINE
8
1
62
1
10
13.333562033049562
20
-18.288601190365746
30
0.0
11
13.182938675948888
21
-18.168347445911195
31
0.0
0
LINE
8
1
62
1
10
13.182938675948888
20
-18.168347445911195
30
0.0
11
13.053527168409719
21
-18.058009804374823
31
0.0
0
LINE
8
1
62
1
10
13.053527168409719
20
-18.058009804374823
30
0.0
11
12.944511872828643
21
-17.95881755879322
31
0.0
0
LINE
8
1
62
1
10
12.944511872828643
20
-17.95881755879322
30
0.0
11
12.855020385004485
21
-17.871957091036137
31
0.0
0
LINE
8
1
62
1
10
12.855020385004485
20
-17.871957091036137
30
0.0
11
12.78412547314066
21
-17.798569504288608
31
0.0
0
LINE
8
1
62
1
10
12.78412547314066
20
-17.798569504288608
30
0.0
11
12.730847109999058
21
-17.739748336588264
31
0.0
0
LINE
8
1
62
1
10
12.730847109999058
20
-17.739748336588264
30
0.0
11
12.694154594974384
21
-17.696537358946575
31
0.0
0
LINE
8
1
62
1
10
12.694154594974384
20
-17.696537358946575
30
0.0
11
12.672968762727862
21
-17.669928461458216
31
0.0
0
LINE
8
1
62
1
10
12.672968762727862
20
-17.669928461458216
30
0.0
11
12.666164274893617
21
-17.66085963067327
31
0.0
0
LINE
8
1
62
1
10
12.666164274893617
20
-17.66085963067327
30
0.0
11
11.01490166360515
21
-15.358448533009721
31
0.0
0
LINE
8
1
62
1
10
11.01490166360515
20
-15.358448533009721
30
0.0
11
7.793355760499691
21
-17.218408927374394
31
0.0
0
LINE
8
1
62
1
10
7.793355760499691
20
-17.218408927374394
30
0.0
11
8.961670955387303
21
-19.79964984590141
31
0.0
0
LINE
8
1
62
1
10
8.961670955387303
20
-19.79964984590141
30
0.0
11
8.966122549312571
21
-19.810077120618082
31
0.0
0
LINE
8
1
62
1
10
8.966122549312571
20
-19.810077120618082
30
0.0
11
8.978573614380922
21
-19.841729038288065
31
0.0
0
LINE
8
1
62
1
10
8.978573614380922
20
-19.841729038288065
30
0.0
11
8.997649161228649
21
-19.89511117724902
31
0.0
0
LINE
8
1
62
1
10
8.997649161228649
20
-19.89511117724902
30
0.0
11
9.021950605166609
21
-19.970662177051874
31
0.0
0
LINE
8
1
62
1
10
9.021950605166609
20
-19.970662177051874
30
0.0
11
9.050058663680494
21
-20.06875276509877
31
0.0
0
LINE
8
1
62
1
10
9.050058663680494
20
-20.06875276509877
30
0.0
11
9.080536291430647
21
-20.189684900855497
31
0.0
0
LINE
8
1
62
1
10
9.080536291430647
20
-20.189684900855497
30
0.0
11
9.111931648172202
21
-20.33369103902058
31
0.0
0
LINE
8
1
62
1
10
9.111931648172202
20
-20.33369103902058
30
0.0
11
9.142781094966777
21
-20.500933512859728
31
0.0
0
LINE
8
1
62
1
10
9.142781094966777
20
-20.500933512859728
30
0.0
11
9.171612214014283
21
-20.69150403873948
31
0.0
0
LINE
8
1
62
1
10
9.171612214014283
20
-20.69150403873948
30
0.0
11
9.196946847396706
21
-20.905423342717125
31
0.0
0
LINE
8
1
62
1
10
9.196946847396706
20
-20.905423342717125
30
0.0
11
9.217304149996012
21
-21.142640909866127
31
0.0
0
LINE
8
1
62
1
10
9.217304149996012
20
-21.142640909866127
30
0.0
11
9.231203651824892
21
-21.403034856837763
31
0.0
0
LINE
8
1
62
1
10
9.231203651824892
20
-21.403034856837763
30
0.0
11
9.237168324992359
21
-21.686411927979623
31
0.0
0
LINE
8
1
62
1
10
9.237168324992359
20
-21.686411927979623
30
0.0
11
9.23372765051619
21
-21.99250761515194
31
0.0
0
LINE
8
1
62
1
10
9.23372765051619
20
-21.99250761515194
30
0.0
11
9.21942068019069
21
-22.320986401201935
31
0.0
0
LINE
8
1
62
1
10
9.21942068019069
20
-22.320986401201935
30
0.0
11
9.192799088721577
21
-22.671442126876237
31
0.0
0
LINE
8
1
62
1
10
9.192799088721577
20
-22.671442126876237
30
0.0
11
9.152430211349568
21
-23.04339848077071
31
0.0
0
LINE
8
1
62
1
10
9.152430211349568
20
-23.04339848077071
30
0.0
11
9.096900062200975
21
-23.436309611737766
31
0.0
0
LINE
8
1
62
1
10
9.096900062200975
20
-23.436309611737766
30
0.0
11
9.024816328626484
21
-23.849560862991538
31
0.0
0
LINE
8
1
62
1
10
9.024816328626484
20
-23.849560862991538
30
0.0
11
6.7171903679468326
21
-24.599353989154736
31
0.0
0
LINE
8
1
62
1
10
6.7171903679468326
20
-24.599353989154736
30
0.0
11
6.415970411488694
21
-24.30739645946899
31
0.0
0
LINE
8
1
62
1
10
6.415970411488694
20
-24.30739645946899
30
0.0
11
6.14009820888331
21
-24.022164479964704
31
0.0
0
LINE
8
1
62
1
10
6.14009820888331
20
-24.022164479964704
30
0.0
11
5.888808641729868
21
-23.744973699269202
31
0.0
0
LINE
8
1
62
1
10
5.888808641729868
20
-23.744973699269202
30
0.0
11
5.661278614681238
21
-23.47709684028079
31
0.0
0
LINE
8
1
62
1
10
5.661278614681238
20
-23.47709684028079
30
0.0
11
5.456629046418767
21
-23.219761346237004
31
0.0
0
LINE
8
1
62
1
10
5.456629046418767
20
-23.219761346237004
30
0.0
11
5.273926951585218
21
-22.974147111124758
31
0.0
0
LINE
8
1
62
1
10
5.273926951585218
20
-22.974147111124758
30
0.0
11
5.112187610288571
21
-22.741384297832212
31
0.0
0
LINE
8
1
62
1
10
5.112187610288571
20
-22.741384297832212
30
0.0
11
4.970376821665325
21
-22.522551247310563
31
0.0
0
LINE
8
1
62
1
10
4.970376821665325
20
-22.522551247310563
30
0.0
11
4.847413237872914
21
-22.318672481878412
31
0.0
0
LINE
8
1
62
1
10
4.847413237872914
20
-22.318672481878412
30
0.0
11
4.742170774766822
21
-22.130716805661212
31
0.0
0
LINE
8
1
62
1
10
4.742170774766822
20
-22.130716805661212
30
0.0
11
4.65348109540936
21
-21.959595505014306
31
0.0
0
LINE
8
1
62
1
10
4.65348109540936
20
-21.959595505014306
30
0.0
11
4.580136162453677
21
-21.806160651629895
31
0.0
0
LINE
8
1
62
1
10
4.580136162453677
20
-21.806160651629895
30
0.0
11
4.520890855349031
21
-21.67120351087689
31
0.0
0
LINE
8
1
62
1
10
4.520890855349031
20
-21.67120351087689
30
0.0
11
4.474465648221103
21
-21.555453057767238
31
0.0
0
LINE
8
1
62
1
10
4.474465648221103
20
-21.555453057767238
30
0.0
11
4.439549344195059
21
-21.459574602784034
31
0.0
0
LINE
8
1
62
1
10
4.439549344195059
20
-21.459574602784034
30
0.0
11
4.414801861848651
21
-21.38416852964536
31
0.0
0
LINE
8
1
62
1
10
4.414801861848651
20
-21.38416852964536
30
0.0
11
4.398857069408382
21
-21.329769146913357
31
0.0
0
LINE
8
1
62
1
10
4.398857069408382
20
-21.329769146913357
30
0.0
11
4.390325662233553
21
-21.296843655191275
31
0.0
0
LINE
8
1
62
1
10
4.390325662233553
20
-21.296843655191275
30
0.0
11
4.387798079071089
21
-21.285791231482
31
0.0
0
LINE
8
1
62
1
10
4.387798079071089
20
-21.285791231482
30
0.0
11
3.8157695819975896
21
-18.5108050202335
31
0.0
0
LINE
8
1
62
1
10
3.8157695819975896
20
-18.5108050202335
30
0.0
11
0.11622690857064016
21
-18.89964262375678
31
0.0
0
LINE
8
1
62
1
10
0.11622690857064016
20
-18.89964262375678
30
0.0
11
0.13365068178347572
21
-21.73292014038139
31
0.0
0
LINE
8
1
62
1
10
0.13365068178347572
20
-21.73292014038139
30
0.0
11
0.13347626047848463
21
-21.744256556203894
31
0.0
0
LINE
8
1
62
1
10
0.13347626047848463
20
-21.744256556203894
30
0.0
11
0.13197687967448798
21
-21.778236326225603
31
0.0
0
LINE
8
1
62
1
10
0.13197687967448798
20
-21.778236326225603
30
0.0
11
0.1276907868480941
21
-21.83476206068231
31
0.0
0
LINE
8
1
62
1
10
0.1276907868480941
20
-21.83476206068231
30
0.0
11
0.11916190053094206
21
-21.913665621101785
31
0.0
0
LINE
8
1
62
1
10
0.11916190053094206
20
-21.913665621101785
30
0.0
11
0.10494285320992704
21
-22.01470840961283
31
0.0
0
LINE
8
1
62
1
10
0.10494285320992704
20
-22.01470840961283
30
0.0
11
0.0835980206631235
21
-22.13758178091642
31
0.0
0
LINE
8
1
62
1
10
0.0835980206631235
20
-22.13758178091642
30
0.0
11
0.05370653298586418
21
-22.28190757631901
31
0.0
0
LINE
8
1
62
1
10
0.05370653298586418
20
-22.28190757631901
30
0.0
11
0.013865262586808896
21
-22.44723877904965
31
0.0
0
LINE
8
1
62
1
10
0.013865262586808896
20
-22.44723877904965
30
0.0
11
-0.037308215534111094
21
-22.63306028990516
31
0.0
0
LINE
8
1
62
1
10
-0.037308215534111094
20
-22.63306028990516
30
0.0
11
-0.10117269587553662
21
-22.838789822091528
31
0.0
0
LINE
8
1
62
1
10
-0.10117269587553662
20
-22.838789822091528
30
0.0
11
-0.1790604514968788
21
-23.06377891395485
31
0.0
0
LINE
8
1
62
1
10
-0.1790604514968788
20
-23.06377891395485
30
0.0
11
-0.272274384606111
21
-23.30731405812272
31
0.0
0
LINE
8
1
62
1
10
-0.272274384606111
20
-23.30731405812272
30
0.0
11
-0.3820852231685409
21
-23.56861794540561
31
0.0
0
LINE
8
1
62
1
10
-0.3820852231685409
20
-23.56861794540561
30
0.0
11
-0.5097287679679188
21
-23.84685082163951
31
0.0
0
LINE
8
1
62
1
10
-0.5097287679679188
20
-23.84685082163951
30
0.0
11
-0.6564031944809967
21
-24.141111955484664
31
0.0
0
LINE
8
1
62
1
10
-0.6564031944809967
20
-24.141111955484664
30
0.0
11
-0.8232664138502819
21
-24.45044121503178
31
0.0
0
LINE
8
1
62
1
10
-0.8232664138502819
20
-24.45044121503178
30
0.0
11
-1.0114334971573606
21
-24.77382075090635
31
0.0
0
LINE
8
1
62
1
10
-1.0114334971573606
20
-24.77382075090635
30
0.0
11
-1.2219741671109345
21
-25.110176783404327
31
0.0
0
LINE
8
1
62
1
10
-1.2219741671109345
20
-25.110176783404327
30
0.0
11
-1.4559103611696638
21
-25.458381491037873
31
0.0
0
LINE
8
1
62
1
10
-1.4559103611696638
20
-25.458381491037873
30
0.0
11
-3.86899991462363
21
-25.2047555588945
31
0.0
0
LINE
8
1
62
1
10
-3.86899991462363
20
-25.2047555588945
30
0.0
11
-4.02542821205218
21
-24.81552188990831
31
0.0
0
LINE
8
1
62
1
10
-4.02542821205218
20
-24.81552188990831
30
0.0
11
-4.161435711790749
21
-24.44274217705212
31
0.0
0
LINE
8
1
62
1
10
-4.161435711790749
20
-24.44274217705212
30
0.0
11
-4.278256506785103
21
-24.087307123463376
31
0.0
0
LINE
8
1
62
1
10
-4.278256506785103
20
-24.087307123463376
30
0.0
11
-4.377160195090041
21
-23.750044636326237
31
0.0
0
LINE
8
1
62
1
10
-4.377160195090041
20
-23.750044636326237
30
0.0
11
-4.459449103593118
21
-23.431718486250336
31
0.0
0
LINE
8
1
62
1
10
-4.459449103593118
20
-23.431718486250336
30
0.0
11
-4.52645546294891
21
-23.13302708069567
31
0.0
0
LINE
8
1
62
1
10
-4.52645546294891
20
-23.13302708069567
30
0.0
11
-4.579538538201079
21
-22.85460235317186
31
0.0
0
LINE
8
1
62
1
10
-4.579538538201079
20
-22.85460235317186
30
0.0
11
-4.620081719629346
21
-22.59700876976918
31
0.0
0
LINE
8
1
62
1
10
-4.620081719629346
20
-22.59700876976918
30
0.0
11
-4.649489578412048
21
-22.360742454406562
31
0.0
0
LINE
8
1
62
1
10
-4.649489578412048
20
-22.360742454406562
30
0.0
11
-4.669184891742111
21
-22.146230434007396
31
0.0
0
LINE
8
1
62
1
10
-4.669184891742111
20
-22.146230434007396
30
0.0
11
-4.680605642075013
21
-21.9538300046382
31
0.0
0
LINE
8
1
62
1
10
-4.680605642075013
20
-21.9538300046382
30
0.0
11
-4.685201995221376
21
-21.783828219467797
31
0.0
0
LINE
8
1
62
1
10
-4.685201995221376
20
-21.783828219467797
30
0.0
11
-4.68443326202448
21
-21.636441499226716
31
0.0
0
LINE
8
1
62
1
10
-4.68443326202448
20
-21.636441499226716
30
0.0
11
-4.679764848383992
21
-21.511815365667008
31
0.0
0
LINE
8
1
62
1
10
-4.679764848383992
20
-21.511815365667008
30
0.0
11
-4.672665198401492
21
-21.410024298343146
31
0.0
0
LINE
8
1
62
1
10
-4.672665198401492
20
-21.410024298343146
30
0.0
11
-4.664602735431191
21
-21.33107171485449
31
0.0
0
LINE
8
1
62
1
10
-4.664602735431191
20
-21.33107171485449
30
0.0
11
-4.657042805820241
21
-21.274890074509408
31
0.0
0
LINE
8
1
62
1
10
-4.657042805820241
20
-21.274890074509408
30
0.0
11
-4.651444630117445
21
-21.24134110519105
31
0.0
0
LINE
8
1
62
1
10
-4.651444630117445
20
-21.24134110519105
30
0.0
11
-4.649258266516967
21
-21.23021615302491
31
0.0
0
LINE
8
1
62
1
10
-4.649258266516967
20
-21.23021615302491
30
0.0
11
-4.043143725515739
21
-18.46247515407462
31
0.0
0
LINE
8
1
62
1
10
-4.043143725515739
20
-18.46247515407462
30
0.0
11
-7.58099863173859
21
-17.312956412628594
31
0.0
0
LINE
8
1
62
1
10
-7.58099863173859
20
-17.312956412628594
30
0.0
11
-8.71747900887904
21
-19.908371105208218
31
0.0
0
LINE
8
1
62
1
10
-8.71747900887904
20
-19.908371105208218
30
0.0
11
-8.72224928638609
21
-19.918656492852744
31
0.0
0
LINE
8
1
62
1
10
-8.72224928638609
20
-19.918656492852744
30
0.0
11
-8.737439856499975
21
-19.949088704292905
31
0.0
0
LINE
8
1
62
1
10
-8.737439856499975
20
-19.949088704292905
30
0.0
11
-8.764346484612876
21
-19.99898422123762
31
0.0
0
LINE
8
1
62
1
10
-8.764346484612876
20
-19.99898422123762
30
0.0
11
-8.804230979258406
21
-20.06759719986085
31
0.0
0
LINE
8
1
62
1
10
-8.804230979258406
20
-20.06759719986085
30
0.0
11
-8.858318529956525
21
-20.15412097275757
31
0.0
0
LINE
8
1
62
1
10
-8.858318529956525
20
-20.15412097275757
30
0.0
11
-8.927795107341229
21
-20.2576896574401
31
0.0
0
LINE
8
1
62
1
10
-8.927795107341229
20
-20.2576896574401
30
0.0
11
-9.013804929662264
21
-20.3773798688964
31
0.0
0
LINE
8
1
62
1
10
-9.013804929662264
20
-20.3773798688964
30
0.0
11
-9.117447999656376
21
-20.51221253357957
31
0.0
0
LINE
8
1
62
1
10
-9.117447999656376
20
-20.51221253357957
30
0.0
11
-9.239777715682159
21
-20.661154802048497
31
0.0
0
LINE
8
1
62
1
10
-9.239777715682159
20
-20.661154802048497
30
0.0
11
-9.38179856090581
21
-20.823122057334437
31
0.0
0
LINE
8
1
62
1
10
-9.38179856090581
20
-20.823122057334437
30
0.0
11
-9.544463874212823
21
-20.996980015967175
31
0.0
0
LINE
8
1
62
1
10
-9.544463874212823
20
-20.996980015967175
30
0.0
11
-9.728673706403585
21
-21.181546918457325
31
0.0
0
LINE
8
1
62
1
10
-9.728673706403585
20
-21.181546918457325
30
0.0
11
-9.93527276510832
21
-21.375595805898747
31
0.0
0
LINE
8
1
62
1
10
-9.93527276510832
20
-21.375595805898747
30
0.0
11
-10.165048451729891
21
-21.577856879227067
31
0.0
0
LINE
8
1
62
1
10
-10.165048451729891
20
-21.577856879227067
30
0.0
11
-10.418728993591104
21
-21.787019937547072
31
0.0
0
LINE
8
1
62
1
10
-10.418728993591104
20
-21.787019937547072
30
0.0
11
-10.696981674326853
21
-22.001736891823203
31
0.0
0
LINE
8
1
62
1
10
-10.696981674326853
20
-22.001736891823203
30
0.0
11
-11.000411165420923
21
-22.220624350114303
31
0.0
0
LINE
8
1
62
1
10
-11.000411165420923
20
-22.220624350114303
30
0.0
11
-11.329557961642562
21
-22.44226627042567
31
0.0
0
LINE
8
1
62
1
10
-11.329557961642562
20
-22.44226627042567
30
0.0
11
-11.684896922989171
21
-22.665216677148692
31
0.0
0
LINE
8
1
62
1
10
-11.684896922989171
20
-22.665216677148692
30
0.0
11
-13.786204963194892
21
-21.45202591448559
31
0.0
0
LINE
8
1
62
1
10
-13.786204963194892
20
-21.45202591448559
30
0.0
11
-13.77079372786199
21
-21.032818143643542
31
0.0
0
LINE
8
1
62
1
10
-13.77079372786199
20
-21.032818143643542
30
0.0
11
-13.7434195924396
21
-20.636947696385654
31
0.0
0
LINE
8
1
62
1
10
-13.7434195924396
20
-20.636947696385654
30
0.0
11
-13.705572238536737
21
-20.264726319695257
31
0.0
0
LINE
8
1
62
1
10
-13.705572238536737
20
-20.264726319695257
30
0.0
11
-13.658748241878259
21
-19.916393952368914
31
0.0
0
LINE
8
1
62
1
10
-13.658748241878259
20
-19.916393952368914
30
0.0
11
-13.604447990770495
21
-19.592118629511297
31
0.0
0
LINE
8
1
62
1
10
-13.604447990770495
20
-19.592118629511297
30
0.0
11
-13.544172606382247
21
-19.291996511060844
31
0.0
0
LINE
8
1
62
1
10
-13.544172606382247
20
-19.291996511060844
30
0.0
11
-13.47942086963424
21
-19.016052034103883
31
0.0
0
LINE
8
1
62
1
10
-13.47942086963424
20
-19.016052034103883
30
0.0
11
-13.411686159475343
21
-18.764238188554735
31
0.0
0
LINE
8
1
62
1
10
-13.411686159475343
20
-18.764238188554735
30
0.0
11
-13.342453407302795
21
-18.53643691559994
31
0.0
0
LINE
8
1
62
1
10
-13.342453407302795
20
-18.53643691559994
30
0.0
11
-13.273196072255757
21
-18.332459628126347
31
0.0
0
LINE
8
1
62
1
10
-13.273196072255757
20
-18.332459628126347
30
0.0
11
-13.205373142077278
21
-18.152047852175823
31
0.0
0
LINE
8
1
62
1
10
-13.205373142077278
20
-18.152047852175823
30
0.0
11
-13.140426164198757
21
-17.99487398829313
31
0.0
0
LINE
8
1
62
1
10
-13.140426164198757
20
-17.99487398829313
30
0.0
11
-13.079776311653786
21
-17.860542191459974
31
0.0
0
LINE
8
1
62
1
10
-13.079776311653786
20
-17.860542191459974
30
0.0
11
-13.02482148837453
21
-17.748589368135562
31
0.0
0
LINE
8
1
62
1
10
-13.02482148837453
20
-17.748589368135562
30
0.0
11
-12.976933478363753
21
-17.65848628875415
31
0.0
0
LINE
8
1
62
1
10
-12.976933478363753
20
-17.65848628875415
30
0.0
11
-12.937455143169485
21
-17.589638813862404
31
0.0
0
LINE
8
1
62
1
10
-12.937455143169485
20
-17.589638813862404
30
0.0
11
-12.907697672016853
21
-17.541389231914092
31
0.0
0
LINE
8
1
62
1
10
-12.907697672016853
20
-17.541389231914092
30
0.0
11
-12.888937888873278
21
-17.51301770657742
31
0.0
0
LINE
8
1
62
1
10
-12.888937888873278
20
-17.51301770657742
30
0.0
11
-12.88241562063887
21
-17.50374383125095
31
0.0
0
LINE
8
1
62
1
10
-12.88241562063887
20
-17.50374383125095
30
0.0
11
-11.202960752079766
21
-15.221815607454989
31
0.0
0
LINE
8
1
62
1
10
-11.202960752079766
20
-15.221815607454989
30
0.0
11
-13.967400637409764
21
-12.732702754485603
31
0.0
0
LINE
8
1
62
1
10
-13.967400637409764
20
-12.732702754485603
30
0.0
11
-16.061277383095817
21
-14.641483844070956
31
0.0
0
LINE
8
1
62
1
10
-16.061277383095817
20
-14.641483844070956
30
0.0
11
-16.069818692487345
21
-14.64893976657395
31
0.0
0
LINE
8
1
62
1
10
-16.069818692487345
20
-14.64893976657395
30
0.0
11
-16.096073864336432
21
-14.6705624136066
31
0.0
0
LINE
8
1
62
1
10
-16.096073864336432
20
-14.6705624136066
30
0.0
11
-16.140948627296076
21
-14.705200324873045
31
0.0
0
LINE
8
1
62
1
10
-16.140948627296076
20
-14.705200324873045
30
0.0
11
-16.205292338806515
21
-14.751658914366725
31
0.0
0
LINE
8
1
62
1
10
-16.205292338806515
20
-14.751658914366725
30
0.0
11
-16.289896163996058
21
-14.80870292527148
31
0.0
0
LINE
8
1
62
1
10
-16.289896163996058
20
-14.80870292527148
30
0.0
11
-16.395491354813956
21
-14.875058956859371
31
0.0
0
LINE
8
1
62
1
10
-16.395491354813956
20
-14.875058956859371
30
0.0
11
-16.522747632124755
21
-14.949418059457155
31
0.0
0
LINE
8
1
62
1
10
-16.522747632124755
20
-14.949418059457155
30
0.0
11
-16.672271673344206
21
-15.030438393452842
31
0.0
0
LINE
8
1
62
1
10
-16.672271673344206
20
-15.030438393452842
30
0.0
11
-16.844605708043414
21
-15.116747948218867
31
0.0
0
LINE
8
1
62
1
10
-16.844605708043414
20
-15.116747948218867
30
0.0
11
-17.04022622379125
21
-15.206947316739122
31
0.0
0
LINE
8
1
62
1
10
-17.04022622379125
20
-15.206947316739122
30
0.0
11
-17.259542784345175
21
-15.299612521643706
31
0.0
0
LINE
8
1
62
1
10
-17.259542784345175
20
-15.299612521643706
30
0.0
11
-17.502896962137896
21
-15.393297888277923
31
0.0
0
LINE
8
1
62
1
10
-17.502896962137896
20
-15.393297888277923
30
0.0
11
-17.770561386841358
21
-15.486538960360448
31
0.0
0
LINE
8
1
62
1
10
-17.770561386841358
20
-15.486538960360448
30
0.0
11
-18.062738911621675
21
-15.577855453720558
31
0.0
0
LINE
8
1
62
1
10
-18.062738911621675
20
-15.577855453720558
30
0.0
11
-18.379561898527843
21
-15.665754243545154
31
0.0
0
LINE
8
1
62
1
10
-18.379561898527843
20
-15.665754243545154
30
0.0
11
-18.721091624284597
21
-15.748732380513667
31
0.0
0
LINE
8
1
62
1
10
-18.721091624284597
20
-15.748732380513667
30
0.0
11
-19.08731780758511
21
-15.825280131152631
31
0.0
0
LINE
8
1
62
1
10
-19.08731780758511
20
-15.825280131152631
30
0.0
11
-19.478158258803322
21
-15.893884037701923
31
0.0
0
LINE
8
1
62
1
10
-19.478158258803322
20
-15.893884037701923
30
0.0
11
-19.89345865286786
21
-15.953029992751144
31
0.0
0
LINE
8
1
62
1
10
-19.89345865286786
20
-15.953029992751144
30
0.0
11
-21.31964992988952
21
-13.990046103924842
31
0.0
0
LINE
8
1
62
1
10
-21.31964992988952
20
-13.990046103924842
30
0.0
11
-21.1350639043909
21
-13.613349063188563
31
0.0
0
LINE
8
1
62
1
10
-21.1350639043909
20
-13.613349063188563
30
0.0
11
-20.949041370508294
21
-13.262837478229983
31
0.0
0
LINE
8
1
62
1
10
-20.949041370508294
20
-13.262837478229983
30
0.0
11
-20.763070019030437
21
-12.938190235992746
31
0.0
0
LINE
8
1
62
1
10
-20.763070019030437
20
-12.938190235992746
30
0.0
11
-20.578614631813448
21
-12.639017819288133
31
0.0
0
LINE
8
1
62
1
10
-20.578614631813448
20
-12.639017819288133
30
0.0
11
-20.39711422781367
21
-12.364863472919717
31
0.0
0
LINE
8
1
62
1
10
-20.39711422781367
20
-12.364863472919717
30
0.0
11
-20.21997926122679
21
-12.115204482377408
31
0.0
0
LINE
8
1
62
1
10
-20.21997926122679
20
-12.115204482377408
30
0.0
11
-20.048588876013394
21
-11.889453562930026
31
0.0
0
LINE
8
1
62
1
10
-20.048588876013394
20
-11.889453562930026
30
0.0
11
-19.88428822100433
21
-11.68696035678683
31
0.0
0
LINE
8
1
62
1
10
-19.88428822100433
20
-11.68696035678683
30
0.0
11
-19.728385829686975
21
-11.507013035843336
31
0.0
0
LINE
8
1
62
1
10
-19.728385829686975
20
-11.507013035843336
30
0.0
11
-19.582151068675604
21
-11.348840007374985
31
0.0
0
LINE
8
1
62
1
10
-19.582151068675604
20
-11.348840007374985
30
0.0
11
-19.446811658765583
21
-11.211611719894504
31
0.0
0
LINE
8
1
62
1
10
-19.446811658765583
20
-11.211611719894504
30
0.0
11
-19.323551272362145
21
-11.09444256624456
31
0.0
0
LINE
8
1
62
1
10
-19.323551272362145
20
-11.09444256624456
30
0.0
11
-19.213507210960735
21
-10.996392880857849
31
0.0
0
LINE
8
1
62
1
10
-19.213507210960735
20
-10.996392880857849
30
0.0
11
-19.117768166236587
21
-10.916471027980997
31
0.0
0
LINE
8
1
62
1
10
-19.117768166236587
20
-10.916471027980997
30
0.0
11
-19.037372068177316
21
-10.853635577527863
31
0.0
0
LINE
8
1
62
1
10
-19.037372068177316
20
-10.853635577527863
30
0.0
11
-18.973304023563582
21
-10.806797565101482
31
0.0
0
LINE
8
1
62
1
10
-18.973304023563582
20
-10.806797565101482
30
0.0
11
-18.9264943479697
21
-10.774822832602494
31
0.0
0
LINE
8
1
62
1
10
-18.9264943479697
20
-10.774822832602494
30
0.0
11
-18.897816694318145
21
-10.756534445725432
31
0.0
0
LINE
8
1
62
1
10
-18.897816694318145
20
-10.756534445725432
30
0.0
11
-18.888086280880486
21
-10.750715184533094
31
0.0
0
LINE
8
1
62
1
10
-18.888086280880486
20
-10.750715184533094
30
0.0
11
-16.42568408890587
21
-9.349165856452885
31
0.0
0
LINE
8
1
62
1
10
-16.42568408890587
20
-9.349165856452885
30
0.0
11
-17.93871218302153
21
-5.950849117118914
31
0.0
0
LINE
8
1
62
1
10
-17.93871218302153
20
-5.950849117118914
30
0.0
11
-20.62793498565101
21
-6.842951012588882
31
0.0
0
LINE
8
1
62
1
10
-20.62793498565101
20
-6.842951012588882
30
0.0
11
-20.63877045693786
21
-6.846288273214645
31
0.0
0
LINE
8
1
62
1
10
-20.63877045693786
20
-6.846288273214645
30
0.0
11
-20.67155047278869
21
-6.855362603732257
31
0.0
0
LINE
8
1
62
1
10
-20.67155047278869
20
-6.855362603732257
30
0.0
11
-20.726634116404934
21
-6.868753699786916
31
0.0
0
LINE
8
1
62
1
10
-20.726634116404934
20
-6.868753699786916
30
0.0
11
-20.80431143251586
21
-6.885024787964556
31
0.0
0
LINE
8
1
62
1
10
-20.80431143251586
20
-6.885024787964556
30
0.0
11
-20.904802762219937
21
-6.902725609163343
31
0.0
0
LINE
8
1
62
1
10
-20.904802762219937
20
-6.902725609163343
30
0.0
11
-21.028258198676422
21
-6.920395426969429
31
0.0
0
LINE
8
1
62
1
10
-21.028258198676422
20
-6.920395426969429
30
0.0
11
-21.174757164542957
21
-6.936566056338298
31
0.0
0
LINE
8
1
62
1
10
-21.174757164542957
20
-6.936566056338298
30
0.0
11
-21.344308111877638
21
-6.949764907852015
31
0.0
0
LINE
8
1
62
1
10
-21.344308111877638
20
-6.949764907852015
30
0.0
11
-21.536848345045225
21
-6.958518042798409
31
0.0
0
LINE
8
1
62
1
10
-21.536848345045225
20
-6.958518042798409
30
0.0
11
-21.752243966987844
21
-6.9613532343002875
31
0.0
0
LINE
8
1
62
1
10
-21.752243966987844
20
-6.9613532343002875
30
0.0
11
-21.990289949040505
21
-6.956803029711758
31
0.0
0
LINE
8
1
62
1
10
-21.990289949040505
20
-6.956803029711758
30
0.0
11
-22.25071032429152
21
-6.943407809494147
31
0.0
0
LINE
8
1
62
1
10
-22.25071032429152
20
-6.943407809494147
30
0.0
11
-22.533158504307522
21
-6.919718837786162
31
0.0
0
LINE
8
1
62
1
10
-22.533158504307522
20
-6.919718837786162
30
0.0
11
-22.837217718862586
21
-6.884301299891798
31
0.0
0
LINE
8
1
62
1
10
-22.837217718862586
20
-6.884301299891798
30
0.0
11
-23.16240157813116
21
-6.835737321924874
31
0.0
0
LINE
8
1
62
1
10
-23.16240157813116
20
-6.835737321924874
30
0.0
11
-23.508154756625423
21
-6.7726289678712055
31
0.0
0
LINE
8
1
62
1
10
-23.508154756625423
20
-6.7726289678712055
30
0.0
11
-23.873853797979287
21
-6.69360120935808
31
0.0
0
LINE
8
1
62
1
10
-23.873853797979287
20
-6.69360120935808
30
0.0
11
-24.258808039504416
21
-6.597304863455993
31
0.0
0
LINE
8
1
62
1
10
-24.258808039504416
20
-6.597304863455993
30
0.0
11
-24.662260655267488
21
-6.482419493879277
31
0.0
0
LINE
8
1
62
1
10
-24.662260655267488
20
-6.482419493879277
30
0.0
11
-25.166733740767032
21
-4.109060226416619
31
0.0
0
LINE
8
1
62
1
10
-25.166733740767032
20
-4.109060226416619
30
0.0
11
-24.844889525822808
21
-3.840008256314595
31
0.0
0
LINE
8
1
62
1
10
-24.844889525822808
20
-3.840008256314595
30
0.0
11
-24.532383579549954
21
-3.595462170992442
31
0.0
0
LINE
8
1
62
1
10
-24.532383579549954
20
-3.595462170992442
30
0.0
11
-24.230444366664315
21
-3.3745235207187907
31
0.0
0
LINE
8
1
62
1
10
-24.230444366664315
20
-3.3745235207187907
30
0.0
11
-23.940251601063213
21
-3.176240683380216
31
0.0
0
LINE
8
1
62
1
10
-23.940251601063213
20
-3.176240683380216
30
0.0
11
-23.66293411290239
21
-2.9996110906021443
31
0.0
0
LINE
8
1
62
1
10
-23.66293411290239
20
-2.9996110906021443
30
0.0
11
-23.3995678090604
21
-2.843583535513473
31
0.0
0
LINE
8
1
62
1
10
-23.3995678090604
20
-2.843583535513473
30
0.0
11
-23.15117373001779
21
-2.7070605584308414
31
0.0
0
LINE
8
1
62
1
10
-23.15117373001779
20
-2.7070605584308414
30
0.0
11
-22.918716206034212
21
-2.588900906628782
31
0.0
0
LINE
8
1
62
1
10
-22.918716206034212
20
-2.588900906628782
30
0.0
11
-22.70310111535958
21
-2.4879220642578064
31
0.0
0
LINE
8
1
62
1
10
-22.70310111535958
20
-2.4879220642578064
30
0.0
11
-22.50517424706384
21
-2.402902848373728
31
0.0
0
LINE
8
1
62
1
10
-22.50517424706384
20
-2.402902848373728
30
0.0
11
-22.32571977091566
21
-2.332586066948523
31
0.0
0
LINE
8
1
62
1
10
-22.32571977091566
20
-2.332586066948523
30
0.0
11
-22.165458816581918
21
-2.2756812346457487
31
0.0
0
LINE
8
1
62
1
10
-22.165458816581918
20
-2.2756812346457487
30
0.0
11
-22.02504816425929
21
-2.230867342062268
31
0.0
0
LINE
8
1
62
1
10
-22.02504816425929
20
-2.230867342062268
30
0.0
11
-21.905079048684975
21
-2.196795674062623
31
0.0
0
LINE
8
1
62
1
10
-21.905079048684975
20
-2.196795674062623
30
0.0
11
-21.80607607830727
21
-2.172092672763258
31
0.0
0
LINE
8
1
62
1
10
-21.80607607830727
20
-2.172092672763258
30
0.0
11
-21.728496271227705
21
-2.1553628406607492
31
0.0
0
LINE
8
1
62
1
10
-21.728496271227705
20
-2.1553628406607492
30
0.0
11
-21.672728209355302
21
-2.145191679341485
31
0.0
0
LINE
8
1
62
1
10
-21.672728209355302
20
-2.145191679341485
30
0.0
11
-21.639091312040428
21
-2.1401486591598577
31
0.0
0
LINE
8
1
62
1
10
-21.639091312040428
20
-2.1401486591598577
30
0.0
11
-21.62783523028092
21
-2.1387902152281355
31
0.0
0
LINE
8
1
62
1
10
-21.62783523028092
20
-2.1387902152281355
30
0.0
11
-18.808257424104838
21
-1.859960394364668
31
0.0
0
LINE
8
1
62
1
10
-18.808257424104838
20
-1.859960394364668
30
0.0
11
-18.808257424104838
21
1.8599603943646634
31
0.0
0
LINE
8
1
62
1
10
-18.808257424104838
20
1.8599603943646634
30
0.0
11
-21.62783523028092
21
2.1387902152281297
31
0.0
0
LINE
8
1
62
1
10
-21.62783523028092
20
2.1387902152281297
30
0.0
11
-21.639091312040428
21
2.140148659159852
31
0.0
0
LINE
8
1
62
1
10
-21.639091312040428
20
2.140148659159852
30
0.0
11
-21.672728209355302
21
2.145191679341479
31
0.0
0
LINE
8
1
62
1
10
-21.672728209355302
20
2.145191679341479
30
0.0
11
-21.728496271227705
21
2.155362840660744
31
0.0
0
LINE
8
1
62
1
10
-21.728496271227705
20
2.155362840660744
30
0.0
11
-21.80607607830727
21
2.1720926727632524
31
0.0
0
LINE
8
1
62
1
10
-21.80607607830727
20
2.1720926727632524
30
0.0
11
-21.905079048684975
21
2.1967956740626176
31
0.0
0
LINE
8
1
62
1
10
-21.905079048684975
20
2.1967956740626176
30
0.0
11
-22.02504816425929
21
2.230867342062263
31
0.0
0
LINE
8
1
62
1
10
-22.02504816425929
20
2.230867342062263
30
0.0
11
-22.165458816581918
21
2.275681234645743
31
0.0
0
LINE
8
1
62
1
10
-22.165458816581918
20
2.275681234645743
30
0.0
11
-22.32571977091566
21
2.3325860669485174
31
0.0
0
LINE
8
1
62
1
10
-22.32571977091566
20
2.3325860669485174
30
0.0
11
-22.50517424706384
21
2.402902848373722
31
0.0
0
LINE
8
1
62
1
10
-22.50517424706384
20
2.402902848373722
30
0.0
11
-22.70310111535958
21
2.4879220642578006
31
0.0
0
LINE
8
1
62
1
10
-22.70310111535958
20
2.4879220642578006
30
0.0
11
-22.918716206034212
21
2.5889009066287763
31
0.0
0
LINE
8
1
62
1
10
-22.918716206034212
20
2.5889009066287763
30
0.0
11
-23.15117373001779
21
2.707060558430835
31
0.0
0
LINE
8
1
62
1
10
-23.15117373001779
20
2.707060558430835
30
0.0
11
-23.3995678090604
21
2.843583535513467
31
0.0
0
LINE
8
1
62
1
10
-23.3995678090604
20
2.843583535513467
30
0.0
11
-23.66293411290239
21
2.9996110906021385
31
0.0
0
LINE
8
1
62
1
10
-23.66293411290239
20
2.9996110906021385
30
0.0
11
-23.940251601063213
21
3.17624068338021
31
0.0
0
LINE
8
1
62
1
10
-23.940251601063213
20
3.17624068338021
30
0.0
11
-24.230444366664315
21
3.374523520718785
31
0.0
0
LINE
8
1
62
1
10
-24.230444366664315
20
3.374523520718785
30
0.0
11
-24.532383579549954
21
3.5954621709924357
31
0.0
0
LINE
8
1
62
1
10
-24.532383579549954
20
3.5954621709924357
30
0.0
11
-24.844889525822808
21
3.8400082563145888
31
0.0
0
LINE
8
1
62
1
10
-24.844889525822808
20
3.8400082563145888
30
0.0
11
-25.166733740767032
21
4.109060226416613
31
0.0
0
LINE
8
1
62
1
10
-25.166733740767032
20
4.109060226416613
30
0.0
11
-24.662260655267488
21
6.48241949387927
31
0.0
0
LINE
8
1
62
1
10
-24.662260655267488
20
6.48241949387927
30
0.0
11
-24.258808039504416
21
6.597304863455988
31
0.0
0
LINE
8
1
62
1
10
-24.258808039504416
20
6.597304863455988
30
0.0
11
-23.873853797979287
21
6.693601209358074
31
0.0
0
LINE
8
1
62
1
10
-23.873853797979287
20
6.693601209358074
30
0.0
11
-23.508154756625423
21
6.7726289678712
31
0.0
0
LINE
8
1
62
1
10
-23.508154756625423
20
6.7726289678712
30
0.0
11
-23.16240157813116
21
6.835737321924869
31
0.0
0
LINE
8
1
62
1
10
-23.16240157813116
20
6.835737321924869
30
0.0
11
-22.837217718862586
21
6.884301299891793
31
0.0
0
LINE
8
1
62
1
10
-22.837217718862586
20
6.884301299891793
30
0.0
11
-22.533158504307522
21
6.9197188377861565
31
0.0
0
LINE
8
1
62
1
10
-22.533158504307522
20
6.9197188377861565
30
0.0
11
-22.25071032429152
21
6.943407809494142
31
0.0
0
LINE
8
1
62
1
10
-22.25071032429152
20
6.943407809494142
30
0.0
11
-21.990289949040505
21
6.956803029711753
31
0.0
0
LINE
8
1
62
1
10
-21.990289949040505
20
6.956803029711753
30
0.0
11
-21.752243966987844
21
6.961353234300282
31
0.0
0
LINE
8
1
62
1
10
-21.752243966987844
20
6.961353234300282
30
0.0
11
-21.536848345045225
21
6.958518042798404
31
0.0
0
LINE
8
1
62
1
10
-21.536848345045225
20
6.958518042798404
30
0.0
11
-21.344308111877638
21
6.94976490785201
31
0.0
0
LINE
8
1
62
1
10
-21.344308111877638
20
6.94976490785201
30
0.0
11
-21.174757164542957
21
6.936566056338293
31
0.0
0
LINE
8
1
62
1
10
-21.174757164542957
20
6.936566056338293
30
0.0
11
-21.028258198676422
21
6.920395426969424
31
0.0
0
LINE
8
1
62
1
10
-21.028258198676422
20
6.920395426969424
30
0.0
11
-20.904802762219937
21
6.902725609163338
31
0.0
0
LINE
8
1
62
1
10
-20.904802762219937
20
6.902725609163338
30
0.0
11
-20.80431143251586
21
6.885024787964552
31
0.0
0
LINE
8
1
62
1
10
-20.80431143251586
20
6.885024787964552
30
0.0
11
-20.726634116404934
21
6.868753699786912
31
0.0
0
LINE
8
1
62
1
10
-20.726634116404934
20
6.868753699786912
30
0.0
11
-20.67155047278869
21
6.855362603732252
31
0.0
0
LINE
8
1
62
1
10
-20.67155047278869
20
6.855362603732252
30
0.0
11
-20.63877045693786
21
6.846288273214641
31
0.0
0
LINE
8
1
62
1
10
-20.63877045693786
20
6.846288273214641
30
0.0
11
-20.62793498565101
21
6.842951012588877
31
0.0
0
LINE
8
1
62
1
10
-20.62793498565101
20
6.842951012588877
30
0.0
11
-17.93871218302153
21
5.95084911711891
31
0.0
0
LINE
8
1
62
1
10
-17.93871218302153
20
5.95084911711891
30
0.0
11
-16.425684088905875
21
9.34916585645288
31
0.0
0
LINE
8
1
62
1
10
-16.425684088905875
20
9.34916585645288
30
0.0
11
-18.88808628088049
21
10.750715184533089
31
0.0
0
LINE
8
1
62
1
10
-18.88808628088049
20
10.750715184533089
30
0.0
11
-18.89781669431815
21
10.756534445725427
31
0.0
0
LINE
8
1
62
1
10
-18.89781669431815
20
10.756534445725427
30
0.0
11
-18.9264943479697
21
10.774822832602489
31
0.0
0
LINE
8
1
62
1
10
-18.9264943479697
20
10.774822832602489
30
0.0
11
-18.973304023563585
21
10.806797565101476
31
0.0
0
LINE
8
1
62
1
10
-18.973304023563585
20
10.806797565101476
30
0.0
11
-19.037372068177316
21
10.853635577527857
31
0.0
0
LINE
8
1
62
1
10
-19.037372068177316
20
10.853635577527857
30
0.0
11
-19.11776816623659
21
10.916471027980993
31
0.0
0
LINE
8
1
62
1
10
-19.11776816623659
20
10.916471027980993
30
0.0
11
-19.21350721096074
21
10.996392880857844
31
0.0
0
LINE
8
1
62
1
10
-19.21350721096074
20
10.996392880857844
30
0.0
11
-19.323551272362145
21
11.094442566244554
31
0.0
0
LINE
8
1
62
1
10
-19.323551272362145
20
11.094442566244554
30
0.0
11
-19.446811658765586
21
11.2116117198945
31
0.0
0
LINE
8
1
62
1
10
-19.446811658765586
20
11.2116117198945
30
0.0
11
-19.582151068675604
21
11.34884000737498
31
0.0
0
LINE
8
1
62
1
10
-19.582151068675604
20
11.34884000737498
30
0.0
11
-19.728385829686978
21
11.50701303584333
31
0.0
0
LINE
8
1
62
1
10
-19.728385829686978
20
11.50701303584333
30
0.0
11
-19.884288221004333
21
11.686960356786825
31
0.0
0
LINE
8
1
62
1
10
-19.884288221004333
20
11.686960356786825
30
0.0
11
-20.048588876013397
21
11.88945356293002
31
0.0
0
LINE
8
1
62
1
10
-20.048588876013397
20
11.88945356293002
30
0.0
11
-20.21997926122679
21
12.115204482377402
31
0.0
0
LINE
8
1
62
1
10
-20.21997926122679
20
12.115204482377402
30
0.0
11
-20.397114227813674
21
12.364863472919712
31
0.0
0
LINE
8
1
62
1
10
-20.397114227813674
20
12.364863472919712
30
0.0
11
-20.57861463181345
21
12.639017819288128
31
0.0
0
LINE
8
1
62
1
10
-20.57861463181345
20
12.639017819288128
30
0.0
11
-20.763070019030437
21
12.938190235992742
31
0.0
0
LINE
8
1
62
1
10
-20.763070019030437
20
12.938190235992742
30
0.0
11
-20.949041370508297
21
13.262837478229978
31
0.0
0
LINE
8
1
62
1
10
-20.949041370508297
20
13.262837478229978
30
0.0
11
-21.135063904390904
21
13.613349063188558
31
0.0
0
LINE
8
1
62
1
10
-21.135063904390904
20
13.613349063188558
30
0.0
11
-21.319649929889522
21
13.990046103924836
31
0.0
0
LINE
8
1
62
1
10
-21.319649929889522
20
13.990046103924836
30
0.0
11
-19.893458652867864
21
15.953029992751144
31
0.0
0
LINE
8
1
62
1
10
-19.893458652867864
20
15.953029992751144
30
0.0
11
-19.478158258803326
21
15.89388403770192
31
0.0
0
LINE
8
1
62
1
10
-19.478158258803326
20
15.89388403770192
30
0.0
11
-19.087317807585112
21
15.825280131152631
31
0.0
0
LINE
8
1
62
1
10
-19.087317807585112
20
15.825280131152631
30
0.0
11
-18.7210916242846
21
15.748732380513664
31
0.0
0
LINE
8
1
62
1
10
-18.7210916242846
20
15.748732380513664
30
0.0
11
-18.379561898527847
21
15.66575424354515
31
0.0
0
LINE
8
1
62
1
10
-18.379561898527847
20
15.66575424354515
30
0.0
11
-18.062738911621675
21
15.577855453720558
31
0.0
0
LINE
8
1
62
1
10
-18.062738911621675
20
15.577855453720558
30
0.0
11
-17.770561386841358
21
15.486538960360447
31
0.0
0
LINE
8
1
62
1
10
-17.770561386841358
20
15.486538960360447
30
0.0
11
-17.5028969621379
21
15.393297888277921
31
0.0
0
LINE
8
1
62
1
10
-17.5028969621379
20
15.393297888277921
30
0.0
11
-17.25954278434518
21
15.299612521643702
31
0.0
0
LINE
8
1
62
1
10
-17.25954278434518
20
15.299612521643702
30
0.0
11
-17.040226223791255
21
15.206947316739118
31
0.0
0
LINE
8
1
62
1
10
-17.040226223791255
20
15.206947316739118
30
0.0
11
-16.844605708043417
21
15.116747948218865
31
0.0
0
LINE
8
1
62
1
10
-16.844605708043417
20
15.116747948218865
30
0.0
11
-16.67227167334421
21
15.030438393452838
31
0.0
0
LINE
8
1
62
1
10
-16.67227167334421
20
15.030438393452838
30
0.0
11
-16.522747632124755
21
14.949418059457154
31
0.0
0
LINE
8
1
62
1
10
-16.522747632124755
20
14.949418059457154
30
0.0
11
-16.395491354813956
21
14.87505895685937
31
0.0
0
LINE
8
1
62
1
10
-16.395491354813956
20
14.87505895685937
30
0.0
11
-16.28989616399606
21
14.808702925271477
31
0.0
0
LINE
8
1
62
1
10
-16.28989616399606
20
14.808702925271477
30
0.0
11
-16.20529233880652
21
14.751658914366722
31
0.0
0
LINE
8
1
62
1
10
-16.20529233880652
20
14.751658914366722
30
0.0
11
-16.14094862729608
21
14.705200324873042
31
0.0
0
LINE
8
1
62
1
10
-16.14094862729608
20
14.705200324873042
30
0.0
11
-16.096073864336432
21
14.670562413606598
31
0.0
0
LINE
8
1
62
1
10
-16.096073864336432
20
14.670562413606598
30
0.0
11
-16.069818692487345
21
14.648939766573948
31
0.0
0
LINE
8
1
62
1
10
-16.069818692487345
20
14.648939766573948
30
0.0
11
-16.06127738309582
21
14.641483844070954
31
0.0
0
LINE
8
1
62
1
10
-16.06127738309582
20
14.641483844070954
30
0.0
11
-13.967400637409765
21
12.7327027544856
31
0.0
0
LINE
8
1
62
1
10
-13.967400637409765
20
12.7327027544856
30
0.0
11
-11.202960752079763
21
15.22181560745499
31
0.0
0
LINE
8
1
62
1
10
-11.202960752079763
20
15.22181560745499
30
0.0
11
-12.882415620638868
21
17.50374383125095
31
0.0
0
LINE
8
1
62
1
10
-12.882415620638868
20
17.50374383125095
30
0.0
11
-12.888937888873274
21
17.513017706577422
31
0.0
0
LINE
8
1
62
1
10
-12.888937888873274
20
17.513017706577422
30
0.0
11
-12.907697672016852
21
17.541389231914096
31
0.0
0
LINE
8
1
62
1
10
-12.907697672016852
20
17.541389231914096
30
0.0
11
-12.937455143169482
21
17.589638813862408
31
0.0
0
LINE
8
1
62
1
10
-12.937455143169482
20
17.589638813862408
30
0.0
11
-12.976933478363751
21
17.658486288754155
31
0.0
0
LINE
8
1
62
1
10
-12.976933478363751
20
17.658486288754155
30
0.0
11
-13.024821488374526
21
17.748589368135566
31
0.0
0
LINE
8
1
62
1
10
-13.024821488374526
20
17.748589368135566
30
0.0
11
-13.079776311653784
21
17.860542191459977
31
0.0
0
LINE
8
1
62
1
10
-13.079776311653784
20
17.860542191459977
30
0.0
11
-13.140426164198756
21
17.99487398829313
31
0.0
0
LINE
8
1
62
1
10
-13.140426164198756
20
17.99487398829313
30
0.0
11
-13.205373142077276
21
18.152047852175826
31
0.0
0
LINE
8
1
62
1
10
-13.205373142077276
20
18.152047852175826
30
0.0
11
-13.273196072255754
21
18.33245962812635
31
0.0
0
LINE
8
1
62
1
10
-13.273196072255754
20
18.33245962812635
30
0.0
11
-13.342453407302793
21
18.536436915599943
31
0.0
0
LINE
8
1
62
1
10
-13.342453407302793
20
18.536436915599943
30
0.0
11
-13.41168615947534
21
18.76423818855474
31
0.0
0
LINE
8
1
62
1
10
-13.41168615947534
20
18.76423818855474
30
0.0
11
-13.479420869634238
21
19.016052034103886
31
0.0
0
LINE
8
1
62
1
10
-13.479420869634238
20
19.016052034103886
30
0.0
11
-13.544172606382245
21
19.291996511060844
31
0.0
0
LINE
8
1
62
1
10
-13.544172606382245
20
19.291996511060844
30
0.0
11
-13.604447990770494
21
19.5921186295113
31
0.0
0
LINE
8
1
62
1
10
-13.604447990770494
20
19.5921186295113
30
0.0
11
-13.658748241878257
21
19.916393952368914
31
0.0
0
LINE
8
1
62
1
10
-13.658748241878257
20
19.916393952368914
30
0.0
11
-13.705572238536734
21
20.26472631969526
31
0.0
0
LINE
8
1
62
1
10
-13.705572238536734
20
20.26472631969526
30
0.0
11
-13.743419592439597
21
20.636947696385658
31
0.0
0
LINE
8
1
62
1
10
-13.743419592439597
20
20.636947696385658
30
0.0
11
-13.770793727861989
21
21.032818143643542
31
0.0
0
LINE
8
1
62
1
10
-13.770793727861989
20
21.032818143643542
30
0.0
11
-13.78620496319489
21
21.452025914485592
31
0.0
0
LINE
8
1
62
1
10
-13.78620496319489
20
21.452025914485592
30
0.0
11
-11.684896922989202
21
22.665216677148674
31
0.0
0
LINE
8
1
62
1
10
-11.684896922989202
20
22.665216677148674
30
0.0
11
-11.329557961642593
21
22.442266270425655
31
0.0
0
LINE
8
1
62
1
10
-11.329557961642593
20
22.442266270425655
30
0.0
11
-11.000411165420953
21
22.220624350114285
31
0.0
0
LINE
8
1
62
1
10
-11.000411165420953
20
22.220624350114285
30
0.0
11
-10.696981674326883
21
22.00173689182319
31
0.0
0
LINE
8
1
62
1
10
-10.696981674326883
20
22.00173689182319
30
0.0
11
-10.418728993591133
21
21.787019937547058
31
0.0
0
LINE
8
1
62
1
10
-10.418728993591133
20
21.787019937547058
30
0.0
11
-10.165048451729922
21
21.577856879227053
31
0.0
0
LINE
8
1
62
1
10
-10.165048451729922
20
21.577856879227053
30
0.0
11
-9.935272765108348
21
21.37559580589873
31
0.0
0
LINE
8
1
62
1
10
-9.935272765108348
20
21.37559580589873
30
0.0
11
-9.728673706403614
21
21.181546918457315
31
0.0
0
LINE
8
1
62
1
10
-9.728673706403614
20
21.181546918457315
30
0.0
11
-9.544463874212852
21
20.99698001596716
31
0.0
0
LINE
8
1
62
1
10
-9.544463874212852
20
20.99698001596716
30
0.0
11
-9.381798560905837
21
20.823122057334423
31
0.0
0
LINE
8
1
62
1
10
-9.381798560905837
20
20.823122057334423
30
0.0
11
-9.239777715682186
21
20.661154802048483
31
0.0
0
LINE
8
1
62
1
10
-9.239777715682186
20
20.661154802048483
30
0.0
11
-9.117447999656402
21
20.512212533579557
31
0.0
0
LINE
8
1
62
1
10
-9.117447999656402
20
20.512212533579557
30
0.0
11
-9.01380492966229
21
20.377379868896387
31
0.0
0
LINE
8
1
62
1
10
-9.01380492966229
20
20.377379868896387
30
0.0
11
-8.927795107341256
21
20.257689657440086
31
0.0
0
LINE
8
1
62
1
10
-8.927795107341256
20
20.257689657440086
30
0.0
11
-8.858318529956552
21
20.15412097275756
31
0.0
0
LINE
8
1
62
1
10
-8.858318529956552
20
20.15412097275756
30
0.0
11
-8.804230979258433
21
20.06759719986084
31
0.0
0
LINE
8
1
62
1
10
-8.804230979258433
20
20.06759719986084
30
0.0
11
-8.764346484612902
21
19.99898422123761
31
0.0
0
LINE
8
1
62
1
10
-8.764346484612902
20
19.99898422123761
30
0.0
11
-8.737439856500002
21
19.949088704292894
31
0.0
0
LINE
8
1
62
1
10
-8.737439856500002
20
19.949088704292894
30
0.0
11
-8.722249286386116
21
19.918656492852733
31
0.0
0
LINE
8
1
62
1
10
-8.722249286386116
20
19.918656492852733
30
0.0
11
-8.717479008879067
21
19.908371105208204
31
0.0
0
LINE
8
1
62
1
10
-8.717479008879067
20
19.908371105208204
30
0.0
11
-7.580998631738613
21
17.312956412628584
31
0.0
0
LINE
8
1
62
1
10
-7.580998631738613
20
17.312956412628584
30
0.0
11
-4.043143725515744
21
18.462475154074617
31
0.0
0
LINE
8
1
62
1
10
-4.043143725515744
20
18.462475154074617
30
0.0
11
-4.6492582665169735
21
21.230216153024905
31
0.0
0
LINE
8
1
62
1
10
-4.6492582665169735
20
21.230216153024905
30
0.0
11
-4.65144463011745
21
21.24134110519105
31
0.0
0
LINE
8
1
62
1
10
-4.65144463011745
20
21.24134110519105
30
0.0
11
-4.657042805820247
21
21.274890074509408
31
0.0
0
LINE
8
1
62
1
10
-4.657042805820247
20
21.274890074509408
30
0.0
11
-4.664602735431196
21
21.331071714854488
31
0.0
0
LINE
8
1
62
1
10
-4.664602735431196
20
21.331071714854488
30
0.0
11
-4.672665198401497
21
21.410024298343146
31
0.0
0
LINE
8
1
62
1
10
-4.672665198401497
20
21.410024298343146
30
0.0
11
-4.679764848383998
21
21.511815365667005
31
0.0
0
LINE
8
1
62
1
10
-4.679764848383998
20
21.511815365667005
30
0.0
11
-4.684433262024485
21
21.636441499226716
31
0.0
0
LINE
8
1
62
1
10
-4.684433262024485
20
21.636441499226716
30
0.0
11
-4.685201995221381
21
21.783828219467793
31
0.0
0
LINE
8
1
62
1
10
-4.685201995221381
20
21.783828219467793
30
0.0
11
-4.680605642075018
21
21.9538300046382
31
0.0
0
LINE
8
1
62
1
10
-4.680605642075018
20
21.9538300046382
30
0.0
11
-4.669184891742117
21
22.146230434007393
31
0.0
0
LINE
8
1
62
1
10
-4.669184891742117
20
22.146230434007393
30
0.0
11
-4.649489578412054
21
22.36074245440656
31
0.0
0
LINE
8
1
62
1
10
-4.649489578412054
20
22.36074245440656
30
0.0
11
-4.620081719629352
21
22.59700876976918
31
0.0
0
LINE
8
1
62
1
10
-4.620081719629352
20
22.59700876976918
30
0.0
11
-4.579538538201084
21
22.854602353171856
31
0.0
0
LINE
8
1
62
1
10
-4.579538538201084
20
22.854602353171856
30
0.0
11
-4.526455462948915
21
23.133027080695665
31
0.0
0
LINE
8
1
62
1
10
-4.526455462948915
20
23.133027080695665
30
0.0
11
-4.4594491035931245
21
23.431718486250332
31
0.0
0
LINE
8
1
62
1
10
-4.4594491035931245
20
23.431718486250332
30
0.0
11
-4.377160195090047
21
23.750044636326237
31
0.0
0
LINE
8
1
62
1
10
-4.377160195090047
20
23.750044636326237
30
0.0
11
-4.278256506785109
21
24.087307123463376
31
0.0
0
LINE
8
1
62
1
10
-4.278256506785109
20
24.087307123463376
30
0.0
11
-4.161435711790755
21
24.442742177052118
31
0.0
0
LINE
8
1
62
1
10
-4.161435711790755
20
24.442742177052118
30
0.0
11
-4.025428212052187
21
24.815521889908307
31
0.0
0
LINE
8
1
62
1
10
-4.025428212052187
20
24.815521889908307
30
0.0
11
-3.8689999146236373
21
25.204755558894497
31
0.0
0
LINE
8
1
62
1
10
-3.8689999146236373
20
25.204755558894497
30
0.0
11
-1.455910361169704
21
25.45838149103787
31
0.0
0
LINE
8
1
62
1
10
-1.455910361169704
20
25.45838149103787
30
0.0
11
-1.221974167110974
21
25.110176783404327
31
0.0
0
LINE
8
1
62
1
10
-1.221974167110974
20
25.110176783404327
30
0.0
11
-1.0114334971573997
21
24.773820750906346
31
0.0
0
LINE
8
1
62
1
10
-1.0114334971573997
20
24.773820750906346
30
0.0
11
-0.8232664138503205
21
24.450441215031777
31
0.0
0
LINE
8
1
62
1
10
-0.8232664138503205
20
24.450441215031777
30
0.0
11
-0.6564031944810347
21
24.141111955484664
31
0.0
0
LINE
8
1
62
1
10
-0.6564031944810347
20
24.141111955484664
30
0.0
11
-0.5097287679679564
21
23.84685082163951
31
0.0
0
LINE
8
1
62
1
10
-0.5097287679679564
20
23.84685082163951
30
0.0
11
-0.38208522316857807
21
23.56861794540561
31
0.0
0
LINE
8
1
62
1
10
-0.38208522316857807
20
23.56861794540561
30
0.0
11
-0.2722743846061477
21
23.307314058122717
31
0.0
0
LINE
8
1
62
1
10
-0.2722743846061477
20
23.307314058122717
30
0.0
11
-0.17906045149691516
21
23.06377891395485
31
0.0
0
LINE
8
1
62
1
10
-0.17906045149691516
20
23.06377891395485
30
0.0
11
-0.10117269587557262
21
22.838789822091528
31
0.0
0
LINE
8
1
62
1
10
-0.10117269587557262
20
22.838789822091528
30
0.0
11
-0.03730821553414679
21
22.63306028990516
31
0.0
0
LINE
8
1
62
1
10
-0.03730821553414679
20
22.63306028990516
30
0.0
11
0.013865262586773508
21
22.44723877904965
31
0.0
0
LINE
8
1
62
1
10
0.013865262586773508
20
22.44723877904965
30
0.0
11
0.053706532985829045
21
22.28190757631901
31
0.0
0
LINE
8
1
62
1
10
0.053706532985829045
20
22.28190757631901
30
0.0
11
0.08359802066308858
21
22.13758178091642
31
0.0
0
LINE
8
1
62
1
10
0.08359802066308858
20
22.13758178091642
30
0.0
11
0.10494285320989231
21
22.01470840961283
31
0.0
0
LINE
8
1
62
1
10
0.10494285320989231
20
22.01470840961283
30
0.0
11
0.1191619005309075
21
21.913665621101785
31
0.0
0
LINE
8
1
62
1
10
0.1191619005309075
20
21.913665621101785
30
0.0
11
0.12769078684805965
21
21.83476206068231
31
0.0
0
LINE
8
1
62
1
10
0.12769078684805965
20
21.83476206068231
30
0.0
11
0.13197687967445362
21
21.778236326225603
31
0.0
0
LINE
8
1
62
1
10
0.13197687967445362
20
21.778236326225603
30
0.0
11
0.13347626047845032
21
21.744256556203894
31
0.0
0
LINE
8
1
62
1
10
0.13347626047845032
20
21.744256556203894
30
0.0
11
0.13365068178344144
21
21.73292014038139
31
0.0
0
LINE
8
1
62
1
10
0.13365068178344144
20
21.73292014038139
30
0.0
11
0.11622690857061035
21
18.89964262375678
31
0.0
0
LINE
8
1
62
1
10
0.11622690857061035
20
18.89964262375678
30
0.0
11
3.8157695819975976
21
18.5108050202335
31
0.0
0
LINE
8
1
62
1
10
3.8157695819975976
20
18.5108050202335
30
0.0
11
4.387798079071098
21
21.285791231482
31
0.0
0
LINE
8
1
62
1
10
4.387798079071098
20
21.285791231482
30
0.0
11
4.390325662233563
21
21.296843655191275
31
0.0
0
LINE
8
1
62
1
10
4.390325662233563
20
21.296843655191275
30
0.0
11
4.398857069408391
21
21.329769146913357
31
0.0
0
LINE
8
1
62
1
10
4.398857069408391
20
21.329769146913357
30
0.0
11
4.41480186184866
21
21.38416852964536
31
0.0
0
LINE
8
1
62
1
10
4.41480186184866
20
21.38416852964536
30
0.0
11
4.4395493441950675
21
21.459574602784034
31
0.0
0
LINE
8
1
62
1
10
4.4395493441950675
20
21.459574602784034
30
0.0
11
4.474465648221112
21
21.555453057767238
31
0.0
0
LINE
8
1
62
1
10
4.474465648221112
20
21.555453057767238
30
0.0
11
4.52089085534904
21
21.67120351087689
31
0.0
0
LINE
8
1
62
1
10
4.52089085534904
20
21.67120351087689
30
0.0
11
4.5801361624536865
21
21.806160651629895
31
0.0
0
LINE
8
1
62
1
10
4.5801361624536865
20
21.806160651629895
30
0.0
11
4.6534810954093695
21
21.959595505014306
31
0.0
0
LINE
8
1
62
1
10
4.6534810954093695
20
21.959595505014306
30
0.0
11
4.742170774766832
21
22.130716805661212
31
0.0
0
LINE
8
1
62
1
10
4.742170774766832
20
22.130716805661212
30
0.0
11
4.847413237872923
21
22.318672481878412
31
0.0
0
LINE
8
1
62
1
10
4.847413237872923
20
22.318672481878412
30
0.0
11
4.970376821665335
21
22.522551247310563
31
0.0
0
LINE
8
1
62
1
10
4.970376821665335
20
22.522551247310563
30
0.0
11
5.112187610288581
21
22.741384297832212
31
0.0
0
LINE
8
1
62
1
10
5.112187610288581
20
22.741384297832212
30
0.0
11
5.273926951585228
21
22.974147111124758
31
0.0
0
LINE
8
1
62
1
10
5.273926951585228
20
22.974147111124758
30
0.0
11
5.456629046418777
21
23.219761346237004
31
0.0
0
LINE
8
1
62
1
10
5.456629046418777
20
23.219761346237004
30
0.0
11
5.6612786146812475
21
23.47709684028079
31
0.0
0
LINE
8
1
62
1
10
5.6612786146812475
20
23.47709684028079
30
0.0
11
5.888808641729879
21
23.744973699269202
31
0.0
0
LINE
8
1
62
1
10
5.888808641729879
20
23.744973699269202
30
0.0
11
6.1400982088833205
21
24.022164479964704
31
0.0
0
LINE
8
1
62
1
10
6.1400982088833205
20
24.022164479964704
30
0.0
11
6.415970411488704
21
24.30739645946899
31
0.0
0
LINE
8
1
62
1
10
6.415970411488704
20
24.30739645946899
30
0.0
11
6.717190367946843
21
24.599353989154736
31
0.0
0
LINE
8
1
62
1
10
6.717190367946843
20
24.599353989154736
30
0.0
11
9.02481632862646
21
23.849560862991545
31
0.0
0
LINE
8
1
62
1
10
9.02481632862646
20
23.849560862991545
30
0.0
11
9.096900062200953
21
23.436309611737776
31
0.0
0
LINE
8
1
62
1
10
9.096900062200953
20
23.436309611737776
30
0.0
11
9.152430211349548
21
23.043398480770712
31
0.0
0
LINE
8
1
62
1
10
9.152430211349548
20
23.043398480770712
30
0.0
11
9.192799088721554
21
22.671442126876244
31
0.0
0
LINE
8
1
62
1
10
9.192799088721554
20
22.671442126876244
30
0.0
11
9.21942068019067
21
22.320986401201942
31
0.0
0
LINE
8
1
62
1
10
9.21942068019067
20
22.320986401201942
30
0.0
11
9.23372765051617
21
21.992507615151943
31
0.0
0
LINE
8
1
62
1
10
9.23372765051617
20
21.992507615151943
30
0.0
11
9.23716832499234
21
21.68641192797963
31
0.0
0
LINE
8
1
62
1
10
9.23716832499234
20
21.68641192797963
30
0.0
11
9.231203651824872
21
21.403034856837774
31
0.0
0
LINE
8
1
62
1
10
9.231203651824872
20
21.403034856837774
30
0.0
11
9.217304149995993
21
21.142640909866135
31
0.0
0
LINE
8
1
62
1
10
9.217304149995993
20
21.142640909866135
30
0.0
11
9.196946847396687
21
20.905423342717135
31
0.0
0
LINE
8
1
62
1
10
9.196946847396687
20
20.905423342717135
30
0.0
11
9.171612214014264
21
20.691504038739488
31
0.0
0
LINE
8
1
62
1
10
9.171612214014264
20
20.691504038739488
30
0.0
11
9.14278109496676
21
20.50093351285973
31
0.0
0
LINE
8
1
62
1
10
9.14278109496676
20
20.50093351285973
30
0.0
11
9.111931648172183
21
20.333691039020586
31
0.0
0
LINE
8
1
62
1
10
9.111931648172183
20
20.333691039020586
30
0.0
11
9.080536291430628
21
20.189684900855504
31
0.0
0
LINE
8
1
62
1
10
9.080536291430628
20
20.189684900855504
30
0.0
11
9.050058663680474
21
20.068752765098775
31
0.0
0
LINE
8
1
62
1
10
9.050058663680474
20
20.068752765098775
30
0.0
11
9.021950605166591
21
19.97066217705188
31
0.0
0
LINE
8
1
62
1
10
9.021950605166591
20
19.97066217705188
30
0.0
11
8.99764916122863
21
19.895111177249028
31
0.0
0
LINE
8
1
62
1
10
8.99764916122863
20
19.895111177249028
30
0.0
11
8.978573614380903
21
19.841729038288072
31
0.0
0
LINE
8
1
62
1
10
8.978573614380903
20
19.841729038288072
30
0.0
11
8.966122549312553
21
19.81007712061809
31
0.0
0
LINE
8
1
62
1
10
8.966122549312553
20
19.81007712061809
30
0.0
11
8.961670955387286
21
19.799649845901417
31
0.0
0
LINE
8
1
62
1
10
8.961670955387286
20
19.799649845901417
30
0.0
11
7.793355760499675
21
17.2184089273744
31
0.0
0
LINE
8
1
62
1
10
7.793355760499675
20
17.2184089273744
30
0.0
11
11.014901663605164
21
15.35844853300971
31
0.0
0
LINE
8
1
62
1
10
11.014901663605164
20
15.35844853300971
30
0.0
11
12.666164274893635
21
17.660859630673258
31
0.0
0
LINE
8
1
62
1
10
12.666164274893635
20
17.660859630673258
30
0.0
11
12.672968762727878
21
17.669928461458206
31
0.0
0
LINE
8
1
62
1
10
12.672968762727878
20
17.669928461458206
30
0.0
11
12.694154594974401
21
17.696537358946564
31
0.0
0
LINE
8
1
62
1
10
12.694154594974401
20
17.696537358946564
30
0.0
11
12.730847109999075
21
17.739748336588253
31
0.0
0
LINE
8
1
62
1
10
12.730847109999075
20
17.739748336588253
30
0.0
11
12.784125473140678
21
17.798569504288597
31
0.0
0
LINE
8
1
62
1
10
12.784125473140678
20
17.798569504288597
30
0.0
11
12.855020385004503
21
17.871957091036123
31
0.0
0
LINE
8
1
62
1
10
12.855020385004503
20
17.871957091036123
30
0.0
11
12.944511872828661
21
17.958817558793207
31
0.0
0
LINE
8
1
62
1
10
12.944511872828661
20
17.958817558793207
30
0.0
11
13.053527168409737
21
18.058009804374812
31
0.0
0
LINE
8
1
62
1
10
13.053527168409737
20
18.058009804374812
30
0.0
11
13.182938675948904
21
18.168347445911184
31
0.0
0
LINE
8
1
62
1
10
13.182938675948904
20
18.168347445911184
30
0.0
11
13.33356203304958
21
18.288601190365732
31
0.0
0
LINE
8
1
62
1
10
13.33356203304958
20
18.288601190365732
30
0.0
11
13.506154267962895
21
18.4175012784593
31
0.0
0
LINE
8
1
62
1
10
13.506154267962895
20
18.4175012784593
30
0.0
11
13.701412056038219
21
18.553740003237326
31
0.0
0
LINE
8
1
62
1
10
13.701412056038219
20
18.553740003237326
30
0.0
11
13.919970078192915
21
18.695974298406906
31
0.0
0
LINE
8
1
62
1
10
13.919970078192915
20
18.695974298406906
30
0.0
11
14.162399484068061
21
18.84282839246613
31
0.0
0
LINE
8
1
62
1
10
14.162399484068061
20
18.84282839246613
30
0.0
11
14.429206462386222
21
18.992896524549774
31
0.0
0
LINE
8
1
62
1
10
14.429206462386222
20
18.992896524549774
30
0.0
11
14.720830920872544
21
19.144745717821696
31
0.0
0
LINE
8
1
62
1
10
14.720830920872544
20
19.144745717821696
30
0.0
11
15.037645277942756
21
19.296918606157423
31
0.0
0
LINE
8
1
62
1
10
15.037645277942756
20
19.296918606157423
30
0.0
11
15.379953368200406
21
19.447936309778243
31
0.0
0
LINE
8
1
62
1
10
15.379953368200406
20
19.447936309778243
30
0.0
11
15.747989463621852
21
19.596301355423147
31
0.0
0
LINE
8
1
62
1
10
15.747989463621852
20
19.596301355423147
30
0.0
11
16.14191741214057
21
19.740500636574897
31
0.0
0
LINE
8
1
62
1
10
16.14191741214057
20
19.740500636574897
30
0.0
11
17.945070287320654
21
18.11693449527547
31
0.0
0
LINE
8
1
62
1
10
17.945070287320654
20
18.11693449527547
30
0.0
11
17.842837628015715
21
17.710091596013008
31
0.0
0
LINE
8
1
62
1
10
17.842837628015715
20
17.710091596013008
30
0.0
11
17.733755589095974
21
17.328563270606633
31
0.0
0
LINE
8
1
62
1
10
17.733755589095974
20
17.328563270606633
30
0.0
11
17.619346114895546
21
16.972344731398007
31
0.0
0
LINE
8
1
62
1
10
17.619346114895546
20
16.972344731398007
30
0.0
11
17.50112296344992
21
16.641359518355927
31
0.0
0
LINE
8
1
62
1
10
17.50112296344992
20
16.641359518355927
30
0.0
11
17.380588672443814
21
16.335460046345215
31
0.0
0
LINE
8
1
62
1
10
17.380588672443814
20
16.335460046345215
30
0.0
11
17.2592315527223
21
16.05442827333861
31
0.0
0
LINE
8
1
62
1
10
17.2592315527223
20
16.05442827333861
30
0.0
11
17.138522714002946
21
15.797976488338076
31
0.0
0
LINE
8
1
62
1
10
17.138522714002946
20
15.797976488338076
30
0.0
11
17.019913127375172
21
15.565748217598813
31
0.0
0
LINE
8
1
62
1
10
17.019913127375172
20
15.565748217598813
30
0.0
11
16.90483072911493
21
15.357319247578134
31
0.0
0
LINE
8
1
62
1
10
16.90483072911493
20
15.357319247578134
30
0.0
11
16.7946775702784
21
15.172198762862811
31
0.0
0
LINE
8
1
62
1
10
16.7946775702784
20
15.172198762862811
30
0.0
11
16.690827016468273
21
15.009830597162301
31
0.0
0
LINE
8
1
62
1
10
16.690827016468273
20
15.009830597162301
30
0.0
11
16.594621002089276
21
14.869594595291607
31
0.0
0
LINE
8
1
62
1
10
16.594621002089276
20
14.869594595291607
30
0.0
11
16.507367343327385
21
14.75080808390747
31
0.0
0
LINE
8
1
62
1
10
16.507367343327385
20
14.75080808390747
30
0.0
11
16.430337113998828
21
14.652727448603903
31
0.0
0
LINE
8
1
62
1
10
16.430337113998828
20
14.652727448603903
30
0.0
11
16.364762088320795
21
14.574549814819488
31
0.0
0
LINE
8
1
62
1
10
16.364762088320795
20
14.574549814819488
30
0.0
11
16.31183225455628
21
14.515414829858456
31
0.0
0
LINE
8
1
62
1
10
16.31183225455628
20
14.515414829858456
30
0.0
11
16.272693403380305
21
14.474406543181109
31
0.0
0
LINE
8
1
62
1
10
16.272693403380305
20
14.474406543181109
30
0.0
11
16.2484447947043
21
14.450555381976638
31
0.0
0
LINE
8
1
62
1
10
16.2484447947043
20
14.450555381976638
30
0.0
11
16.240136906579917
21
14.44284021889313
31
0.0
0
LINE
8
1
62
1
10
16.240136906579917
20
14.44284021889313
30
0.0
11
14.122942601023935
21
12.559955903114597
31
0.0
0
LINE
8
1
62
1
10
14.122942601023935
20
12.559955903114597
30
0.0
11
16.30945718033524
21
9.55047676730388
31
0.0
0
LINE
8
1
62
1
10
16.30945718033524
20
9.55047676730388
30
0.0
11
18.75443559909702
21
10.982204955848276
31
0.0
0
LINE
8
1
62
1
10
18.75443559909702
20
10.982204955848276
30
0.0
11
18.76434043383967
21
10.987722110478447
31
0.0
0
LINE
8
1
62
1
10
18.76434043383967
20
10.987722110478447
30
0.0
11
18.794517468295222
21
11.003413493623093
31
0.0
0
LINE
8
1
62
1
10
18.794517468295222
20
11.003413493623093
30
0.0
11
18.845613236715497
21
11.027964495580813
31
0.0
0
LINE
8
1
62
1
10
18.845613236715497
20
11.027964495580813
30
0.0
11
18.918210167646382
21
11.060030043573907
31
0.0
0
LINE
8
1
62
1
10
18.918210167646382
20
11.060030043573907
30
0.0
11
19.012825313026674
21
11.098237381631815
31
0.0
0
LINE
8
1
62
1
10
19.012825313026674
20
11.098237381631815
30
0.0
11
19.129909190297624
21
11.141188900058554
31
0.0
0
LINE
8
1
62
1
10
19.129909190297624
20
11.141188900058554
30
0.0
11
19.269844739376293
21
11.187465010074433
31
0.0
0
LINE
8
1
62
1
10
19.269844739376293
20
11.187465010074433
30
0.0
11
19.432946396178785
21
11.235627059155124
31
0.0
0
LINE
8
1
62
1
10
19.432946396178785
20
11.235627059155124
30
0.0
11
19.619459284209725
21
11.284220282530157
31
0.0
0
LINE
8
1
62
1
10
19.619459284209725
20
11.284220282530157
30
0.0
11
19.82955852556252
21
11.331776786248176
31
0.0
0
LINE
8
1
62
1
10
19.82955852556252
20
11.331776786248176
30
0.0
11
20.063348672501217
21
11.376818557167997
31
0.0
0
LINE
8
1
62
1
10
20.063348672501217
20
11.376818557167997
30
0.0
11
20.320863260619515
21
11.417860495192675
31
0.0
0
LINE
8
1
62
1
10
20.320863260619515
20
11.417860495192675
30
0.0
11
20.60206448439534
21
11.453413463028184
31
0.0
0
LINE
8
1
62
1
10
20.60206448439534
20
11.453413463028184
30
0.0
11
20.906842995781595
21
11.481987348719775
31
0.0
0
LINE
8
1
62
1
10
20.906842995781595
20
11.481987348719775
30
0.0
11
21.235017826294452
21
11.502094136196513
31
0.0
0
LINE
8
1
62
1
10
21.235017826294452
20
11.502094136196513
30
0.0
11
21.586336432880728
21
11.512250979039013
31
0.0
0
LINE
8
1
62
1
10
21.586336432880728
20
11.512250979039013
30
0.0
11
21.960474867665663
21
11.510983272676345
31
0.0
0
LINE
8
1
62
1
10
21.960474867665663
20
11.510983272676345
30
0.0
11
22.357038071501844
21
11.496827720215743
31
0.0
0
LINE
8
1
62
1
10
22.357038071501844
20
11.496827720215743
30
0.0
11
22.775560291059193
21
11.46833538711301
31
0.0
0
LINE
8
1
62
1
10
22.775560291059193
20
11.46833538711301
30
0.0
11
23.762458567491496
21
9.251725566143373
31
0.0
0
LINE
8
1
62
1
10
23.762458567491496
20
9.251725566143373
30
0.0
11
23.503586470855506
21
8.921637852206405
31
0.0
0
LINE
8
1
62
1
10
23.503586470855506
20
8.921637852206405
30
0.0
11
23.248753519375864
21
8.617462045899504
31
0.0
0
LINE
8
1
62
1
10
23.248753519375864
20
8.617462045899504
30
0.0
11
22.999348131069706
21
8.33857474294973
31
0.0
0
LINE
8
1
62
1
10
22.999348131069706
20
8.33857474294973
30
0.0
11
22.75672209361789
21
8.084290392781105
31
0.0
0
LINE
8
1
62
1
10
22.75672209361789
20
8.084290392781105
30
0.0
11
22.522188015214795
21
7.853863032529794
31
0.0
0
LINE
8
1
62
1
10
22.522188015214795
20
7.853863032529794
30
0.0
11
22.29701684979027
21
7.646488120335237
31
0.0
0
LINE
8
1
62
1
10
22.29701684979027
20
7.646488120335237
30
0.0
11
22.082435500338978
21
7.461304464893952
31
0.0
0
LINE
8
1
62
1
10
22.082435500338978
20
7.461304464893952
30
0.0
11
21.879624503974526
21
7.297396248125492
31
0.0
0
LINE
8
1
62
1
10
21.879624503974526
20
7.297396248125492
30
0.0
11
21.689715802203303
21
7.153795137667457
31
0.0
0
LINE
8
1
62
1
10
21.689715802203303
20
7.153795137667457
30
0.0
11
21.513790599785533
21
7.029482485788545
31
0.0
0
LINE
8
1
62
1
10
21.513790599785533
20
7.029482485788545
30
0.0
11
21.352877315419224
21
6.923391611185375
31
0.0
0
LINE
8
1
62
1
10
21.352877315419224
20
6.923391611185375
30
0.0
11
21.20794962734613
21
6.834410160010659
31
0.0
0
LINE
8
1
62
1
10
21.20794962734613
20
6.834410160010659
30
0.0
11
21.07992461683844
21
6.761382542367364
31
0.0
0
LINE
8
1
62
1
10
21.07992461683844
20
6.761382542367364
30
0.0
11
20.969661012380055
21
6.703112440395544
31
0.0
0
LINE
8
1
62
1
10
20.969661012380055
20
6.703112440395544
30
0.0
11
20.877957537208008
21
6.658365383976437
31
0.0
0
LINE
8
1
62
1
10
20.877957537208008
20
6.658365383976437
30
0.0
11
20.80555136272727
21
6.6258713899814605
31
0.0
0
LINE
8
1
62
1
10
20.80555136272727
20
6.6258713899814605
30
0.0
11
20.753116670156675
21
6.604327660902825
31
0.0
0
LINE
8
1
62
1
10
20.753116670156675
20
6.604327660902825
30
0.0
11
20.72126332260479
21
6.592401338617116
31
0.0
0
LINE
8
1
62
1
10
20.72126332260479
20
6.592401338617116
30
0.0
11
20.71053564961279
21
6.5887323089539676
31
0.0
0
LINE
8
1
62
1
10
20.71053564961279
20
6.5887323089539676
30
0.0
11
18.010544362925504
21
5.729772399589031
31
0.0
0
LINE
8
1
62
1
10
18.010544362925504
20
5.729772399589031
30
0.0
11
18.78395938381836
21
2.091140805173604
31
0.0
0
ENDSEC
0
EOF
