999
VISION3D DXF
0
SECTION
2
HEADER
9
$ACADVER
1
AC1006
9
$INSBASE
10
0.0
20
0.0
30
0.0
9
$EXTMIN
10
-24.5
20
-24.5
9
$EXTMAX
10
24.5
20
24.5
9
$LINMIN
10
0.0
20
0.0
9
$LINMAX
10
1000.0
20
1000.0
0
ENDSEC
0
SECTION
2
TABLES
0
TABLE
2
LTYPE
70
1
0
LTYPE
2
CONTINUOUS
70
64
3
Solid line
72
65
73
0
40
0.000000
0
ENDTAB
0
TABLE
2
LAYER
70
6
0
LAYER
2
1
70
64
62
7
6
CONTINUOUS
0
ENDTAB
0
TABLE
2
STYLE
70
0
0
ENDTAB
0
ENDSEC
0
SECTION
2
BLOCKS
0
ENDSEC
0
SECTION
2
ENTITIES
0
LINE
8
1
62
1
10
13.123211872816478
20
2.1613213877553297
30
0.0
11
16.679012199758905
21
2.746942299136582
31
0.0
0
LINE
8
1
62
1
10
16.679012199758905
20
2.746942299136582
30
0.0
11
16.6916137507179
21
2.7486842735436605
31
0.0
0
LINE
8
1
62
1
10
16.6916137507179
20
2.7486842735436605
30
0.0
11
16.729575407047562
21
2.7526035296710196
31
0.0
0
LINE
8
1
62
1
10
16.729575407047562
20
2.7526035296710196
30
0.0
11
16.793046956575832
21
2.7567313665520694
31
0.0
0
LINE
8
1
62
1
10
16.793046956575832
20
2.7567313665520694
30
0.0
11
16.88206350605649
21
2.7590922203854054
31
0.0
0
LINE
8
1
62
1
10
16.88206350605649
20
2.7590922203854054
30
0.0
11
16.99654523172446
21
2.7577096017638763
31
0.0
0
LINE
8
1
62
1
10
16.99654523172446
20
2.7577096017638763
30
0.0
11
17.136297417937023
21
2.7506120396922156
31
0.0
0
LINE
8
1
62
1
10
17.136297417937023
20
2.7506120396922156
30
0.0
11
17.301010783965395
21
2.735839018978357
31
0.0
0
LINE
8
1
62
1
10
17.301010783965395
20
2.735839018978357
30
0.0
11
17.490262098394176
21
2.7114468975921175
31
0.0
0
LINE
8
1
62
1
10
17.490262098394176
20
2.7114468975921175
30
0.0
11
17.703515079979727
21
2.675514790620412
31
0.0
0
LINE
8
1
62
1
10
17.703515079979727
20
2.675514790620412
30
0.0
11
17.940121583214566
21
2.6261504075104902
31
0.0
0
LINE
8
1
62
1
10
17.940121583214566
20
2.6261504075104902
30
0.0
11
18.19932306624388
21
2.561495829381759
31
0.0
0
LINE
8
1
62
1
10
18.19932306624388
20
2.561495829381759
30
0.0
11
18.480252338183806
21
2.4797332133023713
31
0.0
0
LINE
8
1
62
1
10
18.480252338183806
20
2.4797332133023713
30
0.0
11
18.7819355823
21
2.379090410568724
31
0.0
0
LINE
8
1
62
1
10
18.7819355823
20
2.379090410568724
30
0.0
11
19.103294650921075
21
2.2578464861941567
31
0.0
0
LINE
8
1
62
1
10
19.103294650921075
20
2.2578464861941567
30
0.0
11
19.443149627384685
21
2.1143371270069053
31
0.0
0
LINE
8
1
62
1
10
19.443149627384685
20
2.1143371270069053
30
0.0
11
19.80022164974694
21
1.946959925976753
31
0.0
0
LINE
8
1
62
1
10
19.80022164974694
20
1.946959925976753
30
0.0
11
20.17313599042814
21
1.7541795306340573
31
0.0
0
LINE
8
1
62
1
10
20.17313599042814
20
1.7541795306340573
30
0.0
11
20.56042538542171
21
1.5345326437137223
31
0.0
0
LINE
8
1
62
1
10
20.56042538542171
20
1.5345326437137223
30
0.0
11
20.960533606159128
21
1.2866328644496279
31
0.0
0
LINE
8
1
62
1
10
20.960533606159128
20
1.2866328644496279
30
0.0
11
20.960533606159128
21
-1.2866328644496279
31
0.0
0
LINE
8
1
62
1
10
20.960533606159128
20
-1.2866328644496279
30
0.0
11
20.56042538542171
21
-1.5345326437137223
31
0.0
0
LINE
8
1
62
1
10
20.56042538542171
20
-1.5345326437137223
30
0.0
11
20.17313599042814
21
-1.7541795306340573
31
0.0
0
LINE
8
1
62
1
10
20.17313599042814
20
-1.7541795306340573
30
0.0
11
19.80022164974694
21
-1.946959925976753
31
0.0
0
LINE
8
1
62
1
10
19.80022164974694
20
-1.946959925976753
30
0.0
11
19.443149627384685
21
-2.1143371270069053
31
0.0
0
LINE
8
1
62
1
10
19.443149627384685
20
-2.1143371270069053
30
0.0
11
19.103294650921075
21
-2.2578464861941567
31
0.0
0
LINE
8
1
62
1
10
19.103294650921075
20
-2.2578464861941567
30
0.0
11
18.7819355823
21
-2.379090410568724
31
0.0
0
LINE
8
1
62
1
10
18.7819355823
20
-2.379090410568724
30
0.0
11
18.480252338183806
21
-2.4797332133023713
31
0.0
0
LINE
8
1
62
1
10
18.480252338183806
20
-2.4797332133023713
30
0.0
11
18.19932306624388
21
-2.561495829381759
31
0.0
0
LINE
8
1
62
1
10
18.19932306624388
20
-2.561495829381759
30
0.0
11
17.940121583214566
21
-2.6261504075104902
31
0.0
0
LINE
8
1
62
1
10
17.940121583214566
20
-2.6261504075104902
30
0.0
11
17.703515079979727
21
-2.675514790620412
31
0.0
0
LINE
8
1
62
1
10
17.703515079979727
20
-2.675514790620412
30
0.0
11
17.490262098394176
21
-2.7114468975921175
31
0.0
0
LINE
8
1
62
1
10
17.490262098394176
20
-2.7114468975921175
30
0.0
11
17.301010783965395
21
-2.735839018978357
31
0.0
0
LINE
8
1
62
1
10
17.301010783965395
20
-2.735839018978357
30
0.0
11
17.136297417937023
21
-2.7506120396922156
31
0.0
0
LINE
8
1
62
1
10
17.136297417937023
20
-2.7506120396922156
30
0.0
11
16.99654523172446
21
-2.7577096017638763
31
0.0
0
LINE
8
1
62
1
10
16.99654523172446
20
-2.7577096017638763
30
0.0
11
16.88206350605649
21
-2.7590922203854054
31
0.0
0
LINE
8
1
62
1
10
16.88206350605649
20
-2.7590922203854054
30
0.0
11
16.793046956575832
21
-2.7567313665520694
31
0.0
0
LINE
8
1
62
1
10
16.793046956575832
20
-2.7567313665520694
30
0.0
11
16.729575407047562
21
-2.7526035296710196
31
0.0
0
LINE
8
1
62
1
10
16.729575407047562
20
-2.7526035296710196
30
0.0
11
16.6916137507179
21
-2.7486842735436605
31
0.0
0
LINE
8
1
62
1
10
16.6916137507179
20
-2.7486842735436605
30
0.0
11
16.679012199758905
21
-2.746942299136582
31
0.0
0
LINE
8
1
62
1
10
16.679012199758905
20
-2.746942299136582
30
0.0
11
13.123211872816478
21
-2.1613213877553297
31
0.0
0
LINE
8
1
62
1
10
13.123211872816478
20
-2.1613213877553297
30
0.0
11
11.887294263078498
21
-5.965084668550906
31
0.0
0
LINE
8
1
62
1
10
11.887294263078498
20
-5.965084668550906
30
0.0
11
15.10821649132289
21
-7.58135439125564
31
0.0
0
LINE
8
1
62
1
10
15.10821649132289
20
-7.58135439125564
30
0.0
11
15.119435267070553
21
-7.587352110166256
31
0.0
0
LINE
8
1
62
1
10
15.119435267070553
20
-7.587352110166256
30
0.0
11
15.15245057312749
21
-7.606494667097086
31
0.0
0
LINE
8
1
62
1
10
15.15245057312749
20
-7.606494667097086
30
0.0
11
15.20622641699772
21
-7.640462817663177
31
0.0
0
LINE
8
1
62
1
10
15.20622641699772
20
-7.640462817663177
30
0.0
11
15.279629993374243
21
-7.690875461785466
31
0.0
0
LINE
8
1
62
1
10
15.279629993374243
20
-7.690875461785466
30
0.0
11
15.371434972149723
21
-7.759284693751649
31
0.0
0
LINE
8
1
62
1
10
15.371434972149723
20
-7.759284693751649
30
0.0
11
15.480325023483784
21
-7.8471710161176285
31
0.0
0
LINE
8
1
62
1
10
15.480325023483784
20
-7.8471710161176285
30
0.0
11
15.604897572094023
21
-7.955938728340323
31
0.0
0
LINE
8
1
62
1
10
15.604897572094023
20
-7.955938728340323
30
0.0
11
15.743667772451744
21
-8.086911500668851
31
0.0
0
LINE
8
1
62
1
10
15.743667772451744
20
-8.086911500668851
30
0.0
11
15.895072696093822
21
-8.241328143436045
31
0.0
0
LINE
8
1
62
1
10
15.895072696093822
20
-8.241328143436045
30
0.0
11
16.057475721809904
21
-8.420338581486735
31
0.0
0
LINE
8
1
62
1
10
16.057475721809904
20
-8.420338581486735
30
0.0
11
16.229171119030553
21
-8.625000043053992
31
0.0
0
LINE
8
1
62
1
10
16.229171119030553
20
-8.625000043053992
30
0.0
11
16.40838881432702
21
-8.85627347195032
31
0.0
0
LINE
8
1
62
1
10
16.40838881432702
20
-8.85627347195032
30
0.0
11
16.593299330538965
21
-9.115020171478616
31
0.0
0
LINE
8
1
62
1
10
16.593299330538965
20
-9.115020171478616
30
0.0
11
16.782018887672486
21
-9.401998687988264
31
0.0
0
LINE
8
1
62
1
10
16.782018887672486
20
-9.401998687988264
30
0.0
11
16.972614654358235
21
-9.717861941506124
31
0.0
0
LINE
8
1
62
1
10
16.972614654358235
20
-9.717861941506124
30
0.0
11
17.163110138329614
21
-10.063154610361211
31
0.0
0
LINE
8
1
62
1
10
17.163110138329614
20
-10.063154610361211
30
0.0
11
17.351490704073285
21
-10.438310776196552
31
0.0
0
LINE
8
1
62
1
10
17.351490704073285
20
-10.438310776196552
30
0.0
11
17.53570920552055
21
-10.84365183522315
31
0.0
0
LINE
8
1
62
1
10
17.53570920552055
20
-10.84365183522315
30
0.0
11
17.713691721388248
21
-11.279384681020037
31
0.0
0
LINE
8
1
62
1
10
17.713691721388248
20
-11.279384681020037
30
0.0
11
16.201164075711624
21
-13.361200386742171
31
0.0
0
LINE
8
1
62
1
10
16.201164075711624
20
-13.361200386742171
30
0.0
11
15.731757891247936
21
-13.326577809598186
31
0.0
0
LINE
8
1
62
1
10
15.731757891247936
20
-13.326577809598186
30
0.0
11
15.28932898811322
21
-13.276632879131794
31
0.0
0
LINE
8
1
62
1
10
15.28932898811322
20
-13.276632879131794
30
0.0
11
14.874321475742452
21
-13.213401945325575
31
0.0
0
LINE
8
1
62
1
10
14.874321475742452
20
-13.213401945325575
30
0.0
11
14.487062291100042
21
-13.1389312766791
31
0.0
0
LINE
8
1
62
1
10
14.487062291100042
20
-13.1389312766791
30
0.0
11
14.127761154621874
21
-13.05527104402993
31
0.0
0
LINE
8
1
62
1
10
14.127761154621874
20
-13.05527104402993
30
0.0
11
13.796510816133484
21
-12.964469318087753
31
0.0
0
LINE
8
1
62
1
10
13.796510816133484
20
-12.964469318087753
30
0.0
11
13.4932875895291
21
-12.86856609410555
31
0.0
0
LINE
8
1
62
1
10
13.4932875895291
20
-12.86856609410555
30
0.0
11
13.217952174392002
21
-12.769587357034778
31
0.0
0
LINE
8
1
62
1
10
13.217952174392002
20
-12.769587357034778
30
0.0
11
12.970250762136835
21
-12.669539200408094
31
0.0
0
LINE
8
1
62
1
10
12.970250762136835
20
-12.669539200408094
30
0.0
11
12.749816423659695
21
-12.57040201206293
31
0.0
0
LINE
8
1
62
1
10
12.749816423659695
20
-12.57040201206293
30
0.0
11
12.556170774894092
21
-12.47412473966335
31
0.0
0
LINE
8
1
62
1
10
12.556170774894092
20
-12.47412473966335
30
0.0
11
12.388725916090452
21
-12.382619248795473
31
0.0
0
LINE
8
1
62
1
10
12.388725916090452
20
-12.382619248795473
30
0.0
11
12.246786640065379
21
-12.297754786204308
31
0.0
0
LINE
8
1
62
1
10
12.246786640065379
20
-12.297754786204308
30
0.0
11
12.129552904105411
21
-12.221352560507537
31
0.0
0
LINE
8
1
62
1
10
12.129552904105411
20
-12.221352560507537
30
0.0
11
12.036122559659374
21
-12.155180452464466
31
0.0
0
LINE
8
1
62
1
10
12.036122559659374
20
-12.155180452464466
30
0.0
11
11.965494333414957
21
-12.10094786659737
31
0.0
0
LINE
8
1
62
1
10
11.965494333414957
20
-12.10094786659737
30
0.0
11
11.916571052829825
21
-12.060300735657725
31
0.0
0
LINE
8
1
62
1
10
11.916571052829825
20
-12.060300735657725
30
0.0
11
11.888163108676125
21
-12.034816689102213
31
0.0
0
LINE
8
1
62
1
10
11.888163108676125
20
-12.034816689102213
30
0.0
11
11.878992146661167
21
-12.026000396393409
31
0.0
0
LINE
8
1
62
1
10
11.878992146661167
20
-12.026000396393409
30
0.0
11
9.34650858870473
21
-9.46217613455112
31
0.0
0
LINE
8
1
62
1
10
9.34650858870473
20
-9.46217613455112
30
0.0
11
6.110834279116165
21
-11.813031127241596
31
0.0
0
LINE
8
1
62
1
10
6.110834279116165
20
-11.813031127241596
30
0.0
11
7.766595592593216
21
-15.013831384946474
31
0.0
0
LINE
8
1
62
1
10
7.766595592593216
20
-15.013831384946474
30
0.0
11
7.7721464021061
21
-15.0252778724059
31
0.0
0
LINE
8
1
62
1
10
7.7721464021061
20
-15.0252778724059
30
0.0
11
7.78760463312554
21
-15.06017043627892
31
0.0
0
LINE
8
1
62
1
10
7.78760463312554
20
-15.06017043627892
30
0.0
11
7.811144226753013
21
-15.11925989531088
31
0.0
0
LINE
8
1
62
1
10
7.811144226753013
20
-15.11925989531088
30
0.0
11
7.840897158745369
21
-15.203190120796831
31
0.0
0
LINE
8
1
62
1
10
7.840897158745369
20
-15.203190120796831
30
0.0
11
7.874959009072587
21
-15.312495964640862
31
0.0
0
LINE
8
1
62
1
10
7.874959009072587
20
-15.312495964640862
30
0.0
11
7.911394626955258
21
-15.447601459303586
31
0.0
0
LINE
8
1
62
1
10
7.911394626955258
20
-15.447601459303586
30
0.0
11
7.9482438786434475
21
-15.608818293844616
31
0.0
0
LINE
8
1
62
1
10
7.9482438786434475
20
-15.608818293844616
30
0.0
11
7.983527465019093
21
-15.796344569686735
31
0.0
0
LINE
8
1
62
1
10
7.983527465019093
20
-15.796344569686735
30
0.0
11
8.0152527959505
21
-16.010263839141
31
0.0
0
LINE
8
1
62
1
10
8.0152527959505
20
-16.010263839141
30
0.0
11
8.041419908200114
21
-16.250544429138102
31
0.0
0
LINE
8
1
62
1
10
8.041419908200114
20
-16.250544429138102
30
0.0
11
8.06002741358572
21
-16.517039052012425
31
0.0
0
LINE
8
1
62
1
10
8.06002741358572
20
-16.517039052012425
30
0.0
11
8.069078464020896
21
-16.809484704582026
31
0.0
0
LINE
8
1
62
1
10
8.069078464020896
20
-16.809484704582026
30
0.0
11
8.066586720012925
21
-17.127502856162018
31
0.0
0
LINE
8
1
62
1
10
8.066586720012925
20
-17.127502856162018
30
0.0
11
8.050582309175711
21
-17.470599925541084
31
0.0
0
LINE
8
1
62
1
10
8.050582309175711
20
-17.470599925541084
30
0.0
11
8.019117761321489
21
-17.838168046342854
31
0.0
0
LINE
8
1
62
1
10
8.019117761321489
20
-17.838168046342854
30
0.0
11
7.970273906728286
21
-18.229486119586397
31
0.0
0
LINE
8
1
62
1
10
7.970273906728286
20
-18.229486119586397
30
0.0
11
7.9021657242402785
21
-18.643721151654375
31
0.0
0
LINE
8
1
62
1
10
7.9021657242402785
20
-18.643721151654375
30
0.0
11
7.812948125944953
21
-19.079929875274953
31
0.0
0
LINE
8
1
62
1
10
7.812948125944953
20
-19.079929875274953
30
0.0
11
7.700821665284693
21
-19.537060650524936
31
0.0
0
LINE
8
1
62
1
10
7.700821665284693
20
-19.537060650524936
30
0.0
11
5.253500525656054
21
-20.332243491797446
31
0.0
0
LINE
8
1
62
1
10
5.253500525656054
20
-20.332243491797446
30
0.0
11
4.894093585401821
21
-20.028323205936267
31
0.0
0
LINE
8
1
62
1
10
4.894093585401821
20
-20.028323205936267
30
0.0
11
4.565517977518088
21
-19.727863723955558
31
0.0
0
LINE
8
1
62
1
10
4.565517977518088
20
-19.727863723955558
30
0.0
11
4.266936057596842
21
-19.43277352857401
31
0.0
0
LINE
8
1
62
1
10
4.266936057596842
20
-19.43277352857401
30
0.0
11
3.9974095567521033
21
-19.144900254508926
31
0.0
0
LINE
8
1
62
1
10
3.9974095567521033
20
-19.144900254508926
30
0.0
11
3.7559030821975727
21
-18.866025795388595
31
0.0
0
LINE
8
1
62
1
10
3.7559030821975727
20
-18.866025795388595
30
0.0
11
3.541287844359527
21
-18.59786159220243
31
0.0
0
LINE
8
1
62
1
10
3.541287844359527
20
-18.59786159220243
30
0.0
11
3.352345601651414
21
-18.342044113434884
31
0.0
0
LINE
8
1
62
1
10
3.352345601651414
20
-18.342044113434884
30
0.0
11
3.187772813592955
21
-18.100130536611452
31
0.0
0
LINE
8
1
62
1
10
3.187772813592955
20
-18.100130536611452
30
0.0
11
3.046184992532063
21
-17.873594640548973
31
0.0
0
LINE
8
1
62
1
10
3.046184992532063
20
-17.873594640548973
30
0.0
11
2.926121243823286
21
-17.663822917147474
31
0.0
0
LINE
8
1
62
1
10
2.926121243823286
20
-17.663822917147474
30
0.0
11
2.8260489839325675
21
-17.472110911089118
31
0.0
0
LINE
8
1
62
1
10
2.8260489839325675
20
-17.472110911089118
30
0.0
11
2.7443688255756324
21
-17.299659795321407
31
0.0
0
LINE
8
1
62
1
10
2.7443688255756324
20
-17.299659795321407
30
0.0
11
2.679419618656885
21
-17.14757318969805
31
0.0
0
LINE
8
1
62
1
10
2.679419618656885
20
-17.14757318969805
30
0.0
11
2.6294836354580893
21
-17.016854229632873
31
0.0
0
LINE
8
1
62
1
10
2.6294836354580893
20
-17.016854229632873
30
0.0
11
2.5927918882317593
21
-16.908402891090425
31
0.0
0
LINE
8
1
62
1
10
2.5927918882317593
20
-16.908402891090425
30
0.0
11
2.5675295670838327
21
-16.823013577693
31
0.0
0
LINE
8
1
62
1
10
2.5675295670838327
20
-16.823013577693
30
0.0
11
2.5518415857842123
21
-16.76137297516854
31
0.0
0
LINE
8
1
62
1
10
2.5518415857842123
20
-16.76137297516854
30
0.0
11
2.5438382229226795
21
-16.724058177798195
31
0.0
0
LINE
8
1
62
1
10
2.5438382229226795
20
-16.724058177798195
30
0.0
11
2.5416008456319394
21
-16.711535090947663
31
0.0
0
LINE
8
1
62
1
10
2.5416008456319394
20
-16.711535090947663
30
0.0
11
1.9997566998505827
21
-13.14880120548648
31
0.0
0
LINE
8
1
62
1
10
1.9997566998505827
20
-13.14880120548648
30
0.0
11
-1.9997566998505807
21
-13.148801205486482
31
0.0
0
LINE
8
1
62
1
10
-1.9997566998505807
20
-13.148801205486482
30
0.0
11
-2.5416008456319372
21
-16.711535090947663
31
0.0
0
LINE
8
1
62
1
10
-2.5416008456319372
20
-16.711535090947663
30
0.0
11
-2.5438382229226773
21
-16.724058177798195
31
0.0
0
LINE
8
1
62
1
10
-2.5438382229226773
20
-16.724058177798195
30
0.0
11
-2.55184158578421
21
-16.76137297516854
31
0.0
0
LINE
8
1
62
1
10
-2.55184158578421
20
-16.76137297516854
30
0.0
11
-2.5675295670838305
21
-16.823013577693004
31
0.0
0
LINE
8
1
62
1
10
-2.5675295670838305
20
-16.823013577693004
30
0.0
11
-2.5927918882317567
21
-16.90840289109043
31
0.0
0
LINE
8
1
62
1
10
-2.5927918882317567
20
-16.90840289109043
30
0.0
11
-2.6294836354580866
21
-17.016854229632877
31
0.0
0
LINE
8
1
62
1
10
-2.6294836354580866
20
-17.016854229632877
30
0.0
11
-2.679419618656883
21
-17.147573189698054
31
0.0
0
LINE
8
1
62
1
10
-2.679419618656883
20
-17.147573189698054
30
0.0
11
-2.74436882557563
21
-17.299659795321407
31
0.0
0
LINE
8
1
62
1
10
-2.74436882557563
20
-17.299659795321407
30
0.0
11
-2.8260489839325653
21
-17.47211091108912
31
0.0
0
LINE
8
1
62
1
10
-2.8260489839325653
20
-17.47211091108912
30
0.0
11
-2.926121243823284
21
-17.663822917147478
31
0.0
0
LINE
8
1
62
1
10
-2.926121243823284
20
-17.663822917147478
30
0.0
11
-3.0461849925320608
21
-17.873594640548976
31
0.0
0
LINE
8
1
62
1
10
-3.0461849925320608
20
-17.873594640548976
30
0.0
11
-3.187772813592953
21
-18.100130536611456
31
0.0
0
LINE
8
1
62
1
10
-3.187772813592953
20
-18.100130536611456
30
0.0
11
-3.3523456016514115
21
-18.342044113434888
31
0.0
0
LINE
8
1
62
1
10
-3.3523456016514115
20
-18.342044113434888
30
0.0
11
-3.541287844359524
21
-18.597861592202435
31
0.0
0
LINE
8
1
62
1
10
-3.541287844359524
20
-18.597861592202435
30
0.0
11
-3.75590308219757
21
-18.866025795388598
31
0.0
0
LINE
8
1
62
1
10
-3.75590308219757
20
-18.866025795388598
30
0.0
11
-3.9974095567521006
21
-19.14490025450893
31
0.0
0
LINE
8
1
62
1
10
-3.9974095567521006
20
-19.14490025450893
30
0.0
11
-4.266936057596839
21
-19.43277352857401
31
0.0
0
LINE
8
1
62
1
10
-4.266936057596839
20
-19.43277352857401
30
0.0
11
-4.565517977518086
21
-19.727863723955565
31
0.0
0
LINE
8
1
62
1
10
-4.565517977518086
20
-19.727863723955565
30
0.0
11
-4.894093585401819
21
-20.02832320593627
31
0.0
0
LINE
8
1
62
1
10
-4.894093585401819
20
-20.02832320593627
30
0.0
11
-5.253500525656051
21
-20.332243491797446
31
0.0
0
LINE
8
1
62
1
10
-5.253500525656051
20
-20.332243491797446
30
0.0
11
-7.700821665284689
21
-19.537060650524936
31
0.0
0
LINE
8
1
62
1
10
-7.700821665284689
20
-19.537060650524936
30
0.0
11
-7.812948125944951
21
-19.079929875274953
31
0.0
0
LINE
8
1
62
1
10
-7.812948125944951
20
-19.079929875274953
30
0.0
11
-7.902165724240277
21
-18.643721151654375
31
0.0
0
LINE
8
1
62
1
10
-7.902165724240277
20
-18.643721151654375
30
0.0
11
-7.970273906728284
21
-18.229486119586397
31
0.0
0
LINE
8
1
62
1
10
-7.970273906728284
20
-18.229486119586397
30
0.0
11
-8.019117761321487
21
-17.838168046342854
31
0.0
0
LINE
8
1
62
1
10
-8.019117761321487
20
-17.838168046342854
30
0.0
11
-8.05058230917571
21
-17.470599925541084
31
0.0
0
LINE
8
1
62
1
10
-8.05058230917571
20
-17.470599925541084
30
0.0
11
-8.066586720012921
21
-17.127502856162018
31
0.0
0
LINE
8
1
62
1
10
-8.066586720012921
20
-17.127502856162018
30
0.0
11
-8.069078464020894
21
-16.809484704582026
31
0.0
0
LINE
8
1
62
1
10
-8.069078464020894
20
-16.809484704582026
30
0.0
11
-8.060027413585718
21
-16.517039052012425
31
0.0
0
LINE
8
1
62
1
10
-8.060027413585718
20
-16.517039052012425
30
0.0
11
-8.041419908200112
21
-16.250544429138102
31
0.0
0
LINE
8
1
62
1
10
-8.041419908200112
20
-16.250544429138102
30
0.0
11
-8.015252795950499
21
-16.010263839141
31
0.0
0
LINE
8
1
62
1
10
-8.015252795950499
20
-16.010263839141
30
0.0
11
-7.983527465019091
21
-15.796344569686735
31
0.0
0
LINE
8
1
62
1
10
-7.983527465019091
20
-15.796344569686735
30
0.0
11
-7.948243878643446
21
-15.608818293844616
31
0.0
0
LINE
8
1
62
1
10
-7.948243878643446
20
-15.608818293844616
30
0.0
11
-7.911394626955256
21
-15.447601459303586
31
0.0
0
LINE
8
1
62
1
10
-7.911394626955256
20
-15.447601459303586
30
0.0
11
-7.874959009072585
21
-15.312495964640862
31
0.0
0
LINE
8
1
62
1
10
-7.874959009072585
20
-15.312495964640862
30
0.0
11
-7.840897158745366
21
-15.203190120796831
31
0.0
0
LINE
8
1
62
1
10
-7.840897158745366
20
-15.203190120796831
30
0.0
11
-7.811144226753011
21
-15.11925989531088
31
0.0
0
LINE
8
1
62
1
10
-7.811144226753011
20
-15.11925989531088
30
0.0
11
-7.787604633125539
21
-15.06017043627892
31
0.0
0
LINE
8
1
62
1
10
-7.787604633125539
20
-15.06017043627892
30
0.0
11
-7.772146402106098
21
-15.0252778724059
31
0.0
0
LINE
8
1
62
1
10
-7.772146402106098
20
-15.0252778724059
30
0.0
11
-7.766595592593214
21
-15.013831384946474
31
0.0
0
LINE
8
1
62
1
10
-7.766595592593214
20
-15.013831384946474
30
0.0
11
-6.110834279116164
21
-11.813031127241596
31
0.0
0
LINE
8
1
62
1
10
-6.110834279116164
20
-11.813031127241596
30
0.0
11
-9.346508588704726
21
-9.462176134551122
31
0.0
0
LINE
8
1
62
1
10
-9.346508588704726
20
-9.462176134551122
30
0.0
11
-11.878992146661163
21
-12.02600039639341
31
0.0
0
LINE
8
1
62
1
10
-11.878992146661163
20
-12.02600039639341
30
0.0
11
-11.888163108676121
21
-12.034816689102215
31
0.0
0
LINE
8
1
62
1
10
-11.888163108676121
20
-12.034816689102215
30
0.0
11
-11.916571052829822
21
-12.060300735657727
31
0.0
0
LINE
8
1
62
1
10
-11.916571052829822
20
-12.060300735657727
30
0.0
11
-11.965494333414954
21
-12.100947866597371
31
0.0
0
LINE
8
1
62
1
10
-11.965494333414954
20
-12.100947866597371
30
0.0
11
-12.03612255965937
21
-12.155180452464467
31
0.0
0
LINE
8
1
62
1
10
-12.03612255965937
20
-12.155180452464467
30
0.0
11
-12.129552904105408
21
-12.221352560507539
31
0.0
0
LINE
8
1
62
1
10
-12.129552904105408
20
-12.221352560507539
30
0.0
11
-12.246786640065375
21
-12.29775478620431
31
0.0
0
LINE
8
1
62
1
10
-12.246786640065375
20
-12.29775478620431
30
0.0
11
-12.388725916090449
21
-12.382619248795475
31
0.0
0
LINE
8
1
62
1
10
-12.388725916090449
20
-12.382619248795475
30
0.0
11
-12.556170774894088
21
-12.474124739663353
31
0.0
0
LINE
8
1
62
1
10
-12.556170774894088
20
-12.474124739663353
30
0.0
11
-12.749816423659691
21
-12.570402012062932
31
0.0
0
LINE
8
1
62
1
10
-12.749816423659691
20
-12.570402012062932
30
0.0
11
-12.970250762136832
21
-12.669539200408096
31
0.0
0
LINE
8
1
62
1
10
-12.970250762136832
20
-12.669539200408096
30
0.0
11
-13.217952174391998
21
-12.76958735703478
31
0.0
0
LINE
8
1
62
1
10
-13.217952174391998
20
-12.76958735703478
30
0.0
11
-13.493287589529094
21
-12.868566094105551
31
0.0
0
LINE
8
1
62
1
10
-13.493287589529094
20
-12.868566094105551
30
0.0
11
-13.79651081613348
21
-12.964469318087755
31
0.0
0
LINE
8
1
62
1
10
-13.79651081613348
20
-12.964469318087755
30
0.0
11
-14.12776115462187
21
-13.055271044029931
31
0.0
0
LINE
8
1
62
1
10
-14.12776115462187
20
-13.055271044029931
30
0.0
11
-14.487062291100038
21
-13.138931276679102
31
0.0
0
LINE
8
1
62
1
10
-14.487062291100038
20
-13.138931276679102
30
0.0
11
-14.87432147574245
21
-13.213401945325579
31
0.0
0
LINE
8
1
62
1
10
-14.87432147574245
20
-13.213401945325579
30
0.0
11
-15.289328988113217
21
-13.276632879131796
31
0.0
0
LINE
8
1
62
1
10
-15.289328988113217
20
-13.276632879131796
30
0.0
11
-15.73175789124793
21
-13.326577809598188
31
0.0
0
LINE
8
1
62
1
10
-15.73175789124793
20
-13.326577809598188
30
0.0
11
-16.20116407571162
21
-13.361200386742173
31
0.0
0
LINE
8
1
62
1
10
-16.20116407571162
20
-13.361200386742173
30
0.0
11
-17.713691721388244
21
-11.279384681020039
31
0.0
0
LINE
8
1
62
1
10
-17.713691721388244
20
-11.279384681020039
30
0.0
11
-17.535709205520547
21
-10.843651835223152
31
0.0
0
LINE
8
1
62
1
10
-17.535709205520547
20
-10.843651835223152
30
0.0
11
-17.35149070407328
21
-10.438310776196554
31
0.0
0
LINE
8
1
62
1
10
-17.35149070407328
20
-10.438310776196554
30
0.0
11
-17.16311013832961
21
-10.063154610361211
31
0.0
0
LINE
8
1
62
1
10
-17.16311013832961
20
-10.063154610361211
30
0.0
11
-16.97261465435823
21
-9.717861941506124
31
0.0
0
LINE
8
1
62
1
10
-16.97261465435823
20
-9.717861941506124
30
0.0
11
-16.782018887672486
21
-9.401998687988264
31
0.0
0
LINE
8
1
62
1
10
-16.782018887672486
20
-9.401998687988264
30
0.0
11
-16.593299330538965
21
-9.115020171478617
31
0.0
0
LINE
8
1
62
1
10
-16.593299330538965
20
-9.115020171478617
30
0.0
11
-16.408388814327015
21
-8.85627347195032
31
0.0
0
LINE
8
1
62
1
10
-16.408388814327015
20
-8.85627347195032
30
0.0
11
-16.22917111903055
21
-8.625000043053992
31
0.0
0
LINE
8
1
62
1
10
-16.22917111903055
20
-8.625000043053992
30
0.0
11
-16.057475721809904
21
-8.420338581486735
31
0.0
0
LINE
8
1
62
1
10
-16.057475721809904
20
-8.420338581486735
30
0.0
11
-15.895072696093818
21
-8.241328143436046
31
0.0
0
LINE
8
1
62
1
10
-15.895072696093818
20
-8.241328143436046
30
0.0
11
-15.743667772451742
21
-8.086911500668851
31
0.0
0
LINE
8
1
62
1
10
-15.743667772451742
20
-8.086911500668851
30
0.0
11
-15.604897572094021
21
-7.955938728340324
31
0.0
0
LINE
8
1
62
1
10
-15.604897572094021
20
-7.955938728340324
30
0.0
11
-15.480325023483783
21
-7.847171016117629
31
0.0
0
LINE
8
1
62
1
10
-15.480325023483783
20
-7.847171016117629
30
0.0
11
-15.371434972149721
21
-7.75928469375165
31
0.0
0
LINE
8
1
62
1
10
-15.371434972149721
20
-7.75928469375165
30
0.0
11
-15.279629993374241
21
-7.690875461785467
31
0.0
0
LINE
8
1
62
1
10
-15.279629993374241
20
-7.690875461785467
30
0.0
11
-15.206226416997719
21
-7.6404628176631775
31
0.0
0
LINE
8
1
62
1
10
-15.206226416997719
20
-7.6404628176631775
30
0.0
11
-15.152450573127489
21
-7.6064946670970865
31
0.0
0
LINE
8
1
62
1
10
-15.152450573127489
20
-7.6064946670970865
30
0.0
11
-15.119435267070552
21
-7.587352110166257
31
0.0
0
LINE
8
1
62
1
10
-15.119435267070552
20
-7.587352110166257
30
0.0
11
-15.108216491322889
21
-7.5813543912556405
31
0.0
0
LINE
8
1
62
1
10
-15.108216491322889
20
-7.5813543912556405
30
0.0
11
-11.887294263078497
21
-5.965084668550906
31
0.0
0
LINE
8
1
62
1
10
-11.887294263078497
20
-5.965084668550906
30
0.0
11
-13.123211872816478
21
-2.161321387755332
31
0.0
0
LINE
8
1
62
1
10
-13.123211872816478
20
-2.161321387755332
30
0.0
11
-16.679012199758905
21
-2.746942299136585
31
0.0
0
LINE
8
1
62
1
10
-16.679012199758905
20
-2.746942299136585
30
0.0
11
-16.6916137507179
21
-2.748684273543664
31
0.0
0
LINE
8
1
62
1
10
-16.6916137507179
20
-2.748684273543664
30
0.0
11
-16.729575407047562
21
-2.752603529671023
31
0.0
0
LINE
8
1
62
1
10
-16.729575407047562
20
-2.752603529671023
30
0.0
11
-16.793046956575832
21
-2.756731366552073
31
0.0
0
LINE
8
1
62
1
10
-16.793046956575832
20
-2.756731366552073
30
0.0
11
-16.88206350605649
21
-2.7590922203854085
31
0.0
0
LINE
8
1
62
1
10
-16.88206350605649
20
-2.7590922203854085
30
0.0
11
-16.99654523172446
21
-2.75770960176388
31
0.0
0
LINE
8
1
62
1
10
-16.99654523172446
20
-2.75770960176388
30
0.0
11
-17.136297417937023
21
-2.750612039692219
31
0.0
0
LINE
8
1
62
1
10
-17.136297417937023
20
-2.750612039692219
30
0.0
11
-17.301010783965395
21
-2.7358390189783606
31
0.0
0
LINE
8
1
62
1
10
-17.301010783965395
20
-2.7358390189783606
30
0.0
11
-17.490262098394176
21
-2.711446897592121
31
0.0
0
LINE
8
1
62
1
10
-17.490262098394176
20
-2.711446897592121
30
0.0
11
-17.703515079979727
21
-2.675514790620415
31
0.0
0
LINE
8
1
62
1
10
-17.703515079979727
20
-2.675514790620415
30
0.0
11
-17.940121583214566
21
-2.626150407510494
31
0.0
0
LINE
8
1
62
1
10
-17.940121583214566
20
-2.626150407510494
30
0.0
11
-18.19932306624388
21
-2.5614958293817627
31
0.0
0
LINE
8
1
62
1
10
-18.19932306624388
20
-2.5614958293817627
30
0.0
11
-18.480252338183806
21
-2.479733213302375
31
0.0
0
LINE
8
1
62
1
10
-18.480252338183806
20
-2.479733213302375
30
0.0
11
-18.7819355823
21
-2.3790904105687276
31
0.0
0
LINE
8
1
62
1
10
-18.7819355823
20
-2.3790904105687276
30
0.0
11
-19.103294650921075
21
-2.2578464861941603
31
0.0
0
LINE
8
1
62
1
10
-19.103294650921075
20
-2.2578464861941603
30
0.0
11
-19.443149627384685
21
-2.1143371270069093
31
0.0
0
LINE
8
1
62
1
10
-19.443149627384685
20
-2.1143371270069093
30
0.0
11
-19.80022164974694
21
-1.946959925976757
31
0.0
0
LINE
8
1
62
1
10
-19.80022164974694
20
-1.946959925976757
30
0.0
11
-20.17313599042814
21
-1.7541795306340608
31
0.0
0
LINE
8
1
62
1
10
-20.17313599042814
20
-1.7541795306340608
30
0.0
11
-20.56042538542171
21
-1.5345326437137263
31
0.0
0
LINE
8
1
62
1
10
-20.56042538542171
20
-1.5345326437137263
30
0.0
11
-20.960533606159128
21
-1.2866328644496319
31
0.0
0
LINE
8
1
62
1
10
-20.960533606159128
20
-1.2866328644496319
30
0.0
11
-20.960533606159128
21
1.2866328644496265
31
0.0
0
LINE
8
1
62
1
10
-20.960533606159128
20
1.2866328644496265
30
0.0
11
-20.56042538542171
21
1.534532643713721
31
0.0
0
LINE
8
1
62
1
10
-20.56042538542171
20
1.534532643713721
30
0.0
11
-20.17313599042814
21
1.754179530634056
31
0.0
0
LINE
8
1
62
1
10
-20.17313599042814
20
1.754179530634056
30
0.0
11
-19.80022164974694
21
1.9469599259767516
31
0.0
0
LINE
8
1
62
1
10
-19.80022164974694
20
1.9469599259767516
30
0.0
11
-19.443149627384685
21
2.1143371270069045
31
0.0
0
LINE
8
1
62
1
10
-19.443149627384685
20
2.1143371270069045
30
0.0
11
-19.103294650921075
21
2.257846486194156
31
0.0
0
LINE
8
1
62
1
10
-19.103294650921075
20
2.257846486194156
30
0.0
11
-18.7819355823
21
2.379090410568723
31
0.0
0
LINE
8
1
62
1
10
-18.7819355823
20
2.379090410568723
30
0.0
11
-18.480252338183806
21
2.47973321330237
31
0.0
0
LINE
8
1
62
1
10
-18.480252338183806
20
2.47973321330237
30
0.0
11
-18.19932306624388
21
2.5614958293817582
31
0.0
0
LINE
8
1
62
1
10
-18.19932306624388
20
2.5614958293817582
30
0.0
11
-17.940121583214566
21
2.6261504075104893
31
0.0
0
LINE
8
1
62
1
10
-17.940121583214566
20
2.6261504075104893
30
0.0
11
-17.703515079979727
21
2.6755147906204106
31
0.0
0
LINE
8
1
62
1
10
-17.703515079979727
20
2.6755147906204106
30
0.0
11
-17.490262098394176
21
2.7114468975921167
31
0.0
0
LINE
8
1
62
1
10
-17.490262098394176
20
2.7114468975921167
30
0.0
11
-17.301010783965395
21
2.735839018978356
31
0.0
0
LINE
8
1
62
1
10
-17.301010783965395
20
2.735839018978356
30
0.0
11
-17.136297417937023
21
2.7506120396922147
31
0.0
0
LINE
8
1
62
1
10
-17.136297417937023
20
2.7506120396922147
30
0.0
11
-16.99654523172446
21
2.7577096017638754
31
0.0
0
LINE
8
1
62
1
10
-16.99654523172446
20
2.7577096017638754
30
0.0
11
-16.88206350605649
21
2.7590922203854045
31
0.0
0
LINE
8
1
62
1
10
-16.88206350605649
20
2.7590922203854045
30
0.0
11
-16.793046956575832
21
2.7567313665520685
31
0.0
0
LINE
8
1
62
1
10
-16.793046956575832
20
2.7567313665520685
30
0.0
11
-16.729575407047562
21
2.7526035296710187
31
0.0
0
LINE
8
1
62
1
10
-16.729575407047562
20
2.7526035296710187
30
0.0
11
-16.6916137507179
21
2.7486842735436596
31
0.0
0
LINE
8
1
62
1
10
-16.6916137507179
20
2.7486842735436596
30
0.0
11
-16.679012199758905
21
2.7469422991365806
31
0.0
0
LINE
8
1
62
1
10
-16.679012199758905
20
2.7469422991365806
30
0.0
11
-13.123211872816478
21
2.161321387755329
31
0.0
0
LINE
8
1
62
1
10
-13.123211872816478
20
2.161321387755329
30
0.0
11
-11.887294263078498
21
5.965084668550904
31
0.0
0
LINE
8
1
62
1
10
-11.887294263078498
20
5.965084668550904
30
0.0
11
-15.108216491322894
21
7.581354391255637
31
0.0
0
LINE
8
1
62
1
10
-15.108216491322894
20
7.581354391255637
30
0.0
11
-15.119435267070555
21
7.587352110166253
31
0.0
0
LINE
8
1
62
1
10
-15.119435267070555
20
7.587352110166253
30
0.0
11
-15.152450573127492
21
7.606494667097083
31
0.0
0
LINE
8
1
62
1
10
-15.152450573127492
20
7.606494667097083
30
0.0
11
-15.206226416997724
21
7.640462817663174
31
0.0
0
LINE
8
1
62
1
10
-15.206226416997724
20
7.640462817663174
30
0.0
11
-15.279629993374245
21
7.690875461785463
31
0.0
0
LINE
8
1
62
1
10
-15.279629993374245
20
7.690875461785463
30
0.0
11
-15.371434972149725
21
7.7592846937516455
31
0.0
0
LINE
8
1
62
1
10
-15.371434972149725
20
7.7592846937516455
30
0.0
11
-15.480325023483786
21
7.847171016117626
31
0.0
0
LINE
8
1
62
1
10
-15.480325023483786
20
7.847171016117626
30
0.0
11
-15.604897572094027
21
7.95593872834032
31
0.0
0
LINE
8
1
62
1
10
-15.604897572094027
20
7.95593872834032
30
0.0
11
-15.743667772451747
21
8.086911500668847
31
0.0
0
LINE
8
1
62
1
10
-15.743667772451747
20
8.086911500668847
30
0.0
11
-15.895072696093822
21
8.241328143436043
31
0.0
0
LINE
8
1
62
1
10
-15.895072696093822
20
8.241328143436043
30
0.0
11
-16.057475721809908
21
8.420338581486732
31
0.0
0
LINE
8
1
62
1
10
-16.057475721809908
20
8.420338581486732
30
0.0
11
-16.229171119030553
21
8.625000043053989
31
0.0
0
LINE
8
1
62
1
10
-16.229171119030553
20
8.625000043053989
30
0.0
11
-16.40838881432702
21
8.856273471950317
31
0.0
0
LINE
8
1
62
1
10
-16.40838881432702
20
8.856273471950317
30
0.0
11
-16.59329933053897
21
9.115020171478612
31
0.0
0
LINE
8
1
62
1
10
-16.59329933053897
20
9.115020171478612
30
0.0
11
-16.78201888767249
21
9.40199868798826
31
0.0
0
LINE
8
1
62
1
10
-16.78201888767249
20
9.40199868798826
30
0.0
11
-16.972614654358235
21
9.71786194150612
31
0.0
0
LINE
8
1
62
1
10
-16.972614654358235
20
9.71786194150612
30
0.0
11
-17.163110138329614
21
10.063154610361208
31
0.0
0
LINE
8
1
62
1
10
-17.163110138329614
20
10.063154610361208
30
0.0
11
-17.35149070407329
21
10.43831077619655
31
0.0
0
LINE
8
1
62
1
10
-17.35149070407329
20
10.43831077619655
30
0.0
11
-17.53570920552055
21
10.843651835223147
31
0.0
0
LINE
8
1
62
1
10
-17.53570920552055
20
10.843651835223147
30
0.0
11
-17.71369172138825
21
11.279384681020034
31
0.0
0
LINE
8
1
62
1
10
-17.71369172138825
20
11.279384681020034
30
0.0
11
-16.201164075711624
21
13.361200386742171
31
0.0
0
LINE
8
1
62
1
10
-16.201164075711624
20
13.361200386742171
30
0.0
11
-15.731757891247936
21
13.326577809598186
31
0.0
0
LINE
8
1
62
1
10
-15.731757891247936
20
13.326577809598186
30
0.0
11
-15.28932898811322
21
13.276632879131794
31
0.0
0
LINE
8
1
62
1
10
-15.28932898811322
20
13.276632879131794
30
0.0
11
-14.874321475742452
21
13.213401945325575
31
0.0
0
LINE
8
1
62
1
10
-14.874321475742452
20
13.213401945325575
30
0.0
11
-14.487062291100042
21
13.1389312766791
31
0.0
0
LINE
8
1
62
1
10
-14.487062291100042
20
13.1389312766791
30
0.0
11
-14.127761154621874
21
13.05527104402993
31
0.0
0
LINE
8
1
62
1
10
-14.127761154621874
20
13.05527104402993
30
0.0
11
-13.796510816133484
21
12.964469318087753
31
0.0
0
LINE
8
1
62
1
10
-13.796510816133484
20
12.964469318087753
30
0.0
11
-13.4932875895291
21
12.86856609410555
31
0.0
0
LINE
8
1
62
1
10
-13.4932875895291
20
12.86856609410555
30
0.0
11
-13.217952174392002
21
12.769587357034778
31
0.0
0
LINE
8
1
62
1
10
-13.217952174392002
20
12.769587357034778
30
0.0
11
-12.970250762136835
21
12.669539200408094
31
0.0
0
LINE
8
1
62
1
10
-12.970250762136835
20
12.669539200408094
30
0.0
11
-12.749816423659695
21
12.57040201206293
31
0.0
0
LINE
8
1
62
1
10
-12.749816423659695
20
12.57040201206293
30
0.0
11
-12.556170774894092
21
12.47412473966335
31
0.0
0
LINE
8
1
62
1
10
-12.556170774894092
20
12.47412473966335
30
0.0
11
-12.388725916090452
21
12.382619248795473
31
0.0
0
LINE
8
1
62
1
10
-12.388725916090452
20
12.382619248795473
30
0.0
11
-12.246786640065379
21
12.297754786204308
31
0.0
0
LINE
8
1
62
1
10
-12.246786640065379
20
12.297754786204308
30
0.0
11
-12.129552904105411
21
12.221352560507537
31
0.0
0
LINE
8
1
62
1
10
-12.129552904105411
20
12.221352560507537
30
0.0
11
-12.036122559659374
21
12.155180452464466
31
0.0
0
LINE
8
1
62
1
10
-12.036122559659374
20
12.155180452464466
30
0.0
11
-11.965494333414957
21
12.10094786659737
31
0.0
0
LINE
8
1
62
1
10
-11.965494333414957
20
12.10094786659737
30
0.0
11
-11.916571052829825
21
12.060300735657725
31
0.0
0
LINE
8
1
62
1
10
-11.916571052829825
20
12.060300735657725
30
0.0
11
-11.888163108676125
21
12.034816689102213
31
0.0
0
LINE
8
1
62
1
10
-11.888163108676125
20
12.034816689102213
30
0.0
11
-11.878992146661167
21
12.026000396393409
31
0.0
0
LINE
8
1
62
1
10
-11.878992146661167
20
12.026000396393409
30
0.0
11
-9.34650858870473
21
9.46217613455112
31
0.0
0
LINE
8
1
62
1
10
-9.34650858870473
20
9.46217613455112
30
0.0
11
-6.110834279116162
21
11.813031127241597
31
0.0
0
LINE
8
1
62
1
10
-6.110834279116162
20
11.813031127241597
30
0.0
11
-7.766595592593211
21
15.013831384946476
31
0.0
0
LINE
8
1
62
1
10
-7.766595592593211
20
15.013831384946476
30
0.0
11
-7.772146402106094
21
15.025277872405901
31
0.0
0
LINE
8
1
62
1
10
-7.772146402106094
20
15.025277872405901
30
0.0
11
-7.787604633125536
21
15.060170436278922
31
0.0
0
LINE
8
1
62
1
10
-7.787604633125536
20
15.060170436278922
30
0.0
11
-7.811144226753008
21
15.119259895310883
31
0.0
0
LINE
8
1
62
1
10
-7.811144226753008
20
15.119259895310883
30
0.0
11
-7.8408971587453635
21
15.203190120796833
31
0.0
0
LINE
8
1
62
1
10
-7.8408971587453635
20
15.203190120796833
30
0.0
11
-7.874959009072582
21
15.312495964640863
31
0.0
0
LINE
8
1
62
1
10
-7.874959009072582
20
15.312495964640863
30
0.0
11
-7.9113946269552535
21
15.447601459303588
31
0.0
0
LINE
8
1
62
1
10
-7.9113946269552535
20
15.447601459303588
30
0.0
11
-7.948243878643444
21
15.608818293844617
31
0.0
0
LINE
8
1
62
1
10
-7.948243878643444
20
15.608818293844617
30
0.0
11
-7.983527465019088
21
15.796344569686736
31
0.0
0
LINE
8
1
62
1
10
-7.983527465019088
20
15.796344569686736
30
0.0
11
-8.015252795950495
21
16.010263839141
31
0.0
0
LINE
8
1
62
1
10
-8.015252795950495
20
16.010263839141
30
0.0
11
-8.041419908200108
21
16.250544429138106
31
0.0
0
LINE
8
1
62
1
10
-8.041419908200108
20
16.250544429138106
30
0.0
11
-8.060027413585715
21
16.517039052012425
31
0.0
0
LINE
8
1
62
1
10
-8.060027413585715
20
16.517039052012425
30
0.0
11
-8.06907846402089
21
16.80948470458203
31
0.0
0
LINE
8
1
62
1
10
-8.06907846402089
20
16.80948470458203
30
0.0
11
-8.066586720012918
21
17.12750285616202
31
0.0
0
LINE
8
1
62
1
10
-8.066586720012918
20
17.12750285616202
30
0.0
11
-8.050582309175706
21
17.470599925541084
31
0.0
0
LINE
8
1
62
1
10
-8.050582309175706
20
17.470599925541084
30
0.0
11
-8.019117761321482
21
17.838168046342858
31
0.0
0
LINE
8
1
62
1
10
-8.019117761321482
20
17.838168046342858
30
0.0
11
-7.970273906728281
21
18.229486119586397
31
0.0
0
LINE
8
1
62
1
10
-7.970273906728281
20
18.229486119586397
30
0.0
11
-7.902165724240272
21
18.64372115165438
31
0.0
0
LINE
8
1
62
1
10
-7.902165724240272
20
18.64372115165438
30
0.0
11
-7.812948125944947
21
19.079929875274956
31
0.0
0
LINE
8
1
62
1
10
-7.812948125944947
20
19.079929875274956
30
0.0
11
-7.700821665284685
21
19.53706065052494
31
0.0
0
LINE
8
1
62
1
10
-7.700821665284685
20
19.53706065052494
30
0.0
11
-5.253500525656065
21
20.332243491797442
31
0.0
0
LINE
8
1
62
1
10
-5.253500525656065
20
20.332243491797442
30
0.0
11
-4.8940935854018335
21
20.028323205936267
31
0.0
0
LINE
8
1
62
1
10
-4.8940935854018335
20
20.028323205936267
30
0.0
11
-4.565517977518099
21
19.727863723955558
31
0.0
0
LINE
8
1
62
1
10
-4.565517977518099
20
19.727863723955558
30
0.0
11
-4.266936057596853
21
19.43277352857401
31
0.0
0
LINE
8
1
62
1
10
-4.266936057596853
20
19.43277352857401
30
0.0
11
-3.997409556752114
21
19.144900254508926
31
0.0
0
LINE
8
1
62
1
10
-3.997409556752114
20
19.144900254508926
30
0.0
11
-3.7559030821975834
21
18.866025795388595
31
0.0
0
LINE
8
1
62
1
10
-3.7559030821975834
20
18.866025795388595
30
0.0
11
-3.5412878443595375
21
18.59786159220243
31
0.0
0
LINE
8
1
62
1
10
-3.5412878443595375
20
18.59786159220243
30
0.0
11
-3.3523456016514244
21
18.342044113434884
31
0.0
0
LINE
8
1
62
1
10
-3.3523456016514244
20
18.342044113434884
30
0.0
11
-3.1877728135929653
21
18.10013053661145
31
0.0
0
LINE
8
1
62
1
10
-3.1877728135929653
20
18.10013053661145
30
0.0
11
-3.046184992532073
21
17.873594640548973
31
0.0
0
LINE
8
1
62
1
10
-3.046184992532073
20
17.873594640548973
30
0.0
11
-2.9261212438232964
21
17.66382291714747
31
0.0
0
LINE
8
1
62
1
10
-2.9261212438232964
20
17.66382291714747
30
0.0
11
-2.8260489839325773
21
17.472110911089118
31
0.0
0
LINE
8
1
62
1
10
-2.8260489839325773
20
17.472110911089118
30
0.0
11
-2.744368825575642
21
17.299659795321407
31
0.0
0
LINE
8
1
62
1
10
-2.744368825575642
20
17.299659795321407
30
0.0
11
-2.679419618656895
21
17.14757318969805
31
0.0
0
LINE
8
1
62
1
10
-2.679419618656895
20
17.14757318969805
30
0.0
11
-2.6294836354580986
21
17.016854229632873
31
0.0
0
LINE
8
1
62
1
10
-2.6294836354580986
20
17.016854229632873
30
0.0
11
-2.5927918882317686
21
16.908402891090425
31
0.0
0
LINE
8
1
62
1
10
-2.5927918882317686
20
16.908402891090425
30
0.0
11
-2.567529567083842
21
16.823013577693
31
0.0
0
LINE
8
1
62
1
10
-2.567529567083842
20
16.823013577693
30
0.0
11
-2.5518415857842216
21
16.76137297516854
31
0.0
0
LINE
8
1
62
1
10
-2.5518415857842216
20
16.76137297516854
30
0.0
11
-2.543838222922689
21
16.724058177798195
31
0.0
0
LINE
8
1
62
1
10
-2.543838222922689
20
16.724058177798195
30
0.0
11
-2.5416008456319488
21
16.711535090947663
31
0.0
0
LINE
8
1
62
1
10
-2.5416008456319488
20
16.711535090947663
30
0.0
11
-1.99975669985059
21
13.14880120548648
31
0.0
0
LINE
8
1
62
1
10
-1.99975669985059
20
13.14880120548648
30
0.0
11
1.9997566998505851
21
13.14880120548648
31
0.0
0
LINE
8
1
62
1
10
1.9997566998505851
20
13.14880120548648
30
0.0
11
2.541600845631943
21
16.711535090947663
31
0.0
0
LINE
8
1
62
1
10
2.541600845631943
20
16.711535090947663
30
0.0
11
2.5438382229226826
21
16.724058177798195
31
0.0
0
LINE
8
1
62
1
10
2.5438382229226826
20
16.724058177798195
30
0.0
11
2.5518415857842154
21
16.76137297516854
31
0.0
0
LINE
8
1
62
1
10
2.5518415857842154
20
16.76137297516854
30
0.0
11
2.567529567083836
21
16.823013577693
31
0.0
0
LINE
8
1
62
1
10
2.567529567083836
20
16.823013577693
30
0.0
11
2.5927918882317624
21
16.908402891090425
31
0.0
0
LINE
8
1
62
1
10
2.5927918882317624
20
16.908402891090425
30
0.0
11
2.6294836354580924
21
17.016854229632873
31
0.0
0
LINE
8
1
62
1
10
2.6294836354580924
20
17.016854229632873
30
0.0
11
2.6794196186568886
21
17.14757318969805
31
0.0
0
LINE
8
1
62
1
10
2.6794196186568886
20
17.14757318969805
30
0.0
11
2.744368825575636
21
17.299659795321407
31
0.0
0
LINE
8
1
62
1
10
2.744368825575636
20
17.299659795321407
30
0.0
11
2.826048983932571
21
17.472110911089118
31
0.0
0
LINE
8
1
62
1
10
2.826048983932571
20
17.472110911089118
30
0.0
11
2.9261212438232898
21
17.66382291714747
31
0.0
0
LINE
8
1
62
1
10
2.9261212438232898
20
17.66382291714747
30
0.0
11
3.0461849925320665
21
17.873594640548973
31
0.0
0
LINE
8
1
62
1
10
3.0461849925320665
20
17.873594640548973
30
0.0
11
3.1877728135929586
21
18.10013053661145
31
0.0
0
LINE
8
1
62
1
10
3.1877728135929586
20
18.10013053661145
30
0.0
11
3.3523456016514177
21
18.342044113434884
31
0.0
0
LINE
8
1
62
1
10
3.3523456016514177
20
18.342044113434884
30
0.0
11
3.5412878443595304
21
18.59786159220243
31
0.0
0
LINE
8
1
62
1
10
3.5412878443595304
20
18.59786159220243
30
0.0
11
3.7559030821975763
21
18.866025795388595
31
0.0
0
LINE
8
1
62
1
10
3.7559030821975763
20
18.866025795388595
30
0.0
11
3.997409556752107
21
19.144900254508926
31
0.0
0
LINE
8
1
62
1
10
3.997409556752107
20
19.144900254508926
30
0.0
11
4.266936057596846
21
19.43277352857401
31
0.0
0
LINE
8
1
62
1
10
4.266936057596846
20
19.43277352857401
30
0.0
11
4.565517977518092
21
19.727863723955558
31
0.0
0
LINE
8
1
62
1
10
4.565517977518092
20
19.727863723955558
30
0.0
11
4.8940935854018255
21
20.028323205936267
31
0.0
0
LINE
8
1
62
1
10
4.8940935854018255
20
20.028323205936267
30
0.0
11
5.253500525656058
21
20.332243491797446
31
0.0
0
LINE
8
1
62
1
10
5.253500525656058
20
20.332243491797446
30
0.0
11
7.7008216652846775
21
19.537060650524943
31
0.0
0
LINE
8
1
62
1
10
7.7008216652846775
20
19.537060650524943
30
0.0
11
7.81294812594494
21
19.07992987527496
31
0.0
0
LINE
8
1
62
1
10
7.81294812594494
20
19.07992987527496
30
0.0
11
7.902165724240265
21
18.643721151654383
31
0.0
0
LINE
8
1
62
1
10
7.902165724240265
20
18.643721151654383
30
0.0
11
7.970273906728273
21
18.229486119586404
31
0.0
0
LINE
8
1
62
1
10
7.970273906728273
20
18.229486119586404
30
0.0
11
8.019117761321475
21
17.83816804634286
31
0.0
0
LINE
8
1
62
1
10
8.019117761321475
20
17.83816804634286
30
0.0
11
8.0505823091757
21
17.47059992554109
31
0.0
0
LINE
8
1
62
1
10
8.0505823091757
20
17.47059992554109
30
0.0
11
8.066586720012912
21
17.127502856162025
31
0.0
0
LINE
8
1
62
1
10
8.066586720012912
20
17.127502856162025
30
0.0
11
8.069078464020885
21
16.809484704582033
31
0.0
0
LINE
8
1
62
1
10
8.069078464020885
20
16.809484704582033
30
0.0
11
8.06002741358571
21
16.51703905201243
31
0.0
0
LINE
8
1
62
1
10
8.06002741358571
20
16.51703905201243
30
0.0
11
8.041419908200103
21
16.25054442913811
31
0.0
0
LINE
8
1
62
1
10
8.041419908200103
20
16.25054442913811
30
0.0
11
8.01525279595049
21
16.010263839141004
31
0.0
0
LINE
8
1
62
1
10
8.01525279595049
20
16.010263839141004
30
0.0
11
7.9835274650190815
21
15.79634456968674
31
0.0
0
LINE
8
1
62
1
10
7.9835274650190815
20
15.79634456968674
30
0.0
11
7.948243878643437
21
15.608818293844621
31
0.0
0
LINE
8
1
62
1
10
7.948243878643437
20
15.608818293844621
30
0.0
11
7.911394626955247
21
15.447601459303591
31
0.0
0
LINE
8
1
62
1
10
7.911394626955247
20
15.447601459303591
30
0.0
11
7.874959009072576
21
15.312495964640867
31
0.0
0
LINE
8
1
62
1
10
7.874959009072576
20
15.312495964640867
30
0.0
11
7.840897158745358
21
15.203190120796837
31
0.0
0
LINE
8
1
62
1
10
7.840897158745358
20
15.203190120796837
30
0.0
11
7.811144226753003
21
15.119259895310886
31
0.0
0
LINE
8
1
62
1
10
7.811144226753003
20
15.119259895310886
30
0.0
11
7.787604633125531
21
15.060170436278925
31
0.0
0
LINE
8
1
62
1
10
7.787604633125531
20
15.060170436278925
30
0.0
11
7.772146402106089
21
15.025277872405905
31
0.0
0
LINE
8
1
62
1
10
7.772146402106089
20
15.025277872405905
30
0.0
11
7.766595592593205
21
15.01383138494648
31
0.0
0
LINE
8
1
62
1
10
7.766595592593205
20
15.01383138494648
30
0.0
11
6.110834279116157
21
11.813031127241599
31
0.0
0
LINE
8
1
62
1
10
6.110834279116157
20
11.813031127241599
30
0.0
11
9.34650858870473
21
9.462176134551118
31
0.0
0
LINE
8
1
62
1
10
9.34650858870473
20
9.462176134551118
30
0.0
11
11.878992146661169
21
12.026000396393407
31
0.0
0
LINE
8
1
62
1
10
11.878992146661169
20
12.026000396393407
30
0.0
11
11.888163108676126
21
12.034816689102211
31
0.0
0
LINE
8
1
62
1
10
11.888163108676126
20
12.034816689102211
30
0.0
11
11.916571052829827
21
12.060300735657723
31
0.0
0
LINE
8
1
62
1
10
11.916571052829827
20
12.060300735657723
30
0.0
11
11.96549433341496
21
12.100947866597368
31
0.0
0
LINE
8
1
62
1
10
11.96549433341496
20
12.100947866597368
30
0.0
11
12.036122559659375
21
12.155180452464464
31
0.0
0
LINE
8
1
62
1
10
12.036122559659375
20
12.155180452464464
30
0.0
11
12.129552904105413
21
12.221352560507535
31
0.0
0
LINE
8
1
62
1
10
12.129552904105413
20
12.221352560507535
30
0.0
11
12.24678664006538
21
12.297754786204306
31
0.0
0
LINE
8
1
62
1
10
12.24678664006538
20
12.297754786204306
30
0.0
11
12.388725916090454
21
12.382619248795471
31
0.0
0
LINE
8
1
62
1
10
12.388725916090454
20
12.382619248795471
30
0.0
11
12.556170774894094
21
12.474124739663349
31
0.0
0
LINE
8
1
62
1
10
12.556170774894094
20
12.474124739663349
30
0.0
11
12.749816423659697
21
12.570402012062928
31
0.0
0
LINE
8
1
62
1
10
12.749816423659697
20
12.570402012062928
30
0.0
11
12.970250762136837
21
12.669539200408092
31
0.0
0
LINE
8
1
62
1
10
12.970250762136837
20
12.669539200408092
30
0.0
11
13.217952174392005
21
12.769587357034776
31
0.0
0
LINE
8
1
62
1
10
13.217952174392005
20
12.769587357034776
30
0.0
11
13.493287589529102
21
12.868566094105548
31
0.0
0
LINE
8
1
62
1
10
13.493287589529102
20
12.868566094105548
30
0.0
11
13.796510816133486
21
12.964469318087751
31
0.0
0
LINE
8
1
62
1
10
13.796510816133486
20
12.964469318087751
30
0.0
11
14.127761154621876
21
13.055271044029928
31
0.0
0
LINE
8
1
62
1
10
14.127761154621876
20
13.055271044029928
30
0.0
11
14.487062291100042
21
13.138931276679099
31
0.0
0
LINE
8
1
62
1
10
14.487062291100042
20
13.138931276679099
30
0.0
11
14.874321475742454
21
13.213401945325574
31
0.0
0
LINE
8
1
62
1
10
14.874321475742454
20
13.213401945325574
30
0.0
11
15.289328988113224
21
13.276632879131792
31
0.0
0
LINE
8
1
62
1
10
15.289328988113224
20
13.276632879131792
30
0.0
11
15.731757891247938
21
13.326577809598184
31
0.0
0
LINE
8
1
62
1
10
15.731757891247938
20
13.326577809598184
30
0.0
11
16.201164075711628
21
13.36120038674217
31
0.0
0
LINE
8
1
62
1
10
16.201164075711628
20
13.36120038674217
30
0.0
11
17.71369172138824
21
11.279384681020048
31
0.0
0
LINE
8
1
62
1
10
17.71369172138824
20
11.279384681020048
30
0.0
11
17.53570920552054
21
10.843651835223161
31
0.0
0
LINE
8
1
62
1
10
17.53570920552054
20
10.843651835223161
30
0.0
11
17.351490704073274
21
10.438310776196564
31
0.0
0
LINE
8
1
62
1
10
17.351490704073274
20
10.438310776196564
30
0.0
11
17.163110138329607
21
10.063154610361222
31
0.0
0
LINE
8
1
62
1
10
17.163110138329607
20
10.063154610361222
30
0.0
11
16.972614654358228
21
9.717861941506134
31
0.0
0
LINE
8
1
62
1
10
16.972614654358228
20
9.717861941506134
30
0.0
11
16.78201888767248
21
9.401998687988273
31
0.0
0
LINE
8
1
62
1
10
16.78201888767248
20
9.401998687988273
30
0.0
11
16.59329933053896
21
9.115020171478626
31
0.0
0
LINE
8
1
62
1
10
16.59329933053896
20
9.115020171478626
30
0.0
11
16.40838881432701
21
8.856273471950331
31
0.0
0
LINE
8
1
62
1
10
16.40838881432701
20
8.856273471950331
30
0.0
11
16.229171119030546
21
8.625000043054003
31
0.0
0
LINE
8
1
62
1
10
16.229171119030546
20
8.625000043054003
30
0.0
11
16.057475721809897
21
8.420338581486746
31
0.0
0
LINE
8
1
62
1
10
16.057475721809897
20
8.420338581486746
30
0.0
11
15.895072696093813
21
8.241328143436055
31
0.0
0
LINE
8
1
62
1
10
15.895072696093813
20
8.241328143436055
30
0.0
11
15.743667772451738
21
8.08691150066886
31
0.0
0
LINE
8
1
62
1
10
15.743667772451738
20
8.08691150066886
30
0.0
11
15.604897572094018
21
7.955938728340333
31
0.0
0
LINE
8
1
62
1
10
15.604897572094018
20
7.955938728340333
30
0.0
11
15.480325023483779
21
7.847171016117638
31
0.0
0
LINE
8
1
62
1
10
15.480325023483779
20
7.847171016117638
30
0.0
11
15.371434972149718
21
7.759284693751658
31
0.0
0
LINE
8
1
62
1
10
15.371434972149718
20
7.759284693751658
30
0.0
11
15.279629993374238
21
7.690875461785476
31
0.0
0
LINE
8
1
62
1
10
15.279629993374238
20
7.690875461785476
30
0.0
11
15.206226416997715
21
7.640462817663186
31
0.0
0
LINE
8
1
62
1
10
15.206226416997715
20
7.640462817663186
30
0.0
11
15.152450573127485
21
7.6064946670970945
31
0.0
0
LINE
8
1
62
1
10
15.152450573127485
20
7.6064946670970945
30
0.0
11
15.119435267070548
21
7.5873521101662655
31
0.0
0
LINE
8
1
62
1
10
15.119435267070548
20
7.5873521101662655
30
0.0
11
15.108216491322885
21
7.5813543912556485
31
0.0
0
LINE
8
1
62
1
10
15.108216491322885
20
7.5813543912556485
30
0.0
11
11.887294263078493
21
5.965084668550913
31
0.0
0
LINE
8
1
62
1
10
11.887294263078493
20
5.965084668550913
30
0.0
11
13.123211872816478
21
2.1613213877553297
31
0.0
0
ENDSEC
0
EOF
