999
"DXF R12 Output" (www.mydxf.blogspot.com)
 0 
SECTION
 2 
HEADER
 9 
$ACADVER
 1 
AC1009
 9 
$EXTMIN
 10 
 0 
 20 
 0 
 9 
$EXTMAX
 10 
 8.5 
 20 
 11 
 0 
ENDSEC
 0 
SECTION
 2 
ENTITIES
0
LINE
8
Layer 1
10
81.740300
20
35.901200
11
80.904218
21
36.821949
0
LINE
8
Layer 1
10
80.904218
20
36.821949
11
80.853947
21
36.896032
0
LINE
8
Layer 1
10
80.853947
20
36.896032
11
80.766635
21
36.917199
0
LINE
8
Layer 1
10
80.766635
20
36.917199
11
78.144876
21
37.760097
0
LINE
8
Layer 1
10
78.144876
20
37.760097
11
75.677493
21
39.008150
0
LINE
8
Layer 1
10
75.677493
20
39.008150
11
73.369535
21
40.627529
0
LINE
8
Layer 1
10
73.369535
20
40.627529
11
71.226052
21
42.584406
0
LINE
8
Layer 1
10
71.226052
20
42.584406
11
69.252094
21
44.844955
0
LINE
8
Layer 1
10
69.252094
20
44.844955
11
67.452712
21
47.375347
0
LINE
8
Layer 1
10
67.452712
20
47.375347
11
65.832954
21
50.141756
0
LINE
8
Layer 1
10
65.832954
20
50.141756
11
64.397872
21
53.110353
0
LINE
8
Layer 1
10
64.397872
20
53.110353
11
63.152516
21
56.247310
0
LINE
8
Layer 1
10
63.152516
20
56.247310
11
62.101935
21
59.518801
0
LINE
8
Layer 1
10
62.101935
20
59.518801
11
61.251179
21
62.890998
0
LINE
8
Layer 1
10
61.251179
20
62.890998
11
60.605299
21
66.330072
0
LINE
8
Layer 1
10
60.605299
20
66.330072
11
60.169344
21
69.802197
0
LINE
8
Layer 1
10
60.169344
20
69.802197
11
59.948365
21
73.273545
0
LINE
8
Layer 1
10
59.948365
20
73.273545
11
59.947412
21
76.710288
0
LINE
8
Layer 1
10
59.947412
20
76.710288
11
60.171535
21
80.078599
0
LINE
8
Layer 1
10
60.171535
20
80.078599
11
60.570895
21
82.977005
0
LINE
8
Layer 1
10
60.570895
20
82.977005
11
61.192825
21
85.835929
0
LINE
8
Layer 1
10
61.192825
20
85.835929
11
61.996701
21
88.416567
0
LINE
8
Layer 1
10
61.996701
20
88.416567
11
63.044905
21
90.907989
0
LINE
8
Layer 1
10
63.044905
20
90.907989
11
64.372195
21
93.258152
0
LINE
8
Layer 1
10
64.372195
20
93.258152
11
66.024105
21
95.392669
0
LINE
8
Layer 1
10
66.024105
20
95.392669
11
67.913767
21
97.127629
0
LINE
8
Layer 1
10
67.913767
20
97.127629
11
69.989215
21
98.394030
0
LINE
8
Layer 1
10
69.989215
20
98.394030
11
72.217955
21
99.177733
0
LINE
8
Layer 1
10
72.217955
20
99.177733
11
74.567495
21
99.464599
0
LINE
8
Layer 1
10
74.567495
20
99.464599
11
74.866474
21
99.665682
0
LINE
8
Layer 1
10
74.866474
20
99.665682
11
75.432475
21
100.451741
0
LINE
8
Layer 1
10
75.432475
20
100.451741
11
76.211549
21
101.080539
0
LINE
8
Layer 1
10
76.211549
20
101.080539
11
77.087360
21
101.523799
0
LINE
8
Layer 1
10
77.087360
20
101.523799
11
77.943574
21
101.753242
0
LINE
8
Layer 1
10
77.943574
20
101.753242
11
78.094386
21
101.774408
0
LINE
8
Layer 1
10
78.094386
20
101.774408
11
78.131427
21
101.922574
0
LINE
8
Layer 1
10
78.131427
20
101.922574
11
78.298537
21
102.411602
0
LINE
8
Layer 1
10
78.298537
20
102.411602
11
78.861278
21
103.373947
0
LINE
8
Layer 1
10
78.861278
20
103.373947
11
79.336515
21
103.877880
0
LINE
8
Layer 1
10
79.336515
20
103.877880
11
79.965263
21
104.314462
0
LINE
8
Layer 1
10
79.965263
20
104.314462
11
80.765724
21
104.621800
0
LINE
8
Layer 1
10
80.765724
20
104.621800
11
81.756100
21
104.738000
0
LINE
8
Layer 1
10
81.756100
20
104.738000
11
82.746444
21
104.618453
0
LINE
8
Layer 1
10
82.746444
20
104.618453
11
83.546664
21
104.303063
0
LINE
8
Layer 1
10
83.546664
20
104.303063
11
84.174743
21
103.856703
0
LINE
8
Layer 1
10
84.174743
20
103.856703
11
84.648663
21
103.344250
0
LINE
8
Layer 1
10
84.648663
20
103.344250
11
85.205955
21
102.380562
0
LINE
8
Layer 1
10
85.205955
20
102.380562
11
85.362400
21
101.931000
0
LINE
8
Layer 1
10
85.362400
20
101.931000
11
85.399442
21
101.782834
0
LINE
8
Layer 1
10
85.399442
20
101.782834
11
85.550254
21
101.761667
0
LINE
8
Layer 1
10
85.550254
20
101.761667
11
86.405641
21
101.530612
0
LINE
8
Layer 1
10
86.405641
20
101.530612
11
87.279632
21
101.084004
0
LINE
8
Layer 1
10
87.279632
20
101.084004
11
88.056887
21
100.452353
0
LINE
8
Layer 1
10
88.056887
20
100.452353
11
88.622064
21
99.666167
0
LINE
8
Layer 1
10
88.622064
20
99.666167
11
88.915751
21
99.462438
0
LINE
8
Layer 1
10
88.915751
20
99.462438
11
91.265701
21
99.175573
0
LINE
8
Layer 1
10
91.265701
20
99.175573
11
93.493367
21
98.391870
0
LINE
8
Layer 1
10
93.493367
20
98.391870
11
95.568732
21
97.125469
0
LINE
8
Layer 1
10
95.568732
20
97.125469
11
97.461781
21
95.390508
0
LINE
8
Layer 1
10
97.461781
20
95.390508
11
99.369239
21
92.867665
0
LINE
8
Layer 1
10
99.369239
20
92.867665
11
100.833000
21
90.064000
0
LINE
8
Layer 1
10
100.833000
20
90.064000
11
101.018208
21
89.624792
0
LINE
8
Layer 1
10
101.018208
20
89.624792
11
101.851513
21
87.305151
0
LINE
8
Layer 1
10
101.851513
20
87.305151
11
102.512692
21
84.934098
0
LINE
8
Layer 1
10
102.512692
20
84.934098
11
102.999452
21
82.521193
0
LINE
8
Layer 1
10
102.999452
20
82.521193
11
103.309498
21
80.075992
0
LINE
8
Layer 1
10
103.309498
20
80.075992
11
103.533613
21
76.706791
0
LINE
8
Layer 1
10
103.533613
20
76.706791
11
103.532653
21
73.269387
0
LINE
8
Layer 1
10
103.532653
20
73.269387
11
103.311668
21
69.797584
0
LINE
8
Layer 1
10
103.311668
20
69.797584
11
102.875709
21
66.325186
0
LINE
8
Layer 1
10
102.875709
20
66.325186
11
102.229824
21
62.885996
0
LINE
8
Layer 1
10
102.229824
20
62.885996
11
101.379065
21
59.513819
0
LINE
8
Layer 1
10
101.379065
20
59.513819
11
100.328481
21
56.242458
0
LINE
8
Layer 1
10
100.328481
20
56.242458
11
99.083123
21
53.105717
0
LINE
8
Layer 1
10
99.083123
20
53.105717
11
97.648041
21
50.137401
0
LINE
8
Layer 1
10
97.648041
20
50.137401
11
96.028284
21
47.371312
0
LINE
8
Layer 1
10
96.028284
20
47.371312
11
94.228904
21
44.841256
0
LINE
8
Layer 1
10
94.228904
20
44.841256
11
92.254950
21
42.581036
0
LINE
8
Layer 1
10
92.254950
20
42.581036
11
90.111472
21
40.624455
0
LINE
8
Layer 1
10
90.111472
20
40.624455
11
87.803521
21
39.005319
0
LINE
8
Layer 1
10
87.803521
20
39.005319
11
85.336146
21
37.757430
0
LINE
8
Layer 1
10
85.336146
20
37.757430
11
82.714398
21
36.914592
0
LINE
8
Layer 1
10
82.714398
20
36.914592
11
82.627086
21
36.893425
0
LINE
8
Layer 1
10
82.627086
20
36.893425
11
82.576815
21
36.819342
0
LINE
8
Layer 1
10
82.576815
20
36.819342
11
81.740300
21
35.901200
0
LINE
8
Layer 1
10
81.740300
20
35.901200
11
81.740300
21
35.901200
0
LINE
8
Layer 1
10
103.513000
20
80.097200
11
102.827730
21
84.460170
0
LINE
8
Layer 1
10
102.827730
20
84.460170
11
101.721770
21
88.370710
0
LINE
8
Layer 1
10
101.721770
20
88.370710
11
100.922693
21
90.364229
0
LINE
8
Layer 1
10
100.922693
20
90.364229
11
99.954360
21
92.281250
0
LINE
8
Layer 1
10
99.954360
20
92.281250
11
98.872196
21
93.975519
0
LINE
8
Layer 1
10
98.872196
20
93.975519
11
97.607510
21
95.538270
0
LINE
8
Layer 1
10
97.607510
20
95.538270
11
95.694904
21
97.296382
0
LINE
8
Layer 1
10
95.694904
20
97.296382
11
93.591800
21
98.587919
0
LINE
8
Layer 1
10
93.591800
20
98.587919
11
91.321018
21
99.391796
0
LINE
8
Layer 1
10
91.321018
20
99.391796
11
88.905380
21
99.686930
0
LINE
8
Layer 1
10
88.905380
20
99.686930
11
88.833700
21
99.686900
0
LINE
8
Layer 1
10
88.833700
20
99.686900
11
88.275347
21
100.518477
0
LINE
8
Layer 1
10
88.275347
20
100.518477
11
87.466468
21
101.215860
0
LINE
8
Layer 1
10
87.466468
20
101.215860
11
86.515704
21
101.726216
0
LINE
8
Layer 1
10
86.515704
20
101.726216
11
85.531700
21
101.996710
0
LINE
8
Layer 1
10
85.531700
20
101.996710
11
85.375307
21
102.457456
0
LINE
8
Layer 1
10
85.375307
20
102.457456
11
84.798474
21
103.472089
0
LINE
8
Layer 1
10
84.798474
20
103.472089
11
84.301932
21
104.014798
0
LINE
8
Layer 1
10
84.301932
20
104.014798
11
83.639725
21
104.489202
0
LINE
8
Layer 1
10
83.639725
20
104.489202
11
82.791669
21
104.826375
0
LINE
8
Layer 1
10
82.791669
20
104.826375
11
81.737580
21
104.957390
0
LINE
8
Layer 1
10
81.737580
20
104.957390
11
80.683491
21
104.833972
0
LINE
8
Layer 1
10
80.683491
20
104.833972
11
79.835435
21
104.500365
0
LINE
8
Layer 1
10
79.835435
20
104.500365
11
79.173228
21
104.026426
0
LINE
8
Layer 1
10
79.173228
20
104.026426
11
78.676686
21
103.482011
0
LINE
8
Layer 1
10
78.676686
20
103.482011
11
78.099853
21
102.461177
0
LINE
8
Layer 1
10
78.099853
20
102.461177
11
77.943460
21
101.996710
0
LINE
8
Layer 1
10
77.943460
20
101.996710
11
76.960577
21
101.725099
0
LINE
8
Layer 1
10
76.960577
20
101.725099
11
76.011675
21
101.214868
0
LINE
8
Layer 1
10
76.011675
20
101.214868
11
75.203165
21
100.518105
0
LINE
8
Layer 1
10
75.203165
20
100.518105
11
74.641460
21
99.686900
0
LINE
8
Layer 1
10
74.641460
20
99.686900
11
74.570100
21
99.686900
0
LINE
8
Layer 1
10
74.570100
20
99.686900
11
72.154829
21
99.390277
0
LINE
8
Layer 1
10
72.154829
20
99.390277
11
69.884666
21
98.585903
0
LINE
8
Layer 1
10
69.884666
20
98.585903
11
67.781688
21
97.294862
0
LINE
8
Layer 1
10
67.781688
20
97.294862
11
65.867970
21
95.538240
0
LINE
8
Layer 1
10
65.867970
20
95.538240
11
64.603284
21
93.975489
0
LINE
8
Layer 1
10
64.603284
20
93.975489
11
63.521120
21
92.281220
0
LINE
8
Layer 1
10
63.521120
20
92.281220
11
62.552787
21
90.364199
0
LINE
8
Layer 1
10
62.552787
20
90.364199
11
61.753710
21
88.370680
0
LINE
8
Layer 1
10
61.753710
20
88.370680
11
60.647750
21
84.460140
0
LINE
8
Layer 1
10
60.647750
20
84.460140
11
59.962480
21
80.097170
0
LINE
8
Layer 1
10
59.962480
20
80.097170
11
59.734890
21
76.688525
0
LINE
8
Layer 1
10
59.734890
20
76.688525
11
59.734344
21
73.216862
0
LINE
8
Layer 1
10
59.734344
20
73.216862
11
59.955776
21
69.715590
0
LINE
8
Layer 1
10
59.955776
20
69.715590
11
60.394121
21
66.218117
0
LINE
8
Layer 1
10
60.394121
20
66.218117
11
61.044313
21
62.757852
0
LINE
8
Layer 1
10
61.044313
20
62.757852
11
61.901287
21
59.368205
0
LINE
8
Layer 1
10
61.901287
20
59.368205
11
62.959976
21
56.082583
0
LINE
8
Layer 1
10
62.959976
20
56.082583
11
64.215316
21
52.934395
0
LINE
8
Layer 1
10
64.215316
20
52.934395
11
65.662241
21
49.957050
0
LINE
8
Layer 1
10
65.662241
20
49.957050
11
67.295685
21
47.183957
0
LINE
8
Layer 1
10
67.295685
20
47.183957
11
69.110583
21
44.648524
0
LINE
8
Layer 1
10
69.110583
20
44.648524
11
71.101869
21
42.384161
0
LINE
8
Layer 1
10
71.101869
20
42.384161
11
73.264477
21
40.424275
0
LINE
8
Layer 1
10
73.264477
20
40.424275
11
75.593342
21
38.802275
0
LINE
8
Layer 1
10
75.593342
20
38.802275
11
78.083398
21
37.551571
0
LINE
8
Layer 1
10
78.083398
20
37.551571
11
80.729580
21
36.705570
0
LINE
8
Layer 1
10
80.729580
20
36.705570
11
81.211452
21
36.073547
0
LINE
8
Layer 1
10
81.211452
20
36.073547
11
81.735000
21
35.689570
0
LINE
8
Layer 1
10
81.735000
20
35.689570
11
82.262515
21
36.073546
0
LINE
8
Layer 1
10
82.262515
20
36.073546
11
82.740420
21
36.705570
0
LINE
8
Layer 1
10
82.740420
20
36.705570
11
85.387992
21
37.552004
0
LINE
8
Layer 1
10
85.387992
20
37.552004
11
87.879268
21
38.803031
0
LINE
8
Layer 1
10
87.879268
20
38.803031
11
90.209189
21
40.425254
0
LINE
8
Layer 1
10
90.209189
20
40.425254
11
92.372696
21
42.385275
0
LINE
8
Layer 1
10
92.372696
20
42.385275
11
94.364730
21
44.649697
0
LINE
8
Layer 1
10
94.364730
20
44.649697
11
96.180231
21
47.185122
0
LINE
8
Layer 1
10
96.180231
20
47.185122
11
97.814142
21
49.958155
0
LINE
8
Layer 1
10
97.814142
20
49.958155
11
99.261403
21
52.935396
0
LINE
8
Layer 1
10
99.261403
20
52.935396
11
100.516954
21
56.083450
0
LINE
8
Layer 1
10
100.516954
20
56.083450
11
101.575737
21
59.368919
0
LINE
8
Layer 1
10
101.575737
20
59.368919
11
102.432693
21
62.758405
0
LINE
8
Layer 1
10
102.432693
20
62.758405
11
103.082763
21
66.218512
0
LINE
8
Layer 1
10
103.082763
20
66.218512
11
103.520887
21
69.715842
0
LINE
8
Layer 1
10
103.520887
20
69.715842
11
103.742008
21
73.216998
0
LINE
8
Layer 1
10
103.742008
20
73.216998
11
103.741065
21
76.688583
0
LINE
8
Layer 1
10
103.741065
20
76.688583
11
103.513000
21
80.097200
0
LINE
8
Layer 1
10
103.513000
20
80.097200
11
103.513000
21
80.097200
0
LINE
8
Layer 1
10
81.740300
20
104.267000
11
82.606303
21
104.173843
0
LINE
8
Layer 1
10
82.606303
20
104.173843
11
83.302580
21
103.928045
0
LINE
8
Layer 1
10
83.302580
20
103.928045
11
84.253179
21
103.180558
0
LINE
8
Layer 1
10
84.253179
20
103.180558
11
84.726535
21
102.428604
0
LINE
8
Layer 1
10
84.726535
20
102.428604
11
84.857090
21
102.076250
0
LINE
8
Layer 1
10
84.857090
20
102.076250
11
83.924418
21
101.882987
0
LINE
8
Layer 1
10
83.924418
20
101.882987
11
83.079241
21
101.474524
0
LINE
8
Layer 1
10
83.079241
20
101.474524
11
82.357666
21
100.874112
0
LINE
8
Layer 1
10
82.357666
20
100.874112
11
81.795800
21
100.105000
0
LINE
8
Layer 1
10
81.795800
20
100.105000
11
81.740238
21
100.030917
0
LINE
8
Layer 1
10
81.740238
20
100.030917
11
81.684675
21
100.105000
0
LINE
8
Layer 1
10
81.684675
20
100.105000
11
81.121418
21
100.871016
0
LINE
8
Layer 1
10
81.121418
20
100.871016
11
80.399477
21
101.468475
0
LINE
8
Layer 1
10
80.399477
20
101.468475
11
79.554828
21
101.874337
0
LINE
8
Layer 1
10
79.554828
20
101.874337
11
78.623445
21
102.065560
0
LINE
8
Layer 1
10
78.623445
20
102.065560
11
78.754035
21
102.424064
0
LINE
8
Layer 1
10
78.754035
20
102.424064
11
79.227406
21
103.179195
0
LINE
8
Layer 1
10
79.227406
20
103.179195
11
80.178010
21
103.927868
0
LINE
8
Layer 1
10
80.178010
20
103.927868
11
80.874291
21
104.173819
0
LINE
8
Layer 1
10
80.874291
20
104.173819
11
81.740300
21
104.267000
0
LINE
8
Layer 1
10
81.740300
20
104.267000
11
81.740300
21
104.267000
0
LINE
8
Layer 1
10
80.263930
20
100.864460
11
81.059410
21
100.151757
0
LINE
8
Layer 1
10
81.059410
20
100.151757
11
81.528640
21
99.192300
0
LINE
8
Layer 1
10
81.528640
20
99.192300
11
81.740306
21
98.861571
0
LINE
8
Layer 1
10
81.740306
20
98.861571
11
81.951972
21
99.192300
0
LINE
8
Layer 1
10
81.951972
20
99.192300
11
82.421202
21
100.151757
0
LINE
8
Layer 1
10
82.421202
20
100.151757
11
83.216682
21
100.864460
0
LINE
8
Layer 1
10
83.216682
20
100.864460
11
84.508400
21
101.372657
0
LINE
8
Layer 1
10
84.508400
20
101.372657
11
85.895025
21
101.308864
0
LINE
8
Layer 1
10
85.895025
20
101.308864
11
87.134625
21
100.684213
0
LINE
8
Layer 1
10
87.134625
20
100.684213
11
88.010922
21
99.607690
0
LINE
8
Layer 1
10
88.010922
20
99.607690
11
86.688002
21
99.274315
0
LINE
8
Layer 1
10
86.688002
20
99.274315
11
85.689573
21
98.843525
0
LINE
8
Layer 1
10
85.689573
20
98.843525
11
84.801522
21
98.215985
0
LINE
8
Layer 1
10
84.801522
20
98.215985
11
83.865989
21
97.191780
0
LINE
8
Layer 1
10
83.865989
20
97.191780
11
83.141376
21
96.022578
0
LINE
8
Layer 1
10
83.141376
20
96.022578
11
82.643585
21
94.740275
0
LINE
8
Layer 1
10
82.643585
20
94.740275
11
82.388522
21
93.376765
0
LINE
8
Layer 1
10
82.388522
20
93.376765
11
82.370218
21
92.365204
0
LINE
8
Layer 1
10
82.370218
20
92.365204
11
82.500551
21
91.499952
0
LINE
8
Layer 1
10
82.500551
20
91.499952
11
82.759737
21
90.769870
0
LINE
8
Layer 1
10
82.759737
20
90.769870
11
83.127990
21
90.163818
0
LINE
8
Layer 1
10
83.127990
20
90.163818
11
84.112553
21
89.279253
0
LINE
8
Layer 1
10
84.112553
20
89.279253
11
85.295957
21
88.757146
0
LINE
8
Layer 1
10
85.295957
20
88.757146
11
86.519917
21
88.508387
0
LINE
8
Layer 1
10
86.519917
20
88.508387
11
87.626147
21
88.443864
0
LINE
8
Layer 1
10
87.626147
20
88.443864
11
88.852282
21
88.511085
0
LINE
8
Layer 1
10
88.852282
20
88.511085
11
89.451108
21
88.750821
0
LINE
8
Layer 1
10
89.451108
20
88.750821
11
89.930128
21
89.412980
0
LINE
8
Layer 1
10
89.930128
20
89.412980
11
90.247917
21
90.411986
0
LINE
8
Layer 1
10
90.247917
20
90.411986
11
90.363052
21
91.662265
0
LINE
8
Layer 1
10
90.363052
20
91.662265
11
90.245263
21
92.912521
0
LINE
8
Layer 1
10
90.245263
20
92.912521
11
89.922826
21
93.911477
0
LINE
8
Layer 1
10
89.922826
20
93.911477
11
89.442139
21
94.573586
0
LINE
8
Layer 1
10
89.442139
20
94.573586
11
88.849600
21
94.813300
0
LINE
8
Layer 1
10
88.849600
20
94.813300
11
88.410682
21
94.723673
0
LINE
8
Layer 1
10
88.410682
20
94.723673
11
87.941750
21
94.405843
0
LINE
8
Layer 1
10
87.941750
20
94.405843
11
87.553681
21
93.786389
0
LINE
8
Layer 1
10
87.553681
20
93.786389
11
87.357350
21
92.791890
0
LINE
8
Layer 1
10
87.357350
20
92.791890
11
87.421263
21
91.900576
0
LINE
8
Layer 1
10
87.421263
20
91.900576
11
87.672203
21
91.035059
0
LINE
8
Layer 1
10
87.672203
20
91.035059
11
88.068001
21
90.365995
0
LINE
8
Layer 1
10
88.068001
20
90.365995
11
88.566490
21
90.064040
0
LINE
8
Layer 1
10
88.566490
20
90.064040
11
88.835207
21
90.148996
0
LINE
8
Layer 1
10
88.835207
20
90.148996
11
89.073166
21
90.432141
0
LINE
8
Layer 1
10
89.073166
20
90.432141
11
89.381406
21
91.334040
0
LINE
8
Layer 1
10
89.381406
20
91.334040
11
89.374130
21
92.308698
0
LINE
8
Layer 1
10
89.374130
20
92.308698
11
89.214719
21
92.722234
0
LINE
8
Layer 1
10
89.214719
20
92.722234
11
88.910448
21
92.948000
0
LINE
8
Layer 1
10
88.910448
20
92.948000
11
88.680623
21
92.912894
0
LINE
8
Layer 1
10
88.680623
20
92.912894
11
88.542678
21
92.725750
0
LINE
8
Layer 1
10
88.542678
20
92.725750
11
88.687206
21
92.388076
0
LINE
8
Layer 1
10
88.687206
20
92.388076
11
88.849594
21
91.667420
0
LINE
8
Layer 1
10
88.849594
20
91.667420
11
88.683569
21
91.195760
0
LINE
8
Layer 1
10
88.683569
20
91.195760
11
88.348872
21
91.243757
0
LINE
8
Layer 1
10
88.348872
20
91.243757
11
88.042949
21
91.773461
0
LINE
8
Layer 1
10
88.042949
20
91.773461
11
87.963241
21
92.746920
0
LINE
8
Layer 1
10
87.963241
20
92.746920
11
88.145679
21
93.544098
0
LINE
8
Layer 1
10
88.145679
20
93.544098
11
88.430561
21
93.933240
0
LINE
8
Layer 1
10
88.430561
20
93.933240
11
88.828427
21
94.069830
0
LINE
8
Layer 1
10
88.828427
20
94.069830
11
89.153657
21
93.915421
0
LINE
8
Layer 1
10
89.153657
20
93.915421
11
89.479632
21
93.459635
0
LINE
8
Layer 1
10
89.479632
20
93.459635
11
89.730697
21
92.713634
0
LINE
8
Layer 1
10
89.730697
20
92.713634
11
89.831197
21
91.688580
0
LINE
8
Layer 1
10
89.831197
20
91.688580
11
89.706595
21
90.665679
0
LINE
8
Layer 1
10
89.706595
20
90.665679
11
89.336426
21
89.825586
0
LINE
8
Layer 1
10
89.336426
20
89.825586
11
88.726148
21
89.391793
0
LINE
8
Layer 1
10
88.726148
20
89.391793
11
88.332673
21
89.397099
0
LINE
8
Layer 1
10
88.332673
20
89.397099
11
87.881217
21
89.587790
0
LINE
8
Layer 1
10
87.881217
20
89.587790
11
87.196775
21
90.350988
0
LINE
8
Layer 1
10
87.196775
20
90.350988
11
86.763356
21
91.361488
0
LINE
8
Layer 1
10
86.763356
20
91.361488
11
86.587904
21
92.486587
0
LINE
8
Layer 1
10
86.587904
20
92.486587
11
86.677367
21
93.593580
0
LINE
8
Layer 1
10
86.677367
20
93.593580
11
86.870223
21
94.240485
0
LINE
8
Layer 1
10
86.870223
20
94.240485
11
87.297483
21
95.034234
0
LINE
8
Layer 1
10
87.297483
20
95.034234
11
88.035792
21
95.706935
0
LINE
8
Layer 1
10
88.035792
20
95.706935
11
88.545542
21
95.914178
0
LINE
8
Layer 1
10
88.545542
20
95.914178
11
89.161797
21
95.990700
0
LINE
8
Layer 1
10
89.161797
20
95.990700
11
91.064437
21
95.738726
0
LINE
8
Layer 1
10
91.064437
20
95.738726
11
92.871580
21
94.994875
0
LINE
8
Layer 1
10
92.871580
20
94.994875
11
94.554203
21
93.777257
0
LINE
8
Layer 1
10
94.554203
20
93.777257
11
96.083287
21
92.103980
0
LINE
8
Layer 1
10
96.083287
20
92.103980
11
95.686372
21
91.270791
0
LINE
8
Layer 1
10
95.686372
20
91.270791
11
94.701835
21
89.913232
0
LINE
8
Layer 1
10
94.701835
20
89.913232
11
92.962739
21
88.220314
0
LINE
8
Layer 1
10
92.962739
20
88.220314
11
90.302147
21
86.381050
0
LINE
8
Layer 1
10
90.302147
20
86.381050
11
90.069314
21
86.261988
0
LINE
8
Layer 1
10
90.069314
20
86.261988
11
88.155057
21
86.877805
0
LINE
8
Layer 1
10
88.155057
20
86.877805
11
86.153484
21
87.037216
0
LINE
8
Layer 1
10
86.153484
20
87.037216
11
84.300610
21
86.824779
0
LINE
8
Layer 1
10
84.300610
20
86.824779
11
82.473134
21
86.452488
0
LINE
8
Layer 1
10
82.473134
20
86.452488
11
81.742885
21
86.333426
0
LINE
8
Layer 1
10
81.742885
20
86.333426
11
81.742900
21
86.333400
0
LINE
8
Layer 1
10
81.742900
20
86.333400
11
81.012651
21
86.452462
0
LINE
8
Layer 1
10
81.012651
20
86.452462
11
79.185175
21
86.824753
0
LINE
8
Layer 1
10
79.185175
20
86.824753
11
77.332301
21
87.037190
0
LINE
8
Layer 1
10
77.332301
20
87.037190
11
75.329738
21
86.876787
0
LINE
8
Layer 1
10
75.329738
20
86.876787
11
73.416471
21
86.261962
0
LINE
8
Layer 1
10
73.416471
20
86.261962
11
73.183638
21
86.381024
0
LINE
8
Layer 1
10
73.183638
20
86.381024
11
70.523792
21
88.221406
0
LINE
8
Layer 1
10
70.523792
20
88.221406
11
68.783952
21
89.914200
0
LINE
8
Layer 1
10
68.783952
20
89.914200
11
67.798669
21
91.271139
0
LINE
8
Layer 1
10
67.798669
20
91.271139
11
67.402498
21
92.103954
0
LINE
8
Layer 1
10
67.402498
20
92.103954
11
68.931582
21
93.778349
0
LINE
8
Layer 1
10
68.931582
20
93.778349
11
70.614205
21
94.995843
0
LINE
8
Layer 1
10
70.614205
20
94.995843
11
72.421348
21
95.739072
0
LINE
8
Layer 1
10
72.421348
20
95.739072
11
74.323988
21
95.990674
0
LINE
8
Layer 1
10
74.323988
20
95.990674
11
74.940244
21
95.914043
0
LINE
8
Layer 1
10
74.940244
20
95.914043
11
75.449995
21
95.706536
0
LINE
8
Layer 1
10
75.449995
20
95.706536
11
76.188306
21
95.033213
0
LINE
8
Layer 1
10
76.188306
20
95.033213
11
76.615565
21
94.239340
0
LINE
8
Layer 1
10
76.615565
20
94.239340
11
76.808418
21
93.593554
0
LINE
8
Layer 1
10
76.808418
20
93.593554
11
76.897880
21
92.486935
0
LINE
8
Layer 1
10
76.897880
20
92.486935
11
76.722429
21
91.360473
0
LINE
8
Layer 1
10
76.722429
20
91.360473
11
76.289010
21
90.349103
0
LINE
8
Layer 1
10
76.289010
20
90.349103
11
75.604568
21
89.587764
0
LINE
8
Layer 1
10
75.604568
20
89.587764
11
75.153871
21
89.397073
0
LINE
8
Layer 1
10
75.153871
20
89.397073
11
74.760753
21
89.391766
0
LINE
8
Layer 1
10
74.760753
20
89.391766
11
74.150351
21
89.825558
0
LINE
8
Layer 1
10
74.150351
20
89.825558
11
73.779562
21
90.665651
0
LINE
8
Layer 1
10
73.779562
20
90.665651
11
73.654588
21
91.688554
0
LINE
8
Layer 1
10
73.654588
20
91.688554
11
73.754716
21
92.718070
0
LINE
8
Layer 1
10
73.754716
20
92.718070
11
74.005160
21
93.463575
0
LINE
8
Layer 1
10
74.005160
20
93.463575
11
74.331011
21
93.916882
0
LINE
8
Layer 1
10
74.331011
20
93.916882
11
74.657358
21
94.069804
0
LINE
8
Layer 1
10
74.657358
20
94.069804
11
75.055225
21
93.937182
0
LINE
8
Layer 1
10
75.055225
20
93.937182
11
75.340106
21
93.548536
0
LINE
8
Layer 1
10
75.340106
20
93.548536
11
75.522544
21
92.746894
0
LINE
8
Layer 1
10
75.522544
20
92.746894
11
75.443955
21
91.768598
0
LINE
8
Layer 1
10
75.443955
20
91.768598
11
75.137907
21
91.238770
0
LINE
8
Layer 1
10
75.137907
20
91.238770
11
74.802589
21
91.193130
0
LINE
8
Layer 1
10
74.802589
20
91.193130
11
74.636191
21
91.667394
0
LINE
8
Layer 1
10
74.636191
20
91.667394
11
74.803540
21
92.393012
0
LINE
8
Layer 1
10
74.803540
20
92.393012
11
74.943107
21
92.725724
0
LINE
8
Layer 1
10
74.943107
20
92.725724
11
74.805162
21
92.912868
0
LINE
8
Layer 1
10
74.805162
20
92.912868
11
74.575337
21
92.947974
0
LINE
8
Layer 1
10
74.575337
20
92.947974
11
74.271066
21
92.722582
0
LINE
8
Layer 1
10
74.271066
20
92.722582
11
74.111655
21
92.309667
0
LINE
8
Layer 1
10
74.111655
20
92.309667
11
74.104379
21
91.334014
0
LINE
8
Layer 1
10
74.104379
20
91.334014
11
74.412618
21
90.430134
0
LINE
8
Layer 1
10
74.412618
20
90.430134
11
74.650577
21
90.146741
0
LINE
8
Layer 1
10
74.650577
20
90.146741
11
74.919295
21
90.064014
0
LINE
8
Layer 1
10
74.919295
20
90.064014
11
75.417785
21
90.370062
0
LINE
8
Layer 1
10
75.417785
20
90.370062
11
75.813584
21
91.036026
0
LINE
8
Layer 1
10
75.813584
20
91.036026
11
76.064523
21
91.897947
0
LINE
8
Layer 1
10
76.064523
20
91.897947
11
76.128435
21
92.791864
0
LINE
8
Layer 1
10
76.128435
20
92.791864
11
75.929502
21
93.790829
0
LINE
8
Layer 1
10
75.929502
20
93.790829
11
75.538804
21
94.409796
0
LINE
8
Layer 1
10
75.538804
20
94.409796
11
75.069213
21
94.725156
0
LINE
8
Layer 1
10
75.069213
20
94.725156
11
74.633600
21
94.813300
0
LINE
8
Layer 1
10
74.633600
20
94.813300
11
74.041471
21
94.573564
0
LINE
8
Layer 1
10
74.041471
20
94.573564
11
73.561708
21
93.911405
0
LINE
8
Layer 1
10
73.561708
20
93.911405
11
73.240198
21
92.912399
0
LINE
8
Layer 1
10
73.240198
20
92.912399
11
73.122830
21
91.662120
0
LINE
8
Layer 1
10
73.122830
20
91.662120
11
73.237593
21
90.411841
0
LINE
8
Layer 1
10
73.237593
20
90.411841
11
73.554762
21
89.412835
0
LINE
8
Layer 1
10
73.554762
20
89.412835
11
74.033657
21
88.750676
0
LINE
8
Layer 1
10
74.033657
20
88.750676
11
74.633600
21
88.510940
0
LINE
8
Layer 1
10
74.633600
20
88.510940
11
75.859735
21
88.442603
0
LINE
8
Layer 1
10
75.859735
20
88.442603
11
76.965966
21
88.507080
0
LINE
8
Layer 1
10
76.965966
20
88.507080
11
78.189926
21
88.756010
0
LINE
8
Layer 1
10
78.189926
20
88.756010
11
79.373330
21
89.278411
0
LINE
8
Layer 1
10
79.373330
20
89.278411
11
80.357894
21
90.163301
0
LINE
8
Layer 1
10
80.357894
20
90.163301
11
80.726146
21
90.769498
0
LINE
8
Layer 1
10
80.726146
20
90.769498
11
80.985332
21
91.499699
0
LINE
8
Layer 1
10
80.985332
20
91.499699
11
81.115665
21
92.365030
0
LINE
8
Layer 1
10
81.115665
20
92.365030
11
81.097360
21
93.376620
0
LINE
8
Layer 1
10
81.097360
20
93.376620
11
80.842297
21
94.740130
0
LINE
8
Layer 1
10
80.842297
20
94.740130
11
80.344506
21
96.022433
0
LINE
8
Layer 1
10
80.344506
20
96.022433
11
79.619893
21
97.191635
0
LINE
8
Layer 1
10
79.619893
20
97.191635
11
78.684360
21
98.215840
0
LINE
8
Layer 1
10
78.684360
20
98.215840
11
77.796309
21
98.843380
0
LINE
8
Layer 1
10
77.796309
20
98.843380
11
76.797880
21
99.274170
0
LINE
8
Layer 1
10
76.797880
20
99.274170
11
75.474960
21
99.607545
0
LINE
8
Layer 1
10
75.474960
20
99.607545
11
76.350773
21
100.682000
0
LINE
8
Layer 1
10
76.350773
20
100.682000
11
77.588721
21
101.305688
0
LINE
8
Layer 1
10
77.588721
20
101.305688
11
78.973406
21
101.370090
0
LINE
8
Layer 1
10
78.973406
20
101.370090
11
80.263900
21
100.864000
0
LINE
8
Layer 1
10
80.263900
20
100.864000
11
80.263930
21
100.864460
0
LINE
8
Layer 1
10
67.672430
20
76.522860
11
67.407847
21
73.898200
0
LINE
8
Layer 1
10
67.407847
20
73.898200
11
67.423043
21
70.828659
0
LINE
8
Layer 1
10
67.423043
20
70.828659
11
67.704401
21
67.777806
0
LINE
8
Layer 1
10
67.704401
20
67.777806
11
68.249571
21
64.762899
0
LINE
8
Layer 1
10
68.249571
20
64.762899
11
69.056200
21
61.801200
0
LINE
8
Layer 1
10
69.056200
20
61.801200
11
70.505077
21
58.012216
0
LINE
8
Layer 1
10
70.505077
20
58.012216
11
72.337030
21
54.392880
0
LINE
8
Layer 1
10
72.337030
20
54.392880
11
71.221769
21
53.600454
0
LINE
8
Layer 1
10
71.221769
20
53.600454
11
70.042761
21
53.052105
0
LINE
8
Layer 1
10
70.042761
20
53.052105
11
68.254510
21
52.540800
0
LINE
8
Layer 1
10
68.254510
20
52.540800
11
66.960685
21
55.376827
0
LINE
8
Layer 1
10
66.960685
20
55.376827
11
65.841391
21
58.376251
0
LINE
8
Layer 1
10
65.841391
20
58.376251
11
64.902488
21
61.503294
0
LINE
8
Layer 1
10
64.902488
20
61.503294
11
64.149837
21
64.722176
0
LINE
8
Layer 1
10
64.149837
20
64.722176
11
63.589298
21
67.997117
0
LINE
8
Layer 1
10
63.589298
20
67.997117
11
63.226730
21
71.292338
0
LINE
8
Layer 1
10
63.226730
20
71.292338
11
63.067994
21
74.572059
0
LINE
8
Layer 1
10
63.067994
20
74.572059
11
63.118950
21
77.800500
0
LINE
8
Layer 1
10
63.118950
20
77.800500
11
65.336435
21
76.952235
0
LINE
8
Layer 1
10
65.336435
20
76.952235
11
67.672400
21
76.527900
0
LINE
8
Layer 1
10
67.672400
20
76.527900
11
67.672430
21
76.522860
0
LINE
8
Layer 1
10
63.134830
20
78.266460
11
63.599049
21
82.381342
0
LINE
8
Layer 1
10
63.599049
20
82.381342
11
64.443523
21
86.001866
0
LINE
8
Layer 1
10
64.443523
20
86.001866
11
65.625835
21
89.102987
0
LINE
8
Layer 1
10
65.625835
20
89.102987
11
67.103570
21
91.659660
0
LINE
8
Layer 1
10
67.103570
20
91.659660
11
67.641748
21
90.670574
0
LINE
8
Layer 1
10
67.641748
20
90.670574
11
68.743983
21
89.287342
0
LINE
8
Layer 1
10
68.743983
20
89.287342
11
70.493124
21
87.665489
0
LINE
8
Layer 1
10
70.493124
20
87.665489
11
72.972020
21
85.960540
0
LINE
8
Layer 1
10
72.972020
20
85.960540
11
71.833647
21
85.134556
0
LINE
8
Layer 1
10
71.833647
20
85.134556
11
70.853000
21
84.149388
0
LINE
8
Layer 1
10
70.853000
20
84.149388
11
70.020624
21
83.041561
0
LINE
8
Layer 1
10
70.020624
20
83.041561
11
69.327060
21
81.847599
0
LINE
8
Layer 1
10
69.327060
20
81.847599
11
68.318545
21
79.347372
0
LINE
8
Layer 1
10
68.318545
20
79.347372
11
67.751800
21
76.940910
0
LINE
8
Layer 1
10
67.751800
20
76.940910
11
65.379008
21
77.383120
0
LINE
8
Layer 1
10
65.379008
20
77.383120
11
63.134800
21
78.271500
0
LINE
8
Layer 1
10
63.134800
20
78.271500
11
63.134830
21
78.266460
0
LINE
8
Layer 1
10
72.543400
20
54.020060
11
74.361953
21
51.173807
0
LINE
8
Layer 1
10
74.361953
20
51.173807
11
76.120231
21
48.916915
0
LINE
8
Layer 1
10
76.120231
20
48.916915
11
77.766889
21
47.200766
0
LINE
8
Layer 1
10
77.766889
20
47.200766
11
79.250580
21
45.976740
0
LINE
8
Layer 1
10
79.250580
20
45.976740
11
78.606948
21
44.781156
0
LINE
8
Layer 1
10
78.606948
20
44.781156
11
77.802323
21
43.774892
0
LINE
8
Layer 1
10
77.802323
20
43.774892
11
76.443300
21
42.523700
0
LINE
8
Layer 1
10
76.443300
20
42.523700
11
74.152547
21
44.355153
0
LINE
8
Layer 1
10
74.152547
20
44.355153
11
72.049566
21
46.604564
0
LINE
8
Layer 1
10
72.049566
20
46.604564
11
70.144528
21
49.220587
0
LINE
8
Layer 1
10
70.144528
20
49.220587
11
68.447600
21
52.151880
0
LINE
8
Layer 1
10
68.447600
20
52.151880
11
70.287113
21
52.698573
0
LINE
8
Layer 1
10
70.287113
20
52.698573
11
71.439805
21
53.246862
0
LINE
8
Layer 1
10
71.439805
20
53.246862
11
72.543400
21
54.025100
0
LINE
8
Layer 1
10
72.543400
20
54.025100
11
72.543400
21
54.020060
0
LINE
8
Layer 1
10
79.618350
20
45.717450
11
80.640124
21
45.067731
0
LINE
8
Layer 1
10
80.640124
20
45.067731
11
81.735010
21
44.550640
0
LINE
8
Layer 1
10
81.735010
20
44.550640
11
82.829896
21
45.067731
0
LINE
8
Layer 1
10
82.829896
20
45.067731
11
83.851670
21
45.717450
0
LINE
8
Layer 1
10
83.851670
20
45.717450
11
84.490803
21
44.555681
0
LINE
8
Layer 1
10
84.490803
20
44.555681
11
85.267851
21
43.571019
0
LINE
8
Layer 1
10
85.267851
20
43.571019
11
86.656250
21
42.277870
0
LINE
8
Layer 1
10
86.656250
20
42.277870
11
85.273413
21
41.493879
0
LINE
8
Layer 1
10
85.273413
20
41.493879
11
83.814630
21
40.862350
0
LINE
8
Layer 1
10
83.814630
20
40.862350
11
83.798755
21
40.968183
0
LINE
8
Layer 1
10
83.798755
20
40.968183
11
83.459428
21
41.611863
0
LINE
8
Layer 1
10
83.459428
20
41.611863
11
82.874039
21
41.996087
0
LINE
8
Layer 1
10
82.874039
20
41.996087
11
81.727075
21
42.230243
0
LINE
8
Layer 1
10
81.727075
20
42.230243
11
80.580107
21
41.991126
0
LINE
8
Layer 1
10
80.580107
20
41.991126
11
79.994718
21
41.606282
0
LINE
8
Layer 1
10
79.994718
20
41.606282
11
79.655395
21
40.968183
0
LINE
8
Layer 1
10
79.655395
20
40.968183
11
79.639520
21
40.862350
0
LINE
8
Layer 1
10
79.639520
20
40.862350
11
78.180737
21
41.493879
0
LINE
8
Layer 1
10
78.180737
20
41.493879
11
76.797900
21
42.277870
0
LINE
8
Layer 1
10
76.797900
20
42.277870
11
78.202138
21
43.576446
0
LINE
8
Layer 1
10
78.202138
20
43.576446
11
78.980414
21
44.561790
0
LINE
8
Layer 1
10
78.980414
20
44.561790
11
79.618300
21
45.722500
0
LINE
8
Layer 1
10
79.618300
20
45.722500
11
79.618350
21
45.717450
0
LINE
8
Layer 1
10
84.230030
20
45.982033
11
85.715953
21
47.205313
0
LINE
8
Layer 1
10
85.715953
20
47.205313
11
87.362363
21
48.922208
0
LINE
8
Layer 1
10
87.362363
20
48.922208
11
89.119401
21
51.179845
0
LINE
8
Layer 1
10
89.119401
20
51.179845
11
90.937210
21
54.025353
0
LINE
8
Layer 1
10
90.937210
20
54.025353
11
92.041183
21
53.247106
0
LINE
8
Layer 1
10
92.041183
20
53.247106
11
93.194766
21
52.698799
0
LINE
8
Layer 1
10
93.194766
20
52.698799
11
95.035600
21
52.152103
0
LINE
8
Layer 1
10
95.035600
20
52.152103
11
93.340907
21
49.220815
0
LINE
8
Layer 1
10
93.340907
20
49.220815
11
91.437605
21
46.604790
0
LINE
8
Layer 1
10
91.437605
20
46.604790
11
89.334376
21
44.355378
0
LINE
8
Layer 1
10
89.334376
20
44.355378
11
87.039900
21
42.523923
0
LINE
8
Layer 1
10
87.039900
20
42.523923
11
85.678888
21
43.775553
0
LINE
8
Layer 1
10
85.678888
20
43.775553
11
84.875498
21
44.783294
0
LINE
8
Layer 1
10
84.875498
20
44.783294
11
84.232600
21
45.981800
0
LINE
8
Layer 1
10
84.232600
20
45.981800
11
84.230030
21
45.982033
0
LINE
8
Layer 1
10
91.154170
20
54.403713
11
92.986123
21
58.023049
0
LINE
8
Layer 1
10
92.986123
20
58.023049
11
94.435000
21
61.812033
0
LINE
8
Layer 1
10
94.435000
20
61.812033
11
95.236379
21
64.774972
0
LINE
8
Layer 1
10
95.236379
20
64.774972
11
95.776236
21
67.790653
0
LINE
8
Layer 1
10
95.776236
20
67.790653
11
96.052250
21
70.841816
0
LINE
8
Layer 1
10
96.052250
20
70.841816
11
96.062100
21
73.911200
0
LINE
8
Layer 1
10
96.062100
20
73.911200
11
95.797517
21
76.535860
0
LINE
8
Layer 1
10
95.797517
20
76.535860
11
98.139185
21
76.961838
0
LINE
8
Layer 1
10
98.139185
20
76.961838
11
100.361577
21
77.813800
0
LINE
8
Layer 1
10
100.361577
20
77.813800
11
100.411016
21
74.585359
0
LINE
8
Layer 1
10
100.411016
20
74.585359
11
100.251568
21
71.305632
0
LINE
8
Layer 1
10
100.251568
20
71.305632
11
99.888909
21
68.010403
0
LINE
8
Layer 1
10
99.888909
20
68.010403
11
99.328711
21
64.735454
0
LINE
8
Layer 1
10
99.328711
20
64.735454
11
98.576649
21
61.516566
0
LINE
8
Layer 1
10
98.576649
20
61.516566
11
97.638397
21
58.389523
0
LINE
8
Layer 1
10
97.638397
20
58.389523
11
96.519628
21
55.390107
0
LINE
8
Layer 1
10
96.519628
20
55.390107
11
95.226017
21
52.554100
0
LINE
8
Layer 1
10
95.226017
20
52.554100
11
93.447415
21
53.061088
0
LINE
8
Layer 1
10
93.447415
20
53.061088
11
92.270358
21
53.609645
0
LINE
8
Layer 1
10
92.270358
20
53.609645
11
91.156800
21
54.403500
0
LINE
8
Layer 1
10
91.156800
20
54.403500
11
91.154170
21
54.403713
0
LINE
8
Layer 1
10
95.742040
20
76.948813
11
95.172318
21
79.343000
0
LINE
8
Layer 1
10
95.172318
20
79.343000
11
94.158841
21
81.824748
0
LINE
8
Layer 1
10
94.158841
20
81.824748
11
93.463913
21
83.013888
0
LINE
8
Layer 1
10
93.463913
20
83.013888
11
92.631909
21
84.123436
0
LINE
8
Layer 1
10
92.631909
20
84.123436
11
91.654115
21
85.119563
0
LINE
8
Layer 1
10
91.654115
20
85.119563
11
90.521820
21
85.968443
0
LINE
8
Layer 1
10
90.521820
20
85.968443
11
93.000717
21
87.667810
0
LINE
8
Layer 1
10
93.000717
20
87.667810
11
94.749859
21
89.290282
0
LINE
8
Layer 1
10
94.749859
20
89.290282
11
95.852094
21
90.676614
0
LINE
8
Layer 1
10
95.852094
20
90.676614
11
96.390270
21
91.667563
0
LINE
8
Layer 1
10
96.390270
20
91.667563
11
97.860936
21
89.110904
0
LINE
8
Layer 1
10
97.860936
20
89.110904
11
99.041390
21
86.009784
0
LINE
8
Layer 1
10
99.041390
20
86.009784
11
99.888469
21
82.389253
0
LINE
8
Layer 1
10
99.888469
20
82.389253
11
100.359010
21
78.274363
0
LINE
8
Layer 1
10
100.359010
20
78.274363
11
98.114545
21
77.388459
0
LINE
8
Layer 1
10
98.114545
20
77.388459
11
95.742000
21
76.948600
0
LINE
8
Layer 1
10
95.742000
20
76.948600
11
95.742040
21
76.948813
0
LINE
8
Layer 1
10
79.374900
20
37.970300
11
76.962944
21
38.968256
0
LINE
8
Layer 1
10
76.962944
20
38.968256
11
74.715590
21
40.295980
0
LINE
8
Layer 1
10
74.715590
20
40.295980
11
72.138550
21
42.375600
0
LINE
8
Layer 1
10
72.138550
20
42.375600
11
70.270590
21
44.336160
0
LINE
8
Layer 1
10
70.270590
20
44.336160
11
69.114360
21
45.775490
0
LINE
8
Layer 1
10
69.114360
20
45.775490
11
66.675749
21
49.486680
0
LINE
8
Layer 1
10
66.675749
20
49.486680
11
64.690500
21
53.458900
0
LINE
8
Layer 1
10
64.690500
20
53.458900
11
63.161277
21
57.448423
0
LINE
8
Layer 1
10
63.161277
20
57.448423
11
61.973230
21
61.552490
0
LINE
8
Layer 1
10
61.973230
20
61.552490
11
61.094650
21
65.829502
0
LINE
8
Layer 1
10
61.094650
20
65.829502
11
60.552420
21
70.162020
0
LINE
8
Layer 1
10
60.552420
20
70.162020
11
60.345200
21
74.461703
0
LINE
8
Layer 1
10
60.345200
20
74.461703
11
60.499503
21
78.763610
0
LINE
8
Layer 1
10
60.499503
20
78.763610
11
61.086877
21
83.340900
0
LINE
8
Layer 1
10
61.086877
20
83.340900
11
61.571155
21
85.586893
0
LINE
8
Layer 1
10
61.571155
20
85.586893
11
62.219297
21
87.791190
0
LINE
8
Layer 1
10
62.219297
20
87.791190
11
62.971527
21
89.757018
0
LINE
8
Layer 1
10
62.971527
20
89.757018
11
63.888817
21
91.651460
0
LINE
8
Layer 1
10
63.888817
20
91.651460
11
65.022780
21
93.493728
0
LINE
8
Layer 1
10
65.022780
20
93.493728
11
66.386477
21
95.173060
0
LINE
8
Layer 1
10
66.386477
20
95.173060
11
67.863122
21
96.527682
0
LINE
8
Layer 1
10
67.863122
20
96.527682
11
69.532367
21
97.636330
0
LINE
8
Layer 1
10
69.532367
20
97.636330
11
71.064307
21
98.326892
0
LINE
8
Layer 1
10
71.064307
20
98.326892
11
71.879223
21
98.591475
0
LINE
8
Layer 1
10
71.879223
20
98.591475
11
72.699430
21
98.795204
0
LINE
8
Layer 1
10
72.699430
20
98.795204
11
74.731430
21
98.961891
0
LINE
8
Layer 1
10
74.731430
20
98.961891
11
76.328707
21
98.754568
0
LINE
8
Layer 1
10
76.328707
20
98.754568
11
77.813820
21
98.131100
0
LINE
8
Layer 1
10
77.813820
20
98.131100
11
78.749244
21
97.319037
0
LINE
8
Layer 1
10
78.749244
20
97.319037
11
79.550477
21
96.260166
0
LINE
8
Layer 1
10
79.550477
20
96.260166
11
80.144839
21
94.936878
0
LINE
8
Layer 1
10
80.144839
20
94.936878
11
80.459650
21
93.331560
0
LINE
8
Layer 1
10
80.459650
20
93.331560
11
80.404413
21
92.123883
0
LINE
8
Layer 1
10
80.404413
20
92.123883
11
80.058435
21
91.170578
0
LINE
8
Layer 1
10
80.058435
20
91.170578
11
79.502546
21
90.442995
0
LINE
8
Layer 1
10
79.502546
20
90.442995
11
78.817581
21
89.912485
0
LINE
8
Layer 1
10
78.817581
20
89.912485
11
77.383747
21
89.328087
0
LINE
8
Layer 1
10
77.383747
20
89.328087
11
76.403590
21
89.188190
0
LINE
8
Layer 1
10
76.403590
20
89.188190
11
76.323885
21
89.286747
0
LINE
8
Layer 1
10
76.323885
20
89.286747
11
76.591444
21
89.659148
0
LINE
8
Layer 1
10
76.591444
20
89.659148
11
77.114946
21
90.560341
0
LINE
8
Layer 1
10
77.114946
20
90.560341
11
77.427856
21
91.592257
0
LINE
8
Layer 1
10
77.427856
20
91.592257
11
77.530919
21
92.670310
0
LINE
8
Layer 1
10
77.530919
20
92.670310
11
77.424880
21
93.709918
0
LINE
8
Layer 1
10
77.424880
20
93.709918
11
77.016720
21
94.862220
0
LINE
8
Layer 1
10
77.016720
20
94.862220
11
76.330500
21
95.792518
0
LINE
8
Layer 1
10
76.330500
20
95.792518
11
75.393753
21
96.413749
0
LINE
8
Layer 1
10
75.393753
20
96.413749
11
74.234010
21
96.638848
0
LINE
8
Layer 1
10
74.234010
20
96.638848
11
72.400988
21
96.412340
0
LINE
8
Layer 1
10
72.400988
20
96.412340
11
70.698190
21
95.777300
0
LINE
8
Layer 1
10
70.698190
20
95.777300
11
69.152653
21
94.800452
0
LINE
8
Layer 1
10
69.152653
20
94.800452
11
67.791410
21
93.548518
0
LINE
8
Layer 1
10
67.791410
20
93.548518
11
66.661848
21
92.141267
0
LINE
8
Layer 1
10
66.661848
20
92.141267
11
65.706165
21
90.607015
0
LINE
8
Layer 1
10
65.706165
20
90.607015
11
64.906753
21
88.982475
0
LINE
8
Layer 1
10
64.906753
20
88.982475
11
64.246000
21
87.304358
0
LINE
8
Layer 1
10
64.246000
20
87.304358
11
63.579323
21
85.095385
0
LINE
8
Layer 1
10
63.579323
20
85.095385
11
63.065041
21
82.848777
0
LINE
8
Layer 1
10
63.065041
20
82.848777
11
62.704676
21
80.572404
0
LINE
8
Layer 1
10
62.704676
20
80.572404
11
62.499750
21
78.274138
0
LINE
8
Layer 1
10
62.499750
20
78.274138
11
62.410636
21
74.046170
0
LINE
8
Layer 1
10
62.410636
20
74.046170
11
62.682312
21
69.825998
0
LINE
8
Layer 1
10
62.682312
20
69.825998
11
63.291195
21
65.591396
0
LINE
8
Layer 1
10
63.291195
20
65.591396
11
64.230122
21
61.417548
0
LINE
8
Layer 1
10
64.230122
20
61.417548
11
65.461231
21
57.446691
0
LINE
8
Layer 1
10
65.461231
20
57.446691
11
67.029412
21
53.596478
0
LINE
8
Layer 1
10
67.029412
20
53.596478
11
68.985474
21
49.882463
0
LINE
8
Layer 1
10
68.985474
20
49.882463
11
71.379152
21
46.434218
0
LINE
8
Layer 1
10
71.379152
20
46.434218
11
72.778922
21
44.839112
0
LINE
8
Layer 1
10
72.778922
20
44.839112
11
74.326279
21
43.369022
0
LINE
8
Layer 1
10
74.326279
20
43.369022
11
76.014030
21
42.067605
0
LINE
8
Layer 1
10
76.014030
20
42.067605
11
77.834982
21
40.978518
0
LINE
8
Layer 1
10
77.834982
20
40.978518
11
79.586522
21
40.219165
0
LINE
8
Layer 1
10
79.586522
20
40.219165
11
79.703430
21
38.955806
0
LINE
8
Layer 1
10
79.703430
20
38.955806
11
80.115688
21
37.755895
0
LINE
8
Layer 1
10
80.115688
20
37.755895
11
79.374900
21
37.970300
0
LINE
8
Layer 1
10
79.374900
20
37.970300
11
79.374900
21
37.970300
0
LINE
8
Layer 1
10
81.988980
20
36.742630
11
81.741595
21
36.571881
0
LINE
8
Layer 1
10
81.741595
20
36.571881
11
81.494210
21
36.742630
0
LINE
8
Layer 1
10
81.494210
20
36.742630
11
80.995512
21
37.464569
0
LINE
8
Layer 1
10
80.995512
20
37.464569
11
80.530797
21
38.414463
0
LINE
8
Layer 1
10
80.530797
20
38.414463
11
80.248149
21
39.554361
0
LINE
8
Layer 1
10
80.248149
20
39.554361
11
80.295650
21
40.846310
0
LINE
8
Layer 1
10
80.295650
20
40.846310
11
80.493881
21
41.176046
0
LINE
8
Layer 1
10
80.493881
20
41.176046
11
80.871449
21
41.406565
0
LINE
8
Layer 1
10
80.871449
20
41.406565
11
81.742920
21
41.589788
0
LINE
8
Layer 1
10
81.742920
20
41.589788
11
82.609444
21
41.414478
0
LINE
8
Layer 1
10
82.609444
20
41.414478
11
82.986397
21
41.179720
0
LINE
8
Layer 1
10
82.986397
20
41.179720
11
83.190200
21
40.838300
0
LINE
8
Layer 1
10
83.190200
20
40.838300
11
83.237272
21
39.547970
0
LINE
8
Layer 1
10
83.237272
20
39.547970
11
82.953725
21
38.407462
0
LINE
8
Layer 1
10
82.953725
20
38.407462
11
82.488116
21
37.458448
0
LINE
8
Layer 1
10
82.488116
20
37.458448
11
81.989000
21
36.742600
0
LINE
8
Layer 1
10
81.989000
20
36.742600
11
81.988980
21
36.742630
0
LINE
8
Layer 1
10
102.923000
20
70.164700
11
102.380770
21
65.832182
0
LINE
8
Layer 1
10
102.380770
20
65.832182
11
101.502190
21
61.555170
0
LINE
8
Layer 1
10
101.502190
20
61.555170
11
100.314143
21
57.451103
0
LINE
8
Layer 1
10
100.314143
20
57.451103
11
98.784920
21
53.461580
0
LINE
8
Layer 1
10
98.784920
20
53.461580
11
96.798678
21
49.486509
0
LINE
8
Layer 1
10
96.798678
20
49.486509
11
94.358450
21
45.772800
0
LINE
8
Layer 1
10
94.358450
20
45.772800
11
93.202220
21
44.333470
0
LINE
8
Layer 1
10
93.202220
20
44.333470
11
91.334260
21
42.372910
0
LINE
8
Layer 1
10
91.334260
20
42.372910
11
88.757220
21
40.293290
0
LINE
8
Layer 1
10
88.757220
20
40.293290
11
86.509866
21
38.965566
0
LINE
8
Layer 1
10
86.509866
20
38.965566
11
84.097910
21
37.967610
0
LINE
8
Layer 1
10
84.097910
20
37.967610
11
83.357078
21
37.748006
0
LINE
8
Layer 1
10
83.357078
20
37.748006
11
83.769337
21
38.947917
0
LINE
8
Layer 1
10
83.769337
20
38.947917
11
83.886244
21
40.211276
0
LINE
8
Layer 1
10
83.886244
20
40.211276
11
85.637784
21
40.970629
0
LINE
8
Layer 1
10
85.637784
20
40.970629
11
87.459108
21
42.059720
0
LINE
8
Layer 1
10
87.459108
20
42.059720
11
89.147478
21
43.361137
0
LINE
8
Layer 1
10
89.147478
20
43.361137
11
90.694959
21
44.831224
0
LINE
8
Layer 1
10
90.694959
20
44.831224
11
92.093614
21
46.426329
0
LINE
8
Layer 1
10
92.093614
20
46.426329
11
94.487293
21
49.874574
0
LINE
8
Layer 1
10
94.487293
20
49.874574
11
96.443354
21
53.588589
0
LINE
8
Layer 1
10
96.443354
20
53.588589
11
98.011535
21
57.438802
0
LINE
8
Layer 1
10
98.011535
20
57.438802
11
99.242644
21
61.409659
0
LINE
8
Layer 1
10
99.242644
20
61.409659
11
100.189503
21
65.584528
0
LINE
8
Layer 1
10
100.189503
20
65.584528
11
100.806000
21
69.820800
0
LINE
8
Layer 1
10
100.806000
20
69.820800
11
101.077676
21
74.040972
0
LINE
8
Layer 1
10
101.077676
20
74.040972
11
100.988562
21
78.268940
0
LINE
8
Layer 1
10
100.988562
20
78.268940
11
100.783636
21
80.567206
0
LINE
8
Layer 1
10
100.783636
20
80.567206
11
100.423272
21
82.843579
0
LINE
8
Layer 1
10
100.423272
20
82.843579
11
99.908989
21
85.090187
0
LINE
8
Layer 1
10
99.908989
20
85.090187
11
99.242312
21
87.299160
0
LINE
8
Layer 1
10
99.242312
20
87.299160
11
98.582301
21
88.977277
0
LINE
8
Layer 1
10
98.582301
20
88.977277
11
97.782144
21
90.601818
0
LINE
8
Layer 1
10
97.782144
20
90.601818
11
96.825718
21
92.136069
0
LINE
8
Layer 1
10
96.825718
20
92.136069
11
95.696902
21
93.543320
0
LINE
8
Layer 1
10
95.696902
20
93.543320
11
94.337896
21
94.795995
0
LINE
8
Layer 1
10
94.337896
20
94.795995
11
92.792109
21
95.772099
0
LINE
8
Layer 1
10
92.792109
20
95.772099
11
91.088069
21
96.406396
0
LINE
8
Layer 1
10
91.088069
20
96.406396
11
89.254302
21
96.633650
0
LINE
8
Layer 1
10
89.254302
20
96.633650
11
88.094559
21
96.407431
0
LINE
8
Layer 1
10
88.094559
20
96.407431
11
87.157811
21
95.786322
0
LINE
8
Layer 1
10
87.157811
20
95.786322
11
86.471591
21
94.856645
0
LINE
8
Layer 1
10
86.471591
20
94.856645
11
86.063432
21
93.704720
0
LINE
8
Layer 1
10
86.063432
20
93.704720
11
85.958136
21
92.665118
0
LINE
8
Layer 1
10
85.958136
20
92.665118
11
86.062440
21
91.587066
0
LINE
8
Layer 1
10
86.062440
20
91.587066
11
86.375598
21
90.555149
0
LINE
8
Layer 1
10
86.375598
20
90.555149
11
86.896868
21
89.653950
0
LINE
8
Layer 1
10
86.896868
20
89.653950
11
87.165420
21
89.280557
0
LINE
8
Layer 1
10
87.165420
20
89.280557
11
87.084722
21
89.182992
0
LINE
8
Layer 1
10
87.084722
20
89.182992
11
86.104194
21
89.326611
0
LINE
8
Layer 1
10
86.104194
20
89.326611
11
84.669741
21
89.911257
0
LINE
8
Layer 1
10
84.669741
20
89.911257
11
83.984605
21
90.441053
0
LINE
8
Layer 1
10
83.984605
20
90.441053
11
83.428763
21
91.167613
0
LINE
8
Layer 1
10
83.428763
20
91.167613
11
83.083140
21
92.119770
0
LINE
8
Layer 1
10
83.083140
20
92.119770
11
83.028662
21
93.326362
0
LINE
8
Layer 1
10
83.028662
20
93.326362
11
83.344963
21
94.931680
0
LINE
8
Layer 1
10
83.344963
20
94.931680
11
83.939819
21
96.254968
0
LINE
8
Layer 1
10
83.939819
20
96.254968
11
84.740555
21
97.313839
0
LINE
8
Layer 1
10
84.740555
20
97.313839
11
85.674492
21
98.125902
0
LINE
8
Layer 1
10
85.674492
20
98.125902
11
87.159606
21
98.749370
0
LINE
8
Layer 1
10
87.159606
20
98.749370
11
88.756882
21
98.956693
0
LINE
8
Layer 1
10
88.756882
20
98.956693
11
90.788882
21
98.790006
0
LINE
8
Layer 1
10
90.788882
20
98.790006
11
91.609089
21
98.586277
0
LINE
8
Layer 1
10
91.609089
20
98.586277
11
92.424005
21
98.321694
0
LINE
8
Layer 1
10
92.424005
20
98.321694
11
93.955945
21
97.631132
0
LINE
8
Layer 1
10
93.955945
20
97.631132
11
95.624852
21
96.526263
0
LINE
8
Layer 1
10
95.624852
20
96.526263
11
97.102000
21
95.175700
0
LINE
8
Layer 1
10
97.102000
20
95.175700
11
98.465697
21
93.496368
0
LINE
8
Layer 1
10
98.465697
20
93.496368
11
99.599660
21
91.654100
0
LINE
8
Layer 1
10
99.599660
20
91.654100
11
100.516951
21
89.759658
0
LINE
8
Layer 1
10
100.516951
20
89.759658
11
101.269180
21
87.793830
0
LINE
8
Layer 1
10
101.269180
20
87.793830
11
101.913487
21
85.589415
0
LINE
8
Layer 1
10
101.913487
20
85.589415
11
102.394000
21
83.343600
0
LINE
8
Layer 1
10
102.394000
20
83.343600
11
102.981374
21
78.766310
0
LINE
8
Layer 1
10
102.981374
20
78.766310
11
103.132950
21
74.464278
0
LINE
8
Layer 1
10
103.132950
20
74.464278
11
102.923000
21
70.164700
0
LINE
8
Layer 1
10
102.923000
20
70.164700
11
102.923000
21
70.164700
0
LINE
8
Layer 1
10
95.271000
20
73.786900
11
95.052182
21
76.082159
0
LINE
8
Layer 1
10
95.052182
20
76.082159
11
94.771729
21
77.609734
0
LINE
8
Layer 1
10
94.771729
20
77.609734
11
94.326108
21
79.264435
0
LINE
8
Layer 1
10
94.326108
20
79.264435
11
93.676965
21
80.951631
0
LINE
8
Layer 1
10
93.676965
20
80.951631
11
92.785945
21
82.576694
0
LINE
8
Layer 1
10
92.785945
20
82.576694
11
91.614695
21
84.044993
0
LINE
8
Layer 1
10
91.614695
20
84.044993
11
90.124860
21
85.261900
0
LINE
8
Layer 1
10
90.124860
20
85.261900
11
88.498996
21
85.939563
0
LINE
8
Layer 1
10
88.498996
20
85.939563
11
86.642950
21
86.222336
0
LINE
8
Layer 1
10
86.642950
20
86.222336
11
85.115313
21
86.174256
0
LINE
8
Layer 1
10
85.115313
20
86.174256
11
83.796036
21
85.926995
0
LINE
8
Layer 1
10
83.796036
20
85.926995
11
81.766690
21
85.502670
0
LINE
8
Layer 1
10
81.766690
20
85.502670
11
81.713800
21
85.502600
0
LINE
8
Layer 1
10
81.713800
20
85.502600
11
79.677831
21
85.927917
0
LINE
8
Layer 1
10
79.677831
20
85.927917
11
78.354009
21
86.174558
0
LINE
8
Layer 1
10
78.354009
20
86.174558
11
76.824310
21
86.222266
0
LINE
8
Layer 1
10
76.824310
20
86.222266
11
74.975869
21
85.939493
0
LINE
8
Layer 1
10
74.975869
20
85.939493
11
73.355630
21
85.261830
0
LINE
8
Layer 1
10
73.355630
20
85.261830
11
71.865794
21
84.044933
0
LINE
8
Layer 1
10
71.865794
20
84.044933
11
70.694543
21
82.576641
0
LINE
8
Layer 1
10
70.694543
20
82.576641
11
69.803524
21
80.951582
0
LINE
8
Layer 1
10
69.803524
20
80.951582
11
69.154381
21
79.264387
0
LINE
8
Layer 1
10
69.154381
20
79.264387
11
68.708761
21
77.609685
0
LINE
8
Layer 1
10
68.708761
20
77.609685
11
68.428309
21
76.082106
0
LINE
8
Layer 1
10
68.428309
20
76.082106
11
68.209490
21
73.786830
0
LINE
8
Layer 1
10
68.209490
20
73.786830
11
68.272856
21
69.915943
0
LINE
8
Layer 1
10
68.272856
20
69.915943
11
68.766728
21
66.088290
0
LINE
8
Layer 1
10
68.766728
20
66.088290
11
69.684449
21
62.339607
0
LINE
8
Layer 1
10
69.684449
20
62.339607
11
71.019360
21
58.705630
0
LINE
8
Layer 1
10
71.019360
20
58.705630
11
73.426639
21
54.031011
0
LINE
8
Layer 1
10
73.426639
20
54.031011
11
74.700327
21
52.007514
0
LINE
8
Layer 1
10
74.700327
20
52.007514
11
76.010045
21
50.211166
0
LINE
8
Layer 1
10
76.010045
20
50.211166
11
77.347792
21
48.655425
0
LINE
8
Layer 1
10
77.347792
20
48.655425
11
78.705568
21
47.353746
0
LINE
8
Layer 1
10
78.705568
20
47.353746
11
80.075371
21
46.319585
0
LINE
8
Layer 1
10
80.075371
20
46.319585
11
81.449200
21
45.566400
0
LINE
8
Layer 1
10
81.449200
20
45.566400
11
81.740241
21
45.436754
0
LINE
8
Layer 1
10
81.740241
20
45.436754
11
82.033928
21
45.566400
0
LINE
8
Layer 1
10
82.033928
20
45.566400
11
83.406024
21
46.320911
0
LINE
8
Layer 1
10
83.406024
20
46.320911
11
84.774554
21
47.356924
0
LINE
8
Layer 1
10
84.774554
20
47.356924
11
86.131487
21
48.660765
0
LINE
8
Layer 1
10
86.131487
20
48.660765
11
87.468793
21
50.218760
0
LINE
8
Layer 1
10
87.468793
20
50.218760
11
88.778441
21
52.017235
0
LINE
8
Layer 1
10
88.778441
20
52.017235
11
90.052399
21
54.042516
0
LINE
8
Layer 1
10
90.052399
20
54.042516
11
92.461128
21
58.718800
0
LINE
8
Layer 1
10
92.461128
20
58.718800
11
93.794898
21
62.349662
0
LINE
8
Layer 1
10
93.794898
20
62.349662
11
94.712230
21
66.095058
0
LINE
8
Layer 1
10
94.712230
20
66.095058
11
95.206480
21
69.919350
0
LINE
8
Layer 1
10
95.206480
20
69.919350
11
95.271000
21
73.786900
0
LINE
8
Layer 1
10
95.271000
20
73.786900
11
95.271000
21
73.786900
0
LINE
8
Layer 1
10
88.328400
20
78.911800
11
88.328400
21
77.438100
0
LINE
8
Layer 1
10
88.328400
20
77.438100
11
88.627379
21
77.483079
0
LINE
8
Layer 1
10
88.627379
20
77.483079
11
88.767608
21
77.483079
0
LINE
8
Layer 1
10
88.767608
20
77.483079
11
89.418482
21
77.263475
0
LINE
8
Layer 1
10
89.418482
20
77.263475
11
89.606874
21
76.842880
0
LINE
8
Layer 1
10
89.606874
20
76.842880
11
89.587815
21
76.382414
0
LINE
8
Layer 1
10
89.587815
20
76.382414
11
86.058275
21
61.084214
0
LINE
8
Layer 1
10
86.058275
20
61.084214
11
81.883155
21
81.068214
0
LINE
8
Layer 1
10
81.883155
20
81.068214
11
81.867280
21
81.139651
0
LINE
8
Layer 1
10
81.867280
20
81.139651
11
81.168800
21
81.139600
0
LINE
8
Layer 1
10
81.168800
20
81.139600
11
81.168800
21
81.062871
0
LINE
8
Layer 1
10
81.168800
20
81.062871
11
78.104930
21
61.330271
0
LINE
8
Layer 1
10
78.104930
20
61.330271
11
74.580700
21
76.371800
0
LINE
8
Layer 1
10
74.580700
20
76.371800
11
74.580700
21
76.594050
0
LINE
8
Layer 1
10
74.580700
20
76.594050
11
74.625212
21
76.996001
0
LINE
8
Layer 1
10
74.625212
20
76.996001
11
74.824116
21
77.348112
0
LINE
8
Layer 1
10
74.824116
20
77.348112
11
75.395615
21
77.522737
0
LINE
8
Layer 1
10
75.395615
20
77.522737
11
75.689302
21
77.483050
0
LINE
8
Layer 1
10
75.689302
20
77.483050
11
75.689300
21
78.911800
0
LINE
8
Layer 1
10
75.689300
20
78.911800
11
70.728300
21
78.911800
0
LINE
8
Layer 1
10
70.728300
20
78.911800
11
70.728300
21
77.517500
0
LINE
8
Layer 1
10
70.728300
20
77.517500
11
70.947904
21
77.483104
0
LINE
8
Layer 1
10
70.947904
20
77.483104
11
71.330557
21
77.334276
0
LINE
8
Layer 1
10
71.330557
20
77.334276
11
71.559215
21
77.136335
0
LINE
8
Layer 1
10
71.559215
20
77.136335
11
71.699320
21
76.824292
0
LINE
8
Layer 1
10
71.699320
20
76.824292
11
77.742400
21
50.895192
0
LINE
8
Layer 1
10
77.742400
20
50.895192
11
77.758275
21
50.826401
0
LINE
8
Layer 1
10
77.758275
20
50.826401
11
78.628800
21
50.826300
0
LINE
8
Layer 1
10
78.628800
20
50.826300
11
78.628800
21
50.903029
0
LINE
8
Layer 1
10
78.628800
20
50.903029
11
81.454550
21
69.400029
0
LINE
8
Layer 1
10
81.454550
20
69.400029
11
85.063400
21
50.892500
0
LINE
8
Layer 1
10
85.063400
20
50.892500
11
85.079275
21
50.821063
0
LINE
8
Layer 1
10
85.079275
20
50.821063
11
85.857200
21
50.821000
0
LINE
8
Layer 1
10
85.857200
20
50.821000
11
91.609230
21
76.837400
0
LINE
8
Layer 1
10
91.609230
20
76.837400
11
91.897689
21
77.280293
0
LINE
8
Layer 1
10
91.897689
20
77.280293
11
92.402979
21
77.435358
0
LINE
8
Layer 1
10
92.402979
20
77.435358
11
92.461200
21
77.435500
0
LINE
8
Layer 1
10
92.461200
20
77.435500
11
92.744304
21
77.411687
0
LINE
8
Layer 1
10
92.744304
20
77.411687
11
92.744300
21
78.911800
0
LINE
8
Layer 1
10
92.744300
20
78.911800
11
88.328400
21
78.911800
0
LINE
8
Layer 1
10
88.328400
20
78.911800
11
88.328400
21
78.911800
0
LINE
8
Layer 1
10
24.325800
20
31.125500
11
25.074808
21
30.725933
0
LINE
8
Layer 1
10
25.074808
20
30.725933
11
25.548421
21
30.193630
0
LINE
8
Layer 1
10
25.548421
20
30.193630
11
25.792219
21
29.557829
0
LINE
8
Layer 1
10
25.792219
20
29.557829
11
25.851781
21
28.847770
0
LINE
8
Layer 1
10
25.851781
20
28.847770
11
25.600509
21
27.321827
0
LINE
8
Layer 1
10
25.600509
20
27.321827
11
25.159236
21
25.849710
0
LINE
8
Layer 1
10
25.159236
20
25.849710
11
21.674600
21
14.147200
0
LINE
8
Layer 1
10
21.674600
20
14.147200
11
17.388360
21
27.992800
0
LINE
8
Layer 1
10
17.388360
20
27.992800
11
16.926663
21
29.833967
0
LINE
8
Layer 1
10
16.926663
20
29.833967
11
16.925340
21
31.220710
0
LINE
8
Layer 1
10
16.925340
20
31.220710
11
12.578300
21
31.220700
0
LINE
8
Layer 1
10
12.578300
20
31.220700
11
12.578300
21
31.125500
0
LINE
8
Layer 1
10
12.578300
20
31.125500
11
13.114377
21
30.735848
0
LINE
8
Layer 1
10
13.114377
20
30.735848
11
13.459269
21
30.250069
0
LINE
8
Layer 1
10
13.459269
20
30.250069
11
13.640820
21
29.683918
0
LINE
8
Layer 1
10
13.640820
20
29.683918
11
13.686875
21
29.053150
0
LINE
8
Layer 1
10
13.686875
20
29.053150
11
13.483869
21
27.660781
0
LINE
8
Layer 1
10
13.483869
20
27.660781
11
13.073000
21
26.199000
0
LINE
8
Layer 1
10
13.073000
20
26.199000
11
9.464130
21
14.049300
0
LINE
8
Layer 1
10
9.464130
20
14.049300
11
4.870970
21
28.916200
0
LINE
8
Layer 1
10
4.870970
20
28.916200
11
4.570669
21
30.027449
0
LINE
8
Layer 1
10
4.570669
20
30.027449
11
4.500554
21
31.218070
0
LINE
8
Layer 1
10
4.500554
20
31.218070
11
0.000000
21
31.218100
0
LINE
8
Layer 1
10
0.000000
20
31.218100
11
0.000000
21
31.122800
0
LINE
8
Layer 1
10
0.000000
20
31.122800
11
0.972798
21
30.140616
0
LINE
8
Layer 1
10
0.972798
20
30.140616
11
1.650667
21
28.908899
0
LINE
8
Layer 1
10
1.650667
20
28.908899
11
2.561160
21
26.198910
0
LINE
8
Layer 1
10
2.561160
20
26.198910
11
6.199180
21
14.401110
0
LINE
8
Layer 1
10
6.199180
20
14.401110
11
6.873784
21
12.498509
0
LINE
8
Layer 1
10
6.873784
20
12.498509
11
7.577657
21
11.366341
0
LINE
8
Layer 1
10
7.577657
20
11.366341
11
8.616889
21
10.456423
0
LINE
8
Layer 1
10
8.616889
20
10.456423
11
10.297570
21
9.220570
0
LINE
8
Layer 1
10
10.297570
20
9.220570
11
15.110330
21
25.360170
0
LINE
8
Layer 1
10
15.110330
20
25.360170
11
18.497000
21
14.380000
0
LINE
8
Layer 1
10
18.497000
20
14.380000
11
19.165237
21
12.469338
0
LINE
8
Layer 1
10
19.165237
20
12.469338
11
19.852325
21
11.326381
0
LINE
8
Layer 1
10
19.852325
20
11.326381
11
20.879733
21
10.423036
0
LINE
8
Layer 1
10
20.879733
20
10.423036
11
22.568930
21
9.231210
0
LINE
8
Layer 1
10
22.568930
20
9.231210
11
29.072380
21
31.228610
0
LINE
8
Layer 1
10
29.072380
20
31.228610
11
24.325800
21
31.228700
0
LINE
8
Layer 1
10
24.325800
20
31.228700
11
24.325800
21
31.133400
0
LINE
8
Layer 1
10
24.325800
20
31.133400
11
24.325800
21
31.125500
0
LINE
8
Layer 1
10
30.122800
20
31.125500
11
30.632235
21
30.821488
0
LINE
8
Layer 1
10
30.632235
20
30.821488
11
30.997493
21
30.386074
0
LINE
8
Layer 1
10
30.997493
20
30.386074
11
31.389488
21
29.242332
0
LINE
8
Layer 1
10
31.389488
20
29.242332
11
31.486803
21
27.936865
0
LINE
8
Layer 1
10
31.486803
20
27.936865
11
31.477460
21
26.712260
0
LINE
8
Layer 1
10
31.477460
20
26.712260
11
31.477400
21
14.660500
0
LINE
8
Layer 1
10
31.477400
20
14.660500
11
31.482278
21
13.450527
0
LINE
8
Layer 1
10
31.482278
20
13.450527
11
31.377520
21
12.146299
0
LINE
8
Layer 1
10
31.377520
20
12.146299
11
30.984037
21
11.003799
0
LINE
8
Layer 1
10
30.984037
20
11.003799
11
30.623059
21
10.573191
0
LINE
8
Layer 1
10
30.623059
20
10.573191
11
30.122740
21
10.279010
0
LINE
8
Layer 1
10
30.122740
20
10.279010
11
30.122800
21
10.183700
0
LINE
8
Layer 1
10
30.122800
20
10.183700
11
35.983300
21
10.183700
0
LINE
8
Layer 1
10
35.983300
20
10.183700
11
35.983300
21
10.279000
0
LINE
8
Layer 1
10
35.983300
20
10.279000
11
35.482867
21
10.583059
0
LINE
8
Layer 1
10
35.482867
20
10.583059
11
35.121588
21
11.018303
0
LINE
8
Layer 1
10
35.121588
20
11.018303
11
34.727194
21
12.159193
0
LINE
8
Layer 1
10
34.727194
20
12.159193
11
34.621525
21
13.455359
0
LINE
8
Layer 1
10
34.621525
20
13.455359
11
34.625990
21
14.660490
0
LINE
8
Layer 1
10
34.625990
20
14.660490
11
34.626000
21
26.709600
0
LINE
8
Layer 1
10
34.626000
20
26.709600
11
34.621535
21
27.920810
0
LINE
8
Layer 1
10
34.621535
20
27.920810
11
34.727203
21
29.227766
0
LINE
8
Layer 1
10
34.727203
20
29.227766
11
35.121597
21
30.378949
0
LINE
8
Layer 1
10
35.121597
20
30.378949
11
35.482876
21
30.817526
0
LINE
8
Layer 1
10
35.482876
20
30.817526
11
35.983310
21
31.122840
0
LINE
8
Layer 1
10
35.983310
20
31.122840
11
35.983300
21
31.218100
0
LINE
8
Layer 1
10
35.983300
20
31.218100
11
30.122800
21
31.218100
0
LINE
8
Layer 1
10
30.122800
20
31.218100
11
30.122800
21
31.122800
0
LINE
8
Layer 1
10
30.122800
20
31.122800
11
30.122800
21
31.125500
0
LINE
8
Layer 1
10
41.372800
20
26.519100
11
41.471709
21
27.277698
0
LINE
8
Layer 1
10
41.471709
20
27.277698
11
41.747351
21
27.904769
0
LINE
8
Layer 1
10
41.747351
20
27.904769
11
42.168100
21
28.409678
0
LINE
8
Layer 1
10
42.168100
20
28.409678
11
42.702331
21
28.801788
0
LINE
8
Layer 1
10
42.702331
20
28.801788
11
43.984734
21
29.285064
0
LINE
8
Layer 1
10
43.984734
20
29.285064
11
45.341550
21
29.429510
0
LINE
8
Layer 1
10
45.341550
20
29.429510
11
46.683511
21
29.292355
0
LINE
8
Layer 1
10
46.683511
20
29.292355
11
47.961450
21
28.901226
0
LINE
8
Layer 1
10
47.961450
20
28.901226
11
49.139906
21
28.270869
0
LINE
8
Layer 1
10
49.139906
20
28.270869
11
50.183420
21
27.416030
0
LINE
8
Layer 1
10
50.183420
20
27.416030
11
50.183500
21
31.027600
0
LINE
8
Layer 1
10
50.183500
20
31.027600
11
47.913031
21
31.558652
0
LINE
8
Layer 1
10
47.913031
20
31.558652
11
45.587690
21
31.731391
0
LINE
8
Layer 1
10
45.587690
20
31.731391
11
44.175702
21
31.657489
0
LINE
8
Layer 1
10
44.175702
20
31.657489
11
42.792332
21
31.428402
0
LINE
8
Layer 1
10
42.792332
20
31.428402
11
41.486786
21
31.033062
0
LINE
8
Layer 1
10
41.486786
20
31.033062
11
40.308270
21
30.460400
0
LINE
8
Layer 1
10
40.308270
20
30.460400
11
39.305991
21
29.699347
0
LINE
8
Layer 1
10
39.305991
20
29.699347
11
38.529156
21
28.738833
0
LINE
8
Layer 1
10
38.529156
20
28.738833
11
38.026970
21
27.567791
0
LINE
8
Layer 1
10
38.026970
20
27.567791
11
37.848640
21
26.175151
0
LINE
8
Layer 1
10
37.848640
20
26.175151
11
37.967734
21
24.990767
0
LINE
8
Layer 1
10
37.967734
20
24.990767
11
38.304302
21
23.966362
0
LINE
8
Layer 1
10
38.304302
20
23.966362
11
38.827278
21
23.082081
0
LINE
8
Layer 1
10
38.827278
20
23.082081
11
39.505593
21
22.318066
0
LINE
8
Layer 1
10
39.505593
20
22.318066
11
41.203970
21
21.071421
0
LINE
8
Layer 1
10
41.203970
20
21.071421
11
43.150890
21
20.067582
0
LINE
8
Layer 1
10
43.150890
20
20.067582
11
45.097810
21
19.147709
0
LINE
8
Layer 1
10
45.097810
20
19.147709
11
46.796187
21
18.152957
0
LINE
8
Layer 1
10
46.796187
20
18.152957
11
47.474502
21
17.577864
0
LINE
8
Layer 1
10
47.474502
20
17.577864
11
47.997478
21
16.924486
0
LINE
8
Layer 1
10
47.997478
20
16.924486
11
48.334046
21
16.172966
0
LINE
8
Layer 1
10
48.334046
20
16.172966
11
48.453140
21
15.303451
0
LINE
8
Layer 1
10
48.453140
20
15.303451
11
48.336016
21
14.518002
0
LINE
8
Layer 1
10
48.336016
20
14.518002
11
48.012237
21
13.839895
0
LINE
8
Layer 1
10
48.012237
20
13.839895
11
47.523198
21
13.268324
0
LINE
8
Layer 1
10
47.523198
20
13.268324
11
46.910290
21
12.802482
0
LINE
8
Layer 1
10
46.910290
20
12.802482
11
45.478440
21
12.184764
0
LINE
8
Layer 1
10
45.478440
20
12.184764
11
44.047830
21
11.980291
0
LINE
8
Layer 1
10
44.047830
20
11.980291
11
42.202516
21
12.180716
0
LINE
8
Layer 1
10
42.202516
20
12.180716
11
40.435026
21
12.699086
0
LINE
8
Layer 1
10
40.435026
20
12.699086
11
38.785898
21
13.519516
0
LINE
8
Layer 1
10
38.785898
20
13.519516
11
37.295670
21
14.626121
0
LINE
8
Layer 1
10
37.295670
20
14.626121
11
38.189961
21
10.630921
0
LINE
8
Layer 1
10
38.189961
20
10.630921
11
40.904302
21
9.898327
0
LINE
8
Layer 1
10
40.904302
20
9.898327
11
43.706521
21
9.670485
0
LINE
8
Layer 1
10
43.706521
20
9.670485
11
45.443357
21
9.814605
0
LINE
8
Layer 1
10
45.443357
20
9.814605
11
47.027987
21
10.223670
0
LINE
8
Layer 1
10
47.027987
20
10.223670
11
48.435946
21
10.862737
0
LINE
8
Layer 1
10
48.435946
20
10.862737
11
49.642771
21
11.696861
0
LINE
8
Layer 1
10
49.642771
20
11.696861
11
50.623998
21
12.691100
0
LINE
8
Layer 1
10
50.623998
20
12.691100
11
51.355163
21
13.810509
0
LINE
8
Layer 1
10
51.355163
20
13.810509
11
51.811802
21
15.020145
0
LINE
8
Layer 1
10
51.811802
20
15.020145
11
51.969451
21
16.285065
0
LINE
8
Layer 1
10
51.969451
20
16.285065
11
51.852613
21
17.327269
0
LINE
8
Layer 1
10
51.852613
20
17.327269
11
51.517901
21
18.244534
0
LINE
8
Layer 1
10
51.517901
20
18.244534
11
50.996420
21
19.052131
0
LINE
8
Layer 1
10
50.996420
20
19.052131
11
50.319272
21
19.765331
0
LINE
8
Layer 1
10
50.319272
20
19.765331
11
48.622383
21
20.969618
0
LINE
8
Layer 1
10
48.622383
20
20.969618
11
46.676056
21
21.979558
0
LINE
8
Layer 1
10
46.676056
20
21.979558
11
44.729114
21
22.917314
0
LINE
8
Layer 1
10
44.729114
20
22.917314
11
43.030376
21
23.905048
0
LINE
8
Layer 1
10
43.030376
20
23.905048
11
42.351840
21
24.455832
0
LINE
8
Layer 1
10
42.351840
20
24.455832
11
41.828664
21
25.064922
0
LINE
8
Layer 1
10
41.828664
20
25.064922
11
41.491950
21
25.747588
0
LINE
8
Layer 1
10
41.491950
20
25.747588
11
41.372800
21
26.519100
0
LINE
8
Layer 1
10
41.372800
20
26.519100
11
41.372800
21
26.519100
0
LINE
8
Layer 1
10
64.478900
20
12.321600
11
62.778826
21
12.510859
0
LINE
8
Layer 1
10
62.778826
20
12.510859
11
61.251609
21
13.049864
0
LINE
8
Layer 1
10
61.251609
20
13.049864
11
59.913837
21
13.895454
0
LINE
8
Layer 1
10
59.913837
20
13.895454
11
58.782097
21
15.004470
0
LINE
8
Layer 1
10
58.782097
20
15.004470
11
57.872980
21
16.333751
0
LINE
8
Layer 1
10
57.872980
20
16.333751
11
57.203072
21
17.840138
0
LINE
8
Layer 1
10
57.203072
20
17.840138
11
56.788963
21
19.480471
0
LINE
8
Layer 1
10
56.788963
20
19.480471
11
56.647240
21
21.211590
0
LINE
8
Layer 1
10
56.647240
20
21.211590
11
56.782766
21
22.881238
0
LINE
8
Layer 1
10
56.782766
20
22.881238
11
57.176323
21
24.397376
0
LINE
8
Layer 1
10
57.176323
20
24.397376
11
57.808376
21
25.738703
0
LINE
8
Layer 1
10
57.808376
20
25.738703
11
58.659392
21
26.883918
0
LINE
8
Layer 1
10
58.659392
20
26.883918
11
59.709839
21
27.811720
0
LINE
8
Layer 1
10
59.709839
20
27.811720
11
60.940181
21
28.500808
0
LINE
8
Layer 1
10
60.940181
20
28.500808
11
62.330886
21
28.929882
0
LINE
8
Layer 1
10
62.330886
20
28.929882
11
63.862420
21
29.077640
0
LINE
8
Layer 1
10
63.862420
20
29.077640
11
65.377182
21
28.938898
0
LINE
8
Layer 1
10
65.377182
20
28.938898
11
66.848137
21
28.583932
0
LINE
8
Layer 1
10
66.848137
20
28.583932
11
68.252336
21
28.020075
0
LINE
8
Layer 1
10
68.252336
20
28.020075
11
69.566830
21
27.254660
0
LINE
8
Layer 1
10
69.566830
20
27.254660
11
69.566800
21
30.932300
0
LINE
8
Layer 1
10
69.566800
20
30.932300
11
66.784594
21
31.496730
0
LINE
8
Layer 1
10
66.784594
20
31.496730
11
63.954990
21
31.726049
0
LINE
8
Layer 1
10
63.954990
20
31.726049
11
61.675105
21
31.524852
0
LINE
8
Layer 1
10
61.675105
20
31.524852
11
59.597099
21
30.938005
0
LINE
8
Layer 1
10
59.597099
20
30.938005
11
57.752442
21
29.990621
0
LINE
8
Layer 1
10
57.752442
20
29.990621
11
56.172606
21
28.707815
0
LINE
8
Layer 1
10
56.172606
20
28.707815
11
54.889062
21
27.114701
0
LINE
8
Layer 1
10
54.889062
20
27.114701
11
53.933280
21
25.236392
0
LINE
8
Layer 1
10
53.933280
20
25.236392
11
53.336733
21
23.098004
0
LINE
8
Layer 1
10
53.336733
20
23.098004
11
53.130890
21
20.724649
0
LINE
8
Layer 1
10
53.130890
20
20.724649
11
53.338381
21
18.284125
0
LINE
8
Layer 1
10
53.338381
20
18.284125
11
53.947459
21
16.108547
0
LINE
8
Layer 1
10
53.947459
20
16.108547
11
54.938031
21
14.216549
0
LINE
8
Layer 1
10
54.938031
20
14.216549
11
56.290006
21
12.626764
0
LINE
8
Layer 1
10
56.290006
20
12.626764
11
57.983292
21
11.357828
0
LINE
8
Layer 1
10
57.983292
20
11.357828
11
59.997796
21
10.428373
0
LINE
8
Layer 1
10
59.997796
20
10.428373
11
62.313426
21
9.857036
0
LINE
8
Layer 1
10
62.313426
20
9.857036
11
64.910090
21
9.662449
0
LINE
8
Layer 1
10
64.910090
20
9.662449
11
67.291783
21
9.877665
0
LINE
8
Layer 1
10
67.291783
20
9.877665
11
69.564100
21
10.622885
0
LINE
8
Layer 1
10
69.564100
20
10.622885
11
71.135720
21
14.327045
0
LINE
8
Layer 1
10
71.135720
20
14.327045
11
71.040500
21
14.327100
0
LINE
8
Layer 1
10
71.040500
20
14.327100
11
69.522247
21
13.532677
0
LINE
8
Layer 1
10
69.522247
20
13.532677
11
67.899575
21
12.896738
0
LINE
8
Layer 1
10
67.899575
20
12.896738
11
66.206966
21
12.474605
0
LINE
8
Layer 1
10
66.206966
20
12.474605
11
64.478900
21
12.321600
0
LINE
8
Layer 1
10
64.478900
20
12.321600
11
64.478900
21
12.321600
0
LINE
8
Layer 1
10
82.256200
20
31.760500
11
79.901297
21
31.583514
0
LINE
8
Layer 1
10
79.901297
20
31.583514
11
77.719342
21
30.964726
0
LINE
8
Layer 1
10
77.719342
20
30.964726
11
75.753807
21
29.953961
0
LINE
8
Layer 1
10
75.753807
20
29.953961
11
74.048163
21
28.601046
0
LINE
8
Layer 1
10
74.048163
20
28.601046
11
72.645879
21
26.955807
0
LINE
8
Layer 1
10
72.645879
20
26.955807
11
71.590427
21
25.068069
0
LINE
8
Layer 1
10
71.590427
20
25.068069
11
70.925277
21
22.987658
0
LINE
8
Layer 1
10
70.925277
20
22.987658
11
70.693900
21
20.764400
0
LINE
8
Layer 1
10
70.693900
20
20.764400
11
70.927064
21
18.405198
0
LINE
8
Layer 1
10
70.927064
20
18.405198
11
71.593814
21
16.264588
0
LINE
8
Layer 1
10
71.593814
20
16.264588
11
72.645038
21
14.372149
0
LINE
8
Layer 1
10
72.645038
20
14.372149
11
74.031621
21
12.757461
0
LINE
8
Layer 1
10
74.031621
20
12.757461
11
75.704452
21
11.450103
0
LINE
8
Layer 1
10
75.704452
20
11.450103
11
77.614418
21
10.479654
0
LINE
8
Layer 1
10
77.614418
20
10.479654
11
79.712405
21
9.875693
0
LINE
8
Layer 1
10
79.712405
20
9.875693
11
81.949300
21
9.667800
0
LINE
8
Layer 1
10
81.949300
20
9.667800
11
84.189947
21
9.883931
0
LINE
8
Layer 1
10
84.189947
20
9.883931
11
86.297823
21
10.509339
0
LINE
8
Layer 1
10
86.297823
20
10.509339
11
88.221770
21
11.509545
0
LINE
8
Layer 1
10
88.221770
20
11.509545
11
89.910629
21
12.850071
0
LINE
8
Layer 1
10
89.910629
20
12.850071
11
91.313240
21
14.496438
0
LINE
8
Layer 1
10
91.313240
20
14.496438
11
92.378445
21
16.414168
0
LINE
8
Layer 1
10
92.378445
20
16.414168
11
93.055085
21
18.568781
0
LINE
8
Layer 1
10
93.055085
20
18.568781
11
93.292000
21
20.925800
0
LINE
8
Layer 1
10
93.292000
20
20.925800
11
93.079467
21
23.075681
0
LINE
8
Layer 1
10
93.079467
20
23.075681
11
92.452118
21
25.121202
0
LINE
8
Layer 1
10
92.452118
20
25.121202
11
91.434665
21
27.003357
0
LINE
8
Layer 1
10
91.434665
20
27.003357
11
90.051816
21
28.663143
0
LINE
8
Layer 1
10
90.051816
20
28.663143
11
88.366883
21
30.015236
0
LINE
8
Layer 1
10
88.366883
20
30.015236
11
86.466336
21
30.997908
0
LINE
8
Layer 1
10
86.466336
20
30.997908
11
84.409625
21
31.587536
0
LINE
8
Layer 1
10
84.409625
20
31.587536
11
82.256200
21
31.760500
0
LINE
8
Layer 1
10
82.256200
20
31.760500
11
82.256200
21
31.760500
0
LINE
8
Layer 1
10
82.102742
20
11.972300
11
80.374111
21
12.178861
0
LINE
8
Layer 1
10
80.374111
20
12.178861
11
78.827577
21
12.761584
0
LINE
8
Layer 1
10
78.827577
20
12.761584
11
77.478054
21
13.665031
0
LINE
8
Layer 1
10
77.478054
20
13.665031
11
76.340455
21
14.833764
0
LINE
8
Layer 1
10
76.340455
20
14.833764
11
75.429694
21
16.212344
0
LINE
8
Layer 1
10
75.429694
20
16.212344
11
74.760685
21
17.745335
0
LINE
8
Layer 1
10
74.760685
20
17.745335
11
74.348344
21
19.377296
0
LINE
8
Layer 1
10
74.348344
20
19.377296
11
74.207582
21
21.052790
0
LINE
8
Layer 1
10
74.207582
20
21.052790
11
74.348116
21
22.800438
0
LINE
8
Layer 1
10
74.348116
20
22.800438
11
74.759362
21
24.403693
0
LINE
8
Layer 1
10
74.759362
20
24.403693
11
75.425786
21
25.835237
0
LINE
8
Layer 1
10
75.425786
20
25.835237
11
76.331853
21
27.067755
0
LINE
8
Layer 1
10
76.331853
20
27.067755
11
77.462031
21
28.073930
0
LINE
8
Layer 1
10
77.462031
20
28.073930
11
78.800784
21
28.826447
0
LINE
8
Layer 1
10
78.800784
20
28.826447
11
80.332579
21
29.297989
0
LINE
8
Layer 1
10
80.332579
20
29.297989
11
82.041882
21
29.461240
0
LINE
8
Layer 1
10
82.041882
20
29.461240
11
83.772049
21
29.258829
0
LINE
8
Layer 1
10
83.772049
20
29.258829
11
85.304523
21
28.685309
0
LINE
8
Layer 1
10
85.304523
20
28.685309
11
86.629133
21
27.791252
0
LINE
8
Layer 1
10
86.629133
20
27.791252
11
87.735711
21
26.627226
0
LINE
8
Layer 1
10
87.735711
20
26.627226
11
88.614085
21
25.243804
0
LINE
8
Layer 1
10
88.614085
20
25.243804
11
89.254087
21
23.691555
0
LINE
8
Layer 1
10
89.254087
20
23.691555
11
89.645546
21
22.021050
0
LINE
8
Layer 1
10
89.645546
20
22.021050
11
89.778292
21
20.282860
0
LINE
8
Layer 1
10
89.778292
20
20.282860
11
89.640463
21
18.558419
0
LINE
8
Layer 1
10
89.640463
20
18.558419
11
89.237222
21
16.975172
0
LINE
8
Layer 1
10
89.237222
20
16.975172
11
88.583949
21
15.560469
0
LINE
8
Layer 1
10
88.583949
20
15.560469
11
87.696024
21
14.341658
0
LINE
8
Layer 1
10
87.696024
20
14.341658
11
86.588827
21
13.346086
0
LINE
8
Layer 1
10
86.588827
20
13.346086
11
85.277737
21
12.601104
0
LINE
8
Layer 1
10
85.277737
20
12.601104
11
83.778135
21
12.134059
0
LINE
8
Layer 1
10
83.778135
20
12.134059
11
82.105400
21
11.972300
0
LINE
8
Layer 1
10
82.105400
20
11.972300
11
82.102742
21
11.972300
0
LINE
8
Layer 1
10
109.133000
20
31.125500
11
110.073343
21
30.342210
0
LINE
8
Layer 1
10
110.073343
20
30.342210
11
110.547855
21
29.421254
0
LINE
8
Layer 1
10
110.547855
20
29.421254
11
110.715782
21
28.345021
0
LINE
8
Layer 1
10
110.715782
20
28.345021
11
110.736370
21
27.095900
0
LINE
8
Layer 1
10
110.736370
20
27.095900
11
110.736000
21
14.975300
0
LINE
8
Layer 1
10
110.736000
20
14.975300
11
99.451500
21
29.747000
0
LINE
8
Layer 1
10
99.451500
20
29.747000
11
99.017584
21
30.387291
0
LINE
8
Layer 1
10
99.017584
20
30.387291
11
98.554564
21
31.181040
0
LINE
8
Layer 1
10
98.554564
20
31.181040
11
98.554500
21
31.210200
0
LINE
8
Layer 1
10
98.554500
20
31.210200
11
94.056600
21
31.210200
0
LINE
8
Layer 1
10
94.056600
20
31.210200
11
94.056600
21
31.114900
0
LINE
8
Layer 1
10
94.056600
20
31.114900
11
94.982022
21
30.331610
0
LINE
8
Layer 1
10
94.982022
20
30.331610
11
95.457239
21
29.410654
0
LINE
8
Layer 1
10
95.457239
20
29.410654
11
95.632319
21
28.334421
0
LINE
8
Layer 1
10
95.632319
20
28.334421
11
95.657330
21
27.085300
0
LINE
8
Layer 1
10
95.657330
20
27.085300
11
95.657300
21
14.327100
0
LINE
8
Layer 1
10
95.657300
20
14.327100
11
95.631793
21
13.077896
0
LINE
8
Layer 1
10
95.631793
20
13.077896
11
95.453240
21
11.999100
0
LINE
8
Layer 1
10
95.453240
20
11.999100
11
94.968597
21
11.069629
0
LINE
8
Layer 1
10
94.968597
20
11.069629
11
94.024820
21
10.268400
0
LINE
8
Layer 1
10
94.024820
20
10.268400
11
94.024900
21
10.173200
0
LINE
8
Layer 1
10
94.024900
20
10.173200
11
99.483200
21
10.173200
0
LINE
8
Layer 1
10
99.483200
20
10.173200
11
99.483200
21
10.268400
0
LINE
8
Layer 1
10
99.483200
20
10.268400
11
98.542857
21
11.069631
0
LINE
8
Layer 1
10
98.542857
20
11.069631
11
98.068345
21
11.999102
0
LINE
8
Layer 1
10
98.068345
20
11.999102
11
97.900418
21
13.077897
0
LINE
8
Layer 1
10
97.900418
20
13.077897
11
97.879830
21
14.327100
0
LINE
8
Layer 1
10
97.879830
20
14.327100
11
97.879800
21
26.709600
0
LINE
8
Layer 1
10
97.879800
20
26.709600
11
108.463100
21
12.803100
0
LINE
8
Layer 1
10
108.463100
20
12.803100
11
109.430067
21
11.571837
0
LINE
8
Layer 1
10
109.430067
20
11.571837
11
110.400509
21
10.582916
0
LINE
8
Layer 1
10
110.400509
20
10.582916
11
111.526724
21
9.791938
0
LINE
8
Layer 1
10
111.526724
20
9.791938
11
112.961010
21
9.154500
0
LINE
8
Layer 1
10
112.961010
20
9.154500
11
112.961000
21
27.093200
0
LINE
8
Layer 1
10
112.961000
20
27.093200
11
112.986053
21
28.342320
0
LINE
8
Layer 1
10
112.986053
20
28.342320
11
113.161421
21
29.418552
0
LINE
8
Layer 1
10
113.161421
20
29.418552
11
113.637422
21
30.339508
0
LINE
8
Layer 1
10
113.637422
20
30.339508
11
114.564370
21
31.122800
0
LINE
8
Layer 1
10
114.564370
20
31.122800
11
114.564000
21
31.218100
0
LINE
8
Layer 1
10
114.564000
20
31.218100
11
109.133000
21
31.218100
0
LINE
8
Layer 1
10
109.133000
20
31.218100
11
109.133000
21
31.122800
0
LINE
8
Layer 1
10
109.133000
20
31.122800
11
109.133000
21
31.125500
0
LINE
8
Layer 1
10
119.062000
20
26.519100
11
119.160800
21
27.277698
0
LINE
8
Layer 1
10
119.160800
20
27.277698
11
119.436178
21
27.904769
0
LINE
8
Layer 1
10
119.436178
20
27.904769
11
119.856601
21
28.409678
0
LINE
8
Layer 1
10
119.856601
20
28.409678
11
120.390536
21
28.801788
0
LINE
8
Layer 1
10
120.390536
20
28.801788
11
121.672811
21
29.285064
0
LINE
8
Layer 1
10
121.672811
20
29.285064
11
123.030740
21
29.429510
0
LINE
8
Layer 1
10
123.030740
20
29.429510
11
124.372228
21
29.292747
0
LINE
8
Layer 1
10
124.372228
20
29.292747
11
125.649628
21
28.901717
0
LINE
8
Layer 1
10
125.649628
20
28.901717
11
126.827390
21
28.271214
0
LINE
8
Layer 1
10
126.827390
20
28.271214
11
127.869960
21
27.416030
0
LINE
8
Layer 1
10
127.869960
20
27.416030
11
127.870000
21
31.027600
0
LINE
8
Layer 1
10
127.870000
20
31.027600
11
125.610361
21
31.557318
0
LINE
8
Layer 1
10
125.610361
20
31.557318
11
123.296000
21
31.731400
0
LINE
8
Layer 1
10
123.296000
20
31.731400
11
121.884883
21
31.657498
0
LINE
8
Layer 1
10
121.884883
20
31.657498
11
120.502168
21
31.428411
0
LINE
8
Layer 1
10
120.502168
20
31.428411
11
119.197091
21
31.033071
0
LINE
8
Layer 1
10
119.197091
20
31.033071
11
118.018890
21
30.460409
0
LINE
8
Layer 1
10
118.018890
20
30.460409
11
117.016802
21
29.699356
0
LINE
8
Layer 1
10
117.016802
20
29.699356
11
116.240065
21
28.738842
0
LINE
8
Layer 1
10
116.240065
20
28.738842
11
115.737915
21
27.567800
0
LINE
8
Layer 1
10
115.737915
20
27.567800
11
115.559590
21
26.175160
0
LINE
8
Layer 1
10
115.559590
20
26.175160
11
115.678684
21
24.990776
0
LINE
8
Layer 1
10
115.678684
20
24.990776
11
116.015252
21
23.966371
0
LINE
8
Layer 1
10
116.015252
20
23.966371
11
116.538228
21
23.082090
0
LINE
8
Layer 1
10
116.538228
20
23.082090
11
117.216543
21
22.318075
0
LINE
8
Layer 1
10
117.216543
20
22.318075
11
118.914920
21
21.071430
0
LINE
8
Layer 1
10
118.914920
20
21.071430
11
120.861840
21
20.067591
0
LINE
8
Layer 1
10
120.861840
20
20.067591
11
122.808760
21
19.147718
0
LINE
8
Layer 1
10
122.808760
20
19.147718
11
124.507137
21
18.152966
0
LINE
8
Layer 1
10
124.507137
20
18.152966
11
125.185452
21
17.577873
0
LINE
8
Layer 1
10
125.185452
20
17.577873
11
125.708428
21
16.924495
0
LINE
8
Layer 1
10
125.708428
20
16.924495
11
126.044996
21
16.172975
0
LINE
8
Layer 1
10
126.044996
20
16.172975
11
126.164090
21
15.303460
0
LINE
8
Layer 1
10
126.164090
20
15.303460
11
126.046955
21
14.518011
0
LINE
8
Layer 1
10
126.046955
20
14.518011
11
125.723105
21
13.839904
0
LINE
8
Layer 1
10
125.723105
20
13.839904
11
125.233869
21
13.268333
0
LINE
8
Layer 1
10
125.233869
20
13.268333
11
124.620579
21
12.802491
0
LINE
8
Layer 1
10
124.620579
20
12.802491
11
123.187159
21
12.184773
0
LINE
8
Layer 1
10
123.187159
20
12.184773
11
121.753490
21
11.980300
0
LINE
8
Layer 1
10
121.753490
20
11.980300
11
119.908250
21
12.180979
0
LINE
8
Layer 1
10
119.908250
20
12.180979
11
118.140814
21
12.699422
0
LINE
8
Layer 1
10
118.140814
20
12.699422
11
116.491676
21
13.519761
0
LINE
8
Layer 1
10
116.491676
20
13.519761
11
115.001330
21
14.626130
0
LINE
8
Layer 1
10
115.001330
20
14.626130
11
115.895621
21
10.630930
0
LINE
8
Layer 1
10
115.895621
20
10.630930
11
118.612620
21
9.898165
0
LINE
8
Layer 1
10
118.612620
20
9.898165
11
121.417471
21
9.670494
0
LINE
8
Layer 1
10
121.417471
20
9.670494
11
123.152675
21
9.814614
0
LINE
8
Layer 1
10
123.152675
20
9.814614
11
124.736291
21
10.223679
0
LINE
8
Layer 1
10
124.736291
20
10.223679
11
126.143733
21
10.862746
0
LINE
8
Layer 1
10
126.143733
20
10.862746
11
127.350412
21
11.696870
0
LINE
8
Layer 1
10
127.350412
20
11.696870
11
128.331741
21
12.691109
0
LINE
8
Layer 1
10
128.331741
20
12.691109
11
129.063133
21
13.810518
0
LINE
8
Layer 1
10
129.063133
20
13.810518
11
129.519998
21
15.020154
0
LINE
8
Layer 1
10
129.519998
20
15.020154
11
129.677751
21
16.285074
0
LINE
8
Layer 1
10
129.677751
20
16.285074
11
129.558078
21
17.327276
0
LINE
8
Layer 1
10
129.558078
20
17.327276
11
129.220816
21
18.244540
0
LINE
8
Layer 1
10
129.220816
20
18.244540
11
128.697053
21
19.052136
0
LINE
8
Layer 1
10
128.697053
20
19.052136
11
128.017879
21
19.765334
0
LINE
8
Layer 1
10
128.017879
20
19.765334
11
126.317652
21
20.969620
0
LINE
8
Layer 1
10
126.317652
20
20.969620
11
124.368844
21
21.979559
0
LINE
8
Layer 1
10
124.368844
20
21.979559
11
122.420165
21
22.917314
0
LINE
8
Layer 1
10
122.420165
20
22.917314
11
120.720324
21
23.905048
0
LINE
8
Layer 1
10
120.720324
20
23.905048
11
120.041440
21
24.455832
0
LINE
8
Layer 1
10
120.041440
20
24.455832
11
119.518033
21
25.064922
0
LINE
8
Layer 1
10
119.518033
20
25.064922
11
119.181190
21
25.747588
0
LINE
8
Layer 1
10
119.181190
20
25.747588
11
119.062000
21
26.519100
0
LINE
8
Layer 1
10
119.062000
20
26.519100
11
119.062000
21
26.519100
0
LINE
8
Layer 1
10
130.839000
20
31.125500
11
131.348549
21
30.821488
0
LINE
8
Layer 1
10
131.348549
20
30.821488
11
131.714107
21
30.386074
0
LINE
8
Layer 1
10
131.714107
20
30.386074
11
132.107012
21
29.242332
0
LINE
8
Layer 1
10
132.107012
20
29.242332
11
132.205239
21
27.936865
0
LINE
8
Layer 1
10
132.205239
20
27.936865
11
132.196310
21
26.712260
0
LINE
8
Layer 1
10
132.196310
20
26.712260
11
132.196000
21
14.660500
0
LINE
8
Layer 1
10
132.196000
20
14.660500
11
132.201209
21
13.450527
0
LINE
8
Layer 1
10
132.201209
20
13.450527
11
132.096781
21
12.146299
0
LINE
8
Layer 1
10
132.096781
20
12.146299
11
131.702636
21
11.003799
0
LINE
8
Layer 1
10
131.702636
20
11.003799
11
131.340643
21
10.573191
0
LINE
8
Layer 1
10
131.340643
20
10.573191
11
130.838690
21
10.279010
0
LINE
8
Layer 1
10
130.838690
20
10.279010
11
130.839000
21
10.183700
0
LINE
8
Layer 1
10
130.839000
20
10.183700
11
136.694000
21
10.183700
0
LINE
8
Layer 1
10
136.694000
20
10.183700
11
136.694000
21
10.279000
0
LINE
8
Layer 1
10
136.694000
20
10.279000
11
136.192920
21
10.583059
0
LINE
8
Layer 1
10
136.192920
20
10.583059
11
135.831584
21
11.018303
0
LINE
8
Layer 1
10
135.831584
20
11.018303
11
135.438225
21
12.159193
0
LINE
8
Layer 1
10
135.438225
20
12.159193
11
135.334089
21
13.455359
0
LINE
8
Layer 1
10
135.334089
20
13.455359
11
135.339340
21
14.660490
0
LINE
8
Layer 1
10
135.339340
20
14.660490
11
135.339000
21
26.709600
0
LINE
8
Layer 1
10
135.339000
20
26.709600
11
135.333750
21
27.920810
0
LINE
8
Layer 1
10
135.333750
20
27.920810
11
135.437887
21
29.227766
0
LINE
8
Layer 1
10
135.437887
20
29.227766
11
135.831246
21
30.378949
0
LINE
8
Layer 1
10
135.831246
20
30.378949
11
136.192582
21
30.817526
0
LINE
8
Layer 1
10
136.192582
20
30.817526
11
136.693660
21
31.122840
0
LINE
8
Layer 1
10
136.693660
20
31.122840
11
136.694000
21
31.218100
0
LINE
8
Layer 1
10
136.694000
20
31.218100
11
130.839000
21
31.218100
0
LINE
8
Layer 1
10
130.839000
20
31.218100
11
130.839000
21
31.122800
0
LINE
8
Layer 1
10
130.839000
20
31.122800
11
130.839000
21
31.125500
0
LINE
8
Layer 1
10
153.323000
20
31.218100
11
153.323000
21
31.122800
0
LINE
8
Layer 1
10
153.323000
20
31.122800
11
154.264875
21
30.339510
0
LINE
8
Layer 1
10
154.264875
20
30.339510
11
154.740174
21
29.418554
0
LINE
8
Layer 1
10
154.740174
20
29.418554
11
154.908391
21
28.342321
0
LINE
8
Layer 1
10
154.908391
20
28.342321
11
154.929020
21
27.093200
0
LINE
8
Layer 1
10
154.929020
20
27.093200
11
154.929000
21
14.972700
0
LINE
8
Layer 1
10
154.929000
20
14.972700
11
143.642000
21
29.747000
0
LINE
8
Layer 1
10
143.642000
20
29.747000
11
143.208084
21
30.387291
0
LINE
8
Layer 1
10
143.208084
20
30.387291
11
142.745064
21
31.181040
0
LINE
8
Layer 1
10
142.745064
20
31.181040
11
142.745000
21
31.210200
0
LINE
8
Layer 1
10
142.745000
20
31.210200
11
138.247000
21
31.210200
0
LINE
8
Layer 1
10
138.247000
20
31.210200
11
138.247000
21
31.114900
0
LINE
8
Layer 1
10
138.247000
20
31.114900
11
139.173948
21
30.331610
0
LINE
8
Layer 1
10
139.173948
20
30.331610
11
139.649949
21
29.410654
0
LINE
8
Layer 1
10
139.649949
20
29.410654
11
139.825317
21
28.334421
0
LINE
8
Layer 1
10
139.825317
20
28.334421
11
139.850370
21
27.085300
0
LINE
8
Layer 1
10
139.850370
20
27.085300
11
139.851000
21
14.327100
0
LINE
8
Layer 1
10
139.851000
20
14.327100
11
139.825492
21
13.077896
0
LINE
8
Layer 1
10
139.825492
20
13.077896
11
139.646940
21
11.999100
0
LINE
8
Layer 1
10
139.646940
20
11.999100
11
139.162297
21
11.069629
0
LINE
8
Layer 1
10
139.162297
20
11.069629
11
138.218520
21
10.268400
0
LINE
8
Layer 1
10
138.218520
20
10.268400
11
138.218000
21
10.173200
0
LINE
8
Layer 1
10
138.218000
20
10.173200
11
143.669000
21
10.173200
0
LINE
8
Layer 1
10
143.669000
20
10.173200
11
143.669000
21
10.268400
0
LINE
8
Layer 1
10
143.669000
20
10.268400
11
142.728657
21
11.069631
0
LINE
8
Layer 1
10
142.728657
20
11.069631
11
142.254145
21
11.999102
0
LINE
8
Layer 1
10
142.254145
20
11.999102
11
142.086218
21
13.077897
0
LINE
8
Layer 1
10
142.086218
20
13.077897
11
142.065630
21
14.327100
0
LINE
8
Layer 1
10
142.065630
20
14.327100
11
142.065000
21
26.709600
0
LINE
8
Layer 1
10
142.065000
20
26.709600
11
152.648300
21
12.803100
0
LINE
8
Layer 1
10
152.648300
20
12.803100
11
153.615638
21
11.571837
0
LINE
8
Layer 1
10
153.615638
20
11.571837
11
154.586699
21
10.582916
0
LINE
8
Layer 1
10
154.586699
20
10.582916
11
155.713038
21
9.791938
0
LINE
8
Layer 1
10
155.713038
20
9.791938
11
157.146210
21
9.154500
0
LINE
8
Layer 1
10
157.146210
20
9.154500
11
157.146000
21
27.093200
0
LINE
8
Layer 1
10
157.146000
20
27.093200
11
157.171053
21
28.342320
0
LINE
8
Layer 1
10
157.171053
20
28.342320
11
157.346421
21
29.418552
0
LINE
8
Layer 1
10
157.346421
20
29.418552
11
157.822422
21
30.339508
0
LINE
8
Layer 1
10
157.822422
20
30.339508
11
158.749370
21
31.122800
0
LINE
8
Layer 1
10
158.749370
20
31.122800
11
158.750000
21
31.218100
0
LINE
8
Layer 1
10
158.750000
20
31.218100
11
153.323000
21
31.218100
0
LINE
8
Layer 1
10
153.323000
20
31.218100
11
153.323000
21
31.218100
0
LINE
8
Layer 1
10
9.305380
20
5.744040
11
9.305380
21
2.076920
0
LINE
8
Layer 1
10
9.305380
20
2.076920
11
9.040797
21
0.978900
0
LINE
8
Layer 1
10
9.040797
20
0.978900
11
8.706640
21
0.557643
0
LINE
8
Layer 1
10
8.706640
20
0.557643
11
8.262923
21
0.253943
0
LINE
8
Layer 1
10
8.262923
20
0.253943
11
7.043193
21
-0.010640
0
LINE
8
Layer 1
10
7.043193
20
-0.010640
11
6.167904
21
0.106637
0
LINE
8
Layer 1
10
6.167904
20
0.106637
11
5.402783
21
0.547630
0
LINE
8
Layer 1
10
5.402783
20
0.547630
11
4.947561
21
1.252865
0
LINE
8
Layer 1
10
4.947561
20
1.252865
11
4.818055
21
2.082210
0
LINE
8
Layer 1
10
4.818055
20
2.082210
11
4.818060
21
5.733460
0
LINE
8
Layer 1
10
4.818060
20
5.733460
11
5.749390
21
5.733460
0
LINE
8
Layer 1
10
5.749390
20
5.733460
11
5.749390
21
2.148360
0
LINE
8
Layer 1
10
5.749390
20
2.148360
11
5.810543
21
1.599150
0
LINE
8
Layer 1
10
5.810543
20
1.599150
11
6.074827
21
1.113840
0
LINE
8
Layer 1
10
6.074827
20
1.113840
11
6.540765
21
0.844788
0
LINE
8
Layer 1
10
6.540765
20
0.844788
11
7.074947
21
0.780465
0
LINE
8
Layer 1
10
7.074947
20
0.780465
11
7.648763
21
0.866454
0
LINE
8
Layer 1
10
7.648763
20
0.866454
11
8.060522
21
1.124422
0
LINE
8
Layer 1
10
8.060522
20
1.124422
11
8.310223
21
1.554369
0
LINE
8
Layer 1
10
8.310223
20
1.554369
11
8.397867
21
2.156295
0
LINE
8
Layer 1
10
8.397867
20
2.156295
11
8.397860
21
5.744040
0
LINE
8
Layer 1
10
8.397860
20
5.744040
11
9.323900
21
5.744040
0
LINE
8
Layer 1
10
9.323900
20
5.744040
11
9.305380
21
5.744040
0
LINE
8
Layer 1
10
15.666000
20
0.076674
11
14.530900
21
0.076674
0
LINE
8
Layer 1
10
14.530900
20
0.076674
11
11.744800
21
4.590460
0
LINE
8
Layer 1
10
11.744800
20
4.590460
11
11.713100
21
4.590460
0
LINE
8
Layer 1
10
11.713100
20
4.590460
11
11.734267
21
4.325877
0
LINE
8
Layer 1
10
11.734267
20
4.325877
11
11.789829
21
3.002957
0
LINE
8
Layer 1
10
11.789829
20
3.002957
11
11.789800
21
0.058153
0
LINE
8
Layer 1
10
11.789800
20
0.058153
11
10.945800
21
0.058153
0
LINE
8
Layer 1
10
10.945800
20
0.058153
11
10.945800
21
5.744040
0
LINE
8
Layer 1
10
10.945800
20
5.744040
11
12.070300
21
5.744040
0
LINE
8
Layer 1
10
12.070300
20
5.744040
11
14.851070
21
1.246130
0
LINE
8
Layer 1
10
14.851070
20
1.246130
11
14.874900
21
1.246130
0
LINE
8
Layer 1
10
14.874900
20
1.246130
11
14.843150
21
1.894358
0
LINE
8
Layer 1
10
14.843150
20
1.894358
11
14.819337
21
2.767482
0
LINE
8
Layer 1
10
14.819337
20
2.767482
11
14.819300
21
5.744040
0
LINE
8
Layer 1
10
14.819300
20
5.744040
11
15.668600
21
5.744040
0
LINE
8
Layer 1
10
15.668600
20
5.744040
11
15.668600
21
0.076674
0
LINE
8
Layer 1
10
15.668600
20
0.076674
11
15.666000
21
0.076674
0
LINE
8
Layer 1
10
17.433400
20
0.076674
11
17.433400
21
5.744040
0
LINE
8
Layer 1
10
17.433400
20
5.744040
11
18.359400
21
5.744040
0
LINE
8
Layer 1
10
18.359400
20
5.744040
11
18.359400
21
0.076674
0
LINE
8
Layer 1
10
18.359400
20
0.076674
11
17.433400
21
0.076674
0
LINE
8
Layer 1
10
17.433400
20
0.076674
11
17.433400
21
0.076674
0
LINE
8
Layer 1
10
23.352100
20
5.744040
11
24.312500
21
5.744040
0
LINE
8
Layer 1
10
24.312500
20
5.744040
11
22.328130
21
0.076670
0
LINE
8
Layer 1
10
22.328130
20
0.076670
11
21.351800
21
0.076674
0
LINE
8
Layer 1
10
21.351800
20
0.076674
11
19.375360
21
5.744044
0
LINE
8
Layer 1
10
19.375360
20
5.744044
11
20.327900
21
5.744040
0
LINE
8
Layer 1
10
20.327900
20
5.744040
11
21.513200
21
2.209210
0
LINE
8
Layer 1
10
21.513200
20
2.209210
11
21.708991
21
1.560982
0
LINE
8
Layer 1
10
21.708991
20
1.560982
11
21.846574
21
0.968316
0
LINE
8
Layer 1
10
21.846574
20
0.968316
11
22.002678
21
1.650940
0
LINE
8
Layer 1
10
22.002678
20
1.650940
11
22.172011
21
2.225085
0
LINE
8
Layer 1
10
22.172011
20
2.225085
11
23.352100
21
5.744040
0
LINE
8
Layer 1
10
28.537900
20
0.076674
11
25.331200
21
0.076674
0
LINE
8
Layer 1
10
25.331200
20
0.076674
11
25.331200
21
5.744040
0
LINE
8
Layer 1
10
25.331200
20
5.744040
11
28.535300
21
5.744040
0
LINE
8
Layer 1
10
28.535300
20
5.744040
11
28.535300
21
4.950290
0
LINE
8
Layer 1
10
28.535300
20
4.950290
11
26.257200
21
4.950290
0
LINE
8
Layer 1
10
26.257200
20
4.950290
11
26.257200
21
3.407770
0
LINE
8
Layer 1
10
26.257200
20
3.407770
11
28.392400
21
3.407770
0
LINE
8
Layer 1
10
28.392400
20
3.407770
11
28.392400
21
2.632550
0
LINE
8
Layer 1
10
28.392400
20
2.632550
11
26.257200
21
2.632550
0
LINE
8
Layer 1
10
26.257200
20
2.632550
11
26.257200
21
0.854548
0
LINE
8
Layer 1
10
26.257200
20
0.854548
11
28.535300
21
0.854548
0
LINE
8
Layer 1
10
28.535300
20
0.854548
11
28.535300
21
0.060799
0
LINE
8
Layer 1
10
28.535300
20
0.060799
11
28.537900
21
0.076674
0
LINE
8
Layer 1
10
30.956200
20
2.341500
11
30.956200
21
0.079320
0
LINE
8
Layer 1
10
30.956200
20
0.079320
11
30.030200
21
0.079320
0
LINE
8
Layer 1
10
30.030200
20
0.079320
11
30.030200
21
5.744040
0
LINE
8
Layer 1
10
30.030200
20
5.744040
11
31.617700
21
5.744040
0
LINE
8
Layer 1
10
31.617700
20
5.744040
11
32.571520
21
5.641514
0
LINE
8
Layer 1
10
32.571520
20
5.641514
11
33.242240
21
5.333936
0
LINE
8
Layer 1
10
33.242240
20
5.333936
11
33.656839
21
4.777464
0
LINE
8
Layer 1
10
33.656839
20
4.777464
11
33.771406
21
4.093046
0
LINE
8
Layer 1
10
33.771406
20
4.093046
11
33.702614
21
3.601915
0
LINE
8
Layer 1
10
33.702614
20
3.601915
11
33.496238
21
3.186851
0
LINE
8
Layer 1
10
33.496238
20
3.186851
11
32.670736
21
2.584926
0
LINE
8
Layer 1
10
32.670736
20
2.584926
11
34.258236
21
0.076676
0
LINE
8
Layer 1
10
34.258236
20
0.076676
11
33.199900
21
0.076674
0
LINE
8
Layer 1
10
33.199900
20
0.076674
11
31.842590
21
2.338854
0
LINE
8
Layer 1
10
31.842590
20
2.338854
11
30.956200
21
2.338860
0
LINE
8
Layer 1
10
30.956200
20
2.338860
11
30.956200
21
2.341500
0
LINE
8
Layer 1
10
30.956200
20
3.108791
11
31.599100
21
3.108800
0
LINE
8
Layer 1
10
31.599100
20
3.108800
11
32.087801
21
3.149869
0
LINE
8
Layer 1
10
32.087801
20
3.149869
11
32.535724
21
3.349571
0
LINE
8
Layer 1
10
32.535724
20
3.349571
11
32.764413
21
3.672874
0
LINE
8
Layer 1
10
32.764413
20
3.672874
11
32.826765
21
4.063945
0
LINE
8
Layer 1
10
32.826765
20
4.063945
11
32.760698
21
4.450880
0
LINE
8
Layer 1
10
32.760698
20
4.450880
11
32.511911
21
4.754507
0
LINE
8
Layer 1
10
32.511911
20
4.754507
11
31.567350
21
4.963528
0
LINE
8
Layer 1
10
31.567350
20
4.963528
11
30.956200
21
4.963520
0
LINE
8
Layer 1
10
30.956200
20
4.963520
11
30.956200
21
3.111440
0
LINE
8
Layer 1
10
30.956200
20
3.111440
11
30.956200
21
3.108791
0
LINE
8
Layer 1
10
38.642300
20
1.616550
11
38.512086
21
0.957520
0
LINE
8
Layer 1
10
38.512086
20
0.957520
11
38.094613
21
0.431220
0
LINE
8
Layer 1
10
38.094613
20
0.431220
11
37.377083
21
0.087843
0
LINE
8
Layer 1
10
37.377083
20
0.087843
11
36.586493
21
-0.000050
0
LINE
8
Layer 1
10
36.586493
20
-0.000050
11
35.782478
21
0.060560
0
LINE
8
Layer 1
10
35.782478
20
0.060560
11
35.012223
21
0.298929
0
LINE
8
Layer 1
10
35.012223
20
0.298929
11
35.012300
21
1.174690
0
LINE
8
Layer 1
10
35.012300
20
1.174690
11
35.835153
21
0.888940
0
LINE
8
Layer 1
10
35.835153
20
0.888940
11
36.647423
21
0.783107
0
LINE
8
Layer 1
10
36.647423
20
0.783107
11
37.459693
21
0.992128
0
LINE
8
Layer 1
10
37.459693
20
0.992128
11
37.724276
21
1.553044
0
LINE
8
Layer 1
10
37.724276
20
1.553044
11
37.483505
21
2.082210
0
LINE
8
Layer 1
10
37.483505
20
2.082210
11
36.491319
21
2.611376
0
LINE
8
Layer 1
10
36.491319
20
2.611376
11
35.899609
21
2.900781
0
LINE
8
Layer 1
10
35.899609
20
2.900781
11
35.398589
21
3.328396
0
LINE
8
Layer 1
10
35.398589
20
3.328396
11
35.155878
21
3.785055
0
LINE
8
Layer 1
10
35.155878
20
3.785055
11
35.081089
21
4.296770
0
LINE
8
Layer 1
10
35.081089
20
4.296770
11
35.199088
21
4.915081
0
LINE
8
Layer 1
10
35.199088
20
4.915081
11
35.583797
21
5.413310
0
LINE
8
Layer 1
10
35.583797
20
5.413310
11
36.224357
21
5.734669
0
LINE
8
Layer 1
10
36.224357
20
5.734669
11
36.935817
21
5.820768
0
LINE
8
Layer 1
10
36.935817
20
5.820768
11
37.764305
21
5.727685
0
LINE
8
Layer 1
10
37.764305
20
5.727685
11
38.555067
21
5.463581
0
LINE
8
Layer 1
10
38.555067
20
5.463581
11
38.261380
21
4.706874
0
LINE
8
Layer 1
10
38.261380
20
4.706874
11
36.912010
21
5.024374
0
LINE
8
Layer 1
10
36.912010
20
5.024374
11
36.229386
21
4.828583
0
LINE
8
Layer 1
10
36.229386
20
4.828583
11
35.996553
21
4.299417
0
LINE
8
Layer 1
10
35.996553
20
4.299417
11
36.089157
21
3.921063
0
LINE
8
Layer 1
10
36.089157
20
3.921063
11
36.396073
21
3.624730
0
LINE
8
Layer 1
10
36.396073
20
3.624730
11
37.163364
21
3.256960
0
LINE
8
Layer 1
10
37.163364
20
3.256960
11
38.078821
21
2.772773
0
LINE
8
Layer 1
10
38.078821
20
2.772773
11
38.504800
21
2.264774
0
LINE
8
Layer 1
10
38.504800
20
2.264774
11
38.642300
21
1.616550
0
LINE
8
Layer 1
10
38.642300
20
1.616550
11
38.642300
21
1.616550
0
LINE
8
Layer 1
10
40.010200
20
0.076674
11
40.010200
21
5.744040
0
LINE
8
Layer 1
10
40.010200
20
5.744040
11
40.936300
21
5.744040
0
LINE
8
Layer 1
10
40.936300
20
5.744040
11
40.936300
21
0.076674
0
LINE
8
Layer 1
10
40.936300
20
0.076674
11
40.010200
21
0.076674
0
LINE
8
Layer 1
10
40.010200
20
0.076674
11
40.010200
21
0.076674
0
LINE
8
Layer 1
10
44.659000
20
0.076674
11
43.732900
21
0.076674
0
LINE
8
Layer 1
10
43.732900
20
0.076674
11
43.732900
21
4.950290
0
LINE
8
Layer 1
10
43.732900
20
4.950290
11
42.068700
21
4.950290
0
LINE
8
Layer 1
10
42.068700
20
4.950290
11
42.068700
21
5.744040
0
LINE
8
Layer 1
10
42.068700
20
5.744040
11
46.328500
21
5.744040
0
LINE
8
Layer 1
10
46.328500
20
5.744040
11
46.328500
21
4.950290
0
LINE
8
Layer 1
10
46.328500
20
4.950290
11
44.661600
21
4.950290
0
LINE
8
Layer 1
10
44.661600
20
4.950290
11
44.661600
21
0.079320
0
LINE
8
Layer 1
10
44.661600
20
0.079320
11
44.659000
21
0.076674
0
LINE
8
Layer 1
10
49.064300
20
3.159070
11
50.405740
21
5.744050
0
LINE
8
Layer 1
10
50.405740
20
5.744050
11
51.413800
21
5.744040
0
LINE
8
Layer 1
10
51.413800
20
5.744040
11
49.524680
21
2.275360
0
LINE
8
Layer 1
10
49.524680
20
2.275360
11
49.524600
21
0.076674
0
LINE
8
Layer 1
10
49.524600
20
0.076674
11
48.593300
21
0.076674
0
LINE
8
Layer 1
10
48.593300
20
0.076674
11
48.593300
21
2.243610
0
LINE
8
Layer 1
10
48.593300
20
2.243610
11
46.714760
21
5.744040
0
LINE
8
Layer 1
10
46.714760
20
5.744040
11
47.722800
21
5.744040
0
LINE
8
Layer 1
10
47.722800
20
5.744040
11
49.064300
21
3.159070
0
LINE
8
Layer 1
10
59.795800
20
2.918300
11
59.622498
21
1.688650
0
LINE
8
Layer 1
10
59.622498
20
1.688650
11
59.102593
21
0.767240
0
LINE
8
Layer 1
10
59.102593
20
0.767240
11
58.208226
21
0.167750
0
LINE
8
Layer 1
10
58.208226
20
0.167750
11
57.144683
21
-0.000051
0
LINE
8
Layer 1
10
57.144683
20
-0.000051
11
56.010283
21
0.190449
0
LINE
8
Layer 1
10
56.010283
20
0.190449
11
55.173543
21
0.761948
0
LINE
8
Layer 1
10
55.173543
20
0.761948
11
54.657609
21
1.684020
0
LINE
8
Layer 1
10
54.657609
20
1.684020
11
54.485627
21
2.926238
0
LINE
8
Layer 1
10
54.485627
20
2.926238
11
54.658929
21
4.165810
0
LINE
8
Layer 1
10
54.658929
20
4.165810
11
55.178834
21
5.079948
0
LINE
8
Layer 1
10
55.178834
20
5.079948
11
56.018204
21
5.644171
0
LINE
8
Layer 1
10
56.018204
20
5.644171
11
57.149900
21
5.834000
0
LINE
8
Layer 1
10
57.149900
20
5.834000
11
58.210442
21
5.666776
0
LINE
8
Layer 1
10
58.210442
20
5.666776
11
59.102520
21
5.069355
0
LINE
8
Layer 1
10
59.102520
20
5.069355
11
59.622480
21
4.149269
0
LINE
8
Layer 1
10
59.622480
20
4.149269
11
59.795800
21
2.918300
0
LINE
8
Layer 1
10
59.795800
20
2.918300
11
59.795800
21
2.918300
0
LINE
8
Layer 1
10
55.469870
20
2.918300
11
55.549344
21
2.089299
0
LINE
8
Layer 1
10
55.549344
20
2.089299
11
55.893203
21
1.330800
0
LINE
8
Layer 1
10
55.893203
20
1.330800
11
56.462024
21
0.932600
0
LINE
8
Layer 1
10
56.462024
20
0.932600
11
57.142033
21
0.792216
0
LINE
8
Layer 1
10
57.142033
20
0.792216
11
57.822042
21
0.932600
0
LINE
8
Layer 1
10
57.822042
20
0.932600
11
58.390863
21
1.330800
0
LINE
8
Layer 1
10
58.390863
20
1.330800
11
58.706378
21
1.992258
0
LINE
8
Layer 1
10
58.706378
20
1.992258
11
58.811550
21
2.918300
0
LINE
8
Layer 1
10
58.811550
20
2.918300
11
58.735005
21
3.746368
0
LINE
8
Layer 1
10
58.735005
20
3.746368
11
58.396155
21
4.505800
0
LINE
8
Layer 1
10
58.396155
20
4.505800
11
57.838488
21
4.921025
0
LINE
8
Layer 1
10
57.838488
20
4.921025
11
57.152615
21
5.034966
0
LINE
8
Layer 1
10
57.152615
20
5.034966
11
56.460882
21
4.920834
0
LINE
8
Layer 1
10
56.460882
20
4.920834
11
55.895845
21
4.505800
0
LINE
8
Layer 1
10
55.895845
20
4.505800
11
55.548478
21
3.747974
0
LINE
8
Layer 1
10
55.548478
20
3.747974
11
55.467200
21
2.918300
0
LINE
8
Layer 1
10
55.467200
20
2.918300
11
55.469870
21
2.918300
0
LINE
8
Layer 1
10
62.198200
20
0.076674
11
61.280100
21
0.076674
0
LINE
8
Layer 1
10
61.280100
20
0.076674
11
61.280100
21
5.744040
0
LINE
8
Layer 1
10
61.280100
20
5.744040
11
64.476200
21
5.744040
0
LINE
8
Layer 1
10
64.476200
20
5.744040
11
64.476200
21
4.950290
0
LINE
8
Layer 1
10
64.476200
20
4.950290
11
62.198200
21
4.950290
0
LINE
8
Layer 1
10
62.198200
20
4.950290
11
62.198200
21
3.180230
0
LINE
8
Layer 1
10
62.198200
20
3.180230
11
64.333400
21
3.180230
0
LINE
8
Layer 1
10
64.333400
20
3.180230
11
64.333400
21
2.386480
0
LINE
8
Layer 1
10
64.333400
20
2.386480
11
62.198200
21
2.386480
0
LINE
8
Layer 1
10
62.198200
20
2.386480
11
62.198200
21
0.060799
0
LINE
8
Layer 1
10
62.198200
20
0.060799
11
62.198200
21
0.076674
0
LINE
8
Layer 1
10
73.334500
20
0.076674
11
72.326400
21
0.076674
0
LINE
8
Layer 1
10
72.326400
20
0.076674
11
71.365964
21
3.455394
0
LINE
8
Layer 1
10
71.365964
20
3.455394
11
71.209860
21
4.093039
0
LINE
8
Layer 1
10
71.209860
20
4.093039
11
71.096089
21
4.672476
0
LINE
8
Layer 1
10
71.096089
20
4.672476
11
70.971735
21
4.029539
0
LINE
8
Layer 1
10
70.971735
20
4.029539
11
70.826214
21
3.439519
0
LINE
8
Layer 1
10
70.826214
20
3.439519
11
69.889590
21
0.076669
0
LINE
8
Layer 1
10
69.889590
20
0.076669
11
68.881500
21
0.076674
0
LINE
8
Layer 1
10
68.881500
20
0.076674
11
68.148605
21
2.913004
0
LINE
8
Layer 1
10
68.148605
20
2.913004
11
67.405127
21
5.741394
0
LINE
8
Layer 1
10
67.405127
20
5.741394
11
68.349700
21
5.741400
0
LINE
8
Layer 1
10
68.349700
20
5.741400
11
69.159324
21
2.439400
0
LINE
8
Layer 1
10
69.159324
20
2.439400
11
69.423907
21
1.037110
0
LINE
8
Layer 1
10
69.423907
20
1.037110
11
69.550907
21
1.772651
0
LINE
8
Layer 1
10
69.550907
20
1.772651
11
69.707011
21
2.431463
0
LINE
8
Layer 1
10
69.707011
20
2.431463
11
70.643700
21
5.744040
0
LINE
8
Layer 1
10
70.643700
20
5.744040
11
71.561800
21
5.744040
0
LINE
8
Layer 1
10
71.561800
20
5.744040
11
72.495700
21
2.418230
0
LINE
8
Layer 1
10
72.495700
20
2.418230
11
72.781450
21
1.039750
0
LINE
8
Layer 1
10
72.781450
20
1.039750
11
73.059262
21
2.449980
0
LINE
8
Layer 1
10
73.059262
20
2.449980
11
73.853011
21
5.744040
0
LINE
8
Layer 1
10
73.853011
20
5.744040
11
74.789700
21
5.744040
0
LINE
8
Layer 1
10
74.789700
20
5.744040
11
73.334500
21
0.076674
0
LINE
8
Layer 1
10
75.882400
20
0.076674
11
75.882400
21
5.744040
0
LINE
8
Layer 1
10
75.882400
20
5.744040
11
76.808400
21
5.744040
0
LINE
8
Layer 1
10
76.808400
20
5.744040
11
76.808400
21
0.076674
0
LINE
8
Layer 1
10
76.808400
20
0.076674
11
75.882400
21
0.076674
0
LINE
8
Layer 1
10
75.882400
20
0.076674
11
75.882400
21
0.076674
0
LINE
8
Layer 1
10
81.840800
20
1.616550
11
81.711772
21
0.957904
0
LINE
8
Layer 1
10
81.711772
20
0.957904
11
81.295759
21
0.431220
0
LINE
8
Layer 1
10
81.295759
20
0.431220
11
80.578229
21
0.087843
0
LINE
8
Layer 1
10
80.578229
20
0.087843
11
79.787639
21
-0.000050
0
LINE
8
Layer 1
10
79.787639
20
-0.000050
11
78.983650
21
0.060694
0
LINE
8
Layer 1
10
78.983650
20
0.060694
11
78.213369
21
0.298929
0
LINE
8
Layer 1
10
78.213369
20
0.298929
11
78.213400
21
1.174690
0
LINE
8
Layer 1
10
78.213400
20
1.174690
11
79.036253
21
0.888940
0
LINE
8
Layer 1
10
79.036253
20
0.888940
11
79.848523
21
0.783107
0
LINE
8
Layer 1
10
79.848523
20
0.783107
11
80.660793
21
0.992128
0
LINE
8
Layer 1
10
80.660793
20
0.992128
11
80.925376
21
1.553044
0
LINE
8
Layer 1
10
80.925376
20
1.553044
11
80.684605
21
2.082210
0
LINE
8
Layer 1
10
80.684605
20
2.082210
11
79.692419
21
2.611376
0
LINE
8
Layer 1
10
79.692419
20
2.611376
11
79.100424
21
2.900347
0
LINE
8
Layer 1
10
79.100424
20
2.900347
11
78.599689
21
3.328396
0
LINE
8
Layer 1
10
78.599689
20
3.328396
11
78.356978
21
3.785055
0
LINE
8
Layer 1
10
78.356978
20
3.785055
11
78.282189
21
4.296770
0
LINE
8
Layer 1
10
78.282189
20
4.296770
11
78.400188
21
4.915081
0
LINE
8
Layer 1
10
78.400188
20
4.915081
11
78.784897
21
5.413310
0
LINE
8
Layer 1
10
78.784897
20
5.413310
11
79.425361
21
5.734987
0
LINE
8
Layer 1
10
79.425361
20
5.734987
11
80.136917
21
5.820768
0
LINE
8
Layer 1
10
80.136917
20
5.820768
11
80.965405
21
5.727685
0
LINE
8
Layer 1
10
80.965405
20
5.727685
11
81.756167
21
5.463581
0
LINE
8
Layer 1
10
81.756167
20
5.463581
11
81.462480
21
4.706874
0
LINE
8
Layer 1
10
81.462480
20
4.706874
11
80.113110
21
5.024374
0
LINE
8
Layer 1
10
80.113110
20
5.024374
11
79.430486
21
4.828583
0
LINE
8
Layer 1
10
79.430486
20
4.828583
11
79.197653
21
4.299417
0
LINE
8
Layer 1
10
79.197653
20
4.299417
11
79.290257
21
3.921063
0
LINE
8
Layer 1
10
79.290257
20
3.921063
11
79.597173
21
3.624730
0
LINE
8
Layer 1
10
79.597173
20
3.624730
11
80.364464
21
3.256960
0
LINE
8
Layer 1
10
80.364464
20
3.256960
11
81.279921
21
2.772773
0
LINE
8
Layer 1
10
81.279921
20
2.772773
11
81.705900
21
2.264774
0
LINE
8
Layer 1
10
81.705900
20
2.264774
11
81.840800
21
1.616550
0
LINE
8
Layer 1
10
81.840800
20
1.616550
11
81.840800
21
1.616550
0
LINE
8
Layer 1
10
85.619100
20
5.029670
11
84.923042
21
4.896776
0
LINE
8
Layer 1
10
84.923042
20
4.896776
11
84.362330
21
4.463462
0
LINE
8
Layer 1
10
84.362330
20
4.463462
11
83.998107
21
3.722632
0
LINE
8
Layer 1
10
83.998107
20
3.722632
11
83.904601
21
2.902422
0
LINE
8
Layer 1
10
83.904601
20
2.902422
11
84.014403
21
1.984317
0
LINE
8
Layer 1
10
84.014403
20
1.984317
11
84.343809
21
1.314922
0
LINE
8
Layer 1
10
84.343809
20
1.314922
11
84.919535
21
0.901114
0
LINE
8
Layer 1
10
84.919535
20
0.901114
11
85.619099
21
0.785756
0
LINE
8
Layer 1
10
85.619099
20
0.785756
11
86.317598
21
0.857193
0
LINE
8
Layer 1
10
86.317598
20
0.857193
11
87.018743
21
1.042401
0
LINE
8
Layer 1
10
87.018743
20
1.042401
11
87.018700
21
0.248653
0
LINE
8
Layer 1
10
87.018700
20
0.248653
11
85.507930
21
-0.015930
0
LINE
8
Layer 1
10
85.507930
20
-0.015930
11
84.408587
21
0.172585
0
LINE
8
Layer 1
10
84.408587
20
0.172585
11
83.597640
21
0.738132
0
LINE
8
Layer 1
10
83.597640
20
0.738132
11
83.097578
21
1.654250
0
LINE
8
Layer 1
10
83.097578
20
1.654250
11
82.930891
21
2.894482
0
LINE
8
Layer 1
10
82.930891
20
2.894482
11
83.003777
21
3.685552
0
LINE
8
Layer 1
10
83.003777
20
3.685552
11
83.253682
21
4.439642
0
LINE
8
Layer 1
10
83.253682
20
4.439642
11
83.644607
21
5.018983
0
LINE
8
Layer 1
10
83.644607
20
5.018983
11
84.190306
21
5.455642
0
LINE
8
Layer 1
10
84.190306
20
5.455642
11
84.886609
21
5.727147
0
LINE
8
Layer 1
10
84.886609
20
5.727147
11
85.629636
21
5.807537
0
LINE
8
Layer 1
10
85.629636
20
5.807537
11
86.452603
21
5.718429
0
LINE
8
Layer 1
10
86.452603
20
5.718429
11
87.233006
21
5.442412
0
LINE
8
Layer 1
10
87.233006
20
5.442412
11
86.899631
21
4.669830
0
LINE
8
Layer 1
10
86.899631
20
4.669830
11
86.291090
21
4.907955
0
LINE
8
Layer 1
10
86.291090
20
4.907955
11
85.619100
21
5.029670
0
LINE
8
Layer 1
10
85.619100
20
5.029670
11
85.619100
21
5.029670
0
LINE
8
Layer 1
10
93.540700
20
2.918300
11
93.367398
21
1.688650
0
LINE
8
Layer 1
10
93.367398
20
1.688650
11
92.847493
21
0.767240
0
LINE
8
Layer 1
10
92.847493
20
0.767240
11
91.953225
21
0.167498
0
LINE
8
Layer 1
10
91.953225
20
0.167498
11
90.889583
21
-0.000051
0
LINE
8
Layer 1
10
90.889583
20
-0.000051
11
89.755183
21
0.190449
0
LINE
8
Layer 1
10
89.755183
20
0.190449
11
88.918443
21
0.761948
0
LINE
8
Layer 1
10
88.918443
20
0.761948
11
88.402509
21
1.684020
0
LINE
8
Layer 1
10
88.402509
20
1.684020
11
88.230527
21
2.926238
0
LINE
8
Layer 1
10
88.230527
20
2.926238
11
88.403167
21
4.165810
0
LINE
8
Layer 1
10
88.403167
20
4.165810
11
88.921089
21
5.079948
0
LINE
8
Layer 1
10
88.921089
20
5.079948
11
89.759817
21
5.643512
0
LINE
8
Layer 1
10
89.759817
20
5.643512
11
90.894879
21
5.831364
0
LINE
8
Layer 1
10
90.894879
20
5.831364
11
91.955323
21
5.663889
0
LINE
8
Layer 1
10
91.955323
20
5.663889
11
92.847499
21
5.066719
0
LINE
8
Layer 1
10
92.847499
20
5.066719
11
93.366050
21
4.148610
0
LINE
8
Layer 1
10
93.366050
20
4.148610
11
93.540700
21
2.918300
0
LINE
8
Layer 1
10
93.540700
20
2.918300
11
93.540700
21
2.918300
0
LINE
8
Layer 1
10
89.214770
20
2.918300
11
89.293559
21
2.089688
0
LINE
8
Layer 1
10
89.293559
20
2.089688
11
89.635457
21
1.330800
0
LINE
8
Layer 1
10
89.635457
20
1.330800
11
90.204278
21
0.932600
0
LINE
8
Layer 1
10
90.204278
20
0.932600
11
90.884287
21
0.792216
0
LINE
8
Layer 1
10
90.884287
20
0.792216
11
91.564296
21
0.932600
0
LINE
8
Layer 1
10
91.564296
20
0.932600
11
92.133117
21
1.330800
0
LINE
8
Layer 1
10
92.133117
20
1.330800
11
92.448632
21
1.992258
0
LINE
8
Layer 1
10
92.448632
20
1.992258
11
92.553804
21
2.918300
0
LINE
8
Layer 1
10
92.553804
20
2.918300
11
92.475993
21
3.746602
0
LINE
8
Layer 1
10
92.475993
20
3.746602
11
92.135763
21
4.505800
0
LINE
8
Layer 1
10
92.135763
20
4.505800
11
91.579420
21
4.920701
0
LINE
8
Layer 1
10
91.579420
20
4.920701
11
90.894873
21
5.034966
0
LINE
8
Layer 1
10
90.894873
20
5.034966
11
90.201688
21
4.921454
0
LINE
8
Layer 1
10
90.201688
20
4.921454
11
89.635453
21
4.505800
0
LINE
8
Layer 1
10
89.635453
20
4.505800
11
89.292207
21
3.747266
0
LINE
8
Layer 1
10
89.292207
20
3.747266
11
89.214700
21
2.918300
0
LINE
8
Layer 1
10
89.214700
20
2.918300
11
89.214770
21
2.918300
0
LINE
8
Layer 1
10
99.747800
20
0.076674
11
98.612700
21
0.076674
0
LINE
8
Layer 1
10
98.612700
20
0.076674
11
95.826700
21
4.590460
0
LINE
8
Layer 1
10
95.826700
20
4.590460
11
95.794900
21
4.590460
0
LINE
8
Layer 1
10
95.794900
20
4.590460
11
95.816067
21
4.325877
0
LINE
8
Layer 1
10
95.816067
20
4.325877
11
95.871629
21
3.002957
0
LINE
8
Layer 1
10
95.871629
20
3.002957
11
95.871700
21
0.058153
0
LINE
8
Layer 1
10
95.871700
20
0.058153
11
95.030300
21
0.058153
0
LINE
8
Layer 1
10
95.030300
20
0.058153
11
95.030300
21
5.744040
0
LINE
8
Layer 1
10
95.030300
20
5.744040
11
96.154800
21
5.744040
0
LINE
8
Layer 1
10
96.154800
20
5.744040
11
98.935570
21
1.246130
0
LINE
8
Layer 1
10
98.935570
20
1.246130
11
98.954000
21
1.246130
0
LINE
8
Layer 1
10
98.954000
20
1.246130
11
98.922250
21
1.894358
0
LINE
8
Layer 1
10
98.922250
20
1.894358
11
98.898437
21
2.767482
0
LINE
8
Layer 1
10
98.898437
20
2.767482
11
98.898500
21
5.744040
0
LINE
8
Layer 1
10
98.898500
20
5.744040
11
99.747800
21
5.744040
0
LINE
8
Layer 1
10
99.747800
20
5.744040
11
99.747800
21
0.076674
0
LINE
8
Layer 1
10
99.747800
20
0.076674
11
99.747800
21
0.076674
0
LINE
8
Layer 1
10
104.775000
20
1.616550
11
104.644786
21
0.957520
0
LINE
8
Layer 1
10
104.644786
20
0.957520
11
104.227313
21
0.431220
0
LINE
8
Layer 1
10
104.227313
20
0.431220
11
103.509783
21
0.087843
0
LINE
8
Layer 1
10
103.509783
20
0.087843
11
102.719193
21
-0.000050
0
LINE
8
Layer 1
10
102.719193
20
-0.000050
11
101.915153
21
0.060425
0
LINE
8
Layer 1
10
101.915153
20
0.060425
11
101.144923
21
0.298929
0
LINE
8
Layer 1
10
101.144923
20
0.298929
11
101.145000
21
1.174690
0
LINE
8
Layer 1
10
101.145000
20
1.174690
11
101.967853
21
0.888940
0
LINE
8
Layer 1
10
101.967853
20
0.888940
11
102.780123
21
0.783107
0
LINE
8
Layer 1
10
102.780123
20
0.783107
11
103.589747
21
0.992128
0
LINE
8
Layer 1
10
103.589747
20
0.992128
11
103.854330
21
1.553044
0
LINE
8
Layer 1
10
103.854330
20
1.553044
11
103.613559
21
2.082210
0
LINE
8
Layer 1
10
103.613559
20
2.082210
11
102.621373
21
2.611376
0
LINE
8
Layer 1
10
102.621373
20
2.611376
11
102.029758
21
2.900925
0
LINE
8
Layer 1
10
102.029758
20
2.900925
11
101.528643
21
3.328396
0
LINE
8
Layer 1
10
101.528643
20
3.328396
11
101.286551
21
3.785258
0
LINE
8
Layer 1
10
101.286551
20
3.785258
11
101.211143
21
4.296770
0
LINE
8
Layer 1
10
101.211143
20
4.296770
11
101.329724
21
4.914819
0
LINE
8
Layer 1
10
101.329724
20
4.914819
11
101.713851
21
5.413310
0
LINE
8
Layer 1
10
101.713851
20
5.413310
11
102.355711
21
5.734965
0
LINE
8
Layer 1
10
102.355711
20
5.734965
11
103.068511
21
5.820768
0
LINE
8
Layer 1
10
103.068511
20
5.820768
11
103.896999
21
5.727685
0
LINE
8
Layer 1
10
103.896999
20
5.727685
11
104.687761
21
5.463581
0
LINE
8
Layer 1
10
104.687761
20
5.463581
11
104.394074
21
4.706874
0
LINE
8
Layer 1
10
104.394074
20
4.706874
11
103.044704
21
5.024374
0
LINE
8
Layer 1
10
103.044704
20
5.024374
11
102.362080
21
4.828583
0
LINE
8
Layer 1
10
102.362080
20
4.828583
11
102.129247
21
4.299417
0
LINE
8
Layer 1
10
102.129247
20
4.299417
11
102.221851
21
3.921063
0
LINE
8
Layer 1
10
102.221851
20
3.921063
11
102.526121
21
3.624730
0
LINE
8
Layer 1
10
102.526121
20
3.624730
11
103.293412
21
3.256960
0
LINE
8
Layer 1
10
103.293412
20
3.256960
11
104.208869
21
2.772773
0
LINE
8
Layer 1
10
104.208869
20
2.772773
11
104.634848
21
2.264774
0
LINE
8
Layer 1
10
104.634848
20
2.264774
11
104.775000
21
1.616550
0
LINE
8
Layer 1
10
104.775000
20
1.616550
11
104.775000
21
1.616550
0
LINE
8
Layer 1
10
106.148000
20
0.076674
11
106.148000
21
5.744040
0
LINE
8
Layer 1
10
106.148000
20
5.744040
11
107.074000
21
5.744040
0
LINE
8
Layer 1
10
107.074000
20
5.744040
11
107.074000
21
0.076674
0
LINE
8
Layer 1
10
107.074000
20
0.076674
11
106.148000
21
0.076674
0
LINE
8
Layer 1
10
106.148000
20
0.076674
11
106.148000
21
0.076674
0
LINE
8
Layer 1
10
113.562000
20
0.076674
11
112.427000
21
0.076674
0
LINE
8
Layer 1
10
112.427000
20
0.076674
11
109.638000
21
4.590460
0
LINE
8
Layer 1
10
109.638000
20
4.590460
11
109.606000
21
4.590460
0
LINE
8
Layer 1
10
109.606000
20
4.590460
11
109.624521
21
4.325877
0
LINE
8
Layer 1
10
109.624521
20
4.325877
11
109.680083
21
3.002957
0
LINE
8
Layer 1
10
109.680083
20
3.002957
11
109.680000
21
0.058153
0
LINE
8
Layer 1
10
109.680000
20
0.058153
11
108.839000
21
0.058153
0
LINE
8
Layer 1
10
108.839000
20
0.058153
11
108.839000
21
5.744040
0
LINE
8
Layer 1
10
108.839000
20
5.744040
11
109.963000
21
5.744040
0
LINE
8
Layer 1
10
109.963000
20
5.744040
11
112.741120
21
1.246130
0
LINE
8
Layer 1
10
112.741120
20
1.246130
11
112.765000
21
1.246130
0
LINE
8
Layer 1
10
112.765000
20
1.246130
11
112.733250
21
1.894358
0
LINE
8
Layer 1
10
112.733250
20
1.894358
11
112.709437
21
2.767482
0
LINE
8
Layer 1
10
112.709437
20
2.767482
11
112.710000
21
5.744040
0
LINE
8
Layer 1
10
112.710000
20
5.744040
11
113.559000
21
5.744040
0
LINE
8
Layer 1
10
113.559000
20
5.744040
11
113.559000
21
0.076674
0
LINE
8
Layer 1
10
113.559000
20
0.076674
11
113.562000
21
0.076674
0
LINE
8
Layer 1
10
114.895000
20
1.841440
11
114.895000
21
2.576980
0
LINE
8
Layer 1
10
114.895000
20
2.576980
11
118.229000
21
2.576980
0
LINE
8
Layer 1
10
118.229000
20
2.576980
11
118.229000
21
1.841440
0
LINE
8
Layer 1
10
118.229000
20
1.841440
11
114.895000
21
1.841440
0
LINE
8
Layer 1
10
114.895000
20
1.841440
11
114.895000
21
1.841440
0
LINE
8
Layer 1
10
122.015000
20
0.076674
11
120.371940
21
4.810064
0
LINE
8
Layer 1
10
120.371940
20
4.810064
11
120.340000
21
4.810060
0
LINE
8
Layer 1
10
120.340000
20
4.810060
11
120.406146
21
2.833620
0
LINE
8
Layer 1
10
120.406146
20
2.833620
11
120.406000
21
0.076674
0
LINE
8
Layer 1
10
120.406000
20
0.076674
11
119.565000
21
0.076674
0
LINE
8
Layer 1
10
119.565000
20
0.076674
11
119.565000
21
5.744040
0
LINE
8
Layer 1
10
119.565000
20
5.744040
11
120.869000
21
5.744040
0
LINE
8
Layer 1
10
120.869000
20
5.744040
11
122.443270
21
1.246130
0
LINE
8
Layer 1
10
122.443270
20
1.246130
11
122.468000
21
1.246130
0
LINE
8
Layer 1
10
122.468000
20
1.246130
11
124.087250
21
5.744040
0
LINE
8
Layer 1
10
124.087250
20
5.744040
11
125.410000
21
5.744040
0
LINE
8
Layer 1
10
125.410000
20
5.744040
11
125.410000
21
0.076674
0
LINE
8
Layer 1
10
125.410000
20
0.076674
11
124.518000
21
0.076674
0
LINE
8
Layer 1
10
124.518000
20
0.076674
11
124.518000
21
2.878610
0
LINE
8
Layer 1
10
124.518000
20
2.878610
11
124.539167
21
3.979280
0
LINE
8
Layer 1
10
124.539167
20
3.979280
11
124.576208
21
4.802133
0
LINE
8
Layer 1
10
124.576208
20
4.802133
11
124.545000
21
4.802130
0
LINE
8
Layer 1
10
124.545000
20
4.802130
11
122.843730
21
0.076680
0
LINE
8
Layer 1
10
122.843730
20
0.076680
11
122.026000
21
0.076674
0
LINE
8
Layer 1
10
122.026000
20
0.076674
11
122.015000
21
0.076674
0
LINE
8
Layer 1
10
130.675000
20
0.076674
11
130.108792
21
1.650944
0
LINE
8
Layer 1
10
130.108792
20
1.650944
11
127.942000
21
1.650940
0
LINE
8
Layer 1
10
127.942000
20
1.650940
11
127.386376
21
0.076670
0
LINE
8
Layer 1
10
127.386376
20
0.076670
11
126.410000
21
0.076674
0
LINE
8
Layer 1
10
126.410000
20
0.076674
11
128.526660
21
5.765204
0
LINE
8
Layer 1
10
128.526660
20
5.765204
11
129.535000
21
5.765210
0
LINE
8
Layer 1
10
129.535000
20
5.765210
11
131.651660
21
0.076680
0
LINE
8
Layer 1
10
131.651660
20
0.076680
11
130.667000
21
0.076674
0
LINE
8
Layer 1
10
130.667000
20
0.076674
11
130.675000
21
0.076674
0
LINE
8
Layer 1
10
129.865376
20
2.457924
11
129.336210
21
4.000444
0
LINE
8
Layer 1
10
129.336210
20
4.000444
11
129.174814
21
4.489923
0
LINE
8
Layer 1
10
129.174814
20
4.489923
11
129.034585
21
4.979402
0
LINE
8
Layer 1
10
129.034585
20
4.979402
11
128.730315
21
3.936942
0
LINE
8
Layer 1
10
128.730315
20
3.936942
11
128.219670
21
2.460572
0
LINE
8
Layer 1
10
128.219670
20
2.460572
11
129.871000
21
2.460570
0
LINE
8
Layer 1
10
129.871000
20
2.460570
11
129.865376
21
2.457924
0
LINE
8
Layer 1
10
137.287000
20
2.965920
11
137.091870
21
1.728333
0
LINE
8
Layer 1
10
137.091870
20
1.728333
11
136.506480
21
0.820150
0
LINE
8
Layer 1
10
136.506480
20
0.820150
11
135.555305
21
0.262540
0
LINE
8
Layer 1
10
135.555305
20
0.262540
11
134.262820
21
0.076672
0
LINE
8
Layer 1
10
134.262820
20
0.076672
11
132.675000
21
0.076674
0
LINE
8
Layer 1
10
132.675000
20
0.076674
11
132.675000
21
5.744040
0
LINE
8
Layer 1
10
132.675000
20
5.744040
11
134.427000
21
5.744040
0
LINE
8
Layer 1
10
134.427000
20
5.744040
11
135.633495
21
5.562139
0
LINE
8
Layer 1
10
135.633495
20
5.562139
11
136.543660
21
5.016437
0
LINE
8
Layer 1
10
136.543660
20
5.016437
11
137.110495
21
4.140006
0
LINE
8
Layer 1
10
137.110495
20
4.140006
11
137.287000
21
2.965920
0
LINE
8
Layer 1
10
137.287000
20
2.965920
11
137.287000
21
2.965920
0
LINE
8
Layer 1
10
136.310689
20
2.934170
11
136.191626
21
3.824325
0
LINE
8
Layer 1
10
136.191626
20
3.824325
11
135.834439
21
4.460150
0
LINE
8
Layer 1
10
135.834439
20
4.460150
11
135.239126
21
4.841645
0
LINE
8
Layer 1
10
135.239126
20
4.841645
11
134.405689
21
4.968810
0
LINE
8
Layer 1
10
134.405689
20
4.968810
11
133.612000
21
4.968810
0
LINE
8
Layer 1
10
133.612000
20
4.968810
11
133.612000
21
0.857194
0
LINE
8
Layer 1
10
133.612000
20
0.857194
11
134.271000
21
0.857194
0
LINE
8
Layer 1
10
134.271000
20
0.857194
11
135.163500
21
0.987005
0
LINE
8
Layer 1
10
135.163500
20
0.987005
11
135.801000
21
1.376438
0
LINE
8
Layer 1
10
135.801000
20
1.376438
11
136.183500
21
2.025493
0
LINE
8
Layer 1
10
136.183500
20
2.025493
11
136.311000
21
2.934170
0
LINE
8
Layer 1
10
136.311000
20
2.934170
11
136.310689
21
2.934170
0
LINE
8
Layer 1
10
138.774000
20
0.076674
11
138.774000
21
5.744040
0
LINE
8
Layer 1
10
138.774000
20
5.744040
11
139.700000
21
5.744040
0
LINE
8
Layer 1
10
139.700000
20
5.744040
11
139.700000
21
0.076674
0
LINE
8
Layer 1
10
139.700000
20
0.076674
11
138.774000
21
0.076674
0
LINE
8
Layer 1
10
138.774000
20
0.076674
11
138.774000
21
0.076674
0
LINE
8
Layer 1
10
144.727000
20
1.616550
11
144.596786
21
0.957520
0
LINE
8
Layer 1
10
144.596786
20
0.957520
11
144.179313
21
0.431220
0
LINE
8
Layer 1
10
144.179313
20
0.431220
11
143.461783
21
0.087843
0
LINE
8
Layer 1
10
143.461783
20
0.087843
11
142.671193
21
-0.000050
0
LINE
8
Layer 1
10
142.671193
20
-0.000050
11
141.867153
21
0.060425
0
LINE
8
Layer 1
10
141.867153
20
0.060425
11
141.096923
21
0.298929
0
LINE
8
Layer 1
10
141.096923
20
0.298929
11
141.097000
21
1.174690
0
LINE
8
Layer 1
10
141.097000
20
1.174690
11
141.919853
21
0.888940
0
LINE
8
Layer 1
10
141.919853
20
0.888940
11
142.732123
21
0.783107
0
LINE
8
Layer 1
10
142.732123
20
0.783107
11
143.541747
21
0.992128
0
LINE
8
Layer 1
10
143.541747
20
0.992128
11
143.806330
21
1.553044
0
LINE
8
Layer 1
10
143.806330
20
1.553044
11
143.565559
21
2.082210
0
LINE
8
Layer 1
10
143.565559
20
2.082210
11
142.573373
21
2.611376
0
LINE
8
Layer 1
10
142.573373
20
2.611376
11
141.981758
21
2.900925
0
LINE
8
Layer 1
10
141.981758
20
2.900925
11
141.480643
21
3.328396
0
LINE
8
Layer 1
10
141.480643
20
3.328396
11
141.238551
21
3.785258
0
LINE
8
Layer 1
10
141.238551
20
3.785258
11
141.163143
21
4.296770
0
LINE
8
Layer 1
10
141.163143
20
4.296770
11
141.281724
21
4.914819
0
LINE
8
Layer 1
10
141.281724
20
4.914819
11
141.665851
21
5.413310
0
LINE
8
Layer 1
10
141.665851
20
5.413310
11
142.307711
21
5.734965
0
LINE
8
Layer 1
10
142.307711
20
5.734965
11
143.020511
21
5.820768
0
LINE
8
Layer 1
10
143.020511
20
5.820768
11
143.848999
21
5.727685
0
LINE
8
Layer 1
10
143.848999
20
5.727685
11
144.639761
21
5.463581
0
LINE
8
Layer 1
10
144.639761
20
5.463581
11
144.346074
21
4.706874
0
LINE
8
Layer 1
10
144.346074
20
4.706874
11
142.996704
21
5.024374
0
LINE
8
Layer 1
10
142.996704
20
5.024374
11
142.314080
21
4.828583
0
LINE
8
Layer 1
10
142.314080
20
4.828583
11
142.081247
21
4.299417
0
LINE
8
Layer 1
10
142.081247
20
4.299417
11
142.173851
21
3.921063
0
LINE
8
Layer 1
10
142.173851
20
3.921063
11
142.478121
21
3.624730
0
LINE
8
Layer 1
10
142.478121
20
3.624730
11
143.245412
21
3.256960
0
LINE
8
Layer 1
10
143.245412
20
3.256960
11
144.160869
21
2.772773
0
LINE
8
Layer 1
10
144.160869
20
2.772773
11
144.586848
21
2.264774
0
LINE
8
Layer 1
10
144.586848
20
2.264774
11
144.727000
21
1.616550
0
LINE
8
Layer 1
10
144.727000
20
1.616550
11
144.727000
21
1.616550
0
LINE
8
Layer 1
10
151.130000
20
2.918300
11
150.957359
21
1.688650
0
LINE
8
Layer 1
10
150.957359
20
1.688650
11
150.439438
21
0.767240
0
LINE
8
Layer 1
10
150.439438
20
0.767240
11
149.543756
21
0.167431
0
LINE
8
Layer 1
10
149.543756
20
0.167431
11
148.478878
21
-0.000051
0
LINE
8
Layer 1
10
148.478878
20
-0.000051
11
147.345803
21
0.190449
0
LINE
8
Layer 1
10
147.345803
20
0.190449
11
146.507738
21
0.761948
0
LINE
8
Layer 1
10
146.507738
20
0.761948
11
145.990479
21
1.684020
0
LINE
8
Layer 1
10
145.990479
20
1.684020
11
145.819822
21
2.926238
0
LINE
8
Layer 1
10
145.819822
20
2.926238
11
145.992463
21
4.165810
0
LINE
8
Layer 1
10
145.992463
20
4.165810
11
146.510384
21
5.079948
0
LINE
8
Layer 1
10
146.510384
20
5.079948
11
147.349113
21
5.643512
0
LINE
8
Layer 1
10
147.349113
20
5.643512
11
148.484174
21
5.831364
0
LINE
8
Layer 1
10
148.484174
20
5.831364
11
149.544716
21
5.664140
0
LINE
8
Layer 1
10
149.544716
20
5.664140
11
150.436794
21
5.066719
0
LINE
8
Layer 1
10
150.436794
20
5.066719
11
150.956698
21
4.148610
0
LINE
8
Layer 1
10
150.956698
20
4.148610
11
151.130000
21
2.918300
0
LINE
8
Layer 1
10
151.130000
20
2.918300
11
151.130000
21
2.918300
0
LINE
8
Layer 1
10
146.804070
20
2.918300
11
146.883544
21
2.089299
0
LINE
8
Layer 1
10
146.883544
20
2.089299
11
147.227403
21
1.330800
0
LINE
8
Layer 1
10
147.227403
20
1.330800
11
147.796224
21
0.932600
0
LINE
8
Layer 1
10
147.796224
20
0.932600
11
148.476233
21
0.792216
0
LINE
8
Layer 1
10
148.476233
20
0.792216
11
149.156242
21
0.932600
0
LINE
8
Layer 1
10
149.156242
20
0.932600
11
149.725063
21
1.330800
0
LINE
8
Layer 1
10
149.725063
20
1.330800
11
150.040578
21
1.992258
0
LINE
8
Layer 1
10
150.040578
20
1.992258
11
150.145750
21
2.918300
0
LINE
8
Layer 1
10
150.145750
20
2.918300
11
150.068516
21
3.746754
0
LINE
8
Layer 1
10
150.068516
20
3.746754
11
149.727709
21
4.505800
0
LINE
8
Layer 1
10
149.727709
20
4.505800
11
149.171366
21
4.920701
0
LINE
8
Layer 1
10
149.171366
20
4.920701
11
148.486819
21
5.034966
0
LINE
8
Layer 1
10
148.486819
20
5.034966
11
147.794961
21
4.921132
0
LINE
8
Layer 1
10
147.794961
20
4.921132
11
147.230049
21
4.505800
0
LINE
8
Layer 1
10
147.230049
20
4.505800
11
146.883445
21
3.747900
0
LINE
8
Layer 1
10
146.883445
20
3.747900
11
146.804000
21
2.918300
0
LINE
8
Layer 1
10
146.804000
20
2.918300
11
146.804070
21
2.918300
0
LINE
8
Layer 1
10
157.337000
20
0.076674
11
156.202000
21
0.076674
0
LINE
8
Layer 1
10
156.202000
20
0.076674
11
153.413000
21
4.590460
0
LINE
8
Layer 1
10
153.413000
20
4.590460
11
153.381000
21
4.590460
0
LINE
8
Layer 1
10
153.381000
20
4.590460
11
153.402167
21
4.325877
0
LINE
8
Layer 1
10
153.402167
20
4.325877
11
153.457729
21
3.002957
0
LINE
8
Layer 1
10
153.457729
20
3.002957
11
153.458000
21
0.058153
0
LINE
8
Layer 1
10
153.458000
20
0.058153
11
152.617000
21
0.058153
0
LINE
8
Layer 1
10
152.617000
20
0.058153
11
152.617000
21
5.744040
0
LINE
8
Layer 1
10
152.617000
20
5.744040
11
153.741000
21
5.744040
0
LINE
8
Layer 1
10
153.741000
20
5.744040
11
156.521770
21
1.246130
0
LINE
8
Layer 1
10
156.521770
20
1.246130
11
156.546000
21
1.246130
0
LINE
8
Layer 1
10
156.546000
20
1.246130
11
156.514250
21
1.894358
0
LINE
8
Layer 1
10
156.514250
20
1.894358
11
156.490438
21
2.767482
0
LINE
8
Layer 1
10
156.490438
20
2.767482
11
156.490000
21
5.744040
0
LINE
8
Layer 1
10
156.490000
20
5.744040
11
157.340000
21
5.744040
0
LINE
8
Layer 1
10
157.340000
20
5.744040
11
157.340000
21
0.076674
0
LINE
8
Layer 1
10
157.340000
20
0.076674
11
157.337000
21
0.076674
 0 
ENDSEC
 0 
EOF